%TF.GenerationSoftware,Altium Limited,Altium Designer,23.1.1 (15)*%
G04 Layer_Color=65535*
%FSLAX45Y45*%
%MOMM*%
%TF.SameCoordinates,06D7CB19-584F-49B0-A036-24662F40C1B1*%
%TF.FilePolarity,Positive*%
%TF.FileFunction,Legend,Top*%
%TF.Part,Single*%
G01*
G75*
%TA.AperFunction,NonConductor*%
%ADD96C,0.20000*%
%ADD97C,0.23000*%
%ADD98C,0.25000*%
%ADD99R,3.70840X2.66700*%
D96*
X1140985Y-17304613D02*
G03*
X1140985Y-17304613I-12500J0D01*
G01*
X1080702Y-17057124D02*
G03*
X1080702Y-17057124I-30000J0D01*
G01*
X9624795Y-10186135D02*
G03*
X9624795Y-10186135I-508000J0D01*
G01*
X10171965Y-11254005D02*
G03*
X10171965Y-11254005I-508000J0D01*
G01*
X9394802Y-12413302D02*
G03*
X10118665Y-12399972I358798J176815D01*
G01*
X10116178Y-12067556D02*
G03*
X9395845Y-12057570I-362578J-168930D01*
G01*
X4903335Y-14208760D02*
G03*
X4903335Y-14208760I-610000J0D01*
G01*
X4826735D02*
G03*
X4826735Y-14208760I-177800J0D01*
G01*
X5427129Y-12598259D02*
G03*
X5518710Y-12689840I91581J0D01*
G01*
X6058610D02*
G03*
X6150191Y-12598259I0J91581D01*
G01*
X6150610Y-12121440D02*
G03*
X6059029Y-12029859I-91581J0D01*
G01*
X5518710Y-12029440D02*
G03*
X5427129Y-12121021I0J-91581D01*
G01*
X2596521Y-10287000D02*
G03*
X2596521Y-10287000I-12500J0D01*
G01*
X6899220Y-14196060D02*
G03*
X6899220Y-14196060I-440000J0D01*
G01*
X8148320Y-14958061D02*
G03*
X8148320Y-15085062I0J-63500D01*
G01*
X9933940Y-15951199D02*
G03*
X9933940Y-16078200I0J-63500D01*
G01*
X8859520Y-16080740D02*
G03*
X8859520Y-15953740I0J63500D01*
G01*
X9946639Y-17134840D02*
G03*
X9946639Y-17134840I-508000J0D01*
G01*
X1243361Y-12943840D02*
G03*
X1243361Y-12943840I-12500J0D01*
G01*
X3310088Y-13221532D02*
G03*
X3367830Y-13163789I28871J28871D01*
G01*
X3125221Y-13352077D02*
G03*
X3125221Y-13352077I-12500J0D01*
G01*
X5293780Y-17241521D02*
G03*
X5293780Y-17241521I-450000J0D01*
G01*
X2020810Y-16910817D02*
G03*
X2246649Y-17128906I114822J-107074D01*
G01*
X2691552Y-16682452D02*
G03*
X2467154Y-16465755I-114091J106391D01*
G01*
X3247661Y-15126472D02*
G03*
X3356049Y-15016106I144309J-33316D01*
G01*
X3068681Y-14944264D02*
G03*
X3248286Y-15123869I143684J-35921D01*
G01*
X3356049Y-15016106D02*
G03*
X3176444Y-14836501I-143684J35921D01*
G01*
X3174751Y-14800580D02*
G03*
X3174751Y-14800580I-141991J0D01*
G01*
X128938Y-17182150D02*
G03*
X123973Y-17185219I-8980J8980D01*
G01*
X-357883Y-14403198D02*
G03*
X-203200Y-14401801I78484J-125600D01*
G01*
X-355600Y-14147800D02*
G03*
X-355600Y-14401801I76200J-127000D01*
G01*
X-203200D02*
G03*
X-203200Y-14147800I-76200J127000D01*
G01*
X-137409Y-14020799D02*
G03*
X-137409Y-14020799I-141991J0D01*
G01*
X-66961Y-13396037D02*
G03*
X-58154Y-13405000I-166718J-172642D01*
G01*
X605231Y-12301221D02*
G03*
X696812Y-12209640I0J91581D01*
G01*
X-26669Y-12209220D02*
G03*
X64911Y-12300801I91581J0D01*
G01*
X65331Y-11640820D02*
G03*
X-26250Y-11732401I0J-91581D01*
G01*
X696812D02*
G03*
X605231Y-11640820I-91581J0D01*
G01*
X-497578Y-10875289D02*
G03*
X-504961Y-10875581I-6324J66408D01*
G01*
X-493017Y-10074199D02*
G03*
X-493983Y-10074353I-10886J65318D01*
G01*
X1050701Y-17198547D02*
X2358852Y-15890398D01*
X-257445Y-15890398D02*
X1050701Y-14582253D01*
X-257445Y-15890398D02*
X1050701Y-17198547D01*
Y-14582253D02*
X2358852Y-15890398D01*
X3222056Y-16604102D02*
X3289373Y-16536784D01*
X3396853Y-16644264D01*
X3329607Y-16711510D02*
X3396853Y-16644264D01*
X3052492Y-16773665D02*
X3119808Y-16706348D01*
X3052492Y-16773665D02*
X3159972Y-16881145D01*
X3227218Y-16813899D01*
X1553938Y-18114360D02*
X1553939Y-18209560D01*
X1401939D02*
X1553939D01*
X1401939D02*
Y-18114461D01*
X1553938Y-17874561D02*
X1553939Y-17969760D01*
X1401939Y-17874561D02*
X1553938D01*
X1401939Y-17969659D02*
Y-17874561D01*
X1379220Y-18236400D02*
X1379220Y-18331599D01*
X1227220D02*
X1379220D01*
X1227220D02*
Y-18236501D01*
X1379220Y-17996600D02*
X1379220Y-18091800D01*
X1227220Y-17996600D02*
X1379220D01*
X1227220Y-18091701D02*
Y-17996600D01*
X1201420Y-18114360D02*
X1201420Y-18209560D01*
X1049420D02*
X1201420D01*
X1049420D02*
Y-18114461D01*
X1201420Y-17874561D02*
X1201420Y-17969760D01*
X1049420Y-17874561D02*
X1201420D01*
X1049420Y-17969659D02*
Y-17874561D01*
X1021080Y-18328940D02*
Y-18233740D01*
X869080Y-18328940D02*
X1021080D01*
X869080D02*
Y-18233839D01*
X1021080Y-18089140D02*
Y-17993941D01*
X869080Y-17993941D02*
X1021080Y-17993941D01*
X869080Y-18089040D02*
Y-17993941D01*
X843280Y-18209560D02*
Y-18114360D01*
X691280Y-18209560D02*
X843280D01*
X691280D02*
Y-18114461D01*
X843280Y-17969760D02*
Y-17874561D01*
X691280Y-17874561D02*
X843280Y-17874561D01*
X691280Y-17969659D02*
Y-17874561D01*
X665480Y-18329060D02*
Y-18233859D01*
X513480Y-18329060D02*
X665480D01*
X513480D02*
Y-18233960D01*
X665480Y-18089259D02*
Y-17994060D01*
X513480Y-17994060D02*
X665480Y-17994060D01*
X513480Y-18089160D02*
Y-17994060D01*
X6700220Y-12529820D02*
X6795420D01*
X6700220D02*
Y-12377820D01*
X6795320D01*
X6940020Y-12529820D02*
X7035220D01*
Y-12377820D01*
X6940120Y-12377820D02*
X7035220Y-12377820D01*
X6700221Y-12346940D02*
X6795420D01*
X6700220Y-12194940D02*
X6700221Y-12346940D01*
X6700220Y-12194940D02*
X6795320D01*
X6940020Y-12346940D02*
X7035220Y-12346940D01*
X7035220Y-12194940D02*
X7035220Y-12346940D01*
X6940120Y-12194940D02*
X7035220D01*
X6700220Y-12164060D02*
X6795420Y-12164060D01*
X6700220Y-12164060D02*
Y-12012060D01*
X6795320D01*
X6940020Y-12164060D02*
X7035220Y-12164060D01*
Y-12012060D01*
X6940120D02*
X7035220D01*
X9476005Y-10545345D02*
X9655610Y-10724950D01*
X9476005D02*
X9655610Y-10545345D01*
X10023175Y-11613215D02*
X10202780Y-11792820D01*
X10023175D02*
X10202780Y-11613215D01*
X8862060Y-11521440D02*
Y-11330940D01*
X9116060Y-11521440D02*
Y-11330940D01*
Y-11927840D02*
Y-11737340D01*
X8862060Y-11927840D02*
Y-11737340D01*
Y-11330940D02*
X9116060D01*
X8862060Y-11927840D02*
X9116060D01*
X8557260Y-11516360D02*
Y-11325860D01*
X8811260Y-11516360D02*
Y-11325860D01*
Y-11922760D02*
Y-11732260D01*
X8557260Y-11922760D02*
Y-11732260D01*
Y-11325860D02*
X8811260D01*
X8557260Y-11922760D02*
X8811260D01*
X9298940Y-12600940D02*
Y-12397740D01*
X9019540Y-12600940D02*
Y-12397740D01*
X9298940Y-12169140D02*
Y-11965940D01*
X9019540Y-12169140D02*
Y-11965940D01*
Y-12600940D02*
X9298940D01*
X9019540Y-11965940D02*
X9298940D01*
X9090660Y-12354560D02*
X9225280D01*
X10118665Y-12066398D02*
X10118665Y-12399971D01*
X9395845Y-12057570D02*
X9395845Y-12412259D01*
X9519919Y-14274800D02*
X10027919D01*
X9519919D02*
Y-13208000D01*
X10027919D01*
Y-14274800D02*
Y-13208000D01*
X9519919Y-13385800D02*
X10025379D01*
X9773878Y-14274800D02*
X9773879Y-14411960D01*
X9773919Y-13195300D02*
Y-13055600D01*
X1619147Y-13870508D02*
X1798752Y-14050113D01*
X1197075Y-14292580D02*
X1376680Y-14472185D01*
X1664048Y-14184818D02*
X1798752Y-14050113D01*
X1484443Y-14005212D02*
X1619147Y-13870508D01*
X1197075Y-14292580D02*
X1331779Y-14157877D01*
X1376680Y-14472185D02*
X1511384Y-14337482D01*
X3115780Y-13962379D02*
X3210980D01*
Y-14114378D02*
Y-13962379D01*
X3115880Y-14114378D02*
X3210980D01*
X2875980Y-13962379D02*
X2971180D01*
X2875980Y-14114378D02*
Y-13962379D01*
Y-14114378D02*
X2971080D01*
X3113240Y-14180820D02*
X3208440Y-14180820D01*
X3208440Y-14332820D01*
X3113340D02*
X3208440D01*
X2873440Y-14180820D02*
X2968640Y-14180820D01*
X2873440Y-14332820D02*
X2873440Y-14180820D01*
X2873440Y-14332820D02*
X2968540D01*
X3522980Y-14173199D02*
X3573780D01*
X3421380Y-14401801D02*
X3434080D01*
X3281680Y-14173199D02*
X3332480D01*
X3573780Y-14287500D02*
Y-14173199D01*
X3281680Y-14287500D02*
Y-14173199D01*
X5283200Y-13231160D02*
Y-13135960D01*
X5131200Y-13231160D02*
X5283200D01*
X5131200D02*
Y-13136060D01*
X5283200Y-12991360D02*
Y-12896159D01*
X5131200Y-12896159D02*
X5283200Y-12896159D01*
X5131200Y-12991260D02*
Y-12896159D01*
X5311140Y-12990480D02*
Y-12895280D01*
X5463140D01*
Y-12990379D02*
Y-12895280D01*
X5311140Y-13230280D02*
Y-13135080D01*
Y-13230280D02*
X5463140D01*
Y-13135181D01*
X5491480Y-12990359D02*
Y-12895160D01*
X5643480D01*
Y-12990260D02*
Y-12895160D01*
X5491480Y-13230161D02*
Y-13134959D01*
Y-13230161D02*
X5643480D01*
Y-13135060D01*
X5963158Y-12804140D02*
Y-12778740D01*
X5798058Y-12804140D02*
Y-12778740D01*
Y-13070840D02*
Y-13045441D01*
Y-13070840D02*
X5963158D01*
Y-13045441D01*
X5798058Y-12778740D02*
X5963158D01*
X6662420Y-12950540D02*
X6662420Y-13045740D01*
X6510420D02*
X6662420D01*
X6510420D02*
Y-12950639D01*
X6662420Y-12710740D02*
X6662420Y-12805940D01*
X6510420Y-12710740D02*
X6662420D01*
X6510420Y-12805840D02*
Y-12710740D01*
X6479540Y-13045740D02*
Y-12950540D01*
X6327540Y-13045740D02*
X6479540D01*
X6327540D02*
Y-12950639D01*
X6479540Y-12805940D02*
Y-12710740D01*
X6327540Y-12710740D02*
X6479540Y-12710740D01*
X6327540Y-12805840D02*
Y-12710740D01*
X6299200Y-13045740D02*
Y-12950540D01*
X6147200Y-13045740D02*
X6299200D01*
X6147200D02*
Y-12950639D01*
X6299200Y-12805940D02*
Y-12710740D01*
X6147200Y-12710740D02*
X6299200Y-12710740D01*
X6147200Y-12805840D02*
Y-12710740D01*
X7185661Y-12880341D02*
X7231380Y-12926060D01*
X7185661Y-12880341D02*
Y-11899900D01*
X7239001Y-11846560D01*
X8407400Y-11846560D01*
X8496301Y-11935460D01*
Y-12837160D02*
Y-11935460D01*
X8407400Y-12926060D02*
X8496301Y-12837160D01*
X7231380Y-12926060D02*
X8407400D01*
X6326840Y-12529820D02*
X6422040D01*
X6326840D02*
Y-12377820D01*
X6421940D01*
X6566640Y-12529820D02*
X6661840D01*
Y-12377820D01*
X6566740D02*
X6661840D01*
X6326840Y-12349480D02*
X6422040D01*
X6326840D02*
X6326840Y-12197480D01*
X6421939D01*
X6566640Y-12349480D02*
X6661840D01*
Y-12197480D01*
X6566740D02*
X6661840D01*
X6329260Y-12164060D02*
X6424460D01*
X6329260D02*
X6329260Y-12012060D01*
X6424360D01*
X6569060Y-12164060D02*
X6664260D01*
Y-12012060D01*
X6569160D02*
X6664260D01*
X6634480Y-10226040D02*
Y-10137140D01*
X6583680Y-10226040D02*
X6634480D01*
X6583680D02*
X6583680Y-10137140D01*
X7409180Y-10226040D02*
X7409180Y-10137140D01*
X7409180Y-10226040D02*
X7459980D01*
Y-10137140D01*
X6583680Y-9654540D02*
X7459980D01*
X7459980Y-10137140D02*
Y-10048240D01*
X7459980Y-9654540D02*
X7459980Y-9684703D01*
Y-9718040D02*
Y-9684703D01*
X6583680Y-10137140D02*
Y-10048240D01*
X6583680Y-9718040D02*
Y-9654540D01*
X7307580Y-10137140D02*
X7459980D01*
X6583680Y-10137140D02*
X6736080D01*
X5750560Y-10740390D02*
X6187440D01*
X5567680Y-10453370D02*
Y-9909810D01*
X6370320Y-10453370D02*
Y-9907270D01*
X5707380Y-9660890D02*
X6230620D01*
X5717540Y-9851390D02*
X6220460D01*
X5969000Y-10420350D02*
Y-9851390D01*
X5966460Y-9772650D02*
Y-9732010D01*
X6187440Y-10453370D02*
X6370320D01*
X6187440Y-10740390D02*
Y-10453370D01*
X5567680D02*
X5750560D01*
Y-10740390D02*
Y-10453370D01*
X5719160Y-11567160D02*
X5814360D01*
Y-11719160D02*
Y-11567160D01*
X5719260Y-11719160D02*
X5814360D01*
X5479360Y-11567160D02*
X5574560D01*
X5479360Y-11719160D02*
X5479360Y-11567160D01*
X5479360Y-11719160D02*
X5574460D01*
X5719280Y-11389360D02*
X5814480Y-11389360D01*
Y-11541360D02*
Y-11389360D01*
X5719380Y-11541360D02*
X5814480D01*
X5479480Y-11389360D02*
X5574680Y-11389360D01*
X5479480Y-11541360D02*
Y-11389360D01*
Y-11541360D02*
X5574580D01*
X5481020Y-11363960D02*
X5576220D01*
X5481020D02*
Y-11211960D01*
X5576120D01*
X5720820Y-11363960D02*
X5816020D01*
X5816020Y-11211960D01*
X5720920D02*
X5816020D01*
X5719280Y-11033760D02*
X5814480D01*
Y-11185760D02*
Y-11033760D01*
X5719380Y-11185760D02*
X5814480D01*
X5479480Y-11033760D02*
X5574680D01*
X5479480Y-11185760D02*
Y-11033760D01*
Y-11185760D02*
X5574580D01*
X5719160Y-10858500D02*
X5814360D01*
Y-11010500D02*
Y-10858500D01*
X5719260Y-11010500D02*
X5814360D01*
X5479360Y-10858500D02*
X5574560D01*
X5479360Y-11010500D02*
X5479360Y-10858500D01*
X5479360Y-11010500D02*
X5574460D01*
X5684520Y-11922760D02*
Y-11788140D01*
X6035040Y-11963400D02*
Y-11750040D01*
X5483860Y-11963400D02*
Y-11750040D01*
X5869940D02*
X6035040D01*
X5869940Y-11963400D02*
X6035040D01*
X5483860Y-11750040D02*
X5641340D01*
X5483860Y-11963400D02*
X5641340D01*
X5518710Y-12689840D02*
X6058610D01*
X5518710Y-12029440D02*
X6058826Y-12029440D01*
X6150610Y-12598259D02*
Y-12527280D01*
Y-12194540D02*
Y-12121224D01*
X5426710Y-12597840D02*
Y-12524740D01*
Y-12194540D02*
Y-12121021D01*
X4602480Y-12542520D02*
Y-12377420D01*
X4815840Y-12542520D02*
Y-12377420D01*
X4602480Y-12809219D02*
Y-12644120D01*
X4815840Y-12809219D02*
Y-12644120D01*
X4602480Y-12377420D02*
X4815840D01*
X4602480Y-12809219D02*
X4815840D01*
X5021580Y-12395200D02*
X5021580Y-12192000D01*
X5300980Y-12395200D02*
Y-12192000D01*
X5021580Y-12623800D02*
X5021580Y-12827000D01*
X5300980Y-12827000D02*
Y-12623800D01*
X5021580Y-12192000D02*
X5300980Y-12192000D01*
X5021580Y-12827000D02*
X5300980Y-12827000D01*
X5095240Y-12438380D02*
X5229860Y-12438380D01*
X5127340Y-11757660D02*
X5222540D01*
Y-11909660D02*
Y-11757660D01*
X5127440Y-11909660D02*
X5222540D01*
X4887540Y-11757660D02*
X4982740D01*
X4887540Y-11909660D02*
X4887540Y-11757660D01*
X4887540Y-11909660D02*
X4982640D01*
X4935220Y-11460480D02*
Y-11409680D01*
X5163820Y-11562080D02*
Y-11549380D01*
X4935220Y-11701780D02*
Y-11650980D01*
Y-11409680D02*
X5049520D01*
X4935220Y-11701780D02*
X5049520D01*
X5119720Y-11214100D02*
X5214920D01*
Y-11366100D02*
Y-11214100D01*
X5119820Y-11366100D02*
X5214920D01*
X4879920Y-11214100D02*
X4975120D01*
X4879920Y-11366100D02*
X4879920Y-11214100D01*
X4879920Y-11366100D02*
X4975020D01*
X5119720Y-11036300D02*
X5214920D01*
Y-11188300D02*
Y-11036300D01*
X5119820Y-11188300D02*
X5214920D01*
X4879920Y-11036300D02*
X4975120D01*
X4879920Y-11188300D02*
X4879920Y-11036300D01*
X4879920Y-11188300D02*
X4975020D01*
X5119720Y-10855960D02*
X5214920D01*
Y-11007960D02*
Y-10855960D01*
X5119820Y-11007960D02*
X5214920D01*
X4879920Y-10855960D02*
X4975120D01*
X4879920Y-11007960D02*
X4879920Y-10855960D01*
X4879920Y-11007960D02*
X4975020D01*
X5119720Y-10675620D02*
X5214920D01*
Y-10827620D02*
Y-10675620D01*
X5119820Y-10827620D02*
X5214920D01*
X4879920Y-10675620D02*
X4975120D01*
X4879920Y-10827620D02*
X4879920Y-10675620D01*
X4879920Y-10827620D02*
X4975020D01*
X5119720Y-10497820D02*
X5214920D01*
Y-10649820D02*
Y-10497820D01*
X5119820Y-10649820D02*
X5214920D01*
X4879920Y-10497820D02*
X4975120D01*
X4879920Y-10649820D02*
X4879920Y-10497820D01*
X4879920Y-10649820D02*
X4975020D01*
X3855720Y-11213180D02*
X3855720Y-11308380D01*
X3703720D02*
X3855720D01*
X3703720D02*
Y-11213280D01*
X3855720Y-10973380D02*
X3855720Y-11068580D01*
X3703720Y-10973380D02*
X3855720D01*
X3703720Y-11068480D02*
Y-10973380D01*
X4142740Y-11034180D02*
X4193540D01*
X4041140Y-11262780D02*
X4053840D01*
X3901440Y-11034180D02*
X3952240D01*
X4193540Y-11148480D02*
Y-11034180D01*
X3901440Y-11148480D02*
Y-11034180D01*
X4163060Y-11658600D02*
Y-11607800D01*
X3934460Y-11518900D02*
Y-11506200D01*
X4163060Y-11417300D02*
Y-11366500D01*
X4048760Y-11658600D02*
X4163060D01*
X4048760Y-11366500D02*
X4163060D01*
X3705860Y-11461400D02*
Y-11366200D01*
X3857860D01*
Y-11461300D02*
Y-11366200D01*
X3705860Y-11701200D02*
Y-11606000D01*
Y-11701200D02*
X3857860D01*
Y-11606100D01*
X3675380Y-11310920D02*
Y-11215720D01*
X3523380Y-11310920D02*
X3675380D01*
X3523380D02*
Y-11215820D01*
X3675380Y-11071120D02*
Y-10975920D01*
X3523380Y-10975920D02*
X3675380Y-10975920D01*
X3523380Y-11071020D02*
Y-10975920D01*
X3667760Y-11930380D02*
Y-11765280D01*
X3401060Y-11930380D02*
Y-11765280D01*
X3667760Y-11536680D02*
Y-11363960D01*
X3401060Y-11536680D02*
Y-11363960D01*
Y-11930380D02*
X3667760D01*
X3401060Y-11363960D02*
X3667760D01*
X3467100Y-11722100D02*
X3601720D01*
X3725880Y-11907520D02*
X3821080D01*
X3725880D02*
Y-11755520D01*
X3820980D01*
X3965680Y-11907520D02*
X4060880D01*
X4060880Y-11755520D01*
X3965780D02*
X4060880D01*
X4477720Y-11996820D02*
Y-11946020D01*
X4249120Y-11857120D02*
Y-11844420D01*
X4477720Y-11755520D02*
Y-11704720D01*
X4363420Y-11996820D02*
X4477720D01*
X4363420Y-11704720D02*
X4477720D01*
X4822540Y-11948160D02*
X4917740D01*
Y-12100160D02*
Y-11948160D01*
X4822640Y-12100160D02*
X4917740D01*
X4582740Y-11948160D02*
X4677940D01*
X4582740Y-12100160D02*
X4582740Y-11948160D01*
X4582740Y-12100160D02*
X4677840D01*
X4686300Y-11566740D02*
X4686300Y-11661940D01*
X4686300Y-11566740D02*
X4838300D01*
Y-11661840D02*
Y-11566740D01*
X4686300Y-11806540D02*
X4686300Y-11901740D01*
X4838300D01*
Y-11806640D01*
X4261820Y-11620500D02*
X4357020D01*
X4261820D02*
Y-11468500D01*
X4356920D01*
X4501620Y-11620500D02*
X4596820D01*
X4596820Y-11468500D01*
X4501720D02*
X4596820D01*
X4259280Y-11440160D02*
X4354480D01*
X4259280D02*
Y-11288160D01*
X4354380D01*
X4499080Y-11440160D02*
X4594280D01*
X4594280Y-11288160D01*
X4499180D02*
X4594280D01*
X4259280Y-11191240D02*
X4354480D01*
X4259280D02*
Y-11039240D01*
X4354380D01*
X4499080Y-11191240D02*
X4594280D01*
X4594280Y-11039240D01*
X4499180D02*
X4594280D01*
X4259160Y-11010900D02*
X4354360D01*
X4259160D02*
Y-10858900D01*
X4354260D01*
X4498960Y-11010900D02*
X4594160D01*
Y-10858900D01*
X4499060D02*
X4594160D01*
X4497540Y-10678160D02*
X4592740D01*
Y-10830160D02*
Y-10678160D01*
X4497640Y-10830160D02*
X4592740D01*
X4257740Y-10678160D02*
X4352940D01*
X4257740Y-10830160D02*
Y-10678160D01*
Y-10830160D02*
X4352840D01*
X3652520Y-10876280D02*
X3817620D01*
X3652520Y-10609580D02*
X3817620D01*
X4046220Y-10876280D02*
X4218940D01*
X4046220Y-10609580D02*
X4218940D01*
X3652520Y-10876280D02*
Y-10609580D01*
X4218940Y-10876280D02*
Y-10609580D01*
X3860800Y-10810240D02*
Y-10675620D01*
X190080Y-11544300D02*
X285280Y-11544300D01*
X190080Y-11544300D02*
Y-11392300D01*
X285180D01*
X429880Y-11544300D02*
X525080Y-11544300D01*
Y-11392300D01*
X429980D02*
X525080D01*
X1579668Y-12137415D02*
X1646984Y-12070099D01*
X1472188Y-12029935D02*
X1579668Y-12137415D01*
X1472188Y-12029935D02*
X1539433Y-11962689D01*
X1749232Y-11967851D02*
X1816549Y-11900534D01*
X1709068Y-11793054D02*
X1816549Y-11900534D01*
X1641822Y-11860300D02*
X1709068Y-11793054D01*
X1450267Y-12008934D02*
X1517584Y-11941617D01*
X1342787Y-11901453D02*
X1450267Y-12008934D01*
X1342787Y-11901453D02*
X1410033Y-11834208D01*
X1619832Y-11839370D02*
X1687148Y-11772053D01*
X1579668Y-11664573D02*
X1687148Y-11772053D01*
X1512422Y-11731819D02*
X1579668Y-11664573D01*
X837044Y-11871887D02*
X904361Y-11939204D01*
X837044Y-11871887D02*
X944524Y-11764407D01*
X1011770Y-11831653D01*
X1006608Y-12041451D02*
X1073925Y-12108768D01*
X1181405Y-12001288D01*
X1114159Y-11934042D02*
X1181405Y-12001288D01*
X953884Y-11752507D02*
X1021201Y-11819824D01*
X953884Y-11752507D02*
X1061364Y-11645027D01*
X1128610Y-11712273D01*
X1123448Y-11922072D02*
X1190765Y-11989388D01*
X1298245Y-11881908D01*
X1230999Y-11814662D02*
X1298245Y-11881908D01*
X1394376Y-11753025D02*
X1412337Y-11770985D01*
X1511119Y-11636281D02*
X1529080Y-11654242D01*
X1322534Y-11447696D02*
X1340494Y-11465657D01*
X1205791Y-11564440D02*
X1322534Y-11447696D01*
X1205791Y-11564440D02*
X1223751Y-11582400D01*
X1412337Y-11770985D02*
X1529080Y-11654242D01*
X1600386Y-11447836D02*
X1667703Y-11515152D01*
X1600386Y-11447836D02*
X1707867Y-11340356D01*
X1775112Y-11407602D01*
X1769950Y-11617400D02*
X1837267Y-11684717D01*
X1944747Y-11577237D01*
X1877501Y-11509991D02*
X1944747Y-11577237D01*
X1719748Y-11328475D02*
X1787064Y-11395791D01*
X1719748Y-11328475D02*
X1827228Y-11220994D01*
X1894474Y-11288240D01*
X1889312Y-11498039D02*
X1956629Y-11565355D01*
X2064109Y-11457875D01*
X1996863Y-11390629D02*
X2064109Y-11457875D01*
X2315560Y-10485120D02*
X2410760D01*
Y-10637120D02*
Y-10485120D01*
X2315660Y-10637120D02*
X2410760D01*
X2075760Y-10485120D02*
X2170960D01*
X2075760Y-10637120D02*
X2075760Y-10485120D01*
X2075760Y-10637120D02*
X2170860D01*
X1014820Y-11481425D02*
X1158504Y-11337742D01*
X817254Y-11283860D02*
X960939Y-11140176D01*
X1320149Y-11176097D02*
X1463833Y-11032413D01*
X1122583Y-10978531D02*
X1266267Y-10834847D01*
X817254Y-11283860D02*
X1014820Y-11481425D01*
X1266267Y-10834847D02*
X1463833Y-11032413D01*
X1041761Y-11159932D02*
X1136951Y-11255123D01*
X5159019Y-10222001D02*
X5284023Y-10222002D01*
Y-10175301D01*
Y-9870501D02*
Y-9661997D01*
X2474021Y-10222001D02*
Y-10175301D01*
Y-9661997D02*
X5282920D01*
X2474021Y-9870501D02*
Y-9661997D01*
Y-10222001D02*
X2599024Y-10222001D01*
X2200860Y-9659620D02*
X2200860Y-9964420D01*
X1883360D02*
X2200860D01*
X1883360D02*
X1883360Y-10205720D01*
X1103580Y-10205720D02*
X1883360Y-10205720D01*
X786080Y-9659620D02*
X2200860D01*
X1103580Y-9964420D02*
X1103580Y-10205720D01*
X786080Y-9964420D02*
X1103580D01*
X786080D02*
Y-9659620D01*
X8503920Y-14533459D02*
X8503920Y-14628661D01*
X8503920Y-14533459D02*
X8655920D01*
Y-14628560D02*
Y-14533459D01*
X8503920Y-14773260D02*
X8503920Y-14868460D01*
X8655920D01*
Y-14773360D01*
X8303260Y-14533459D02*
X8303260Y-14628661D01*
X8303260Y-14533459D02*
X8455260D01*
Y-14628560D02*
Y-14533459D01*
X8303260Y-14773260D02*
X8303260Y-14868460D01*
X8455260D01*
Y-14773360D01*
X8501380Y-14155000D02*
X8501380Y-14250200D01*
X8501380Y-14155000D02*
X8653380D01*
Y-14250101D02*
Y-14155000D01*
X8501380Y-14394800D02*
X8501380Y-14489999D01*
X8653380D01*
Y-14394901D01*
X8303260Y-14155000D02*
X8303260Y-14250200D01*
X8303260Y-14155000D02*
X8455260D01*
Y-14250101D02*
Y-14155000D01*
X8303260Y-14394800D02*
X8303260Y-14489999D01*
X8455260D01*
Y-14394901D01*
X7177120Y-14221460D02*
X7272320D01*
Y-14373460D02*
Y-14221460D01*
X7177220Y-14373460D02*
X7272320D01*
X6937320Y-14221460D02*
X7032520D01*
X6937320Y-14373460D02*
Y-14221460D01*
Y-14373460D02*
X7032420D01*
X7177120Y-14041119D02*
X7272320D01*
Y-14193120D02*
Y-14041119D01*
X7177220Y-14193120D02*
X7272320D01*
X6937320Y-14041119D02*
X7032520D01*
X6937320Y-14193120D02*
Y-14041119D01*
Y-14193120D02*
X7032420D01*
X8147400Y-14257021D02*
X8242600D01*
Y-14409019D02*
Y-14257021D01*
X8147500Y-14409019D02*
X8242600D01*
X7907600Y-14257021D02*
X8002800D01*
X7907600Y-14409019D02*
Y-14257021D01*
Y-14409019D02*
X8002700D01*
X7909260Y-14229080D02*
X8004460D01*
X7909260D02*
Y-14077080D01*
X8004360D01*
X8149060Y-14229080D02*
X8244260D01*
Y-14077080D01*
X8149160D02*
X8244260D01*
X7909260Y-14051280D02*
X8004460D01*
X7909260D02*
Y-13899280D01*
X8004360D01*
X8149060Y-14051280D02*
X8244260D01*
Y-13899280D01*
X8149160D02*
X8244260D01*
X4256620Y-10650220D02*
X4351820Y-10650220D01*
X4256620Y-10650220D02*
Y-10498220D01*
X4351720D01*
X4496420Y-10650220D02*
X4591620Y-10650220D01*
Y-10498220D01*
X4496520D02*
X4591620D01*
X2315560Y-10662920D02*
X2410760D01*
Y-10814920D02*
Y-10662920D01*
X2315660Y-10814920D02*
X2410760D01*
X2075760Y-10662920D02*
X2170960D01*
X2075760Y-10814920D02*
X2075760Y-10662920D01*
X2075760Y-10814920D02*
X2170860D01*
X986405Y-10256520D02*
X1081605Y-10256520D01*
Y-10408520D02*
Y-10256520D01*
X986505Y-10408520D02*
X1081605D01*
X746605Y-10256520D02*
X841805Y-10256520D01*
X746605Y-10408520D02*
Y-10256520D01*
Y-10408520D02*
X841705D01*
X1701380Y-10637520D02*
X1796580Y-10637520D01*
X1701380Y-10637520D02*
Y-10485520D01*
X1796480D01*
X1941180Y-10637520D02*
X2036380Y-10637520D01*
Y-10485520D01*
X1941280D02*
X2036380D01*
X1701380Y-10815320D02*
X1796580D01*
X1701380D02*
Y-10663320D01*
X1796480D01*
X1941180Y-10815320D02*
X2036380D01*
X2036380Y-10663320D01*
X1941280D02*
X2036380D01*
X1701380Y-10990580D02*
X1796580Y-10990580D01*
X1701380Y-10990580D02*
Y-10838580D01*
X1796480D01*
X1941180Y-10990580D02*
X2036380Y-10990580D01*
Y-10838580D01*
X1941280D02*
X2036380D01*
X1701380Y-11165840D02*
X1796580Y-11165840D01*
X1701380Y-11165840D02*
Y-11013840D01*
X1796480D01*
X1941180Y-11165840D02*
X2036380Y-11165840D01*
Y-11013840D01*
X1941280D02*
X2036380D01*
X-660399Y-11696700D02*
X-469899D01*
X-660399Y-11442700D02*
X-469899D01*
X-253999D02*
X-63499D01*
X-253999Y-11696700D02*
X-63499D01*
X-660399Y-11696700D02*
Y-11442700D01*
X-63499Y-11696700D02*
X-63499Y-11442700D01*
X7901940Y-10246360D02*
X7901940Y-11084560D01*
X7901940Y-10246360D02*
X7940040Y-10208260D01*
X8524240Y-10208260D01*
X8562340Y-10246360D01*
Y-11084560D02*
Y-10246360D01*
X7901940Y-11084560D02*
X8562340D01*
X7965440Y-10182860D02*
Y-10132060D01*
X8041640D01*
Y-10208260D02*
Y-10132060D01*
X8422640Y-10208260D02*
Y-10132060D01*
X8498840D01*
Y-10182859D02*
Y-10132060D01*
Y-10182859D02*
X8524240Y-10208260D01*
X7940040Y-10208260D02*
X7965440Y-10182860D01*
X8168640Y-10208260D02*
Y-10093960D01*
X8295640Y-10093960D01*
Y-10208260D02*
Y-10093960D01*
X6830060Y-11191240D02*
X7084060D01*
X6830060Y-11788140D02*
X7084060D01*
X7084060Y-11381740D02*
X7084060Y-11191240D01*
X6830060D02*
X6830060Y-11381740D01*
X6830060Y-11788140D02*
Y-11597640D01*
X7084060Y-11788140D02*
Y-11597640D01*
X7401559Y-11615420D02*
X7592059D01*
X7134860D02*
X7160260D01*
X7134860D02*
Y-10878820D01*
X7846060D01*
Y-11615420D02*
Y-10878820D01*
X7820660Y-11615420D02*
X7846060D01*
X7896860Y-11193780D02*
X8150860Y-11193780D01*
X7896860Y-11790680D02*
X8150860D01*
X8150860Y-11384280D02*
Y-11193780D01*
X7896860Y-11384280D02*
Y-11193780D01*
Y-11790680D02*
Y-11600180D01*
X8150860Y-11790680D02*
Y-11600180D01*
X7586980Y-10231120D02*
X7840980D01*
X7586980Y-10828020D02*
X7840980D01*
Y-10421620D02*
Y-10231120D01*
X7586980Y-10421620D02*
Y-10231120D01*
Y-10828020D02*
Y-10637520D01*
X7840980Y-10828020D02*
Y-10637520D01*
X6332220Y-13561060D02*
X6586220D01*
X6459220Y-13688060D02*
Y-13434059D01*
X6856105Y-14691360D02*
X8148320D01*
X6856105Y-15351761D02*
X8148320D01*
X6856105D02*
Y-14691360D01*
X8148320Y-15351761D02*
Y-15085062D01*
Y-14958061D02*
Y-14691360D01*
X8859520Y-15458440D02*
X9113520D01*
X8859520Y-14861540D02*
X9113520D01*
X8859520Y-15458440D02*
Y-15267940D01*
X9113520Y-15458440D02*
Y-15267940D01*
Y-15052040D02*
Y-14861540D01*
X8859520Y-15052040D02*
Y-14861540D01*
X9372600Y-14861540D02*
X9626600D01*
X9372600Y-15458440D02*
X9626600D01*
X9626600Y-15052040D02*
X9626600Y-14861540D01*
X9372600D02*
X9372600Y-15052040D01*
X9372600Y-15458440D02*
Y-15267940D01*
X9626600Y-15458440D02*
Y-15267940D01*
X9672320Y-14861540D02*
X9926320D01*
X9672320Y-15458440D02*
X9926320D01*
Y-15052040D02*
Y-14861540D01*
X9672320Y-15052040D02*
Y-14861540D01*
Y-15458440D02*
Y-15267940D01*
X9926320Y-15458440D02*
Y-15267940D01*
X9933940Y-15951199D02*
Y-15760699D01*
Y-16268700D02*
Y-16078200D01*
X9425940Y-16268700D02*
X9425940Y-15760699D01*
X9425940Y-16268700D02*
X9933940D01*
X9425940Y-15760699D02*
X9933940D01*
X8859520Y-16271240D02*
Y-16080740D01*
Y-15953740D02*
Y-15763240D01*
X9367520Y-16271240D02*
Y-15763240D01*
X8859520D02*
X9367520D01*
X8859520Y-16271240D02*
X9367520D01*
X7830820Y-15737840D02*
X8084820D01*
X7830820Y-16334740D02*
X8084820D01*
Y-15928340D02*
Y-15737840D01*
X7830820Y-15928340D02*
Y-15737840D01*
Y-16334740D02*
Y-16144240D01*
X8084820Y-16334740D02*
Y-16144240D01*
X8742680Y-15989301D02*
Y-15735300D01*
X8145780Y-15989301D02*
Y-15735300D01*
X8552180Y-15989301D02*
X8742680D01*
X8552180Y-15735300D02*
X8742680D01*
X8145780D02*
X8336280D01*
X8145780Y-15989301D02*
X8336280D01*
X8145780Y-16037560D02*
X8145780Y-16291560D01*
X8742680Y-16037560D02*
X8742680Y-16291560D01*
X8145780Y-16037560D02*
X8336280Y-16037560D01*
X8145780Y-16291560D02*
X8336280D01*
X8552180Y-16291560D02*
X8742680Y-16291560D01*
X8552180Y-16037560D02*
X8742680D01*
X7637779Y-16332201D02*
Y-16217900D01*
X7345679Y-16332201D02*
Y-16217900D01*
X7586979Y-16332201D02*
X7637779Y-16332201D01*
X7485379Y-16103600D02*
X7498079D01*
X7345679Y-16332201D02*
X7396479Y-16332201D01*
X7785100Y-15991840D02*
Y-15737840D01*
X7188200Y-15991840D02*
Y-15737840D01*
X7594600Y-15991840D02*
X7785100D01*
X7594600Y-15737840D02*
X7785100D01*
X7188200D02*
X7378700D01*
X7188200Y-15991840D02*
X7378700D01*
X6883400Y-16332201D02*
X7137400Y-16332201D01*
X6883400Y-15735300D02*
X7137400D01*
X6883400Y-16332201D02*
Y-16141701D01*
X7137400Y-16332201D02*
Y-16141701D01*
X7137400Y-15925800D02*
Y-15735300D01*
X6883400Y-15925800D02*
Y-15735300D01*
X6830060Y-15986760D02*
Y-15732761D01*
X6233160Y-15986760D02*
Y-15732761D01*
X6639560Y-15986760D02*
X6830060D01*
X6639560Y-15732761D02*
X6830060D01*
X6233160D02*
X6423660D01*
X6233160Y-15986760D02*
X6423660D01*
X6830060Y-16291560D02*
Y-16037560D01*
X6233160Y-16291560D02*
Y-16037560D01*
X6639560Y-16291560D02*
X6830060D01*
X6639560Y-16037560D02*
X6830060D01*
X6233160D02*
X6423660D01*
X6233160Y-16291560D02*
X6423660D01*
X6832600Y-16596359D02*
Y-16342360D01*
X6235700Y-16596359D02*
Y-16342360D01*
X6642100Y-16596359D02*
X6832600D01*
X6642100Y-16342360D02*
X6832600D01*
X6235700D02*
X6426200D01*
X6235700Y-16596359D02*
X6426200D01*
X6629400Y-16911320D02*
X6629400Y-16657321D01*
X7226300Y-16911320D02*
X7226300Y-16657321D01*
X6629400D02*
X6819900D01*
X6629400Y-16911320D02*
X6819900Y-16911320D01*
X7035800Y-16911320D02*
X7226300D01*
X7035800Y-16657321D02*
X7226300Y-16657321D01*
X7279640Y-16609061D02*
X7533640D01*
X7279640Y-17205960D02*
X7533640D01*
Y-16799561D02*
Y-16609061D01*
X7279640Y-16799561D02*
Y-16609061D01*
Y-17205960D02*
Y-17015460D01*
X7533640Y-17205960D02*
Y-17015460D01*
Y-16609061D02*
X7787640D01*
X7533640Y-17205960D02*
X7787640D01*
Y-16799561D02*
Y-16609061D01*
X7533640Y-16799561D02*
Y-16609061D01*
Y-17205960D02*
Y-17015460D01*
X7787640Y-17205960D02*
Y-17015460D01*
X7937500Y-17203419D02*
X8191500D01*
X7937500Y-16606520D02*
X8191500D01*
X7937500Y-17203419D02*
Y-17012920D01*
X8191500Y-17203419D02*
Y-17012920D01*
Y-16797020D02*
Y-16606520D01*
X7937500Y-16797020D02*
Y-16606520D01*
X9311639Y-17769839D02*
X9565639D01*
X9438639Y-17896840D02*
Y-17642841D01*
X8239760Y-17205960D02*
X8493760D01*
X8239760Y-16609061D02*
X8493760D01*
X8239760Y-17205960D02*
Y-17015460D01*
X8493760Y-17205960D02*
Y-17015460D01*
Y-16799561D02*
Y-16609061D01*
X8239760Y-16799561D02*
Y-16609061D01*
X8544560Y-17205960D02*
X8798560Y-17205960D01*
X8544560Y-16609061D02*
X8798560D01*
X8544560Y-17205960D02*
X8544560Y-17015460D01*
X8798560Y-17205960D02*
Y-17015460D01*
X8798560Y-16799561D02*
Y-16609061D01*
X8544560Y-16799561D02*
Y-16609061D01*
X7654422Y-17399001D02*
Y-17284702D01*
X7756022Y-17653001D02*
Y-17284702D01*
X7857622Y-17399001D02*
Y-17272002D01*
X7959222Y-17653001D02*
Y-17284702D01*
X8060822Y-17399001D02*
Y-17284702D01*
X8162422Y-17653001D02*
Y-17284702D01*
X8264022D02*
X8264022Y-17399001D01*
X8365622Y-17653001D02*
Y-17284702D01*
X7565522Y-18643600D02*
Y-18491200D01*
X8479922Y-18630901D02*
Y-18491200D01*
X8175122Y-18643600D02*
Y-18491200D01*
X7870322Y-18503902D02*
X7870322Y-18630901D01*
X7705222Y-18643600D02*
Y-18491200D01*
X8327522Y-18643600D02*
Y-18503902D01*
X8010022Y-18491200D02*
X8010022Y-18630901D01*
X7286122Y-18491200D02*
X8772022D01*
X8632322Y-18630901D02*
Y-17272002D01*
X7413122Y-18630901D02*
Y-17272002D01*
X7324222Y-18008601D02*
X8772022Y-18008601D01*
X7272020D02*
X7273422Y-18007199D01*
X7273422Y-17272002D02*
X7273422Y-18007199D01*
X7273422Y-17272002D02*
X8772022D01*
Y-18008601D02*
Y-17272002D01*
X7273422Y-18643600D02*
Y-18010004D01*
Y-18643600D02*
X8772022D01*
X8772022Y-18008601D02*
X8772022Y-18643600D01*
X1120862Y-12878841D02*
X1245865Y-12878841D01*
X1120862Y-12527341D02*
Y-12318837D01*
X3430865Y-12527341D02*
Y-12318837D01*
X1120862D02*
X3430865D01*
Y-12878841D02*
Y-12832141D01*
X1120862Y-12878841D02*
Y-12832141D01*
X3305861Y-12878841D02*
X3430865Y-12878841D01*
X3423811Y-13107806D02*
X3777369Y-13461360D01*
X3254103Y-13277510D02*
X3607661Y-13631068D01*
X3777369Y-13461360D01*
X3367829Y-13163789D02*
X3423811Y-13107806D01*
X3254103Y-13277510D02*
X3310090Y-13221529D01*
X4272697Y-13520848D02*
X4452302Y-13341243D01*
X3850625Y-13098776D02*
X4030230Y-12919171D01*
X4137993Y-13386143D02*
X4272697Y-13520848D01*
X4317598Y-13206538D02*
X4452302Y-13341243D01*
X4030230Y-12919171D02*
X4164934Y-13053876D01*
X3850625Y-13098776D02*
X3985329Y-13233479D01*
X3914306Y-13405618D02*
X3981622Y-13338301D01*
X4089102Y-13445781D01*
X4021857Y-13513026D02*
X4089102Y-13445781D01*
X3744741Y-13575182D02*
X3812058Y-13507864D01*
X3744741Y-13575182D02*
X3852221Y-13682661D01*
X3919467Y-13615416D01*
X3653509Y-13674846D02*
X3720825Y-13607530D01*
X3828306Y-13715010D01*
X3761060Y-13782256D02*
X3828306Y-13715010D01*
X3483945Y-13844411D02*
X3551261Y-13777094D01*
X3483945Y-13844411D02*
X3591425Y-13951891D01*
X3658670Y-13884645D01*
X4716780Y-16606520D02*
X4970780D01*
X4843780Y-16733521D02*
Y-16479520D01*
X3982720Y-17541240D02*
X4236720Y-17541240D01*
X3982720Y-16944341D02*
X4236720D01*
X3982720Y-17541240D02*
Y-17350740D01*
X4236720Y-17541240D02*
Y-17350740D01*
X4236720Y-17134840D02*
Y-16944341D01*
X3982720Y-17134840D02*
Y-16944341D01*
X3931920Y-17518381D02*
Y-17264380D01*
X3335020Y-17518381D02*
Y-17264380D01*
X3741420Y-17518381D02*
X3931920D01*
X3741420Y-17264380D02*
X3931920D01*
X3335020D02*
X3525520D01*
X3335020Y-17518381D02*
X3525520D01*
X2259561Y-16897556D02*
X2448146Y-16708971D01*
X2022482Y-16908331D02*
X2464311Y-16466502D01*
X2250580Y-17125655D02*
X2694205Y-16682030D01*
X1907892Y-16952126D02*
X1975137Y-16884880D01*
X1800411Y-16844646D02*
X1907892Y-16952126D01*
X1800411Y-16844646D02*
X1867728Y-16777328D01*
X2077527Y-16782491D02*
X2144772Y-16715245D01*
X2037292Y-16607765D02*
X2144772Y-16715245D01*
X1969976Y-16675081D02*
X2037292Y-16607765D01*
X2641479Y-17131096D02*
X2708796Y-17198413D01*
X2601316Y-17305893D02*
X2708796Y-17198413D01*
X2534070Y-17238647D02*
X2601316Y-17305893D01*
X2471915Y-16961533D02*
X2539232Y-17028848D01*
X2364435Y-17069012D02*
X2471915Y-16961533D01*
X2364435Y-17069012D02*
X2431681Y-17136258D01*
X2776239Y-16996616D02*
X2843555Y-17063931D01*
X2736075Y-17171413D02*
X2843555Y-17063931D01*
X2668829Y-17104167D02*
X2736075Y-17171413D01*
X2606674Y-16827051D02*
X2673991Y-16894368D01*
X2499194Y-16934532D02*
X2606674Y-16827051D01*
X2499194Y-16934532D02*
X2566440Y-17001778D01*
X2719136Y-16106261D02*
X2786453Y-16038943D01*
X2893933Y-16146425D01*
X2826688Y-16213670D02*
X2893933Y-16146425D01*
X2549572Y-16275826D02*
X2616888Y-16208508D01*
X2549572Y-16275826D02*
X2657052Y-16383305D01*
X2724298Y-16316058D01*
X3097596Y-16479642D02*
X3164913Y-16412325D01*
X3272393Y-16519804D01*
X3205147Y-16587050D02*
X3272393Y-16519804D01*
X2928032Y-16649205D02*
X2995348Y-16581888D01*
X2928032Y-16649205D02*
X3035512Y-16756685D01*
X3102758Y-16689439D01*
X2968056Y-16355180D02*
X3035373Y-16287865D01*
X3142853Y-16395345D01*
X3075607Y-16462590D02*
X3142853Y-16395345D01*
X2798492Y-16524745D02*
X2865809Y-16457430D01*
X2798492Y-16524745D02*
X2905972Y-16632227D01*
X2973218Y-16564980D01*
X2614527Y-15313147D02*
X2681773Y-15245901D01*
X2789253Y-15353381D01*
X2721936Y-15420699D02*
X2789253Y-15353381D01*
X2444892Y-15482784D02*
X2512137Y-15415536D01*
X2444892Y-15482784D02*
X2552372Y-15590263D01*
X2619688Y-15522946D01*
X2337070Y-15087315D02*
X2404316Y-15154562D01*
X2296835Y-15262042D02*
X2404316Y-15154562D01*
X2229519Y-15194727D02*
X2296835Y-15262042D01*
X2167435Y-14917680D02*
X2234681Y-14984927D01*
X2059955Y-15025162D02*
X2167435Y-14917680D01*
X2059955Y-15025162D02*
X2127271Y-15092477D01*
X882080Y-14271860D02*
X977180D01*
X882080D02*
Y-14119859D01*
X977280Y-14119859D01*
X1121980Y-14271860D02*
X1217080D01*
Y-14119859D01*
X1121880Y-14119859D02*
X1217080Y-14119859D01*
X884620Y-17657680D02*
X979720D01*
X884620D02*
Y-17505679D01*
X979820Y-17505679D01*
X1124520Y-17657680D02*
X1219620D01*
Y-17505679D01*
X1124420Y-17505679D02*
X1219620Y-17505679D01*
X81160Y-17976917D02*
X148476Y-18044234D01*
X40995Y-18151714D02*
X148476Y-18044234D01*
X-26250Y-18084467D02*
X40995Y-18151714D01*
X-88405Y-17807352D02*
X-21089Y-17874669D01*
X-195885Y-17914832D02*
X-88405Y-17807352D01*
X-195885Y-17914832D02*
X-128640Y-17982079D01*
X439208Y-17425694D02*
X506524Y-17358379D01*
X331728Y-17318214D02*
X439208Y-17425694D01*
X331728Y-17318214D02*
X398973Y-17250969D01*
X608772Y-17256131D02*
X676089Y-17188814D01*
X568608Y-17081334D02*
X676089Y-17188814D01*
X501362Y-17148579D02*
X568608Y-17081334D01*
X-176390Y-17649126D02*
X110978Y-17936493D01*
X479168Y-17568301D01*
X191800Y-17280934D02*
X479168Y-17568301D01*
X-176390Y-17649126D02*
X191800Y-17280934D01*
X-223686Y-16596712D02*
X-156440Y-16663959D01*
X-223686Y-16596712D02*
X-116206Y-16489230D01*
X-48889Y-16556548D01*
X-54051Y-16766347D02*
X13195Y-16833592D01*
X120675Y-16726112D01*
X53359Y-16658797D02*
X120675Y-16726112D01*
X-715880Y-15818280D02*
Y-15723180D01*
X-563880Y-15723180D01*
Y-15818381D02*
Y-15723180D01*
X-715880Y-16058180D02*
Y-15963080D01*
Y-16058180D02*
X-563880D01*
Y-15962981D01*
X-599440Y-14983459D02*
X-345440D01*
X-599440Y-15580360D02*
X-345440D01*
Y-15173959D02*
Y-14983459D01*
X-599440Y-15173959D02*
Y-14983459D01*
Y-15580360D02*
Y-15389861D01*
X-345440Y-15580360D02*
Y-15389861D01*
X112882Y-14715121D02*
X180128Y-14647874D01*
X287608Y-14755354D01*
X220292Y-14822672D02*
X287608Y-14755354D01*
X-56753Y-14884756D02*
X10493Y-14817509D01*
X-56753Y-14884756D02*
X50727Y-14992236D01*
X118044Y-14924919D01*
X53341Y-13568680D02*
X180341Y-13568680D01*
X119381Y-13627100D02*
Y-13505180D01*
X-81279Y-13055600D02*
X76201D01*
X-81279Y-13268961D02*
X76201D01*
X-474979Y-13055600D02*
X-309879D01*
X-474979Y-13268961D02*
X-309879D01*
X76201D02*
Y-13055600D01*
X-474979Y-13268961D02*
X-474979Y-13055600D01*
X-124459Y-13230859D02*
Y-13096240D01*
X-516889Y-12992101D02*
X-516889Y-12738100D01*
X80011Y-12992101D02*
Y-12738100D01*
X-516889Y-12738100D02*
X-326389D01*
X-516889Y-12992101D02*
X-326389D01*
X-110489D02*
X80011D01*
X-110489Y-12738100D02*
X80011Y-12738100D01*
X530861Y-12773660D02*
X665481Y-12773660D01*
X459741Y-12385040D02*
X739141Y-12385040D01*
X459741Y-13020039D02*
X739141Y-13020039D01*
X459741Y-12588240D02*
Y-12385040D01*
X739141Y-12385040D02*
X739141Y-12588240D01*
X459741Y-12816840D02*
X459741Y-13020039D01*
X739141Y-13020039D02*
X739141Y-12816840D01*
X160021Y-12405360D02*
X414021D01*
X160021Y-13002260D02*
X414021D01*
Y-12595860D02*
Y-12405360D01*
X160021Y-12595860D02*
Y-12405360D01*
Y-13002260D02*
X160021Y-12811760D01*
X414021Y-13002260D02*
Y-12811760D01*
X-507999Y-12672060D02*
Y-12418060D01*
X88901Y-12672060D02*
Y-12418060D01*
X-507999D02*
X-317499D01*
X-507999Y-12672060D02*
X-317499D01*
X-101599Y-12672060D02*
X88901Y-12672060D01*
X-101599Y-12418060D02*
X88901D01*
X-825499Y-12070080D02*
X-571499D01*
X-825499Y-12666980D02*
X-571499D01*
Y-12260580D02*
Y-12070080D01*
X-825499Y-12260580D02*
Y-12070080D01*
Y-12666980D02*
Y-12476480D01*
X-571499Y-12666980D02*
Y-12476480D01*
X-477519Y-11879580D02*
X-452119D01*
X-477519Y-12044680D02*
X-452119Y-12044680D01*
X-210819Y-12044680D02*
X-185419Y-12044680D01*
Y-11879580D01*
X-210819Y-11879580D02*
X-185419Y-11879580D01*
X-477519D02*
X-477519Y-12044680D01*
X697231Y-12209638D02*
Y-12136120D01*
Y-11805920D02*
Y-11732819D01*
X-26669Y-12209435D02*
Y-12136120D01*
Y-11803380D02*
Y-11732402D01*
X65116Y-12301220D02*
X605232D01*
X65330Y-11640820D02*
X605232Y-11640820D01*
X573095Y-9727881D02*
X598099D01*
X-323901D02*
X393095D01*
X-876905Y-9726880D02*
X-824901D01*
X-803900Y-9727880D02*
X-803900Y-10778882D01*
X-873902Y-10879883D02*
X-803900Y-10778882D01*
X-873902Y-11277880D02*
X-873902Y-10879883D01*
X598099Y-9775882D02*
Y-9727881D01*
Y-11277880D02*
X598099Y-10785882D01*
X-803900Y-9727880D02*
X-604901D01*
X-873902Y-11277880D02*
X-603900D01*
X-331902D02*
X411099D01*
X580095D02*
X598099D01*
X3931920Y-17213580D02*
Y-16959579D01*
X3335020D02*
X3335020Y-17213580D01*
X3741420Y-17213580D02*
X3931920Y-17213580D01*
X3741420Y-16959579D02*
X3931920D01*
X3335020D02*
X3525520D01*
X3335020Y-17213580D02*
X3525520Y-17213580D01*
X2843596Y-16228181D02*
X2910913Y-16160864D01*
X3018393Y-16268344D01*
X2951147Y-16335590D02*
X3018393Y-16268344D01*
X2674032Y-16397745D02*
X2741348Y-16330428D01*
X2674032Y-16397745D02*
X2781512Y-16505225D01*
X2848758Y-16437979D01*
X2284936Y-16367741D02*
X2352252Y-16300426D01*
X2459732Y-16407906D01*
X2392487Y-16475151D02*
X2459732Y-16407906D01*
X2115371Y-16537306D02*
X2182688Y-16469989D01*
X2115371Y-16537306D02*
X2222852Y-16644786D01*
X2290097Y-16577541D01*
X3416300Y-16380460D02*
Y-16189960D01*
X3670300Y-16380460D02*
Y-16189960D01*
Y-16786861D02*
Y-16596359D01*
X3416300Y-16786861D02*
Y-16596359D01*
Y-16189960D02*
X3670300D01*
X3416300Y-16786861D02*
X3670300D01*
X5195921Y-10372109D02*
Y-10419718D01*
X5238769Y-10424479D01*
X5234009Y-10419718D01*
X5229248Y-10405436D01*
Y-10391153D01*
X5234009Y-10376870D01*
X5243530Y-10367349D01*
X5257813Y-10362588D01*
X5267335D01*
X5281617Y-10367349D01*
X5291139Y-10376870D01*
X5295900Y-10391153D01*
Y-10405436D01*
X5291139Y-10419718D01*
X5286378Y-10424479D01*
X5276856Y-10429240D01*
X5195921Y-10311646D02*
X5200682Y-10325929D01*
X5214965Y-10335450D01*
X5238769Y-10340211D01*
X5253052D01*
X5276856Y-10335450D01*
X5291139Y-10325929D01*
X5295900Y-10311646D01*
Y-10302124D01*
X5291139Y-10287842D01*
X5276856Y-10278320D01*
X5253052Y-10273559D01*
X5238769D01*
X5214965Y-10278320D01*
X5200682Y-10287842D01*
X5195921Y-10302124D01*
Y-10311646D01*
X1169126Y-13032739D02*
X1164365Y-13023218D01*
X1150083Y-13008936D01*
X1250061D01*
X3309083Y-13023232D02*
X3375735Y-13070840D01*
Y-12999426D01*
X3309083Y-13023232D02*
X3409062D01*
X3309083Y-12953246D02*
X3313844Y-12967529D01*
X3328126Y-12977049D01*
X3351931Y-12981812D01*
X3366213D01*
X3390018Y-12977049D01*
X3404301Y-12967529D01*
X3409062Y-12953246D01*
Y-12943724D01*
X3404301Y-12929442D01*
X3390018Y-12919920D01*
X3366213Y-12915160D01*
X3351931D01*
X3328126Y-12919920D01*
X3313844Y-12929442D01*
X3309083Y-12943724D01*
Y-12953246D01*
X3088046Y-11613691D02*
Y-11713669D01*
Y-11613691D02*
X3130894D01*
X3145177Y-11618451D01*
X3149937Y-11623212D01*
X3154698Y-11632734D01*
Y-11642256D01*
X3149937Y-11651778D01*
X3145177Y-11656539D01*
X3130894Y-11661300D01*
X3088046D01*
X3121372D02*
X3154698Y-11713669D01*
X3186596Y-11613691D02*
X3238966D01*
X3210401Y-11651778D01*
X3224683D01*
X3234205Y-11656539D01*
X3238966Y-11661300D01*
X3243727Y-11675582D01*
Y-11685104D01*
X3238966Y-11699387D01*
X3229444Y-11708908D01*
X3215161Y-11713669D01*
X3200879D01*
X3186596Y-11708908D01*
X3181835Y-11704148D01*
X3177074Y-11694626D01*
X3327994Y-11647017D02*
X3323234Y-11661300D01*
X3313712Y-11670821D01*
X3299429Y-11675582D01*
X3294668D01*
X3280386Y-11670821D01*
X3270864Y-11661300D01*
X3266103Y-11647017D01*
Y-11642256D01*
X3270864Y-11627973D01*
X3280386Y-11618451D01*
X3294668Y-11613691D01*
X3299429D01*
X3313712Y-11618451D01*
X3323234Y-11627973D01*
X3327994Y-11647017D01*
Y-11670821D01*
X3323234Y-11694626D01*
X3313712Y-11708908D01*
X3299429Y-11713669D01*
X3289907D01*
X3275625Y-11708908D01*
X3270864Y-11699387D01*
X4629826Y-10706911D02*
Y-10806889D01*
Y-10706911D02*
X4672674D01*
X4686957Y-10711671D01*
X4691717Y-10716432D01*
X4696478Y-10725954D01*
Y-10735476D01*
X4691717Y-10744998D01*
X4686957Y-10749759D01*
X4672674Y-10754520D01*
X4629826D01*
X4663152D02*
X4696478Y-10806889D01*
X4728376Y-10706911D02*
X4780746D01*
X4752181Y-10744998D01*
X4766463D01*
X4775985Y-10749759D01*
X4780746Y-10754520D01*
X4785507Y-10768802D01*
Y-10778324D01*
X4780746Y-10792607D01*
X4771224Y-10802128D01*
X4756941Y-10806889D01*
X4742659D01*
X4728376Y-10802128D01*
X4723615Y-10797368D01*
X4718854Y-10787846D01*
X4865014Y-10721193D02*
X4860253Y-10711671D01*
X4845970Y-10706911D01*
X4836448D01*
X4822166Y-10711671D01*
X4812644Y-10725954D01*
X4807883Y-10749759D01*
Y-10773563D01*
X4812644Y-10792607D01*
X4822166Y-10802128D01*
X4836448Y-10806889D01*
X4841209D01*
X4855492Y-10802128D01*
X4865014Y-10792607D01*
X4869774Y-10778324D01*
Y-10773563D01*
X4865014Y-10759280D01*
X4855492Y-10749759D01*
X4841209Y-10744998D01*
X4836448D01*
X4822166Y-10749759D01*
X4812644Y-10759280D01*
X4807883Y-10773563D01*
X4622365Y-10526571D02*
Y-10626549D01*
Y-10526571D02*
X4665213D01*
X4679496Y-10531331D01*
X4684257Y-10536092D01*
X4689018Y-10545614D01*
Y-10555136D01*
X4684257Y-10564658D01*
X4679496Y-10569419D01*
X4665213Y-10574180D01*
X4622365D01*
X4655692D02*
X4689018Y-10626549D01*
X4720916Y-10526571D02*
X4773285D01*
X4744720Y-10564658D01*
X4759003D01*
X4768525Y-10569419D01*
X4773285Y-10574180D01*
X4778046Y-10588462D01*
Y-10597984D01*
X4773285Y-10612267D01*
X4763764Y-10621788D01*
X4749481Y-10626549D01*
X4735198D01*
X4720916Y-10621788D01*
X4716155Y-10617028D01*
X4711394Y-10607506D01*
X4828988Y-10526571D02*
X4814705Y-10531331D01*
X4805183Y-10545614D01*
X4800422Y-10569419D01*
Y-10583701D01*
X4805183Y-10607506D01*
X4814705Y-10621788D01*
X4828988Y-10626549D01*
X4838509D01*
X4852792Y-10621788D01*
X4862314Y-10607506D01*
X4867075Y-10583701D01*
Y-10569419D01*
X4862314Y-10545614D01*
X4852792Y-10531331D01*
X4838509Y-10526571D01*
X4828988D01*
X5250721Y-10541648D02*
Y-10621632D01*
Y-10541648D02*
X5284999D01*
X5296425Y-10545457D01*
X5300234Y-10549266D01*
X5304042Y-10556883D01*
Y-10564501D01*
X5300234Y-10572118D01*
X5296425Y-10575927D01*
X5284999Y-10579736D01*
X5250721D01*
X5277382D02*
X5304042Y-10621632D01*
X5325752Y-10560692D02*
Y-10556883D01*
X5329561Y-10549266D01*
X5333370Y-10545457D01*
X5340987Y-10541648D01*
X5356222D01*
X5363839Y-10545457D01*
X5367648Y-10549266D01*
X5371457Y-10556883D01*
Y-10564501D01*
X5367648Y-10572118D01*
X5360030Y-10583544D01*
X5321943Y-10621632D01*
X5375265D01*
X5442679Y-10568310D02*
X5438871Y-10579736D01*
X5431253Y-10587353D01*
X5419827Y-10591162D01*
X5416019D01*
X5404592Y-10587353D01*
X5396975Y-10579736D01*
X5393166Y-10568310D01*
Y-10564501D01*
X5396975Y-10553075D01*
X5404592Y-10545457D01*
X5416019Y-10541648D01*
X5419827D01*
X5431253Y-10545457D01*
X5438871Y-10553075D01*
X5442679Y-10568310D01*
Y-10587353D01*
X5438871Y-10606397D01*
X5431253Y-10617823D01*
X5419827Y-10621632D01*
X5412210D01*
X5400784Y-10617823D01*
X5396975Y-10610205D01*
X4113628Y-10895190D02*
X4104106Y-10899951D01*
X4094584Y-10909472D01*
X4089824Y-10918994D01*
X4085063Y-10933277D01*
Y-10957081D01*
X4089824Y-10971364D01*
X4094584Y-10980886D01*
X4104106Y-10990408D01*
X4113628Y-10995169D01*
X4132672D01*
X4142193Y-10990408D01*
X4151715Y-10980886D01*
X4156476Y-10971364D01*
X4161237Y-10957081D01*
Y-10933277D01*
X4156476Y-10918994D01*
X4151715Y-10909472D01*
X4142193Y-10899951D01*
X4132672Y-10895190D01*
X4113628D01*
X4127911Y-10976125D02*
X4156476Y-11004690D01*
X4194087Y-10895190D02*
X4246457D01*
X4217891Y-10933277D01*
X4232174D01*
X4241696Y-10938038D01*
X4246457Y-10942799D01*
X4251218Y-10957081D01*
Y-10966603D01*
X4246457Y-10980886D01*
X4236935Y-10990408D01*
X4222652Y-10995169D01*
X4208370D01*
X4194087Y-10990408D01*
X4189326Y-10985647D01*
X4184565Y-10976125D01*
X2866488Y-11520030D02*
X2856966Y-11524791D01*
X2847444Y-11534312D01*
X2842684Y-11543834D01*
X2837923Y-11558117D01*
Y-11581921D01*
X2842684Y-11596204D01*
X2847444Y-11605726D01*
X2856966Y-11615248D01*
X2866488Y-11620009D01*
X2885532D01*
X2895053Y-11615248D01*
X2904575Y-11605726D01*
X2909336Y-11596204D01*
X2914097Y-11581921D01*
Y-11558117D01*
X2909336Y-11543834D01*
X2904575Y-11534312D01*
X2895053Y-11524791D01*
X2885532Y-11520030D01*
X2866488D01*
X2880771Y-11600965D02*
X2909336Y-11629530D01*
X2942186Y-11543834D02*
Y-11539073D01*
X2946947Y-11529552D01*
X2951708Y-11524791D01*
X2961230Y-11520030D01*
X2980273D01*
X2989795Y-11524791D01*
X2994556Y-11529552D01*
X2999317Y-11539073D01*
Y-11548595D01*
X2994556Y-11558117D01*
X2985034Y-11572400D01*
X2937425Y-11620009D01*
X3004078D01*
X4087600Y-12050170D02*
Y-12150149D01*
Y-12050170D02*
X4120926D01*
X4135209Y-12054931D01*
X4144731Y-12064453D01*
X4149492Y-12073975D01*
X4154253Y-12088258D01*
Y-12112062D01*
X4149492Y-12126345D01*
X4144731Y-12135867D01*
X4135209Y-12145388D01*
X4120926Y-12150149D01*
X4087600D01*
X4238520Y-12083497D02*
X4233759Y-12097779D01*
X4224238Y-12107301D01*
X4209955Y-12112062D01*
X4205194D01*
X4190911Y-12107301D01*
X4181390Y-12097779D01*
X4176629Y-12083497D01*
Y-12078736D01*
X4181390Y-12064453D01*
X4190911Y-12054931D01*
X4205194Y-12050170D01*
X4209955D01*
X4224238Y-12054931D01*
X4233759Y-12064453D01*
X4238520Y-12083497D01*
Y-12107301D01*
X4233759Y-12131106D01*
X4224238Y-12145388D01*
X4209955Y-12150149D01*
X4200433D01*
X4186150Y-12145388D01*
X4181390Y-12135867D01*
X5271563Y-11555189D02*
Y-11645170D01*
Y-11555189D02*
X5301557D01*
X5314412Y-11559474D01*
X5322981Y-11568044D01*
X5327266Y-11576613D01*
X5331551Y-11589468D01*
Y-11610892D01*
X5327266Y-11623746D01*
X5322981Y-11632316D01*
X5314412Y-11640886D01*
X5301557Y-11645170D01*
X5271563D01*
X5373113Y-11555189D02*
X5360259Y-11559474D01*
X5355974Y-11568044D01*
Y-11576613D01*
X5360259Y-11585183D01*
X5368828Y-11589468D01*
X5385968Y-11593753D01*
X5398822Y-11598038D01*
X5407392Y-11606607D01*
X5411677Y-11615177D01*
Y-11628031D01*
X5407392Y-11636601D01*
X5403107Y-11640886D01*
X5390253Y-11645170D01*
X5373113D01*
X5360259Y-11640886D01*
X5355974Y-11636601D01*
X5351689Y-11628031D01*
Y-11615177D01*
X5355974Y-11606607D01*
X5364544Y-11598038D01*
X5377398Y-11593753D01*
X5394537Y-11589468D01*
X5403107Y-11585183D01*
X5407392Y-11576613D01*
Y-11568044D01*
X5403107Y-11559474D01*
X5390253Y-11555189D01*
X5373113D01*
X5313736Y-11264193D02*
X5309451Y-11255624D01*
X5300882Y-11247054D01*
X5292312Y-11242769D01*
X5275173D01*
X5266603Y-11247054D01*
X5258034Y-11255624D01*
X5253749Y-11264193D01*
X5249464Y-11277048D01*
Y-11298472D01*
X5253749Y-11311326D01*
X5258034Y-11319896D01*
X5266603Y-11328466D01*
X5275173Y-11332750D01*
X5292312D01*
X5300882Y-11328466D01*
X5309451Y-11319896D01*
X5313736Y-11311326D01*
X5390434Y-11255624D02*
X5386149Y-11247054D01*
X5373295Y-11242769D01*
X5364725D01*
X5351871Y-11247054D01*
X5343301Y-11259909D01*
X5339017Y-11281333D01*
Y-11302757D01*
X5343301Y-11319896D01*
X5351871Y-11328466D01*
X5364725Y-11332750D01*
X5369010D01*
X5381865Y-11328466D01*
X5390434Y-11319896D01*
X5394719Y-11307041D01*
Y-11302757D01*
X5390434Y-11289902D01*
X5381865Y-11281333D01*
X5369010Y-11277048D01*
X5364725D01*
X5351871Y-11281333D01*
X5343301Y-11289902D01*
X5339017Y-11302757D01*
X5465846Y-11242769D02*
X5422999D01*
X5418714Y-11281333D01*
X5422999Y-11277048D01*
X5435853Y-11272763D01*
X5448707D01*
X5461562Y-11277048D01*
X5470131Y-11285618D01*
X5474416Y-11298472D01*
Y-11307041D01*
X5470131Y-11319896D01*
X5461562Y-11328466D01*
X5448707Y-11332750D01*
X5435853D01*
X5422999Y-11328466D01*
X5418714Y-11324181D01*
X5414429Y-11315611D01*
X5309054Y-11094013D02*
X5304769Y-11085444D01*
X5296199Y-11076874D01*
X5287630Y-11072589D01*
X5270491D01*
X5261921Y-11076874D01*
X5253351Y-11085444D01*
X5249066Y-11094013D01*
X5244782Y-11106868D01*
Y-11128292D01*
X5249066Y-11141146D01*
X5253351Y-11149716D01*
X5261921Y-11158286D01*
X5270491Y-11162570D01*
X5287630D01*
X5296199Y-11158286D01*
X5304769Y-11149716D01*
X5309054Y-11141146D01*
X5385751Y-11085444D02*
X5381467Y-11076874D01*
X5368612Y-11072589D01*
X5360043D01*
X5347188Y-11076874D01*
X5338619Y-11089729D01*
X5334334Y-11111153D01*
Y-11132577D01*
X5338619Y-11149716D01*
X5347188Y-11158286D01*
X5360043Y-11162570D01*
X5364328D01*
X5377182Y-11158286D01*
X5385751Y-11149716D01*
X5390036Y-11136861D01*
Y-11132577D01*
X5385751Y-11119722D01*
X5377182Y-11111153D01*
X5364328Y-11106868D01*
X5360043D01*
X5347188Y-11111153D01*
X5338619Y-11119722D01*
X5334334Y-11132577D01*
X5452594Y-11072589D02*
X5409746Y-11132577D01*
X5474018D01*
X5452594Y-11072589D02*
Y-11162570D01*
X5303576Y-10916213D02*
X5299291Y-10907644D01*
X5290722Y-10899074D01*
X5282152Y-10894789D01*
X5265013D01*
X5256443Y-10899074D01*
X5247874Y-10907644D01*
X5243589Y-10916213D01*
X5239304Y-10929068D01*
Y-10950492D01*
X5243589Y-10963346D01*
X5247874Y-10971916D01*
X5256443Y-10980486D01*
X5265013Y-10984770D01*
X5282152D01*
X5290722Y-10980486D01*
X5299291Y-10971916D01*
X5303576Y-10963346D01*
X5380274Y-10907644D02*
X5375989Y-10899074D01*
X5363135Y-10894789D01*
X5354565D01*
X5341711Y-10899074D01*
X5333141Y-10911929D01*
X5328857Y-10933353D01*
Y-10954777D01*
X5333141Y-10971916D01*
X5341711Y-10980486D01*
X5354565Y-10984770D01*
X5358850D01*
X5371705Y-10980486D01*
X5380274Y-10971916D01*
X5384559Y-10959061D01*
Y-10954777D01*
X5380274Y-10941922D01*
X5371705Y-10933353D01*
X5358850Y-10929068D01*
X5354565D01*
X5341711Y-10933353D01*
X5333141Y-10941922D01*
X5328857Y-10954777D01*
X5412839Y-10894789D02*
X5459971D01*
X5434262Y-10929068D01*
X5447117D01*
X5455686Y-10933353D01*
X5459971Y-10937638D01*
X5464256Y-10950492D01*
Y-10959061D01*
X5459971Y-10971916D01*
X5451402Y-10980486D01*
X5438547Y-10984770D01*
X5425693D01*
X5412839Y-10980486D01*
X5408554Y-10976201D01*
X5404269Y-10967631D01*
X4578835Y-11812656D02*
X4569313Y-11817417D01*
X4559791Y-11826938D01*
X4555031Y-11836460D01*
Y-11855504D01*
X4559791Y-11865026D01*
X4569313Y-11874547D01*
X4578835Y-11879308D01*
X4593118Y-11884069D01*
X4616922D01*
X4631205Y-11879308D01*
X4640727Y-11874547D01*
X4650248Y-11865026D01*
X4655009Y-11855504D01*
Y-11836460D01*
X4650248Y-11826938D01*
X4640727Y-11817417D01*
X4631205Y-11812656D01*
X4569313Y-11727436D02*
X4559791Y-11732197D01*
X4555031Y-11746480D01*
Y-11756001D01*
X4559791Y-11770284D01*
X4574074Y-11779806D01*
X4597879Y-11784567D01*
X4621683D01*
X4640727Y-11779806D01*
X4650248Y-11770284D01*
X4655009Y-11756001D01*
Y-11751240D01*
X4650248Y-11736958D01*
X4640727Y-11727436D01*
X4626444Y-11722675D01*
X4621683D01*
X4607400Y-11727436D01*
X4597879Y-11736958D01*
X4593118Y-11751240D01*
Y-11756001D01*
X4597879Y-11770284D01*
X4607400Y-11779806D01*
X4621683Y-11784567D01*
X4574074Y-11700775D02*
X4569313Y-11691253D01*
X4555031Y-11676971D01*
X4655009D01*
X4363500Y-12056595D02*
X4358739Y-12047073D01*
X4349218Y-12037551D01*
X4339696Y-12032791D01*
X4320652D01*
X4311131Y-12037551D01*
X4301609Y-12047073D01*
X4296848Y-12056595D01*
X4292087Y-12070878D01*
Y-12094682D01*
X4296848Y-12108965D01*
X4301609Y-12118487D01*
X4311131Y-12128008D01*
X4320652Y-12132769D01*
X4339696D01*
X4349218Y-12128008D01*
X4358739Y-12118487D01*
X4363500Y-12108965D01*
X4448720Y-12047073D02*
X4443959Y-12037551D01*
X4429676Y-12032791D01*
X4420155D01*
X4405872Y-12037551D01*
X4396350Y-12051834D01*
X4391589Y-12075639D01*
Y-12099443D01*
X4396350Y-12118487D01*
X4405872Y-12128008D01*
X4420155Y-12132769D01*
X4424916D01*
X4439198Y-12128008D01*
X4448720Y-12118487D01*
X4453481Y-12104204D01*
Y-12099443D01*
X4448720Y-12085160D01*
X4439198Y-12075639D01*
X4424916Y-12070878D01*
X4420155D01*
X4405872Y-12075639D01*
X4396350Y-12085160D01*
X4391589Y-12099443D01*
X4503946Y-12032791D02*
X4489664Y-12037551D01*
X4480142Y-12051834D01*
X4475381Y-12075639D01*
Y-12089921D01*
X4480142Y-12113726D01*
X4489664Y-12128008D01*
X4503946Y-12132769D01*
X4513468D01*
X4527751Y-12128008D01*
X4537272Y-12113726D01*
X4542033Y-12089921D01*
Y-12075639D01*
X4537272Y-12051834D01*
X4527751Y-12037551D01*
X4513468Y-12032791D01*
X4503946D01*
X3801682Y-11983335D02*
X3796921Y-11973813D01*
X3787399Y-11964292D01*
X3777877Y-11959531D01*
X3758834D01*
X3749312Y-11964292D01*
X3739790Y-11973813D01*
X3735029Y-11983335D01*
X3730268Y-11997618D01*
Y-12021422D01*
X3735029Y-12035705D01*
X3739790Y-12045227D01*
X3749312Y-12054748D01*
X3758834Y-12059509D01*
X3777877D01*
X3787399Y-12054748D01*
X3796921Y-12045227D01*
X3801682Y-12035705D01*
X3886902Y-11959531D02*
X3839293D01*
X3834532Y-12002379D01*
X3839293Y-11997618D01*
X3853575Y-11992857D01*
X3867858D01*
X3882141Y-11997618D01*
X3891662Y-12007140D01*
X3896423Y-12021422D01*
Y-12030944D01*
X3891662Y-12045227D01*
X3882141Y-12054748D01*
X3867858Y-12059509D01*
X3853575D01*
X3839293Y-12054748D01*
X3834532Y-12049988D01*
X3829771Y-12040466D01*
X3942604Y-11959531D02*
X3928321Y-11964292D01*
X3923560Y-11973813D01*
Y-11983335D01*
X3928321Y-11992857D01*
X3937843Y-11997618D01*
X3956886Y-12002379D01*
X3971169Y-12007140D01*
X3980691Y-12016661D01*
X3985452Y-12026183D01*
Y-12040466D01*
X3980691Y-12049988D01*
X3975930Y-12054748D01*
X3961647Y-12059509D01*
X3942604D01*
X3928321Y-12054748D01*
X3923560Y-12049988D01*
X3918799Y-12040466D01*
Y-12026183D01*
X3923560Y-12016661D01*
X3933082Y-12007140D01*
X3947365Y-12002379D01*
X3966408Y-11997618D01*
X3975930Y-11992857D01*
X3980691Y-11983335D01*
Y-11973813D01*
X3975930Y-11964292D01*
X3961647Y-11959531D01*
X3942604D01*
X4693622Y-10916135D02*
X4688861Y-10906613D01*
X4679339Y-10897091D01*
X4669817Y-10892331D01*
X4650774D01*
X4641252Y-10897091D01*
X4631730Y-10906613D01*
X4626969Y-10916135D01*
X4622208Y-10930418D01*
Y-10954222D01*
X4626969Y-10968505D01*
X4631730Y-10978027D01*
X4641252Y-10987548D01*
X4650774Y-10992309D01*
X4669817D01*
X4679339Y-10987548D01*
X4688861Y-10978027D01*
X4693622Y-10968505D01*
X4778842Y-10892331D02*
X4731233D01*
X4726472Y-10935179D01*
X4731233Y-10930418D01*
X4745515Y-10925657D01*
X4759798D01*
X4774081Y-10930418D01*
X4783602Y-10939940D01*
X4788363Y-10954222D01*
Y-10963744D01*
X4783602Y-10978027D01*
X4774081Y-10987548D01*
X4759798Y-10992309D01*
X4745515D01*
X4731233Y-10987548D01*
X4726472Y-10982788D01*
X4721711Y-10973266D01*
X4877392Y-10892331D02*
X4829783Y-10992309D01*
X4810739Y-10892331D02*
X4877392D01*
X4680762Y-11086315D02*
X4676001Y-11076793D01*
X4666480Y-11067271D01*
X4656958Y-11062511D01*
X4637914D01*
X4628393Y-11067271D01*
X4618871Y-11076793D01*
X4614110Y-11086315D01*
X4609349Y-11100598D01*
Y-11124402D01*
X4614110Y-11138685D01*
X4618871Y-11148207D01*
X4628393Y-11157728D01*
X4637914Y-11162489D01*
X4656958D01*
X4666480Y-11157728D01*
X4676001Y-11148207D01*
X4680762Y-11138685D01*
X4765982Y-11062511D02*
X4718373D01*
X4713612Y-11105359D01*
X4718373Y-11100598D01*
X4732656Y-11095837D01*
X4746938D01*
X4761221Y-11100598D01*
X4770743Y-11110120D01*
X4775504Y-11124402D01*
Y-11133924D01*
X4770743Y-11148207D01*
X4761221Y-11157728D01*
X4746938Y-11162489D01*
X4732656D01*
X4718373Y-11157728D01*
X4713612Y-11152968D01*
X4708851Y-11143446D01*
X4855011Y-11076793D02*
X4850250Y-11067271D01*
X4835967Y-11062511D01*
X4826445D01*
X4812163Y-11067271D01*
X4802641Y-11081554D01*
X4797880Y-11105359D01*
Y-11129163D01*
X4802641Y-11148207D01*
X4812163Y-11157728D01*
X4826445Y-11162489D01*
X4831206D01*
X4845489Y-11157728D01*
X4855011Y-11148207D01*
X4859771Y-11133924D01*
Y-11129163D01*
X4855011Y-11114880D01*
X4845489Y-11105359D01*
X4831206Y-11100598D01*
X4826445D01*
X4812163Y-11105359D01*
X4802641Y-11114880D01*
X4797880Y-11129163D01*
X4691082Y-11477475D02*
X4686321Y-11467953D01*
X4676799Y-11458431D01*
X4667277Y-11453671D01*
X4648234D01*
X4638712Y-11458431D01*
X4629190Y-11467953D01*
X4624429Y-11477475D01*
X4619668Y-11491758D01*
Y-11515562D01*
X4624429Y-11529845D01*
X4629190Y-11539367D01*
X4638712Y-11548888D01*
X4648234Y-11553649D01*
X4667277D01*
X4676799Y-11548888D01*
X4686321Y-11539367D01*
X4691082Y-11529845D01*
X4776302Y-11453671D02*
X4728693D01*
X4723932Y-11496519D01*
X4728693Y-11491758D01*
X4742975Y-11486997D01*
X4757258D01*
X4771541Y-11491758D01*
X4781062Y-11501280D01*
X4785823Y-11515562D01*
Y-11525084D01*
X4781062Y-11539367D01*
X4771541Y-11548888D01*
X4757258Y-11553649D01*
X4742975D01*
X4728693Y-11548888D01*
X4723932Y-11544128D01*
X4719171Y-11534606D01*
X4865330Y-11453671D02*
X4817721D01*
X4812960Y-11496519D01*
X4817721Y-11491758D01*
X4832004Y-11486997D01*
X4846286D01*
X4860569Y-11491758D01*
X4870091Y-11501280D01*
X4874852Y-11515562D01*
Y-11525084D01*
X4870091Y-11539367D01*
X4860569Y-11548888D01*
X4846286Y-11553649D01*
X4832004D01*
X4817721Y-11548888D01*
X4812960Y-11544128D01*
X4808199Y-11534606D01*
X4681081Y-11297135D02*
X4676320Y-11287613D01*
X4666799Y-11278091D01*
X4657277Y-11273331D01*
X4638233D01*
X4628712Y-11278091D01*
X4619190Y-11287613D01*
X4614429Y-11297135D01*
X4609668Y-11311418D01*
Y-11335222D01*
X4614429Y-11349505D01*
X4619190Y-11359027D01*
X4628712Y-11368548D01*
X4638233Y-11373309D01*
X4657277D01*
X4666799Y-11368548D01*
X4676320Y-11359027D01*
X4681081Y-11349505D01*
X4766301Y-11273331D02*
X4718692D01*
X4713931Y-11316179D01*
X4718692Y-11311418D01*
X4732975Y-11306657D01*
X4747257D01*
X4761540Y-11311418D01*
X4771062Y-11320940D01*
X4775823Y-11335222D01*
Y-11344744D01*
X4771062Y-11359027D01*
X4761540Y-11368548D01*
X4747257Y-11373309D01*
X4732975D01*
X4718692Y-11368548D01*
X4713931Y-11363788D01*
X4709170Y-11354266D01*
X4845808Y-11273331D02*
X4798199Y-11339983D01*
X4869612D01*
X4845808Y-11273331D02*
Y-11373309D01*
X5303362Y-10733333D02*
X5299077Y-10724764D01*
X5290507Y-10716194D01*
X5281938Y-10711909D01*
X5264799D01*
X5256229Y-10716194D01*
X5247660Y-10724764D01*
X5243375Y-10733333D01*
X5239090Y-10746188D01*
Y-10767612D01*
X5243375Y-10780466D01*
X5247660Y-10789036D01*
X5256229Y-10797606D01*
X5264799Y-10801890D01*
X5281938D01*
X5290507Y-10797606D01*
X5299077Y-10789036D01*
X5303362Y-10780466D01*
X5371490Y-10711909D02*
X5328642Y-10771897D01*
X5392914D01*
X5371490Y-10711909D02*
Y-10801890D01*
X5464470Y-10741903D02*
X5460185Y-10754758D01*
X5451616Y-10763327D01*
X5438762Y-10767612D01*
X5434477D01*
X5421622Y-10763327D01*
X5413053Y-10754758D01*
X5408768Y-10741903D01*
Y-10737618D01*
X5413053Y-10724764D01*
X5421622Y-10716194D01*
X5434477Y-10711909D01*
X5438762D01*
X5451616Y-10716194D01*
X5460185Y-10724764D01*
X5464470Y-10741903D01*
Y-10763327D01*
X5460185Y-10784751D01*
X5451616Y-10797606D01*
X5438762Y-10801890D01*
X5430192D01*
X5417338Y-10797606D01*
X5413053Y-10789036D01*
D97*
X3251332Y-18132974D02*
X3281802Y-18292940D01*
X3258949Y-18132974D02*
X3281802Y-18254852D01*
X3312271Y-18132974D02*
X3281802Y-18292940D01*
X3312271Y-18132974D02*
X3342741Y-18292940D01*
X3319889Y-18132974D02*
X3342741Y-18254852D01*
X3373210Y-18132974D02*
X3342741Y-18292940D01*
X3228480Y-18132974D02*
X3281802D01*
X3350358D02*
X3396063D01*
X3436435D02*
X3466905Y-18292940D01*
X3444052Y-18132974D02*
X3466905Y-18254852D01*
X3497374Y-18132974D02*
X3466905Y-18292940D01*
X3497374Y-18132974D02*
X3527844Y-18292940D01*
X3504992Y-18132974D02*
X3527844Y-18254852D01*
X3558313Y-18132974D02*
X3527844Y-18292940D01*
X3413583Y-18132974D02*
X3466905D01*
X3535461D02*
X3581166D01*
X3621538D02*
X3652008Y-18292940D01*
X3629155Y-18132974D02*
X3652008Y-18254852D01*
X3682477Y-18132974D02*
X3652008Y-18292940D01*
X3682477Y-18132974D02*
X3712947Y-18292940D01*
X3690095Y-18132974D02*
X3712947Y-18254852D01*
X3743416Y-18132974D02*
X3712947Y-18292940D01*
X3598686Y-18132974D02*
X3652008D01*
X3720564D02*
X3766269D01*
X3791406Y-18277705D02*
X3783789Y-18285323D01*
X3791406Y-18292940D01*
X3799024Y-18285323D01*
X3791406Y-18277705D01*
X3854631Y-18132974D02*
Y-18292940D01*
X3862248Y-18132974D02*
Y-18292940D01*
X3831778Y-18132974D02*
X3885100D01*
X3831778Y-18292940D02*
X3946040D01*
Y-18247237D01*
X3938422Y-18292940D01*
X3991744Y-18132974D02*
Y-18292940D01*
X3999362Y-18132974D02*
Y-18292940D01*
X3968892Y-18132974D02*
X4022214D01*
X3968892Y-18292940D02*
X4022214D01*
X4074012Y-18132974D02*
Y-18292940D01*
X4081630Y-18132974D02*
X4127334Y-18270088D01*
X4074012Y-18132974D02*
X4127334Y-18292940D01*
X4180656Y-18132974D02*
X4127334Y-18292940D01*
X4180656Y-18132974D02*
Y-18292940D01*
X4188274Y-18132974D02*
Y-18292940D01*
X4051160Y-18132974D02*
X4081630D01*
X4180656D02*
X4211126D01*
X4051160Y-18292940D02*
X4096865D01*
X4157804D02*
X4211126D01*
X4252260Y-18132974D02*
Y-18292940D01*
X4259877Y-18132974D02*
Y-18292940D01*
X4305582Y-18178679D02*
Y-18239618D01*
X4229408Y-18132974D02*
X4351286D01*
Y-18178679D01*
X4343669Y-18132974D01*
X4259877Y-18209149D02*
X4305582D01*
X4229408Y-18292940D02*
X4351286D01*
Y-18247237D01*
X4343669Y-18292940D01*
X4396229Y-18132974D02*
Y-18292940D01*
X4403846Y-18132974D02*
X4495255Y-18277705D01*
X4403846Y-18148210D02*
X4495255Y-18292940D01*
Y-18132974D02*
Y-18292940D01*
X4373377Y-18132974D02*
X4403846D01*
X4472403D02*
X4518107D01*
X4373377Y-18292940D02*
X4419081D01*
X4560765Y-18132974D02*
Y-18292940D01*
X4568382Y-18132974D02*
Y-18292940D01*
X4537913Y-18132974D02*
X4591235D01*
X4537913Y-18292940D02*
X4591235D01*
X4726824Y-18155827D02*
X4734442Y-18178679D01*
Y-18132974D01*
X4726824Y-18155827D01*
X4711590Y-18140591D01*
X4688737Y-18132974D01*
X4673503D01*
X4650650Y-18140591D01*
X4635416Y-18155827D01*
X4627798Y-18171062D01*
X4620181Y-18193913D01*
Y-18232001D01*
X4627798Y-18254852D01*
X4635416Y-18270088D01*
X4650650Y-18285323D01*
X4673503Y-18292940D01*
X4688737D01*
X4711590Y-18285323D01*
X4726824Y-18270088D01*
X4734442Y-18254852D01*
X4673503Y-18132974D02*
X4658268Y-18140591D01*
X4643033Y-18155827D01*
X4635416Y-18171062D01*
X4627798Y-18193913D01*
Y-18232001D01*
X4635416Y-18254852D01*
X4643033Y-18270088D01*
X4658268Y-18285323D01*
X4673503Y-18292940D01*
X4856321Y-18155827D02*
X4863938Y-18132974D01*
Y-18178679D01*
X4856321Y-18155827D01*
X4841086Y-18140591D01*
X4818233Y-18132974D01*
X4795381D01*
X4772529Y-18140591D01*
X4757294Y-18155827D01*
Y-18171062D01*
X4764912Y-18186298D01*
X4772529Y-18193913D01*
X4787764Y-18201530D01*
X4833468Y-18216766D01*
X4848703Y-18224384D01*
X4863938Y-18239618D01*
X4757294Y-18171062D02*
X4772529Y-18186298D01*
X4787764Y-18193913D01*
X4833468Y-18209149D01*
X4848703Y-18216766D01*
X4856321Y-18224384D01*
X4863938Y-18239618D01*
Y-18270088D01*
X4848703Y-18285323D01*
X4825851Y-18292940D01*
X4802999D01*
X4780146Y-18285323D01*
X4764912Y-18270088D01*
X4757294Y-18247237D01*
Y-18292940D01*
X4764912Y-18270088D01*
X4895170Y-18277705D02*
X4887552Y-18285323D01*
X4895170Y-18292940D01*
X4902787Y-18285323D01*
X4895170Y-18277705D01*
X4958394Y-18132974D02*
Y-18292940D01*
X4966011Y-18132974D02*
Y-18292940D01*
X4935542Y-18132974D02*
X4988864D01*
X4935542Y-18292940D02*
X4988864D01*
X5040662Y-18132974D02*
Y-18292940D01*
X5048279Y-18132974D02*
Y-18292940D01*
X5017810Y-18132974D02*
X5109219D01*
X5132071Y-18140591D01*
X5139688Y-18148210D01*
X5147306Y-18163445D01*
Y-18178679D01*
X5139688Y-18193913D01*
X5132071Y-18201530D01*
X5109219Y-18209149D01*
X5048279D01*
X5109219Y-18132974D02*
X5124454Y-18140591D01*
X5132071Y-18148210D01*
X5139688Y-18163445D01*
Y-18178679D01*
X5132071Y-18193913D01*
X5124454Y-18201530D01*
X5109219Y-18209149D01*
X5017810Y-18292940D02*
X5071132D01*
X5086367Y-18209149D02*
X5101601Y-18216766D01*
X5109219Y-18224384D01*
X5132071Y-18277705D01*
X5139688Y-18285323D01*
X5147306D01*
X5154923Y-18277705D01*
X5101601Y-18216766D02*
X5109219Y-18232001D01*
X5124454Y-18285323D01*
X5132071Y-18292940D01*
X5147306D01*
X5154923Y-18277705D01*
Y-18270088D01*
X6484480Y-10385921D02*
Y-10248807D01*
X5463656Y-10241187D02*
Y-10378300D01*
X5395100Y-10309744D02*
X5532213D01*
D98*
X4628437Y-13868755D02*
Y-13980161D01*
X4572735Y-13924458D02*
X4684139D01*
X2505905Y-10421620D02*
X2499715Y-10409242D01*
X2481148Y-10390674D01*
X2611120D01*
X2969676Y-16918645D02*
X2956547Y-16914267D01*
X2939041Y-16914267D01*
X2925912Y-16918645D01*
X2908406Y-16936150D01*
X2904030Y-16949278D01*
Y-16966785D01*
X2908406Y-16979913D01*
X2917159Y-16997420D01*
X2939041Y-17019301D01*
X2956547Y-17028053D01*
X2969676Y-17032430D01*
X2987181Y-17032430D01*
X3000310Y-17028053D01*
X3017816Y-17010548D01*
X3022193Y-16997420D01*
Y-16979913D01*
X3017816Y-16966785D01*
X3039261Y-16831554D02*
X3026131Y-16827177D01*
X3008626Y-16835930D01*
X2999873Y-16844682D01*
X2991120Y-16862189D01*
X2995497Y-16884070D01*
X3013002Y-16910329D01*
X3034884Y-16932210D01*
X3056766Y-16945340D01*
X3074271D01*
X3091777Y-16936588D01*
X3096154Y-16932210D01*
X3104906Y-16914705D01*
X3104906Y-16897198D01*
X3096154Y-16879694D01*
X3091777Y-16875317D01*
X3074272Y-16866565D01*
X3056766D01*
X3039261Y-16875317D01*
X3034884Y-16879694D01*
X3026131Y-16897198D01*
Y-16914705D01*
X3034884Y-16932210D01*
X1433614Y-18579141D02*
X1563586D01*
X1433614D02*
Y-18523438D01*
X1439803Y-18504871D01*
X1445992Y-18498682D01*
X1458370Y-18492493D01*
X1470748D01*
X1483127Y-18498682D01*
X1489316Y-18504871D01*
X1495505Y-18523438D01*
Y-18579141D01*
Y-18535817D02*
X1563586Y-18492493D01*
X1433614Y-18389134D02*
Y-18451025D01*
X1489316Y-18457214D01*
X1483127Y-18451025D01*
X1476938Y-18432458D01*
Y-18413892D01*
X1483127Y-18395323D01*
X1495505Y-18382945D01*
X1514072Y-18376756D01*
X1526451D01*
X1545018Y-18382945D01*
X1557396Y-18395323D01*
X1563586Y-18413892D01*
Y-18432458D01*
X1557396Y-18451025D01*
X1551207Y-18457214D01*
X1538829Y-18463403D01*
X1433614Y-18273396D02*
Y-18335287D01*
X1489316Y-18341476D01*
X1483127Y-18335287D01*
X1476938Y-18316721D01*
Y-18298154D01*
X1483127Y-18279585D01*
X1495505Y-18267207D01*
X1514072Y-18261018D01*
X1526451D01*
X1545018Y-18267207D01*
X1557396Y-18279585D01*
X1563586Y-18298154D01*
Y-18316721D01*
X1557396Y-18335287D01*
X1551207Y-18341476D01*
X1538829Y-18347667D01*
X1062774Y-18587315D02*
X1192746D01*
X1062774D02*
Y-18531613D01*
X1068963Y-18513046D01*
X1075152Y-18506857D01*
X1087530Y-18500668D01*
X1099909D01*
X1112287Y-18506857D01*
X1118476Y-18513046D01*
X1124665Y-18531613D01*
Y-18587315D01*
Y-18543993D02*
X1192746Y-18500668D01*
X1062774Y-18397308D02*
Y-18459200D01*
X1118476Y-18465388D01*
X1112287Y-18459200D01*
X1106098Y-18440633D01*
Y-18422066D01*
X1112287Y-18403497D01*
X1124665Y-18391119D01*
X1143233Y-18384930D01*
X1155611D01*
X1174178Y-18391119D01*
X1186557Y-18403497D01*
X1192746Y-18422066D01*
Y-18440633D01*
X1186557Y-18459200D01*
X1180368Y-18465388D01*
X1167989Y-18471577D01*
X1062774Y-18293950D02*
X1149422Y-18355841D01*
Y-18263004D01*
X1062774Y-18293950D02*
X1192746D01*
X702094Y-18579141D02*
X832066D01*
X702094D02*
Y-18523439D01*
X708283Y-18504871D01*
X714472Y-18498682D01*
X726850Y-18492493D01*
X739229D01*
X751607Y-18498682D01*
X757796Y-18504871D01*
X763985Y-18523439D01*
Y-18579141D01*
Y-18535817D02*
X832066Y-18492493D01*
X702094Y-18389134D02*
Y-18451025D01*
X757796Y-18457214D01*
X751607Y-18451025D01*
X745418Y-18432458D01*
Y-18413892D01*
X751607Y-18395323D01*
X763985Y-18382945D01*
X782553Y-18376756D01*
X794931D01*
X813498Y-18382945D01*
X825877Y-18395323D01*
X832066Y-18413892D01*
Y-18432458D01*
X825877Y-18451025D01*
X819688Y-18457214D01*
X807309Y-18463403D01*
X702094Y-18335289D02*
Y-18267207D01*
X751607Y-18304343D01*
Y-18285776D01*
X757796Y-18273396D01*
X763985Y-18267207D01*
X782553Y-18261018D01*
X794931D01*
X813498Y-18267207D01*
X825877Y-18279585D01*
X832066Y-18298154D01*
Y-18316721D01*
X825877Y-18335289D01*
X819688Y-18341478D01*
X807309Y-18347667D01*
X1255652Y-18614531D02*
X1365628D01*
X1255652D02*
Y-18577872D01*
X1260889Y-18562161D01*
X1271363Y-18551688D01*
X1281837Y-18546449D01*
X1297548Y-18541212D01*
X1323732D01*
X1339443Y-18546449D01*
X1349917Y-18551688D01*
X1360391Y-18562161D01*
X1365628Y-18577872D01*
Y-18614531D01*
X1276600Y-18516599D02*
X1271363Y-18506125D01*
X1255652Y-18490414D01*
X1365628D01*
X1292311Y-18367870D02*
X1308022Y-18373106D01*
X1318495Y-18383580D01*
X1323732Y-18399290D01*
Y-18404527D01*
X1318495Y-18420239D01*
X1308022Y-18430713D01*
X1292311Y-18435950D01*
X1287074D01*
X1271363Y-18430713D01*
X1260889Y-18420239D01*
X1255652Y-18404527D01*
Y-18399290D01*
X1260889Y-18383580D01*
X1271363Y-18373106D01*
X1292311Y-18367870D01*
X1318495D01*
X1344680Y-18373106D01*
X1360391Y-18383580D01*
X1365628Y-18399290D01*
Y-18409766D01*
X1360391Y-18425476D01*
X1349917Y-18430713D01*
X900052Y-18622229D02*
X1010028D01*
X900052D02*
Y-18585570D01*
X905289Y-18569859D01*
X915762Y-18559386D01*
X926236Y-18554147D01*
X941947Y-18548911D01*
X968132D01*
X983843Y-18554147D01*
X994317Y-18559386D01*
X1004791Y-18569859D01*
X1010028Y-18585570D01*
Y-18622229D01*
X920999Y-18524297D02*
X915762Y-18513824D01*
X900052Y-18498112D01*
X1010028D01*
X900052Y-18417464D02*
X905289Y-18433174D01*
X915762Y-18438411D01*
X926236D01*
X936710Y-18433174D01*
X941947Y-18422701D01*
X947184Y-18401752D01*
X952421Y-18386041D01*
X962895Y-18375568D01*
X973369Y-18370331D01*
X989080D01*
X999554Y-18375568D01*
X1004791Y-18380804D01*
X1010028Y-18396515D01*
Y-18417464D01*
X1004791Y-18433174D01*
X999554Y-18438411D01*
X989080Y-18443648D01*
X973369D01*
X962895Y-18438411D01*
X952421Y-18427937D01*
X947184Y-18412225D01*
X941947Y-18391278D01*
X936710Y-18380804D01*
X926236Y-18375568D01*
X915762D01*
X905289Y-18380804D01*
X900052Y-18396515D01*
Y-18417464D01*
X534292Y-18617149D02*
X644268D01*
X534292D02*
Y-18580490D01*
X539529Y-18564780D01*
X550002Y-18554305D01*
X560476Y-18549068D01*
X576187Y-18543831D01*
X602372D01*
X618083Y-18549068D01*
X628557Y-18554305D01*
X639031Y-18564780D01*
X644268Y-18580490D01*
Y-18617149D01*
X555239Y-18519217D02*
X550002Y-18508743D01*
X534292Y-18493033D01*
X644268D01*
X534292Y-18365251D02*
X644268Y-18417619D01*
X534292Y-18438568D02*
Y-18365251D01*
X6739579Y-12740854D02*
Y-12870827D01*
Y-12740854D02*
X6795281D01*
X6813849Y-12747043D01*
X6820038Y-12753232D01*
X6826227Y-12765610D01*
Y-12777988D01*
X6820038Y-12790367D01*
X6813849Y-12796556D01*
X6795281Y-12802745D01*
X6739579D01*
X6782903D02*
X6826227Y-12870827D01*
X6929586Y-12740854D02*
X6867694D01*
X6861505Y-12796556D01*
X6867694Y-12790367D01*
X6886262Y-12784178D01*
X6904829D01*
X6923397Y-12790367D01*
X6935775Y-12802745D01*
X6941964Y-12821312D01*
Y-12833691D01*
X6935775Y-12852258D01*
X6923397Y-12864636D01*
X6904829Y-12870827D01*
X6886262D01*
X6867694Y-12864636D01*
X6861505Y-12858447D01*
X6855316Y-12846069D01*
X6977242Y-12771799D02*
Y-12765610D01*
X6983431Y-12753232D01*
X6989621Y-12747043D01*
X7001999Y-12740854D01*
X7026756D01*
X7039134Y-12747043D01*
X7045323Y-12753232D01*
X7051512Y-12765610D01*
Y-12777988D01*
X7045323Y-12790367D01*
X7032945Y-12808934D01*
X6971053Y-12870827D01*
X7057701D01*
X6736950Y-12581674D02*
Y-12711646D01*
Y-12581674D02*
X6792652D01*
X6811220Y-12587863D01*
X6817409Y-12594052D01*
X6823598Y-12606430D01*
Y-12618809D01*
X6817409Y-12631187D01*
X6811220Y-12637376D01*
X6792652Y-12643565D01*
X6736950D01*
X6780274D02*
X6823598Y-12711646D01*
X6926957Y-12581674D02*
X6865065D01*
X6858876Y-12637376D01*
X6865065Y-12631187D01*
X6883633Y-12624998D01*
X6902200D01*
X6920768Y-12631187D01*
X6933146Y-12643565D01*
X6939335Y-12662133D01*
Y-12674511D01*
X6933146Y-12693078D01*
X6920768Y-12705457D01*
X6902200Y-12711646D01*
X6883633D01*
X6865065Y-12705457D01*
X6858876Y-12699268D01*
X6852687Y-12686889D01*
X6968424Y-12606430D02*
X6980802Y-12600241D01*
X6999370Y-12581674D01*
Y-12711646D01*
X6729419Y-11829834D02*
Y-11959806D01*
Y-11829834D02*
X6785121D01*
X6803689Y-11836023D01*
X6809878Y-11842212D01*
X6816067Y-11854590D01*
Y-11866969D01*
X6809878Y-11879347D01*
X6803689Y-11885536D01*
X6785121Y-11891725D01*
X6729419D01*
X6772743D02*
X6816067Y-11959806D01*
X6919426Y-11829834D02*
X6857534D01*
X6851345Y-11885536D01*
X6857534Y-11879347D01*
X6876102Y-11873158D01*
X6894669D01*
X6913237Y-11879347D01*
X6925615Y-11891725D01*
X6931804Y-11910293D01*
Y-11922671D01*
X6925615Y-11941238D01*
X6913237Y-11953617D01*
X6894669Y-11959806D01*
X6876102D01*
X6857534Y-11953617D01*
X6851345Y-11947428D01*
X6845156Y-11935049D01*
X6998028Y-11829834D02*
X6979461Y-11836023D01*
X6967082Y-11854590D01*
X6960893Y-11885536D01*
Y-11904103D01*
X6967082Y-11935049D01*
X6979461Y-11953617D01*
X6998028Y-11959806D01*
X7010406D01*
X7028974Y-11953617D01*
X7041352Y-11935049D01*
X7047541Y-11904103D01*
Y-11885536D01*
X7041352Y-11854590D01*
X7028974Y-11836023D01*
X7010406Y-11829834D01*
X6998028D01*
X6349026Y-11847614D02*
Y-11977586D01*
Y-11847614D02*
X6392350D01*
X6410917Y-11853803D01*
X6423296Y-11866181D01*
X6429484Y-11878559D01*
X6435674Y-11897127D01*
Y-11928073D01*
X6429484Y-11946640D01*
X6423296Y-11959018D01*
X6410917Y-11971397D01*
X6392350Y-11977586D01*
X6349026D01*
X6464763Y-11872370D02*
X6477141Y-11866181D01*
X6495709Y-11847614D01*
Y-11977586D01*
X6634346Y-11866181D02*
X6628156Y-11853803D01*
X6609589Y-11847614D01*
X6597211D01*
X6578643Y-11853803D01*
X6566265Y-11872370D01*
X6560076Y-11903316D01*
Y-11934262D01*
X6566265Y-11959018D01*
X6578643Y-11971397D01*
X6597211Y-11977586D01*
X6603400D01*
X6621967Y-11971397D01*
X6634346Y-11959018D01*
X6640535Y-11940451D01*
Y-11934262D01*
X6634346Y-11915694D01*
X6621967Y-11903316D01*
X6603400Y-11897127D01*
X6597211D01*
X6578643Y-11903316D01*
X6566265Y-11915694D01*
X6560076Y-11934262D01*
X6353551Y-11672354D02*
Y-11802326D01*
Y-11672354D02*
X6396875D01*
X6415442Y-11678543D01*
X6427821Y-11690921D01*
X6434010Y-11703299D01*
X6440199Y-11721867D01*
Y-11752813D01*
X6434010Y-11771380D01*
X6427821Y-11783758D01*
X6415442Y-11796137D01*
X6396875Y-11802326D01*
X6353551D01*
X6469288Y-11697110D02*
X6481666Y-11690921D01*
X6500234Y-11672354D01*
Y-11802326D01*
X6638871Y-11672354D02*
X6576979D01*
X6570790Y-11728056D01*
X6576979Y-11721867D01*
X6595547Y-11715678D01*
X6614114D01*
X6632682Y-11721867D01*
X6645060Y-11734245D01*
X6651249Y-11752813D01*
Y-11765191D01*
X6645060Y-11783758D01*
X6632682Y-11796137D01*
X6614114Y-11802326D01*
X6595547D01*
X6576979Y-11796137D01*
X6570790Y-11789948D01*
X6564601Y-11777569D01*
X6347916Y-11492014D02*
Y-11621986D01*
Y-11492014D02*
X6391240D01*
X6409808Y-11498203D01*
X6422186Y-11510581D01*
X6428375Y-11522959D01*
X6434564Y-11541527D01*
Y-11572473D01*
X6428375Y-11591040D01*
X6422186Y-11603418D01*
X6409808Y-11615797D01*
X6391240Y-11621986D01*
X6347916D01*
X6463654Y-11516770D02*
X6476032Y-11510581D01*
X6494599Y-11492014D01*
Y-11621986D01*
X6620858Y-11492014D02*
X6558967Y-11578662D01*
X6651804D01*
X6620858Y-11492014D02*
Y-11621986D01*
X9045994Y-12940289D02*
X9175966D01*
X9045994D02*
Y-12896965D01*
X9052183Y-12878397D01*
X9064561Y-12866019D01*
X9076939Y-12859830D01*
X9095507Y-12853641D01*
X9126452D01*
X9145020Y-12859830D01*
X9157398Y-12866019D01*
X9169776Y-12878397D01*
X9175966Y-12896965D01*
Y-12940289D01*
X9070750Y-12824551D02*
X9064561Y-12812173D01*
X9045994Y-12793606D01*
X9175966D01*
X9045994Y-12716861D02*
Y-12648780D01*
X9095507Y-12685915D01*
Y-12667347D01*
X9101696Y-12654969D01*
X9107885Y-12648780D01*
X9126452Y-12642591D01*
X9138831D01*
X9157398Y-12648780D01*
X9169776Y-12661158D01*
X9175966Y-12679725D01*
Y-12698293D01*
X9169776Y-12716861D01*
X9163587Y-12723049D01*
X9151209Y-12729239D01*
X4879747Y-14557794D02*
X4966395Y-14687766D01*
Y-14557794D02*
X4879747Y-14687766D01*
X5001674Y-14588739D02*
Y-14582550D01*
X5007863Y-14570172D01*
X5014052Y-14563983D01*
X5026430Y-14557794D01*
X5051187D01*
X5063565Y-14563983D01*
X5069754Y-14570172D01*
X5075943Y-14582550D01*
Y-14594930D01*
X5069754Y-14607307D01*
X5057376Y-14625874D01*
X4995485Y-14687766D01*
X5082133D01*
X7046107Y-13005853D02*
Y-13098691D01*
X7052296Y-13117258D01*
X7064674Y-13129637D01*
X7083242Y-13135826D01*
X7095620D01*
X7114188Y-13129637D01*
X7126566Y-13117258D01*
X7132755Y-13098691D01*
Y-13005853D01*
X7168652Y-13030611D02*
X7181030Y-13024422D01*
X7199598Y-13005853D01*
Y-13135826D01*
X7338235Y-13005853D02*
X7276343D01*
X7270154Y-13061555D01*
X7276343Y-13055367D01*
X7294911Y-13049178D01*
X7313478D01*
X7332046Y-13055367D01*
X7344424Y-13067744D01*
X7350613Y-13086313D01*
Y-13098691D01*
X7344424Y-13117258D01*
X7332046Y-13129637D01*
X7313478Y-13135826D01*
X7294911D01*
X7276343Y-13129637D01*
X7270154Y-13123448D01*
X7263965Y-13111069D01*
X5745072Y-13137933D02*
Y-13230771D01*
X5751262Y-13249338D01*
X5763640Y-13261717D01*
X5782207Y-13267906D01*
X5794586D01*
X5813153Y-13261717D01*
X5825531Y-13249338D01*
X5831720Y-13230771D01*
Y-13137933D01*
X5867617Y-13162691D02*
X5879996Y-13156500D01*
X5898563Y-13137933D01*
Y-13267906D01*
X6024822Y-13137933D02*
X5962930Y-13224582D01*
X6055768D01*
X6024822Y-13137933D02*
Y-13267906D01*
X1141789Y-11402063D02*
X1207435Y-11467709D01*
X1224940Y-11476461D01*
X1242446D01*
X1259951Y-11467709D01*
X1268704Y-11458956D01*
X1277457Y-11441450D01*
Y-11423945D01*
X1268704Y-11406439D01*
X1203058Y-11340793D01*
X1245947Y-11332916D02*
X1250323Y-11319787D01*
X1250323Y-11293528D01*
X1342227Y-11385432D01*
X1304590Y-11239261D02*
X1352731Y-11191121D01*
X1361484Y-11252390D01*
X1374613Y-11239261D01*
X1387742Y-11234885D01*
X1396495D01*
X1414000Y-11243637D01*
X1422753Y-11252390D01*
X1431506Y-11269896D01*
Y-11287401D01*
X1422753Y-11304907D01*
X1409624Y-11318036D01*
X1392118Y-11326789D01*
X1383366D01*
X1370236Y-11322412D01*
X8639594Y-11268466D02*
X8769566D01*
X8639594D02*
Y-11212764D01*
X8645783Y-11194197D01*
X8651972Y-11188008D01*
X8664350Y-11181818D01*
X8676729D01*
X8689107Y-11188008D01*
X8695296Y-11194197D01*
X8701485Y-11212764D01*
Y-11268466D01*
Y-11225142D02*
X8769566Y-11181818D01*
X8639594Y-11090838D02*
X8726242Y-11152729D01*
Y-11059892D01*
X8639594Y-11090838D02*
X8769566D01*
X8682918Y-10956533D02*
X8701485Y-10962722D01*
X8713863Y-10975101D01*
X8720053Y-10993668D01*
Y-10999857D01*
X8713863Y-11018425D01*
X8701485Y-11030803D01*
X8682918Y-11036992D01*
X8676729D01*
X8658161Y-11030803D01*
X8645783Y-11018425D01*
X8639594Y-10999857D01*
Y-10993668D01*
X8645783Y-10975101D01*
X8658161Y-10962722D01*
X8682918Y-10956533D01*
X8713863D01*
X8744809Y-10962722D01*
X8763377Y-10975101D01*
X8769566Y-10993668D01*
Y-11006046D01*
X8763377Y-11024614D01*
X8750999Y-11030803D01*
X8952014Y-11269021D02*
X9081986D01*
X8952014D02*
Y-11213318D01*
X8958203Y-11194751D01*
X8964392Y-11188562D01*
X8976770Y-11182373D01*
X8989148D01*
X9001527Y-11188562D01*
X9007716Y-11194751D01*
X9013905Y-11213318D01*
Y-11269021D01*
Y-11225697D02*
X9081986Y-11182373D01*
X8952014Y-11091392D02*
X9038662Y-11153284D01*
Y-11060447D01*
X8952014Y-11091392D02*
X9081986D01*
X8952014Y-11006601D02*
X8958203Y-11025168D01*
X8970581Y-11031357D01*
X8982959D01*
X8995338Y-11025168D01*
X9001527Y-11012790D01*
X9007716Y-10988033D01*
X9013905Y-10969466D01*
X9026283Y-10957088D01*
X9038662Y-10950899D01*
X9057229D01*
X9069607Y-10957088D01*
X9075796Y-10963277D01*
X9081986Y-10981844D01*
Y-11006601D01*
X9075796Y-11025168D01*
X9069607Y-11031357D01*
X9057229Y-11037547D01*
X9038662D01*
X9026283Y-11031357D01*
X9013905Y-11018979D01*
X9007716Y-11000412D01*
X9001527Y-10975655D01*
X8995338Y-10963277D01*
X8982959Y-10957088D01*
X8970581D01*
X8958203Y-10963277D01*
X8952014Y-10981844D01*
Y-11006601D01*
X5152174Y-13646461D02*
X5282146D01*
X5152174D02*
Y-13590759D01*
X5158363Y-13572191D01*
X5164552Y-13566002D01*
X5176930Y-13559813D01*
X5189309D01*
X5201687Y-13566002D01*
X5207876Y-13572191D01*
X5214065Y-13590759D01*
Y-13646461D01*
Y-13603137D02*
X5282146Y-13559813D01*
X5152174Y-13468832D02*
X5238822Y-13530724D01*
Y-13437888D01*
X5152174Y-13468832D02*
X5282146D01*
X5152174Y-13328339D02*
X5282146Y-13390230D01*
X5152174Y-13414987D02*
Y-13328339D01*
X6531394Y-13419846D02*
X6661366D01*
X6531394D02*
Y-13364143D01*
X6537583Y-13345576D01*
X6543772Y-13339388D01*
X6556150Y-13333199D01*
X6568529D01*
X6580907Y-13339388D01*
X6587096Y-13345576D01*
X6593285Y-13364143D01*
Y-13419846D01*
Y-13376521D02*
X6661366Y-13333199D01*
X6531394Y-13242218D02*
X6618042Y-13304109D01*
Y-13211272D01*
X6531394Y-13242218D02*
X6661366D01*
X6549961Y-13114102D02*
X6537583Y-13120293D01*
X6531394Y-13138860D01*
Y-13151237D01*
X6537583Y-13169804D01*
X6556150Y-13182182D01*
X6587096Y-13188371D01*
X6618042D01*
X6642798Y-13182182D01*
X6655177Y-13169804D01*
X6661366Y-13151237D01*
Y-13145049D01*
X6655177Y-13126482D01*
X6642798Y-13114102D01*
X6624231Y-13107913D01*
X6618042D01*
X6599474Y-13114102D01*
X6587096Y-13126482D01*
X6580907Y-13145049D01*
Y-13151237D01*
X6587096Y-13169804D01*
X6599474Y-13182182D01*
X6618042Y-13188371D01*
X5337594Y-13638841D02*
X5467566D01*
X5337594D02*
Y-13583138D01*
X5343783Y-13564571D01*
X5349972Y-13558382D01*
X5362350Y-13552193D01*
X5374728D01*
X5387107Y-13558382D01*
X5393296Y-13564571D01*
X5399485Y-13583138D01*
Y-13638841D01*
Y-13595517D02*
X5467566Y-13552193D01*
X5337594Y-13461212D02*
X5424242Y-13523103D01*
Y-13430267D01*
X5337594Y-13461212D02*
X5467566D01*
X5337594Y-13333096D02*
Y-13394987D01*
X5393296Y-13401176D01*
X5387107Y-13394987D01*
X5380918Y-13376421D01*
Y-13357854D01*
X5387107Y-13339285D01*
X5399485Y-13326907D01*
X5418052Y-13320718D01*
X5430431D01*
X5448998Y-13326907D01*
X5461376Y-13339285D01*
X5467566Y-13357854D01*
Y-13376421D01*
X5461376Y-13394987D01*
X5455187Y-13401176D01*
X5442809Y-13407367D01*
X2070504Y-11003823D02*
Y-11133795D01*
Y-11003823D02*
X2126207D01*
X2144774Y-11010012D01*
X2150963Y-11016201D01*
X2157152Y-11028580D01*
Y-11040958D01*
X2150963Y-11053337D01*
X2144774Y-11059526D01*
X2126207Y-11065715D01*
X2070504D01*
X2113828D02*
X2157152Y-11133795D01*
X2248133Y-11003823D02*
X2186241Y-11090471D01*
X2279079D01*
X2248133Y-11003823D02*
Y-11133795D01*
X2363870Y-11003823D02*
X2301979Y-11090471D01*
X2394816D01*
X2363870Y-11003823D02*
Y-11133795D01*
X2083759Y-10849394D02*
Y-10979366D01*
Y-10849394D02*
X2139461D01*
X2158029Y-10855583D01*
X2164218Y-10861772D01*
X2170407Y-10874150D01*
Y-10886529D01*
X2164218Y-10898907D01*
X2158029Y-10905096D01*
X2139461Y-10911285D01*
X2083759D01*
X2127083D02*
X2170407Y-10979366D01*
X2261387Y-10849394D02*
X2199496Y-10936042D01*
X2292333D01*
X2261387Y-10849394D02*
Y-10979366D01*
X2327611Y-10849394D02*
X2395692D01*
X2358557Y-10898907D01*
X2377125D01*
X2389503Y-10905096D01*
X2395692Y-10911285D01*
X2401881Y-10929853D01*
Y-10942231D01*
X2395692Y-10960798D01*
X2383314Y-10973177D01*
X2364746Y-10979366D01*
X2346179D01*
X2327611Y-10973177D01*
X2321422Y-10966988D01*
X2315233Y-10954609D01*
X1347159Y-10666514D02*
Y-10796486D01*
Y-10666514D02*
X1402861D01*
X1421429Y-10672703D01*
X1427618Y-10678892D01*
X1433807Y-10691270D01*
Y-10703649D01*
X1427618Y-10716027D01*
X1421429Y-10722216D01*
X1402861Y-10728405D01*
X1347159D01*
X1390483D02*
X1433807Y-10796486D01*
X1524787Y-10666514D02*
X1462896Y-10753162D01*
X1555733D01*
X1524787Y-10666514D02*
Y-10796486D01*
X1584822Y-10697459D02*
Y-10691270D01*
X1591011Y-10678892D01*
X1597201Y-10672703D01*
X1609579Y-10666514D01*
X1634336D01*
X1646714Y-10672703D01*
X1652903Y-10678892D01*
X1659092Y-10691270D01*
Y-10703649D01*
X1652903Y-10716027D01*
X1640525Y-10734594D01*
X1578633Y-10796486D01*
X1665281D01*
X1385170Y-10496334D02*
Y-10626306D01*
Y-10496334D02*
X1440872D01*
X1459440Y-10502523D01*
X1465629Y-10508712D01*
X1471818Y-10521090D01*
Y-10533469D01*
X1465629Y-10545847D01*
X1459440Y-10552036D01*
X1440872Y-10558225D01*
X1385170D01*
X1428494D02*
X1471818Y-10626306D01*
X1562799Y-10496334D02*
X1500907Y-10582982D01*
X1593744D01*
X1562799Y-10496334D02*
Y-10626306D01*
X1616644Y-10521090D02*
X1629022Y-10514901D01*
X1647590Y-10496334D01*
Y-10626306D01*
X4968379Y-11964454D02*
Y-12094426D01*
Y-11964454D02*
X5024082D01*
X5042649Y-11970643D01*
X5048838Y-11976832D01*
X5055027Y-11989210D01*
Y-12001588D01*
X5048838Y-12013967D01*
X5042649Y-12020156D01*
X5024082Y-12026345D01*
X4968379D01*
X5011703D02*
X5055027Y-12094426D01*
X5146008Y-11964454D02*
X5084116Y-12051102D01*
X5176954D01*
X5146008Y-11964454D02*
Y-12094426D01*
X5236988Y-11964454D02*
X5218421Y-11970643D01*
X5206043Y-11989210D01*
X5199853Y-12020156D01*
Y-12038723D01*
X5206043Y-12069669D01*
X5218421Y-12088236D01*
X5236988Y-12094426D01*
X5249367D01*
X5267934Y-12088236D01*
X5280312Y-12069669D01*
X5286501Y-12038723D01*
Y-12020156D01*
X5280312Y-11989210D01*
X5267934Y-11970643D01*
X5249367Y-11964454D01*
X5236988D01*
X3135319Y-10923054D02*
Y-11053026D01*
Y-10923054D02*
X3191021D01*
X3209589Y-10929243D01*
X3215778Y-10935432D01*
X3221967Y-10947810D01*
Y-10960189D01*
X3215778Y-10972567D01*
X3209589Y-10978756D01*
X3191021Y-10984945D01*
X3135319D01*
X3178643D02*
X3221967Y-11053026D01*
X3263434Y-10923054D02*
X3331515D01*
X3294380Y-10972567D01*
X3312947D01*
X3325326Y-10978756D01*
X3331515Y-10984945D01*
X3337704Y-11003513D01*
Y-11015891D01*
X3331515Y-11034458D01*
X3319137Y-11046837D01*
X3300569Y-11053026D01*
X3282002D01*
X3263434Y-11046837D01*
X3257245Y-11040648D01*
X3251056Y-11028269D01*
X3397739Y-10923054D02*
X3379171Y-10929243D01*
X3372982Y-10941621D01*
Y-10953999D01*
X3379171Y-10966378D01*
X3391550Y-10972567D01*
X3416306Y-10978756D01*
X3434874Y-10984945D01*
X3447252Y-10997323D01*
X3453441Y-11009702D01*
Y-11028269D01*
X3447252Y-11040648D01*
X3441063Y-11046837D01*
X3422496Y-11053026D01*
X3397739D01*
X3379171Y-11046837D01*
X3372982Y-11040648D01*
X3366793Y-11028269D01*
Y-11009702D01*
X3372982Y-10997323D01*
X3385361Y-10984945D01*
X3403928Y-10978756D01*
X3428685Y-10972567D01*
X3441063Y-10966378D01*
X3447252Y-10953999D01*
Y-10941621D01*
X3441063Y-10929243D01*
X3422496Y-10923054D01*
X3397739D01*
X529279Y-11306594D02*
Y-11436566D01*
Y-11306594D02*
X584981D01*
X603549Y-11312783D01*
X609738Y-11318972D01*
X615927Y-11331350D01*
Y-11343729D01*
X609738Y-11356107D01*
X603549Y-11362296D01*
X584981Y-11368485D01*
X529279D01*
X572603D02*
X615927Y-11436566D01*
X657394Y-11306594D02*
X725475D01*
X688340Y-11356107D01*
X706907D01*
X719286Y-11362296D01*
X725475Y-11368485D01*
X731664Y-11387053D01*
Y-11399431D01*
X725475Y-11417998D01*
X713097Y-11430377D01*
X694529Y-11436566D01*
X675962D01*
X657394Y-11430377D01*
X651205Y-11424188D01*
X645016Y-11411809D01*
X835023Y-11306594D02*
X773131D01*
X766942Y-11362296D01*
X773131Y-11356107D01*
X791699Y-11349918D01*
X810266D01*
X828834Y-11356107D01*
X841212Y-11368485D01*
X847401Y-11387053D01*
Y-11399431D01*
X841212Y-11417998D01*
X828834Y-11430377D01*
X810266Y-11436566D01*
X791699D01*
X773131Y-11430377D01*
X766942Y-11424188D01*
X760753Y-11411809D01*
X5893204Y-11243094D02*
Y-11373066D01*
Y-11243094D02*
X5948907D01*
X5967474Y-11249283D01*
X5973663Y-11255472D01*
X5979852Y-11267850D01*
Y-11280229D01*
X5973663Y-11292607D01*
X5967474Y-11298796D01*
X5948907Y-11304985D01*
X5893204D01*
X5936528D02*
X5979852Y-11373066D01*
X6021320Y-11243094D02*
X6089400D01*
X6052266Y-11292607D01*
X6070833D01*
X6083211Y-11298796D01*
X6089400Y-11304985D01*
X6095590Y-11323553D01*
Y-11335931D01*
X6089400Y-11354498D01*
X6077022Y-11366877D01*
X6058455Y-11373066D01*
X6039887D01*
X6021320Y-11366877D01*
X6015131Y-11360688D01*
X6008942Y-11348309D01*
X6186570Y-11243094D02*
X6124679Y-11329742D01*
X6217516D01*
X6186570Y-11243094D02*
Y-11373066D01*
X1735779Y-12025414D02*
Y-12155386D01*
Y-12025414D02*
X1791481D01*
X1810049Y-12031603D01*
X1816238Y-12037792D01*
X1822427Y-12050170D01*
Y-12062549D01*
X1816238Y-12074927D01*
X1810049Y-12081116D01*
X1791481Y-12087305D01*
X1735779D01*
X1779103D02*
X1822427Y-12155386D01*
X1863894Y-12025414D02*
X1931975D01*
X1894840Y-12074927D01*
X1913407D01*
X1925786Y-12081116D01*
X1931975Y-12087305D01*
X1938164Y-12105873D01*
Y-12118251D01*
X1931975Y-12136818D01*
X1919597Y-12149197D01*
X1901029Y-12155386D01*
X1882462D01*
X1863894Y-12149197D01*
X1857705Y-12143008D01*
X1851516Y-12130629D01*
X1979631Y-12025414D02*
X2047712D01*
X2010577Y-12074927D01*
X2029145D01*
X2041523Y-12081116D01*
X2047712Y-12087305D01*
X2053901Y-12105873D01*
Y-12118251D01*
X2047712Y-12136818D01*
X2035334Y-12149197D01*
X2016766Y-12155386D01*
X1998199D01*
X1979631Y-12149197D01*
X1973442Y-12143008D01*
X1967253Y-12130629D01*
X1839919Y-11837454D02*
Y-11967426D01*
Y-11837454D02*
X1895621D01*
X1914189Y-11843643D01*
X1920378Y-11849832D01*
X1926567Y-11862210D01*
Y-11874589D01*
X1920378Y-11886967D01*
X1914189Y-11893156D01*
X1895621Y-11899345D01*
X1839919D01*
X1883243D02*
X1926567Y-11967426D01*
X1968034Y-11837454D02*
X2036115D01*
X1998980Y-11886967D01*
X2017547D01*
X2029926Y-11893156D01*
X2036115Y-11899345D01*
X2042304Y-11917913D01*
Y-11930291D01*
X2036115Y-11948858D01*
X2023737Y-11961237D01*
X2005169Y-11967426D01*
X1986602D01*
X1968034Y-11961237D01*
X1961845Y-11955048D01*
X1955656Y-11942669D01*
X2077582Y-11868399D02*
Y-11862210D01*
X2083771Y-11849832D01*
X2089961Y-11843643D01*
X2102339Y-11837454D01*
X2127096D01*
X2139474Y-11843643D01*
X2145663Y-11849832D01*
X2151852Y-11862210D01*
Y-11874589D01*
X2145663Y-11886967D01*
X2133285Y-11905534D01*
X2071393Y-11967426D01*
X2158041D01*
X5893670Y-11050054D02*
Y-11180026D01*
Y-11050054D02*
X5949372D01*
X5967940Y-11056243D01*
X5974129Y-11062432D01*
X5980318Y-11074810D01*
Y-11087189D01*
X5974129Y-11099567D01*
X5967940Y-11105756D01*
X5949372Y-11111945D01*
X5893670D01*
X5936994D02*
X5980318Y-11180026D01*
X6021785Y-11050054D02*
X6089866D01*
X6052731Y-11099567D01*
X6071298D01*
X6083677Y-11105756D01*
X6089866Y-11111945D01*
X6096055Y-11130513D01*
Y-11142891D01*
X6089866Y-11161458D01*
X6077488Y-11173837D01*
X6058920Y-11180026D01*
X6040353D01*
X6021785Y-11173837D01*
X6015596Y-11167648D01*
X6009407Y-11155269D01*
X6125144Y-11074810D02*
X6137522Y-11068621D01*
X6156090Y-11050054D01*
Y-11180026D01*
X5893759Y-10867174D02*
Y-10997146D01*
Y-10867174D02*
X5949461D01*
X5968029Y-10873363D01*
X5974218Y-10879552D01*
X5980407Y-10891930D01*
Y-10904309D01*
X5974218Y-10916687D01*
X5968029Y-10922876D01*
X5949461Y-10929065D01*
X5893759D01*
X5937083D02*
X5980407Y-10997146D01*
X6015685Y-10898119D02*
Y-10891930D01*
X6021874Y-10879552D01*
X6028063Y-10873363D01*
X6040442Y-10867174D01*
X6065198D01*
X6077577Y-10873363D01*
X6083766Y-10879552D01*
X6089955Y-10891930D01*
Y-10904309D01*
X6083766Y-10916687D01*
X6071387Y-10935254D01*
X6009496Y-10997146D01*
X6096144D01*
X6156179Y-10867174D02*
X6137611Y-10873363D01*
X6131422Y-10885741D01*
Y-10898119D01*
X6137611Y-10910498D01*
X6149990Y-10916687D01*
X6174746Y-10922876D01*
X6193314Y-10929065D01*
X6205692Y-10941443D01*
X6211881Y-10953822D01*
Y-10972389D01*
X6205692Y-10984768D01*
X6199503Y-10990957D01*
X6180936Y-10997146D01*
X6156179D01*
X6137611Y-10990957D01*
X6131422Y-10984768D01*
X6125233Y-10972389D01*
Y-10953822D01*
X6131422Y-10941443D01*
X6143801Y-10929065D01*
X6162368Y-10922876D01*
X6187125Y-10916687D01*
X6199503Y-10910498D01*
X6205692Y-10898119D01*
Y-10885741D01*
X6199503Y-10873363D01*
X6180936Y-10867174D01*
X6156179D01*
X2894019Y-13775475D02*
Y-13905446D01*
Y-13775475D02*
X2949721D01*
X2968289Y-13781664D01*
X2974478Y-13787852D01*
X2980667Y-13800230D01*
Y-13812608D01*
X2974478Y-13824986D01*
X2968289Y-13831177D01*
X2949721Y-13837366D01*
X2894019D01*
X2937343D02*
X2980667Y-13905446D01*
X3015945Y-13806419D02*
Y-13800230D01*
X3022134Y-13787852D01*
X3028323Y-13781664D01*
X3040702Y-13775475D01*
X3065458D01*
X3077837Y-13781664D01*
X3084026Y-13787852D01*
X3090215Y-13800230D01*
Y-13812608D01*
X3084026Y-13824986D01*
X3071647Y-13843555D01*
X3009756Y-13905446D01*
X3096404D01*
X3212141Y-13775475D02*
X3150250Y-13905446D01*
X3125493Y-13775475D02*
X3212141D01*
X2886954Y-14397774D02*
Y-14527747D01*
Y-14397774D02*
X2942656D01*
X2961223Y-14403963D01*
X2967412Y-14410152D01*
X2973602Y-14422530D01*
Y-14434909D01*
X2967412Y-14447287D01*
X2961223Y-14453476D01*
X2942656Y-14459665D01*
X2886954D01*
X2930278D02*
X2973602Y-14527747D01*
X3008880Y-14428719D02*
Y-14422530D01*
X3015069Y-14410152D01*
X3021258Y-14403963D01*
X3033637Y-14397774D01*
X3058393D01*
X3070771Y-14403963D01*
X3076961Y-14410152D01*
X3083150Y-14422530D01*
Y-14434909D01*
X3076961Y-14447287D01*
X3064582Y-14465854D01*
X3002691Y-14527747D01*
X3089339D01*
X3192698Y-14416341D02*
X3186508Y-14403963D01*
X3167941Y-14397774D01*
X3155563D01*
X3136995Y-14403963D01*
X3124617Y-14422530D01*
X3118428Y-14453476D01*
Y-14484422D01*
X3124617Y-14509178D01*
X3136995Y-14521558D01*
X3155563Y-14527747D01*
X3161752D01*
X3180319Y-14521558D01*
X3192698Y-14509178D01*
X3198887Y-14490611D01*
Y-14484422D01*
X3192698Y-14465854D01*
X3180319Y-14453476D01*
X3161752Y-14447287D01*
X3155563D01*
X3136995Y-14453476D01*
X3124617Y-14465854D01*
X3118428Y-14484422D01*
X3393605Y-14485565D02*
X3381227Y-14491754D01*
X3368849Y-14504132D01*
X3362660Y-14516510D01*
X3356471Y-14535078D01*
Y-14566023D01*
X3362660Y-14584592D01*
X3368849Y-14596970D01*
X3381227Y-14609348D01*
X3393605Y-14615536D01*
X3418362D01*
X3430740Y-14609348D01*
X3443119Y-14596970D01*
X3449308Y-14584592D01*
X3455497Y-14566023D01*
Y-14535078D01*
X3449308Y-14516510D01*
X3443119Y-14504132D01*
X3430740Y-14491754D01*
X3418362Y-14485565D01*
X3393605D01*
X3412173Y-14590781D02*
X3449308Y-14627914D01*
X3485824Y-14510321D02*
X3498202Y-14504132D01*
X3516770Y-14485565D01*
Y-14615536D01*
X9360954Y-12954613D02*
X9490926D01*
Y-12880344D01*
X9385710Y-12866109D02*
X9379521Y-12853729D01*
X9360954Y-12835162D01*
X9490926D01*
X9360954Y-12733660D02*
X9367143Y-12752228D01*
X9385710Y-12764606D01*
X9416656Y-12770795D01*
X9435223D01*
X9466169Y-12764606D01*
X9484737Y-12752228D01*
X9490926Y-12733660D01*
Y-12721282D01*
X9484737Y-12702714D01*
X9466169Y-12690336D01*
X9435223Y-12684147D01*
X9416656D01*
X9385710Y-12690336D01*
X9367143Y-12702714D01*
X9360954Y-12721282D01*
Y-12733660D01*
X4365598Y-12513094D02*
Y-12643066D01*
X4439868D01*
X4534562Y-12556418D02*
X4528373Y-12574985D01*
X4515995Y-12587363D01*
X4497427Y-12593553D01*
X4491238D01*
X4472671Y-12587363D01*
X4460292Y-12574985D01*
X4454103Y-12556418D01*
Y-12550229D01*
X4460292Y-12531661D01*
X4472671Y-12519283D01*
X4491238Y-12513094D01*
X4497427D01*
X4515995Y-12519283D01*
X4528373Y-12531661D01*
X4534562Y-12556418D01*
Y-12587363D01*
X4528373Y-12618309D01*
X4515995Y-12636877D01*
X4497427Y-12643066D01*
X4485049D01*
X4466481Y-12636877D01*
X4460292Y-12624498D01*
X5279444Y-11822214D02*
Y-11952186D01*
X5353713D01*
X5398894Y-11822214D02*
X5380327Y-11828403D01*
X5374138Y-11840781D01*
Y-11853159D01*
X5380327Y-11865538D01*
X5392705Y-11871727D01*
X5417462Y-11877916D01*
X5436029Y-11884105D01*
X5448407Y-11896483D01*
X5454596Y-11908862D01*
Y-11927429D01*
X5448407Y-11939808D01*
X5442218Y-11945997D01*
X5423651Y-11952186D01*
X5398894D01*
X5380327Y-11945997D01*
X5374138Y-11939808D01*
X5367948Y-11927429D01*
Y-11908862D01*
X5374138Y-11896483D01*
X5386516Y-11884105D01*
X5405083Y-11877916D01*
X5429840Y-11871727D01*
X5442218Y-11865538D01*
X5448407Y-11853159D01*
Y-11840781D01*
X5442218Y-11828403D01*
X5423651Y-11822214D01*
X5398894D01*
X1886626Y-10262654D02*
Y-10361680D01*
X1880437Y-10380248D01*
X1874247Y-10386437D01*
X1861869Y-10392626D01*
X1849491D01*
X1837112Y-10386437D01*
X1830923Y-10380248D01*
X1824734Y-10361680D01*
Y-10349302D01*
X2000506Y-10305978D02*
X1994317Y-10324545D01*
X1981939Y-10336923D01*
X1963371Y-10343113D01*
X1957182D01*
X1938615Y-10336923D01*
X1926236Y-10324545D01*
X1920047Y-10305978D01*
Y-10299789D01*
X1926236Y-10281221D01*
X1938615Y-10268843D01*
X1957182Y-10262654D01*
X1963371D01*
X1981939Y-10268843D01*
X1994317Y-10281221D01*
X2000506Y-10305978D01*
Y-10336923D01*
X1994317Y-10367869D01*
X1981939Y-10386437D01*
X1963371Y-10392626D01*
X1950993D01*
X1932425Y-10386437D01*
X1926236Y-10374058D01*
X2320411Y-9686074D02*
Y-9785100D01*
X2314222Y-9803668D01*
X2308032Y-9809857D01*
X2295654Y-9816046D01*
X2283276D01*
X2270897Y-9809857D01*
X2264708Y-9803668D01*
X2258519Y-9785100D01*
Y-9772722D01*
X2384778Y-9686074D02*
X2366210Y-9692263D01*
X2360021Y-9704641D01*
Y-9717019D01*
X2366210Y-9729398D01*
X2378589Y-9735587D01*
X2403345Y-9741776D01*
X2421913Y-9747965D01*
X2434291Y-9760343D01*
X2440480Y-9772722D01*
Y-9791289D01*
X2434291Y-9803668D01*
X2428102Y-9809857D01*
X2409535Y-9816046D01*
X2384778D01*
X2366210Y-9809857D01*
X2360021Y-9803668D01*
X2353832Y-9791289D01*
Y-9772722D01*
X2360021Y-9760343D01*
X2372400Y-9747965D01*
X2390967Y-9741776D01*
X2415724Y-9735587D01*
X2428102Y-9729398D01*
X2434291Y-9717019D01*
Y-9704641D01*
X2428102Y-9692263D01*
X2409535Y-9686074D01*
X2384778D01*
X6521571Y-10605554D02*
Y-10704580D01*
X6515382Y-10723148D01*
X6509193Y-10729337D01*
X6496814Y-10735526D01*
X6484436D01*
X6472058Y-10729337D01*
X6465869Y-10723148D01*
X6459679Y-10704580D01*
Y-10692202D01*
X6641641Y-10605554D02*
X6579749Y-10735526D01*
X6554992Y-10605554D02*
X6641641D01*
X7667666Y-9706394D02*
Y-9805420D01*
X7661477Y-9823988D01*
X7655287Y-9830177D01*
X7642909Y-9836366D01*
X7630531D01*
X7618152Y-9830177D01*
X7611963Y-9823988D01*
X7605774Y-9805420D01*
Y-9793042D01*
X7775357Y-9724961D02*
X7769168Y-9712583D01*
X7750600Y-9706394D01*
X7738222D01*
X7719655Y-9712583D01*
X7707276Y-9731150D01*
X7701087Y-9762096D01*
Y-9793042D01*
X7707276Y-9817798D01*
X7719655Y-9830177D01*
X7738222Y-9836366D01*
X7744411D01*
X7762979Y-9830177D01*
X7775357Y-9817798D01*
X7781546Y-9799231D01*
Y-9793042D01*
X7775357Y-9774474D01*
X7762979Y-9762096D01*
X7744411Y-9755907D01*
X7738222D01*
X7719655Y-9762096D01*
X7707276Y-9774474D01*
X7701087Y-9793042D01*
X4697471Y-12868694D02*
Y-12998666D01*
Y-12868694D02*
X4740795D01*
X4759362Y-12874883D01*
X4771741Y-12887260D01*
X4777930Y-12899638D01*
X4784119Y-12918207D01*
Y-12949153D01*
X4777930Y-12967720D01*
X4771741Y-12980098D01*
X4759362Y-12992477D01*
X4740795Y-12998666D01*
X4697471D01*
X4813208Y-12893449D02*
X4825586Y-12887260D01*
X4844154Y-12868694D01*
Y-12998666D01*
X4914710Y-12899638D02*
Y-12893449D01*
X4920899Y-12881071D01*
X4927088Y-12874883D01*
X4939467Y-12868694D01*
X4964223D01*
X4976602Y-12874883D01*
X4982791Y-12881071D01*
X4988980Y-12893449D01*
Y-12905829D01*
X4982791Y-12918207D01*
X4970412Y-12936774D01*
X4908521Y-12998666D01*
X4995169D01*
X3368962Y-10681754D02*
Y-10811726D01*
Y-10681754D02*
X3412286D01*
X3430853Y-10687943D01*
X3443232Y-10700321D01*
X3449421Y-10712699D01*
X3455610Y-10731267D01*
Y-10762213D01*
X3449421Y-10780780D01*
X3443232Y-10793158D01*
X3430853Y-10805537D01*
X3412286Y-10811726D01*
X3368962D01*
X3484699Y-10706510D02*
X3497077Y-10700321D01*
X3515645Y-10681754D01*
Y-10811726D01*
X3580012Y-10706510D02*
X3592390Y-10700321D01*
X3610958Y-10681754D01*
Y-10811726D01*
X3059171Y-11396414D02*
Y-11526386D01*
Y-11396414D02*
X3102495D01*
X3121062Y-11402603D01*
X3133441Y-11414981D01*
X3139630Y-11427359D01*
X3145819Y-11445927D01*
Y-11476872D01*
X3139630Y-11495440D01*
X3133441Y-11507818D01*
X3121062Y-11520196D01*
X3102495Y-11526386D01*
X3059171D01*
X3174908Y-11421170D02*
X3187286Y-11414981D01*
X3205854Y-11396414D01*
Y-11526386D01*
X3307356Y-11396414D02*
X3288788Y-11402603D01*
X3276410Y-11421170D01*
X3270221Y-11452116D01*
Y-11470683D01*
X3276410Y-11501629D01*
X3288788Y-11520196D01*
X3307356Y-11526386D01*
X3319734D01*
X3338302Y-11520196D01*
X3350680Y-11501629D01*
X3356869Y-11470683D01*
Y-11452116D01*
X3350680Y-11421170D01*
X3338302Y-11402603D01*
X3319734Y-11396414D01*
X3307356D01*
X991007Y-10806214D02*
Y-10936186D01*
Y-10806214D02*
X1034331D01*
X1052899Y-10812403D01*
X1065277Y-10824781D01*
X1071466Y-10837159D01*
X1077655Y-10855727D01*
Y-10886673D01*
X1071466Y-10905240D01*
X1065277Y-10917618D01*
X1052899Y-10929997D01*
X1034331Y-10936186D01*
X991007D01*
X1193393Y-10806214D02*
X1131501Y-10936186D01*
X1106745Y-10806214D02*
X1193393D01*
X6104582Y-11817134D02*
Y-11947106D01*
Y-11817134D02*
X6147906D01*
X6166474Y-11823323D01*
X6178852Y-11835701D01*
X6185041Y-11848079D01*
X6191230Y-11866647D01*
Y-11897593D01*
X6185041Y-11916160D01*
X6178852Y-11928538D01*
X6166474Y-11940917D01*
X6147906Y-11947106D01*
X6104582D01*
X6294589Y-11835701D02*
X6288400Y-11823323D01*
X6269833Y-11817134D01*
X6257454D01*
X6238887Y-11823323D01*
X6226509Y-11841890D01*
X6220319Y-11872836D01*
Y-11903782D01*
X6226509Y-11928538D01*
X6238887Y-11940917D01*
X6257454Y-11947106D01*
X6263643D01*
X6282211Y-11940917D01*
X6294589Y-11928538D01*
X6300778Y-11909971D01*
Y-11903782D01*
X6294589Y-11885214D01*
X6282211Y-11872836D01*
X6263643Y-11866647D01*
X6257454D01*
X6238887Y-11872836D01*
X6226509Y-11885214D01*
X6220319Y-11903782D01*
X9883768Y-10628879D02*
X9877579Y-10616501D01*
X9865201Y-10604123D01*
X9852822Y-10597934D01*
X9828066D01*
X9815688Y-10604123D01*
X9803309Y-10616501D01*
X9797120Y-10628879D01*
X9790931Y-10647447D01*
Y-10678393D01*
X9797120Y-10696960D01*
X9803309Y-10709338D01*
X9815688Y-10721717D01*
X9828066Y-10727906D01*
X9852822D01*
X9865201Y-10721717D01*
X9877579Y-10709338D01*
X9883768Y-10696960D01*
X10006932Y-10597934D02*
X9945041Y-10727906D01*
X9920284Y-10597934D02*
X10006932D01*
X10042211Y-10628879D02*
Y-10622690D01*
X10048400Y-10610312D01*
X10054589Y-10604123D01*
X10066967Y-10597934D01*
X10091724D01*
X10104102Y-10604123D01*
X10110291Y-10610312D01*
X10116480Y-10622690D01*
Y-10635069D01*
X10110291Y-10647447D01*
X10097913Y-10666014D01*
X10036021Y-10727906D01*
X10122669D01*
X9573799Y-9706859D02*
X9567610Y-9694481D01*
X9555232Y-9682103D01*
X9542853Y-9675914D01*
X9518097D01*
X9505719Y-9682103D01*
X9493340Y-9694481D01*
X9487151Y-9706859D01*
X9480962Y-9725427D01*
Y-9756373D01*
X9487151Y-9774940D01*
X9493340Y-9787318D01*
X9505719Y-9799697D01*
X9518097Y-9805886D01*
X9542853D01*
X9555232Y-9799697D01*
X9567610Y-9787318D01*
X9573799Y-9774940D01*
X9696963Y-9675914D02*
X9635072Y-9805886D01*
X9610315Y-9675914D02*
X9696963D01*
X9726052Y-9700670D02*
X9738431Y-9694481D01*
X9756998Y-9675914D01*
Y-9805886D01*
X6183879Y-13331831D02*
X6171501Y-13338020D01*
X6159123Y-13350398D01*
X6152934Y-13362778D01*
Y-13387534D01*
X6159123Y-13399911D01*
X6171501Y-13412291D01*
X6183879Y-13418480D01*
X6202447Y-13424669D01*
X6233393D01*
X6251960Y-13418480D01*
X6264338Y-13412291D01*
X6276717Y-13399911D01*
X6282906Y-13387534D01*
Y-13362778D01*
X6276717Y-13350398D01*
X6264338Y-13338020D01*
X6251960Y-13331831D01*
X6152934Y-13208669D02*
X6282906Y-13270560D01*
X6152934Y-13295316D02*
Y-13208669D01*
Y-13142444D02*
X6159123Y-13161011D01*
X6177690Y-13173389D01*
X6208636Y-13179579D01*
X6227203D01*
X6258149Y-13173389D01*
X6276717Y-13161011D01*
X6282906Y-13142444D01*
Y-13130064D01*
X6276717Y-13111497D01*
X6258149Y-13099120D01*
X6227203Y-13092931D01*
X6208636D01*
X6177690Y-13099120D01*
X6159123Y-13111497D01*
X6152934Y-13130064D01*
Y-13142444D01*
X6374379Y-13335493D02*
X6362001Y-13341682D01*
X6349623Y-13354060D01*
X6343434Y-13366438D01*
Y-13391196D01*
X6349623Y-13403574D01*
X6362001Y-13415952D01*
X6374379Y-13422141D01*
X6392947Y-13428331D01*
X6423893D01*
X6442460Y-13422141D01*
X6454838Y-13415952D01*
X6467217Y-13403574D01*
X6473406Y-13391196D01*
Y-13366438D01*
X6467217Y-13354060D01*
X6454838Y-13341682D01*
X6442460Y-13335493D01*
X6362001Y-13224707D02*
X6349623Y-13230898D01*
X6343434Y-13249464D01*
Y-13261842D01*
X6349623Y-13280409D01*
X6368190Y-13292789D01*
X6399136Y-13298978D01*
X6430082D01*
X6454838Y-13292789D01*
X6467217Y-13280409D01*
X6473406Y-13261842D01*
Y-13255653D01*
X6467217Y-13237086D01*
X6454838Y-13224707D01*
X6436271Y-13218518D01*
X6430082D01*
X6411514Y-13224707D01*
X6399136Y-13237086D01*
X6392947Y-13255653D01*
Y-13261842D01*
X6399136Y-13280409D01*
X6411514Y-13292789D01*
X6430082Y-13298978D01*
X6386758Y-13109589D02*
X6405325Y-13115778D01*
X6417703Y-13128157D01*
X6423893Y-13146724D01*
Y-13152913D01*
X6417703Y-13171481D01*
X6405325Y-13183859D01*
X6386758Y-13190048D01*
X6380569D01*
X6362001Y-13183859D01*
X6349623Y-13171481D01*
X6343434Y-13152913D01*
Y-13146724D01*
X6349623Y-13128157D01*
X6362001Y-13115778D01*
X6386758Y-13109589D01*
X6417703D01*
X6448649Y-13115778D01*
X6467217Y-13128157D01*
X6473406Y-13146724D01*
Y-13159102D01*
X6467217Y-13177670D01*
X6454838Y-13183859D01*
X2576510Y-10718882D02*
X2570321Y-10706504D01*
X2557943Y-10694125D01*
X2545565Y-10687936D01*
X2520808D01*
X2508430Y-10694125D01*
X2496051Y-10706504D01*
X2489862Y-10718882D01*
X2483673Y-10737449D01*
Y-10768395D01*
X2489862Y-10786962D01*
X2496051Y-10799341D01*
X2508430Y-10811719D01*
X2520808Y-10817908D01*
X2545565D01*
X2557943Y-10811719D01*
X2570321Y-10799341D01*
X2576510Y-10786962D01*
X2687296Y-10706504D02*
X2681107Y-10694125D01*
X2662540Y-10687936D01*
X2650161D01*
X2631594Y-10694125D01*
X2619216Y-10712693D01*
X2613027Y-10743638D01*
Y-10774584D01*
X2619216Y-10799341D01*
X2631594Y-10811719D01*
X2650161Y-10817908D01*
X2656351D01*
X2674918Y-10811719D01*
X2687296Y-10799341D01*
X2693485Y-10780773D01*
Y-10774584D01*
X2687296Y-10756017D01*
X2674918Y-10743638D01*
X2656351Y-10737449D01*
X2650161D01*
X2631594Y-10743638D01*
X2619216Y-10756017D01*
X2613027Y-10774584D01*
X2752901Y-10687936D02*
X2734334Y-10694125D01*
X2728145Y-10706504D01*
Y-10718882D01*
X2734334Y-10731260D01*
X2746712Y-10737449D01*
X2771469Y-10743638D01*
X2790036Y-10749828D01*
X2802414Y-10762206D01*
X2808603Y-10774584D01*
Y-10793152D01*
X2802414Y-10805530D01*
X2796225Y-10811719D01*
X2777658Y-10817908D01*
X2752901D01*
X2734334Y-10811719D01*
X2728145Y-10805530D01*
X2721955Y-10793152D01*
Y-10774584D01*
X2728145Y-10762206D01*
X2740523Y-10749828D01*
X2759090Y-10743638D01*
X2783847Y-10737449D01*
X2796225Y-10731260D01*
X2802414Y-10718882D01*
Y-10706504D01*
X2796225Y-10694125D01*
X2777658Y-10687936D01*
X2752901D01*
X2246033Y-10349479D02*
X2239843Y-10337101D01*
X2227465Y-10324723D01*
X2215087Y-10318534D01*
X2190330D01*
X2177952Y-10324723D01*
X2165574Y-10337101D01*
X2159385Y-10349479D01*
X2153195Y-10368047D01*
Y-10398993D01*
X2159385Y-10417560D01*
X2165574Y-10429939D01*
X2177952Y-10442317D01*
X2190330Y-10448506D01*
X2215087D01*
X2227465Y-10442317D01*
X2239843Y-10429939D01*
X2246033Y-10417560D01*
X2356819Y-10337101D02*
X2350629Y-10324723D01*
X2332062Y-10318534D01*
X2319683D01*
X2301116Y-10324723D01*
X2288738Y-10343290D01*
X2282549Y-10374236D01*
Y-10405182D01*
X2288738Y-10429939D01*
X2301116Y-10442317D01*
X2319683Y-10448506D01*
X2325873D01*
X2344440Y-10442317D01*
X2356819Y-10429939D01*
X2363007Y-10411371D01*
Y-10405182D01*
X2356819Y-10386614D01*
X2344440Y-10374236D01*
X2325873Y-10368047D01*
X2319683D01*
X2301116Y-10374236D01*
X2288738Y-10386614D01*
X2282549Y-10405182D01*
X2478126Y-10318534D02*
X2416234Y-10448506D01*
X2391478Y-10318534D02*
X2478126D01*
X5543799Y-13553934D02*
X5531421Y-13560123D01*
X5519043Y-13572501D01*
X5512854Y-13584879D01*
Y-13609636D01*
X5519043Y-13622014D01*
X5531421Y-13634392D01*
X5543799Y-13640581D01*
X5562367Y-13646771D01*
X5593313D01*
X5611880Y-13640581D01*
X5624258Y-13634392D01*
X5636637Y-13622014D01*
X5642826Y-13609636D01*
Y-13584879D01*
X5636637Y-13572501D01*
X5624258Y-13560123D01*
X5611880Y-13553934D01*
X5531421Y-13443147D02*
X5519043Y-13449336D01*
X5512854Y-13467905D01*
Y-13480283D01*
X5519043Y-13498849D01*
X5537610Y-13511227D01*
X5568556Y-13517416D01*
X5599502D01*
X5624258Y-13511227D01*
X5636637Y-13498849D01*
X5642826Y-13480283D01*
Y-13474094D01*
X5636637Y-13455527D01*
X5624258Y-13443147D01*
X5605691Y-13436958D01*
X5599502D01*
X5580934Y-13443147D01*
X5568556Y-13455527D01*
X5562367Y-13474094D01*
Y-13480283D01*
X5568556Y-13498849D01*
X5580934Y-13511227D01*
X5599502Y-13517416D01*
X5531421Y-13334218D02*
X5519043Y-13340408D01*
X5512854Y-13358975D01*
Y-13371353D01*
X5519043Y-13389922D01*
X5537610Y-13402299D01*
X5568556Y-13408488D01*
X5599502D01*
X5624258Y-13402299D01*
X5636637Y-13389922D01*
X5642826Y-13371353D01*
Y-13365164D01*
X5636637Y-13346597D01*
X5624258Y-13334218D01*
X5605691Y-13328029D01*
X5599502D01*
X5580934Y-13334218D01*
X5568556Y-13346597D01*
X5562367Y-13365164D01*
Y-13371353D01*
X5568556Y-13389922D01*
X5580934Y-13402299D01*
X5599502Y-13408488D01*
X946372Y-10491719D02*
X940183Y-10479341D01*
X927805Y-10466963D01*
X915426Y-10460774D01*
X890670D01*
X878292Y-10466963D01*
X865913Y-10479341D01*
X859724Y-10491719D01*
X853535Y-10510287D01*
Y-10541233D01*
X859724Y-10559800D01*
X865913Y-10572178D01*
X878292Y-10584557D01*
X890670Y-10590746D01*
X915426D01*
X927805Y-10584557D01*
X940183Y-10572178D01*
X946372Y-10559800D01*
X1057158Y-10479341D02*
X1050969Y-10466963D01*
X1032402Y-10460774D01*
X1020023D01*
X1001456Y-10466963D01*
X989078Y-10485530D01*
X982888Y-10516476D01*
Y-10547422D01*
X989078Y-10572178D01*
X1001456Y-10584557D01*
X1020023Y-10590746D01*
X1026212D01*
X1044780Y-10584557D01*
X1057158Y-10572178D01*
X1063347Y-10553611D01*
Y-10547422D01*
X1057158Y-10528854D01*
X1044780Y-10516476D01*
X1026212Y-10510287D01*
X1020023D01*
X1001456Y-10516476D01*
X989078Y-10528854D01*
X982888Y-10547422D01*
X1098006Y-10491719D02*
Y-10485530D01*
X1104195Y-10473152D01*
X1110385Y-10466963D01*
X1122763Y-10460774D01*
X1147520D01*
X1159898Y-10466963D01*
X1166087Y-10473152D01*
X1172276Y-10485530D01*
Y-10497909D01*
X1166087Y-10510287D01*
X1153709Y-10528854D01*
X1091817Y-10590746D01*
X1178465D01*
X3226983Y-11154659D02*
X3220793Y-11142281D01*
X3208415Y-11129903D01*
X3196037Y-11123714D01*
X3171280D01*
X3158902Y-11129903D01*
X3146524Y-11142281D01*
X3140335Y-11154659D01*
X3134145Y-11173227D01*
Y-11204173D01*
X3140335Y-11222740D01*
X3146524Y-11235118D01*
X3158902Y-11247497D01*
X3171280Y-11253686D01*
X3196037D01*
X3208415Y-11247497D01*
X3220793Y-11235118D01*
X3226983Y-11222740D01*
X3337769Y-11123714D02*
X3275877D01*
X3269688Y-11179416D01*
X3275877Y-11173227D01*
X3294445Y-11167038D01*
X3313012D01*
X3331579Y-11173227D01*
X3343957Y-11185605D01*
X3350147Y-11204173D01*
Y-11216551D01*
X3343957Y-11235118D01*
X3331579Y-11247497D01*
X3313012Y-11253686D01*
X3294445D01*
X3275877Y-11247497D01*
X3269688Y-11241308D01*
X3263499Y-11228929D01*
X3459695Y-11167038D02*
X3453506Y-11185605D01*
X3441127Y-11197983D01*
X3422560Y-11204173D01*
X3416371D01*
X3397803Y-11197983D01*
X3385425Y-11185605D01*
X3379236Y-11167038D01*
Y-11160849D01*
X3385425Y-11142281D01*
X3397803Y-11129903D01*
X3416371Y-11123714D01*
X3422560D01*
X3441127Y-11129903D01*
X3453506Y-11142281D01*
X3459695Y-11167038D01*
Y-11197983D01*
X3453506Y-11228929D01*
X3441127Y-11247497D01*
X3422560Y-11253686D01*
X3410182D01*
X3391614Y-11247497D01*
X3385425Y-11235118D01*
X744223Y-11548359D02*
X738033Y-11535981D01*
X725655Y-11523603D01*
X713277Y-11517414D01*
X688520D01*
X676142Y-11523603D01*
X663763Y-11535981D01*
X657575Y-11548359D01*
X651385Y-11566927D01*
Y-11597872D01*
X657575Y-11616440D01*
X663763Y-11628818D01*
X676142Y-11641196D01*
X688520Y-11647386D01*
X713277D01*
X725655Y-11641196D01*
X738033Y-11628818D01*
X744223Y-11616440D01*
X855008Y-11517414D02*
X793117D01*
X786928Y-11573116D01*
X793117Y-11566927D01*
X811684Y-11560738D01*
X830252D01*
X848819Y-11566927D01*
X861197Y-11579305D01*
X867387Y-11597872D01*
Y-11610251D01*
X861197Y-11628818D01*
X848819Y-11641196D01*
X830252Y-11647386D01*
X811684D01*
X793117Y-11641196D01*
X786928Y-11635007D01*
X780739Y-11622629D01*
X908854Y-11517414D02*
X976935D01*
X939800Y-11566927D01*
X958367D01*
X970746Y-11573116D01*
X976935Y-11579305D01*
X983124Y-11597872D01*
Y-11610251D01*
X976935Y-11628818D01*
X964556Y-11641196D01*
X945989Y-11647386D01*
X927422D01*
X908854Y-11641196D01*
X902665Y-11635007D01*
X896476Y-11622629D01*
X1225213Y-12103375D02*
X1219024Y-12090997D01*
X1206646Y-12078618D01*
X1194268Y-12072429D01*
X1169511D01*
X1157133Y-12078618D01*
X1144754Y-12090997D01*
X1138565Y-12103375D01*
X1132376Y-12121942D01*
Y-12152888D01*
X1138565Y-12171455D01*
X1144754Y-12183834D01*
X1157133Y-12196212D01*
X1169511Y-12202401D01*
X1194268D01*
X1206646Y-12196212D01*
X1219024Y-12183834D01*
X1225213Y-12171455D01*
X1335999Y-12072429D02*
X1274108D01*
X1267919Y-12128131D01*
X1274108Y-12121942D01*
X1292675Y-12115753D01*
X1311243D01*
X1329810Y-12121942D01*
X1342188Y-12134321D01*
X1348378Y-12152888D01*
Y-12165266D01*
X1342188Y-12183834D01*
X1329810Y-12196212D01*
X1311243Y-12202401D01*
X1292675D01*
X1274108Y-12196212D01*
X1267919Y-12190023D01*
X1261730Y-12177645D01*
X1383656Y-12103375D02*
Y-12097186D01*
X1389845Y-12084807D01*
X1396034Y-12078618D01*
X1408412Y-12072429D01*
X1433169D01*
X1445547Y-12078618D01*
X1451736Y-12084807D01*
X1457925Y-12097186D01*
Y-12109564D01*
X1451736Y-12121942D01*
X1439358Y-12140510D01*
X1377467Y-12202401D01*
X1464115D01*
X2054677Y-11230859D02*
X2048488Y-11218481D01*
X2036110Y-11206103D01*
X2023731Y-11199914D01*
X1998975D01*
X1986596Y-11206103D01*
X1974218Y-11218481D01*
X1968029Y-11230859D01*
X1961840Y-11249427D01*
Y-11280373D01*
X1968029Y-11298940D01*
X1974218Y-11311318D01*
X1986596Y-11323697D01*
X1998975Y-11329886D01*
X2023731D01*
X2036110Y-11323697D01*
X2048488Y-11311318D01*
X2054677Y-11298940D01*
X2165463Y-11199914D02*
X2103571D01*
X2097382Y-11255616D01*
X2103571Y-11249427D01*
X2122139Y-11243238D01*
X2140706D01*
X2159274Y-11249427D01*
X2171652Y-11261805D01*
X2177841Y-11280373D01*
Y-11292751D01*
X2171652Y-11311318D01*
X2159274Y-11323697D01*
X2140706Y-11329886D01*
X2122139D01*
X2103571Y-11323697D01*
X2097382Y-11317508D01*
X2091193Y-11305129D01*
X2206930Y-11224670D02*
X2219308Y-11218481D01*
X2237876Y-11199914D01*
Y-11329886D01*
X2026826Y-11650676D02*
X2020637Y-11638298D01*
X2008259Y-11625920D01*
X1995880Y-11619731D01*
X1971124D01*
X1958745Y-11625920D01*
X1946367Y-11638298D01*
X1940178Y-11650676D01*
X1933989Y-11669244D01*
Y-11700189D01*
X1940178Y-11718757D01*
X1946367Y-11731135D01*
X1958745Y-11743513D01*
X1971124Y-11749703D01*
X1995880D01*
X2008259Y-11743513D01*
X2020637Y-11731135D01*
X2026826Y-11718757D01*
X2137612Y-11619731D02*
X2075720D01*
X2069531Y-11675433D01*
X2075720Y-11669244D01*
X2094288Y-11663055D01*
X2112855D01*
X2131423Y-11669244D01*
X2143801Y-11681622D01*
X2149990Y-11700189D01*
Y-11712568D01*
X2143801Y-11731135D01*
X2131423Y-11743513D01*
X2112855Y-11749703D01*
X2094288D01*
X2075720Y-11743513D01*
X2069531Y-11737325D01*
X2063342Y-11724946D01*
X2216214Y-11619731D02*
X2197647Y-11625920D01*
X2185268Y-11644487D01*
X2179079Y-11675433D01*
Y-11694000D01*
X2185268Y-11724946D01*
X2197647Y-11743513D01*
X2216214Y-11749703D01*
X2228592D01*
X2247160Y-11743513D01*
X2259538Y-11724946D01*
X2265727Y-11694000D01*
Y-11675433D01*
X2259538Y-11644487D01*
X2247160Y-11625920D01*
X2228592Y-11619731D01*
X2216214D01*
X5972168Y-11441679D02*
X5965979Y-11429301D01*
X5953601Y-11416923D01*
X5941222Y-11410734D01*
X5916466D01*
X5904088Y-11416923D01*
X5891709Y-11429301D01*
X5885520Y-11441679D01*
X5879331Y-11460247D01*
Y-11491193D01*
X5885520Y-11509760D01*
X5891709Y-11522138D01*
X5904088Y-11534517D01*
X5916466Y-11540706D01*
X5941222D01*
X5953601Y-11534517D01*
X5965979Y-11522138D01*
X5972168Y-11509760D01*
X6070576Y-11410734D02*
X6008684Y-11497382D01*
X6101521D01*
X6070576Y-11410734D02*
Y-11540706D01*
X6155367Y-11410734D02*
X6136800Y-11416923D01*
X6130611Y-11429301D01*
Y-11441679D01*
X6136800Y-11454058D01*
X6149178Y-11460247D01*
X6173935Y-11466436D01*
X6192502Y-11472625D01*
X6204880Y-11485003D01*
X6211069Y-11497382D01*
Y-11515949D01*
X6204880Y-11528328D01*
X6198691Y-11534517D01*
X6180124Y-11540706D01*
X6155367D01*
X6136800Y-11534517D01*
X6130611Y-11528328D01*
X6124421Y-11515949D01*
Y-11497382D01*
X6130611Y-11485003D01*
X6142989Y-11472625D01*
X6161556Y-11466436D01*
X6186313Y-11460247D01*
X6198691Y-11454058D01*
X6204880Y-11441679D01*
Y-11429301D01*
X6198691Y-11416923D01*
X6180124Y-11410734D01*
X6155367D01*
X5962008Y-11614399D02*
X5955819Y-11602021D01*
X5943441Y-11589643D01*
X5931062Y-11583454D01*
X5906306D01*
X5893928Y-11589643D01*
X5881549Y-11602021D01*
X5875360Y-11614399D01*
X5869171Y-11632967D01*
Y-11663913D01*
X5875360Y-11682480D01*
X5881549Y-11694858D01*
X5893928Y-11707237D01*
X5906306Y-11713426D01*
X5931062D01*
X5943441Y-11707237D01*
X5955819Y-11694858D01*
X5962008Y-11682480D01*
X6060416Y-11583454D02*
X5998524Y-11670102D01*
X6091361D01*
X6060416Y-11583454D02*
Y-11713426D01*
X6200909Y-11583454D02*
X6139018Y-11713426D01*
X6114261Y-11583454D02*
X6200909D01*
X6531869Y-14921014D02*
Y-15013850D01*
X6538058Y-15032417D01*
X6550436Y-15044797D01*
X6569004Y-15050986D01*
X6581382D01*
X6599949Y-15044797D01*
X6612328Y-15032417D01*
X6618517Y-15013850D01*
Y-14921014D01*
X6716305D02*
X6654414Y-15007661D01*
X6747251D01*
X6716305Y-14921014D02*
Y-15050986D01*
X-704937Y-16196559D02*
X-711127Y-16184181D01*
X-723505Y-16171803D01*
X-735883Y-16165614D01*
X-760640D01*
X-773018Y-16171803D01*
X-785396Y-16184181D01*
X-791585Y-16196559D01*
X-797775Y-16215128D01*
Y-16246072D01*
X-791585Y-16264639D01*
X-785396Y-16277019D01*
X-773018Y-16289397D01*
X-760640Y-16295586D01*
X-735883D01*
X-723505Y-16289397D01*
X-711127Y-16277019D01*
X-704937Y-16264639D01*
X-606530Y-16165614D02*
X-668421Y-16252261D01*
X-575584D01*
X-606530Y-16165614D02*
Y-16295586D01*
X-478414Y-16184181D02*
X-484604Y-16171803D01*
X-503171Y-16165614D01*
X-515549D01*
X-534117Y-16171803D01*
X-546495Y-16190370D01*
X-552684Y-16221317D01*
Y-16252261D01*
X-546495Y-16277019D01*
X-534117Y-16289397D01*
X-515549Y-16295586D01*
X-509360D01*
X-490793Y-16289397D01*
X-478414Y-16277019D01*
X-472225Y-16258450D01*
Y-16252261D01*
X-478414Y-16233694D01*
X-490793Y-16221317D01*
X-509360Y-16215128D01*
X-515549D01*
X-534117Y-16221317D01*
X-546495Y-16233694D01*
X-552684Y-16252261D01*
X38728Y-14502379D02*
X32539Y-14490001D01*
X20161Y-14477623D01*
X7782Y-14471434D01*
X-16974D01*
X-29352Y-14477623D01*
X-41731Y-14490001D01*
X-47920Y-14502379D01*
X-54109Y-14520947D01*
Y-14551894D01*
X-47920Y-14570461D01*
X-41731Y-14582838D01*
X-29352Y-14595216D01*
X-16974Y-14601405D01*
X7782D01*
X20161Y-14595216D01*
X32539Y-14582838D01*
X38728Y-14570461D01*
X137136Y-14471434D02*
X75244Y-14558083D01*
X168081D01*
X137136Y-14471434D02*
Y-14601405D01*
X265251Y-14471434D02*
X203360D01*
X197171Y-14527136D01*
X203360Y-14520947D01*
X221927Y-14514758D01*
X240495D01*
X259062Y-14520947D01*
X271440Y-14533325D01*
X277629Y-14551894D01*
Y-14564272D01*
X271440Y-14582838D01*
X259062Y-14595216D01*
X240495Y-14601405D01*
X221927D01*
X203360Y-14595216D01*
X197171Y-14589027D01*
X190981Y-14576649D01*
X1931998Y-14739938D02*
X1936374Y-14726810D01*
X1936375Y-14709303D01*
X1931998Y-14696175D01*
X1914492Y-14678670D01*
X1901363Y-14674292D01*
X1883858D01*
X1870729Y-14678670D01*
X1853223Y-14687422D01*
X1831341Y-14709303D01*
X1822588Y-14726810D01*
X1818212Y-14739938D01*
X1818212Y-14757443D01*
X1822588Y-14770573D01*
X1840094Y-14788078D01*
X1853223Y-14792455D01*
X1870729D01*
X1883858Y-14788078D01*
X1962195Y-14770135D02*
X1966571Y-14765759D01*
X1979701Y-14761382D01*
X1988453D01*
X2001583Y-14765759D01*
X2019088Y-14783266D01*
X2023465Y-14796394D01*
Y-14805147D01*
X2019088Y-14818275D01*
X2010335Y-14827029D01*
X1997206Y-14831406D01*
X1975324Y-14835780D01*
X1887797D01*
X1949066Y-14897050D01*
X2044034Y-14851974D02*
X2048410Y-14847598D01*
X2061539Y-14843221D01*
X2070292D01*
X2083421Y-14847598D01*
X2100927Y-14865103D01*
X2105303Y-14878232D01*
Y-14886984D01*
X2100926Y-14900114D01*
X2092174Y-14908867D01*
X2079045Y-14913243D01*
X2057163Y-14917619D01*
X1969635D01*
X2030904Y-14978889D01*
X645699Y-14144238D02*
X639510Y-14131860D01*
X627132Y-14119482D01*
X614753Y-14113293D01*
X589997D01*
X577619Y-14119482D01*
X565240Y-14131860D01*
X559051Y-14144238D01*
X552862Y-14162807D01*
Y-14193753D01*
X559051Y-14212320D01*
X565240Y-14224698D01*
X577619Y-14237077D01*
X589997Y-14243266D01*
X614753D01*
X627132Y-14237077D01*
X639510Y-14224698D01*
X645699Y-14212320D01*
X688405Y-14144238D02*
Y-14138049D01*
X694593Y-14125671D01*
X700783Y-14119482D01*
X713161Y-14113293D01*
X737918D01*
X750296Y-14119482D01*
X756485Y-14125671D01*
X762674Y-14138049D01*
Y-14150429D01*
X756485Y-14162807D01*
X744107Y-14181374D01*
X682215Y-14243266D01*
X768863D01*
X797952Y-14138049D02*
X810331Y-14131860D01*
X828898Y-14113293D01*
Y-14243266D01*
X-408349Y-16699480D02*
X-414538Y-16687102D01*
X-426916Y-16674722D01*
X-439295Y-16668533D01*
X-464051D01*
X-476429Y-16674722D01*
X-488808Y-16687102D01*
X-494997Y-16699480D01*
X-501186Y-16718047D01*
Y-16748993D01*
X-494997Y-16767560D01*
X-488808Y-16779938D01*
X-476429Y-16792317D01*
X-464051Y-16798506D01*
X-439295D01*
X-426916Y-16792317D01*
X-414538Y-16779938D01*
X-408349Y-16767560D01*
X-371833Y-16693291D02*
X-359454Y-16687102D01*
X-340887Y-16668533D01*
Y-16798506D01*
X-276520Y-16693291D02*
X-264141Y-16687102D01*
X-245574Y-16668533D01*
Y-16798506D01*
X512535Y-14438414D02*
Y-14531252D01*
X518724Y-14549818D01*
X531102Y-14562196D01*
X549669Y-14568385D01*
X562048D01*
X580615Y-14562196D01*
X592993Y-14549818D01*
X599183Y-14531252D01*
Y-14438414D01*
X635080Y-14463170D02*
X647458Y-14456981D01*
X666026Y-14438414D01*
Y-14568385D01*
X2042479Y-17288293D02*
X2129127Y-17418266D01*
Y-17288293D02*
X2042479Y-17418266D01*
X2158216Y-17313049D02*
X2170594Y-17306860D01*
X2189161Y-17288293D01*
Y-17418266D01*
X6809798Y-10844314D02*
Y-10937151D01*
X6815987Y-10955718D01*
X6828366Y-10968097D01*
X6846933Y-10974286D01*
X6859311D01*
X6877879Y-10968097D01*
X6890257Y-10955718D01*
X6896446Y-10937151D01*
Y-10844314D01*
X6932343Y-10869070D02*
X6944721Y-10862881D01*
X6963289Y-10844314D01*
Y-10974286D01*
X7027656Y-10869070D02*
X7040034Y-10862881D01*
X7058602Y-10844314D01*
Y-10974286D01*
X8082427Y-9670834D02*
Y-9763671D01*
X8088616Y-9782238D01*
X8100994Y-9794617D01*
X8119562Y-9800806D01*
X8131940D01*
X8150508Y-9794617D01*
X8162886Y-9782238D01*
X8169075Y-9763671D01*
Y-9670834D01*
X8204972Y-9695590D02*
X8217350Y-9689401D01*
X8235918Y-9670834D01*
Y-9800806D01*
X8337420Y-9670834D02*
X8318853Y-9677023D01*
X8306474Y-9695590D01*
X8300285Y-9726536D01*
Y-9745103D01*
X8306474Y-9776049D01*
X8318853Y-9794617D01*
X8337420Y-9800806D01*
X8349798D01*
X8368366Y-9794617D01*
X8380744Y-9776049D01*
X8386933Y-9745103D01*
Y-9726536D01*
X8380744Y-9695590D01*
X8368366Y-9677023D01*
X8349798Y-9670834D01*
X8337420D01*
X2910938Y-13549414D02*
Y-13642252D01*
X2917127Y-13660818D01*
X2929505Y-13673196D01*
X2948073Y-13679385D01*
X2960451D01*
X2979019Y-13673196D01*
X2991397Y-13660818D01*
X2997586Y-13642252D01*
Y-13549414D01*
X3113942Y-13592738D02*
X3107753Y-13611305D01*
X3095375Y-13623683D01*
X3076807Y-13629874D01*
X3070618D01*
X3052051Y-13623683D01*
X3039672Y-13611305D01*
X3033483Y-13592738D01*
Y-13586549D01*
X3039672Y-13567981D01*
X3052051Y-13555603D01*
X3070618Y-13549414D01*
X3076807D01*
X3095375Y-13555603D01*
X3107753Y-13567981D01*
X3113942Y-13592738D01*
Y-13623683D01*
X3107753Y-13654630D01*
X3095375Y-13673196D01*
X3076807Y-13679385D01*
X3064429D01*
X3045861Y-13673196D01*
X3039672Y-13660818D01*
X-696416Y-11725694D02*
Y-11818531D01*
X-690227Y-11837098D01*
X-677849Y-11849477D01*
X-659282Y-11855666D01*
X-646903D01*
X-628336Y-11849477D01*
X-615958Y-11837098D01*
X-609768Y-11818531D01*
Y-11725694D01*
X-542926D02*
X-561493Y-11731883D01*
X-567682Y-11744261D01*
Y-11756639D01*
X-561493Y-11769018D01*
X-549115Y-11775207D01*
X-524358Y-11781396D01*
X-505791Y-11787585D01*
X-493413Y-11799963D01*
X-487223Y-11812342D01*
Y-11830909D01*
X-493413Y-11843288D01*
X-499601Y-11849477D01*
X-518169Y-11855666D01*
X-542926D01*
X-561493Y-11849477D01*
X-567682Y-11843288D01*
X-573871Y-11830909D01*
Y-11812342D01*
X-567682Y-11799963D01*
X-555304Y-11787585D01*
X-536737Y-11781396D01*
X-511980Y-11775207D01*
X-499601Y-11769018D01*
X-493413Y-11756639D01*
Y-11744261D01*
X-499601Y-11731883D01*
X-518169Y-11725694D01*
X-542926D01*
X-510996Y-17580394D02*
Y-17673232D01*
X-504807Y-17691798D01*
X-492429Y-17704176D01*
X-473862Y-17710365D01*
X-461483D01*
X-442916Y-17704176D01*
X-430538Y-17691798D01*
X-424348Y-17673232D01*
Y-17580394D01*
X-301803D02*
X-363695Y-17710365D01*
X-388451Y-17580394D02*
X-301803D01*
X9151718Y-15319794D02*
Y-15412631D01*
X9157907Y-15431198D01*
X9170285Y-15443578D01*
X9188853Y-15449767D01*
X9201231D01*
X9219799Y-15443578D01*
X9232177Y-15431198D01*
X9238366Y-15412631D01*
Y-15319794D01*
X9348533Y-15338361D02*
X9342344Y-15325983D01*
X9323776Y-15319794D01*
X9311398D01*
X9292831Y-15325983D01*
X9280452Y-15344550D01*
X9274263Y-15375496D01*
Y-15406442D01*
X9280452Y-15431198D01*
X9292831Y-15443578D01*
X9311398Y-15449767D01*
X9317587D01*
X9336155Y-15443578D01*
X9348533Y-15431198D01*
X9354722Y-15412631D01*
Y-15406442D01*
X9348533Y-15387874D01*
X9336155Y-15375496D01*
X9317587Y-15369307D01*
X9311398D01*
X9292831Y-15375496D01*
X9280452Y-15387874D01*
X9274263Y-15406442D01*
X7669314Y-16236136D02*
X7762151D01*
X7780719Y-16229947D01*
X7793097Y-16217569D01*
X7799286Y-16199002D01*
Y-16186623D01*
X7793097Y-16168056D01*
X7780719Y-16155678D01*
X7762151Y-16149487D01*
X7669314D01*
Y-16039320D02*
Y-16101213D01*
X7725016Y-16107402D01*
X7718827Y-16101213D01*
X7712638Y-16082646D01*
Y-16064078D01*
X7718827Y-16045511D01*
X7731205Y-16033133D01*
X7749773Y-16026942D01*
X7762151D01*
X7780719Y-16033133D01*
X7793097Y-16045511D01*
X7799286Y-16064078D01*
Y-16082646D01*
X7793097Y-16101213D01*
X7786908Y-16107402D01*
X7774529Y-16113591D01*
X9727744Y-16546614D02*
Y-16639452D01*
X9733933Y-16658018D01*
X9746311Y-16670396D01*
X9764878Y-16676585D01*
X9777257D01*
X9795824Y-16670396D01*
X9808202Y-16658018D01*
X9814392Y-16639452D01*
Y-16546614D01*
X9862667D02*
X9930747D01*
X9893613Y-16596127D01*
X9912180D01*
X9924559Y-16602316D01*
X9930747Y-16608505D01*
X9936937Y-16627074D01*
Y-16639452D01*
X9930747Y-16658018D01*
X9918369Y-16670396D01*
X9899802Y-16676585D01*
X9881234D01*
X9862667Y-16670396D01*
X9856478Y-16664207D01*
X9850289Y-16651830D01*
X-926141Y-11316754D02*
Y-11446726D01*
Y-11316754D02*
X-870439D01*
X-851871Y-11322943D01*
X-845682Y-11329132D01*
X-839493Y-11341510D01*
Y-11353889D01*
X-845682Y-11366267D01*
X-851871Y-11372456D01*
X-870439Y-11378645D01*
X-926141D01*
X-882817D02*
X-839493Y-11446726D01*
X-804215Y-11347699D02*
Y-11341510D01*
X-798026Y-11329132D01*
X-791837Y-11322943D01*
X-779458Y-11316754D01*
X-754702D01*
X-742323Y-11322943D01*
X-736134Y-11329132D01*
X-729945Y-11341510D01*
Y-11353889D01*
X-736134Y-11366267D01*
X-748513Y-11384834D01*
X-810404Y-11446726D01*
X-723756D01*
X-620397Y-11316754D02*
X-682289D01*
X-688478Y-11372456D01*
X-682289Y-11366267D01*
X-663721Y-11360078D01*
X-645154D01*
X-626586Y-11366267D01*
X-614208Y-11378645D01*
X-608019Y-11397213D01*
Y-11409591D01*
X-614208Y-11428158D01*
X-626586Y-11440537D01*
X-645154Y-11446726D01*
X-663721D01*
X-682289Y-11440537D01*
X-688478Y-11434348D01*
X-694667Y-11421969D01*
X-863196Y-12807735D02*
Y-12937706D01*
Y-12807735D02*
X-807493D01*
X-788926Y-12813924D01*
X-782737Y-12820113D01*
X-776548Y-12832491D01*
Y-12844868D01*
X-782737Y-12857246D01*
X-788926Y-12863435D01*
X-807493Y-12869624D01*
X-863196D01*
X-819872D02*
X-776548Y-12937706D01*
X-741269Y-12838680D02*
Y-12832491D01*
X-735080Y-12820113D01*
X-728891Y-12813924D01*
X-716513Y-12807735D01*
X-691756D01*
X-679378Y-12813924D01*
X-673189Y-12820113D01*
X-667000Y-12832491D01*
Y-12844868D01*
X-673189Y-12857246D01*
X-685567Y-12875813D01*
X-747458Y-12937706D01*
X-660810D01*
X-569830Y-12807735D02*
X-631721Y-12894382D01*
X-538884D01*
X-569830Y-12807735D02*
Y-12937706D01*
X214414Y-13377222D02*
X344386D01*
X214414D02*
Y-13321519D01*
X220603Y-13302951D01*
X226792Y-13296762D01*
X239170Y-13290573D01*
X251549D01*
X263927Y-13296762D01*
X270116Y-13302951D01*
X276305Y-13321519D01*
Y-13377222D01*
Y-13333897D02*
X344386Y-13290573D01*
X245359Y-13255295D02*
X239170D01*
X226792Y-13249106D01*
X220603Y-13242917D01*
X214414Y-13230537D01*
Y-13205782D01*
X220603Y-13193404D01*
X226792Y-13187215D01*
X239170Y-13181026D01*
X251549D01*
X263927Y-13187215D01*
X282494Y-13199593D01*
X344386Y-13261484D01*
Y-13174837D01*
X214414Y-13133369D02*
Y-13065288D01*
X263927Y-13102423D01*
Y-13083855D01*
X270116Y-13071477D01*
X276305Y-13065288D01*
X294873Y-13059099D01*
X307251D01*
X325818Y-13065288D01*
X338197Y-13077666D01*
X344386Y-13096234D01*
Y-13114801D01*
X338197Y-13133369D01*
X332008Y-13139558D01*
X319629Y-13145747D01*
X7915651Y-16836174D02*
Y-16966145D01*
Y-16836174D02*
X7971353D01*
X7989921Y-16842363D01*
X7996110Y-16848552D01*
X8002299Y-16860930D01*
Y-16873309D01*
X7996110Y-16885687D01*
X7989921Y-16891876D01*
X7971353Y-16898065D01*
X7915651D01*
X7958975D02*
X8002299Y-16966145D01*
X8031388Y-16860930D02*
X8043766Y-16854741D01*
X8062334Y-16836174D01*
Y-16966145D01*
X8213349Y-16836174D02*
X8151458Y-16966145D01*
X8126701Y-16836174D02*
X8213349D01*
X8843306Y-14674634D02*
Y-14804607D01*
Y-14674634D02*
X8899008D01*
X8917576Y-14680823D01*
X8923764Y-14687012D01*
X8929954Y-14699390D01*
Y-14711769D01*
X8923764Y-14724147D01*
X8917576Y-14730336D01*
X8899008Y-14736525D01*
X8843306D01*
X8886630D02*
X8929954Y-14804607D01*
X8959043Y-14699390D02*
X8971421Y-14693201D01*
X8989989Y-14674634D01*
Y-14804607D01*
X9128626Y-14693201D02*
X9122436Y-14680823D01*
X9103869Y-14674634D01*
X9091491D01*
X9072923Y-14680823D01*
X9060545Y-14699390D01*
X9054356Y-14730336D01*
Y-14761282D01*
X9060545Y-14786038D01*
X9072923Y-14798418D01*
X9091491Y-14804607D01*
X9097680D01*
X9116247Y-14798418D01*
X9128626Y-14786038D01*
X9134815Y-14767471D01*
Y-14761282D01*
X9128626Y-14742714D01*
X9116247Y-14730336D01*
X9097680Y-14724147D01*
X9091491D01*
X9072923Y-14730336D01*
X9060545Y-14742714D01*
X9054356Y-14761282D01*
X8238231Y-16419614D02*
Y-16549586D01*
Y-16419614D02*
X8293933D01*
X8312501Y-16425803D01*
X8318690Y-16431992D01*
X8324879Y-16444370D01*
Y-16456749D01*
X8318690Y-16469127D01*
X8312501Y-16475316D01*
X8293933Y-16481505D01*
X8238231D01*
X8281555D02*
X8324879Y-16549586D01*
X8353968Y-16444370D02*
X8366346Y-16438181D01*
X8384914Y-16419614D01*
Y-16549586D01*
X8523551Y-16419614D02*
X8461659D01*
X8455470Y-16475316D01*
X8461659Y-16469127D01*
X8480227Y-16462938D01*
X8498794D01*
X8517362Y-16469127D01*
X8529740Y-16481505D01*
X8535929Y-16500073D01*
Y-16512451D01*
X8529740Y-16531018D01*
X8517362Y-16543398D01*
X8498794Y-16549586D01*
X8480227D01*
X8461659Y-16543398D01*
X8455470Y-16537209D01*
X8449281Y-16524829D01*
X6286956Y-16726955D02*
Y-16856926D01*
Y-16726955D02*
X6342659D01*
X6361226Y-16733144D01*
X6367415Y-16739333D01*
X6373604Y-16751711D01*
Y-16764088D01*
X6367415Y-16776466D01*
X6361226Y-16782655D01*
X6342659Y-16788844D01*
X6286956D01*
X6330280D02*
X6373604Y-16856926D01*
X6402694Y-16751711D02*
X6415072Y-16745522D01*
X6433639Y-16726955D01*
Y-16856926D01*
X6559898Y-16726955D02*
X6498007Y-16813602D01*
X6590844D01*
X6559898Y-16726955D02*
Y-16856926D01*
X6879331Y-15970033D02*
Y-16100006D01*
Y-15970033D02*
X6935033D01*
X6953601Y-15976224D01*
X6959790Y-15982413D01*
X6965979Y-15994791D01*
Y-16007169D01*
X6959790Y-16019547D01*
X6953601Y-16025735D01*
X6935033Y-16031924D01*
X6879331D01*
X6922655D02*
X6965979Y-16100006D01*
X6995068Y-15994791D02*
X7007446Y-15988602D01*
X7026014Y-15970033D01*
Y-16100006D01*
X7102759Y-15970033D02*
X7170840D01*
X7133705Y-16019547D01*
X7152272D01*
X7164651Y-16025735D01*
X7170840Y-16031924D01*
X7177029Y-16050493D01*
Y-16062871D01*
X7170840Y-16081438D01*
X7158462Y-16093817D01*
X7139894Y-16100006D01*
X7121327D01*
X7102759Y-16093817D01*
X7096570Y-16087628D01*
X7090381Y-16075249D01*
X7196874Y-16331189D02*
X7326846D01*
X7196874D02*
Y-16275487D01*
X7203063Y-16256918D01*
X7209252Y-16250729D01*
X7221630Y-16244540D01*
X7234009D01*
X7246387Y-16250729D01*
X7252576Y-16256918D01*
X7258765Y-16275487D01*
Y-16331189D01*
Y-16287865D02*
X7326846Y-16244540D01*
X7221630Y-16215453D02*
X7215441Y-16203075D01*
X7196874Y-16184506D01*
X7326846D01*
X7227819Y-16113950D02*
X7221630D01*
X7209252Y-16107761D01*
X7203063Y-16101572D01*
X7196874Y-16089194D01*
Y-16064436D01*
X7203063Y-16052058D01*
X7209252Y-16045869D01*
X7221630Y-16039680D01*
X7234009D01*
X7246387Y-16045869D01*
X7264954Y-16058247D01*
X7326846Y-16120139D01*
Y-16033492D01*
X6980842Y-17034294D02*
Y-17164265D01*
Y-17034294D02*
X7036544D01*
X7055112Y-17040483D01*
X7061301Y-17046672D01*
X7067490Y-17059050D01*
Y-17071429D01*
X7061301Y-17083807D01*
X7055112Y-17089996D01*
X7036544Y-17096185D01*
X6980842D01*
X7024166D02*
X7067490Y-17164265D01*
X7096579Y-17059050D02*
X7108957Y-17052861D01*
X7127525Y-17034294D01*
Y-17164265D01*
X7191892Y-17059050D02*
X7204270Y-17052861D01*
X7222838Y-17034294D01*
Y-17164265D01*
X7552431Y-16434854D02*
Y-16564825D01*
Y-16434854D02*
X7608133D01*
X7626701Y-16441043D01*
X7632890Y-16447232D01*
X7639079Y-16459610D01*
Y-16471989D01*
X7632890Y-16484367D01*
X7626701Y-16490556D01*
X7608133Y-16496745D01*
X7552431D01*
X7595755D02*
X7639079Y-16564825D01*
X7668168Y-16459610D02*
X7680546Y-16453421D01*
X7699114Y-16434854D01*
Y-16564825D01*
X7800616Y-16434854D02*
X7782048Y-16441043D01*
X7769670Y-16459610D01*
X7763481Y-16490556D01*
Y-16509123D01*
X7769670Y-16540070D01*
X7782048Y-16558636D01*
X7800616Y-16564825D01*
X7812994D01*
X7831562Y-16558636D01*
X7843940Y-16540070D01*
X7850129Y-16509123D01*
Y-16490556D01*
X7843940Y-16459610D01*
X7831562Y-16441043D01*
X7812994Y-16434854D01*
X7800616D01*
X7877502Y-15967494D02*
Y-16097466D01*
Y-15967494D02*
X7933205D01*
X7951772Y-15973683D01*
X7957961Y-15979872D01*
X7964150Y-15992250D01*
Y-16004630D01*
X7957961Y-16017007D01*
X7951772Y-16023196D01*
X7933205Y-16029385D01*
X7877502D01*
X7920826D02*
X7964150Y-16097466D01*
X8073698Y-16010818D02*
X8067509Y-16029385D01*
X8055131Y-16041763D01*
X8036563Y-16047952D01*
X8030374D01*
X8011807Y-16041763D01*
X7999429Y-16029385D01*
X7993239Y-16010818D01*
Y-16004630D01*
X7999429Y-15986061D01*
X8011807Y-15973683D01*
X8030374Y-15967494D01*
X8036563D01*
X8055131Y-15973683D01*
X8067509Y-15986061D01*
X8073698Y-16010818D01*
Y-16041763D01*
X8067509Y-16072710D01*
X8055131Y-16091277D01*
X8036563Y-16097466D01*
X8024185D01*
X8005617Y-16091277D01*
X7999429Y-16078899D01*
X9406027Y-14674634D02*
Y-14804607D01*
Y-14674634D02*
X9461730D01*
X9480297Y-14680823D01*
X9486486Y-14687012D01*
X9492675Y-14699390D01*
Y-14711769D01*
X9486486Y-14724147D01*
X9480297Y-14730336D01*
X9461730Y-14736525D01*
X9406027D01*
X9449351D02*
X9492675Y-14804607D01*
X9552710Y-14674634D02*
X9534143Y-14680823D01*
X9527954Y-14693201D01*
Y-14705579D01*
X9534143Y-14717958D01*
X9546521Y-14724147D01*
X9571278Y-14730336D01*
X9589845Y-14736525D01*
X9602223Y-14748903D01*
X9608413Y-14761282D01*
Y-14779849D01*
X9602223Y-14792229D01*
X9596034Y-14798418D01*
X9577467Y-14804607D01*
X9552710D01*
X9534143Y-14798418D01*
X9527954Y-14792229D01*
X9521765Y-14779849D01*
Y-14761282D01*
X9527954Y-14748903D01*
X9540332Y-14736525D01*
X9558899Y-14730336D01*
X9583656Y-14724147D01*
X9596034Y-14717958D01*
X9602223Y-14705579D01*
Y-14693201D01*
X9596034Y-14680823D01*
X9577467Y-14674634D01*
X9552710D01*
X8857387Y-16630434D02*
Y-16760406D01*
Y-16630434D02*
X8913090D01*
X8931657Y-16636623D01*
X8937846Y-16642812D01*
X8944035Y-16655190D01*
Y-16667569D01*
X8937846Y-16679947D01*
X8931657Y-16686136D01*
X8913090Y-16692325D01*
X8857387D01*
X8900711D02*
X8944035Y-16760406D01*
X9059773Y-16630434D02*
X8997881Y-16760406D01*
X8973125Y-16630434D02*
X9059773D01*
X9698682Y-14682254D02*
Y-14812225D01*
Y-14682254D02*
X9754385D01*
X9772952Y-14688443D01*
X9779141Y-14694632D01*
X9785330Y-14707010D01*
Y-14719389D01*
X9779141Y-14731767D01*
X9772952Y-14737956D01*
X9754385Y-14744145D01*
X9698682D01*
X9742006D02*
X9785330Y-14812225D01*
X9888689Y-14700821D02*
X9882500Y-14688443D01*
X9863933Y-14682254D01*
X9851554D01*
X9832987Y-14688443D01*
X9820609Y-14707010D01*
X9814419Y-14737956D01*
Y-14768903D01*
X9820609Y-14793658D01*
X9832987Y-14806036D01*
X9851554Y-14812225D01*
X9857743D01*
X9876311Y-14806036D01*
X9888689Y-14793658D01*
X9894878Y-14775092D01*
Y-14768903D01*
X9888689Y-14750334D01*
X9876311Y-14737956D01*
X9857743Y-14731767D01*
X9851554D01*
X9832987Y-14737956D01*
X9820609Y-14750334D01*
X9814419Y-14768903D01*
X8645106Y-14935608D02*
X8515134D01*
X8645106D02*
Y-14991310D01*
X8638917Y-15009879D01*
X8632728Y-15016066D01*
X8620349Y-15022256D01*
X8607971D01*
X8595593Y-15016066D01*
X8589404Y-15009879D01*
X8583214Y-14991310D01*
Y-14935608D01*
Y-14978932D02*
X8515134Y-15022256D01*
X8645106Y-15125615D02*
Y-15063724D01*
X8589404Y-15057533D01*
X8595593Y-15063724D01*
X8601782Y-15082291D01*
Y-15100858D01*
X8595593Y-15119424D01*
X8583214Y-15131804D01*
X8564647Y-15137993D01*
X8552269D01*
X8533701Y-15131804D01*
X8521323Y-15119424D01*
X8515134Y-15100858D01*
Y-15082291D01*
X8521323Y-15063724D01*
X8527512Y-15057533D01*
X8539890Y-15051344D01*
X8446986Y-14924893D02*
X8317014D01*
X8446986D02*
Y-14980595D01*
X8440797Y-14999162D01*
X8434608Y-15005351D01*
X8422230Y-15011542D01*
X8409851D01*
X8397473Y-15005351D01*
X8391284Y-14999162D01*
X8385095Y-14980595D01*
Y-14924893D01*
Y-14968217D02*
X8317014Y-15011542D01*
X8446986Y-15102521D02*
X8360338Y-15040630D01*
Y-15133467D01*
X8446986Y-15102521D02*
X8317014D01*
X4018687Y-17598174D02*
Y-17728146D01*
Y-17598174D02*
X4074390D01*
X4092957Y-17604362D01*
X4099146Y-17610551D01*
X4105335Y-17622929D01*
Y-17635309D01*
X4099146Y-17647687D01*
X4092957Y-17653876D01*
X4074390Y-17660065D01*
X4018687D01*
X4062011D02*
X4105335Y-17728146D01*
X4146803Y-17598174D02*
X4214883D01*
X4177749Y-17647687D01*
X4196316D01*
X4208694Y-17653876D01*
X4214883Y-17660065D01*
X4221073Y-17678633D01*
Y-17691011D01*
X4214883Y-17709578D01*
X4202505Y-17721957D01*
X4183938Y-17728146D01*
X4165370D01*
X4146803Y-17721957D01*
X4140614Y-17715768D01*
X4134425Y-17703389D01*
X2376774Y-16266362D02*
X2468678Y-16358266D01*
X2376774Y-16266362D02*
X2416162Y-16226974D01*
X2433667Y-16218221D01*
X2442420Y-16218222D01*
X2455549Y-16222598D01*
X2464302Y-16231351D01*
X2468678Y-16244479D01*
Y-16253233D01*
X2459925Y-16270738D01*
X2420538Y-16310126D01*
X2451172Y-16279491D02*
X2529947Y-16296997D01*
X2484871Y-16202029D02*
X2480494Y-16197652D01*
X2476118Y-16184523D01*
Y-16175771D01*
X2480494Y-16162640D01*
X2498000Y-16145135D01*
X2511129Y-16140759D01*
X2519882D01*
X2533011Y-16145135D01*
X2541764Y-16153889D01*
X2546140Y-16167018D01*
X2550517Y-16188901D01*
Y-16276427D01*
X2611786Y-16215158D01*
X261939Y-17057153D02*
Y-17187126D01*
Y-17057153D02*
X317641D01*
X336208Y-17063342D01*
X342397Y-17069531D01*
X348587Y-17081911D01*
Y-17094289D01*
X342397Y-17106667D01*
X336208Y-17112856D01*
X317641Y-17119044D01*
X261939D01*
X305263D02*
X348587Y-17187126D01*
X377676Y-17081911D02*
X390054Y-17075722D01*
X408621Y-17057153D01*
Y-17187126D01*
X4330038Y-12977914D02*
Y-13107886D01*
X4404308D01*
X4492813Y-12996481D02*
X4486624Y-12984103D01*
X4468056Y-12977914D01*
X4455678D01*
X4437111Y-12984103D01*
X4424732Y-13002670D01*
X4418543Y-13033617D01*
Y-13064561D01*
X4424732Y-13089317D01*
X4437111Y-13101697D01*
X4455678Y-13107886D01*
X4461867D01*
X4480435Y-13101697D01*
X4492813Y-13089317D01*
X4499002Y-13070750D01*
Y-13064561D01*
X4492813Y-13045995D01*
X4480435Y-13033617D01*
X4461867Y-13027428D01*
X4455678D01*
X4437111Y-13033617D01*
X4424732Y-13045995D01*
X4418543Y-13064561D01*
X749468Y-12144653D02*
Y-12274625D01*
X823737D01*
X912242Y-12144653D02*
X850351D01*
X844162Y-12200356D01*
X850351Y-12194167D01*
X868918Y-12187977D01*
X887486D01*
X906053Y-12194167D01*
X918431Y-12206545D01*
X924620Y-12225112D01*
Y-12237491D01*
X918431Y-12256058D01*
X906053Y-12268436D01*
X887486Y-12274625D01*
X868918D01*
X850351Y-12268436D01*
X844162Y-12262247D01*
X837972Y-12249869D01*
X6462814Y-16245071D02*
X6592786D01*
Y-16170801D01*
X6462814Y-16094675D02*
X6549462Y-16156566D01*
Y-16063728D01*
X6462814Y-16094675D02*
X6592786D01*
X3570024Y-17600714D02*
Y-17730685D01*
X3644293D01*
X3670907Y-17600714D02*
X3738987D01*
X3701852Y-17650227D01*
X3720420D01*
X3732798Y-17656416D01*
X3738987Y-17662605D01*
X3745176Y-17681174D01*
Y-17693552D01*
X3738987Y-17712119D01*
X3726609Y-17724496D01*
X3708042Y-17730685D01*
X3689474D01*
X3670907Y-17724496D01*
X3664718Y-17718307D01*
X3658528Y-17705930D01*
X3431541Y-15973628D02*
Y-16103600D01*
X3505811D01*
X3526235Y-16004575D02*
Y-15998386D01*
X3532424Y-15986006D01*
X3538613Y-15979817D01*
X3550991Y-15973628D01*
X3575748D01*
X3588126Y-15979817D01*
X3594315Y-15986006D01*
X3600504Y-15998386D01*
Y-16010764D01*
X3594315Y-16023141D01*
X3581937Y-16041708D01*
X3520046Y-16103600D01*
X3606694D01*
X3729955Y-16780293D02*
Y-16910266D01*
X3804225D01*
X3818459Y-16805051D02*
X3830838Y-16798862D01*
X3849405Y-16780293D01*
Y-16910266D01*
X938651Y-12347994D02*
Y-12447020D01*
X932462Y-12465588D01*
X926273Y-12471777D01*
X913894Y-12477966D01*
X901516D01*
X889138Y-12471777D01*
X882949Y-12465588D01*
X876759Y-12447020D01*
Y-12434642D01*
X1046342Y-12347994D02*
X984451D01*
X978262Y-12403696D01*
X984451Y-12397507D01*
X1003018Y-12391318D01*
X1021586D01*
X1040153Y-12397507D01*
X1052531Y-12409885D01*
X1058721Y-12428453D01*
Y-12440831D01*
X1052531Y-12459398D01*
X1040153Y-12471777D01*
X1021586Y-12477966D01*
X1003018D01*
X984451Y-12471777D01*
X978262Y-12465588D01*
X972072Y-12453209D01*
X717116Y-10933214D02*
Y-11032240D01*
X710927Y-11050808D01*
X704738Y-11056997D01*
X692360Y-11063186D01*
X679982D01*
X667603Y-11056997D01*
X661414Y-11050808D01*
X655225Y-11032240D01*
Y-11019862D01*
X812429Y-10933214D02*
X750538Y-11019862D01*
X843375D01*
X812429Y-10933214D02*
Y-11063186D01*
X7077831Y-17300993D02*
Y-17400020D01*
X7071642Y-17418588D01*
X7065453Y-17424777D01*
X7053074Y-17430966D01*
X7040696D01*
X7028318Y-17424777D01*
X7022129Y-17418588D01*
X7015939Y-17400020D01*
Y-17387642D01*
X7123631Y-17300993D02*
X7191711D01*
X7154576Y-17350507D01*
X7173144D01*
X7185522Y-17356696D01*
X7191711Y-17362885D01*
X7197901Y-17381453D01*
Y-17393831D01*
X7191711Y-17412398D01*
X7179333Y-17424777D01*
X7160766Y-17430966D01*
X7142198D01*
X7123631Y-17424777D01*
X7117442Y-17418588D01*
X7111252Y-17406209D01*
X3623431Y-14771515D02*
Y-14870541D01*
X3617242Y-14889108D01*
X3611053Y-14895297D01*
X3598674Y-14901488D01*
X3586296D01*
X3573918Y-14895297D01*
X3567729Y-14889108D01*
X3561539Y-14870541D01*
Y-14858163D01*
X3663042Y-14802461D02*
Y-14796272D01*
X3669231Y-14783893D01*
X3675420Y-14777704D01*
X3687798Y-14771515D01*
X3712555D01*
X3724933Y-14777704D01*
X3731122Y-14783893D01*
X3737311Y-14796272D01*
Y-14808650D01*
X3731122Y-14821028D01*
X3718744Y-14839597D01*
X3656852Y-14901488D01*
X3743501D01*
X-684498Y-14209814D02*
Y-14308839D01*
X-690687Y-14327408D01*
X-696876Y-14333597D01*
X-709255Y-14339786D01*
X-721633D01*
X-734011Y-14333597D01*
X-740200Y-14327408D01*
X-746389Y-14308839D01*
Y-14296461D01*
X-651076Y-14234570D02*
X-638698Y-14228381D01*
X-620131Y-14209814D01*
Y-14339786D01*
X9251087Y-13363994D02*
Y-13493967D01*
Y-13363994D02*
X9294411D01*
X9312979Y-13370183D01*
X9325357Y-13382561D01*
X9331546Y-13394939D01*
X9337735Y-13413507D01*
Y-13444453D01*
X9331546Y-13463020D01*
X9325357Y-13475398D01*
X9312979Y-13487778D01*
X9294411Y-13493967D01*
X9251087D01*
X9441094Y-13363994D02*
X9379203D01*
X9373014Y-13419696D01*
X9379203Y-13413507D01*
X9397770Y-13407318D01*
X9416338D01*
X9434905Y-13413507D01*
X9447283Y-13425885D01*
X9453473Y-13444453D01*
Y-13456831D01*
X9447283Y-13475398D01*
X9434905Y-13487778D01*
X9416338Y-13493967D01*
X9397770D01*
X9379203Y-13487778D01*
X9373014Y-13481589D01*
X9366825Y-13469209D01*
X-751987Y-13092213D02*
Y-13222186D01*
Y-13092213D02*
X-708663D01*
X-690096Y-13098402D01*
X-677717Y-13110780D01*
X-671528Y-13123158D01*
X-665339Y-13141727D01*
Y-13172673D01*
X-671528Y-13191240D01*
X-677717Y-13203618D01*
X-690096Y-13215997D01*
X-708663Y-13222186D01*
X-751987D01*
X-574359Y-13092213D02*
X-636250Y-13178862D01*
X-543413D01*
X-574359Y-13092213D02*
Y-13222186D01*
X536994Y-13299033D02*
X666966D01*
X536994D02*
Y-13255708D01*
X543183Y-13237141D01*
X555561Y-13224763D01*
X567939Y-13218575D01*
X586507Y-13212386D01*
X617453D01*
X636020Y-13218575D01*
X648398Y-13224763D01*
X660777Y-13237141D01*
X666966Y-13255708D01*
Y-13299033D01*
X536994Y-13170917D02*
Y-13102837D01*
X586507Y-13139970D01*
Y-13121404D01*
X592696Y-13109026D01*
X598885Y-13102837D01*
X617453Y-13096648D01*
X629831D01*
X648398Y-13102837D01*
X660777Y-13115215D01*
X666966Y-13133781D01*
Y-13152350D01*
X660777Y-13170917D01*
X654588Y-13177106D01*
X642209Y-13183295D01*
X8640026Y-13901828D02*
X8510054D01*
X8640026D02*
Y-13945152D01*
X8633837Y-13963719D01*
X8621458Y-13976099D01*
X8609080Y-13982286D01*
X8590513Y-13988477D01*
X8559567D01*
X8541000Y-13982286D01*
X8528621Y-13976099D01*
X8516243Y-13963719D01*
X8510054Y-13945152D01*
Y-13901828D01*
X8609080Y-14023753D02*
X8615269D01*
X8627648Y-14029942D01*
X8633837Y-14036131D01*
X8640026Y-14048511D01*
Y-14073267D01*
X8633837Y-14085645D01*
X8627648Y-14091835D01*
X8615269Y-14098024D01*
X8602891D01*
X8590513Y-14091835D01*
X8571945Y-14079456D01*
X8510054Y-14017564D01*
Y-14104213D01*
X8446986Y-13891579D02*
X8317014D01*
X8446986D02*
Y-13934903D01*
X8440797Y-13953470D01*
X8428418Y-13965849D01*
X8416040Y-13972038D01*
X8397473Y-13978227D01*
X8366527D01*
X8347960Y-13972038D01*
X8335581Y-13965849D01*
X8323203Y-13953470D01*
X8317014Y-13934903D01*
Y-13891579D01*
X8422229Y-14007317D02*
X8428418Y-14019695D01*
X8446986Y-14038261D01*
X8317014D01*
X6807828Y-11047979D02*
X6801639Y-11035601D01*
X6789261Y-11023223D01*
X6776882Y-11017034D01*
X6752126D01*
X6739748Y-11023223D01*
X6727369Y-11035601D01*
X6721180Y-11047979D01*
X6714991Y-11066547D01*
Y-11097493D01*
X6721180Y-11116060D01*
X6727369Y-11128438D01*
X6739748Y-11140817D01*
X6752126Y-11147006D01*
X6776882D01*
X6789261Y-11140817D01*
X6801639Y-11128438D01*
X6807828Y-11116060D01*
X6906236Y-11017034D02*
X6844344Y-11103682D01*
X6937181D01*
X6906236Y-11017034D02*
Y-11147006D01*
X6966271Y-11047979D02*
Y-11041790D01*
X6972460Y-11029412D01*
X6978649Y-11023223D01*
X6991027Y-11017034D01*
X7015784D01*
X7028162Y-11023223D01*
X7034351Y-11029412D01*
X7040540Y-11041790D01*
Y-11054169D01*
X7034351Y-11066547D01*
X7021973Y-11085114D01*
X6960081Y-11147006D01*
X7046729D01*
X8321579Y-11517879D02*
X8315390Y-11505501D01*
X8303012Y-11493123D01*
X8290633Y-11486934D01*
X8265877D01*
X8253499Y-11493123D01*
X8241120Y-11505501D01*
X8234931Y-11517879D01*
X8228742Y-11536447D01*
Y-11567393D01*
X8234931Y-11585960D01*
X8241120Y-11598338D01*
X8253499Y-11610717D01*
X8265877Y-11616906D01*
X8290633D01*
X8303012Y-11610717D01*
X8315390Y-11598338D01*
X8321579Y-11585960D01*
X8419987Y-11486934D02*
X8358095Y-11573582D01*
X8450933D01*
X8419987Y-11486934D02*
Y-11616906D01*
X8473832Y-11511690D02*
X8486211Y-11505501D01*
X8504778Y-11486934D01*
Y-11616906D01*
X9660248Y-17695158D02*
X9654059Y-17682780D01*
X9641681Y-17670403D01*
X9629302Y-17664214D01*
X9604546D01*
X9592168Y-17670403D01*
X9579789Y-17682780D01*
X9573600Y-17695158D01*
X9567411Y-17713727D01*
Y-17744673D01*
X9573600Y-17763240D01*
X9579789Y-17775618D01*
X9592168Y-17787997D01*
X9604546Y-17794186D01*
X9629302D01*
X9641681Y-17787997D01*
X9654059Y-17775618D01*
X9660248Y-17763240D01*
X9758656Y-17664214D02*
X9696764Y-17750862D01*
X9789601D01*
X9758656Y-17664214D02*
Y-17794186D01*
X9849636Y-17664214D02*
X9831069Y-17670403D01*
X9818691Y-17688969D01*
X9812501Y-17719916D01*
Y-17738483D01*
X9818691Y-17769429D01*
X9831069Y-17787997D01*
X9849636Y-17794186D01*
X9862015D01*
X9880582Y-17787997D01*
X9892960Y-17769429D01*
X9899149Y-17738483D01*
Y-17719916D01*
X9892960Y-17688969D01*
X9880582Y-17670403D01*
X9862015Y-17664214D01*
X9849636D01*
X7628803Y-10067539D02*
X7622613Y-10055161D01*
X7610235Y-10042783D01*
X7597857Y-10036594D01*
X7573100D01*
X7560722Y-10042783D01*
X7548344Y-10055161D01*
X7542155Y-10067539D01*
X7535965Y-10086107D01*
Y-10117053D01*
X7542155Y-10135620D01*
X7548344Y-10147998D01*
X7560722Y-10160377D01*
X7573100Y-10166566D01*
X7597857D01*
X7610235Y-10160377D01*
X7622613Y-10147998D01*
X7628803Y-10135620D01*
X7677697Y-10036594D02*
X7745777D01*
X7708643Y-10086107D01*
X7727210D01*
X7739589Y-10092296D01*
X7745777Y-10098485D01*
X7751967Y-10117053D01*
Y-10129431D01*
X7745777Y-10147998D01*
X7733399Y-10160377D01*
X7714832Y-10166566D01*
X7696265D01*
X7677697Y-10160377D01*
X7671508Y-10154188D01*
X7665319Y-10141809D01*
X7861515Y-10079918D02*
X7855326Y-10098485D01*
X7842947Y-10110863D01*
X7824380Y-10117053D01*
X7818191D01*
X7799623Y-10110863D01*
X7787245Y-10098485D01*
X7781056Y-10079918D01*
Y-10073729D01*
X7787245Y-10055161D01*
X7799623Y-10042783D01*
X7818191Y-10036594D01*
X7824380D01*
X7842947Y-10042783D01*
X7855326Y-10055161D01*
X7861515Y-10079918D01*
Y-10110863D01*
X7855326Y-10141809D01*
X7842947Y-10160377D01*
X7824380Y-10166566D01*
X7812002D01*
X7793434Y-10160377D01*
X7787245Y-10147998D01*
X4453108Y-13448930D02*
X4439979Y-13444556D01*
X4422474Y-13444556D01*
X4409344Y-13448930D01*
X4391839Y-13466437D01*
X4387463Y-13479565D01*
Y-13497072D01*
X4391839Y-13510201D01*
X4400592Y-13527705D01*
X4422474Y-13549588D01*
X4439979Y-13558340D01*
X4453108Y-13562717D01*
X4470614Y-13562717D01*
X4483743Y-13558340D01*
X4501249Y-13540836D01*
X4505625Y-13527705D01*
Y-13510201D01*
X4501249Y-13497070D01*
X4465800Y-13392476D02*
X4513940Y-13344336D01*
X4522693Y-13405605D01*
X4535822Y-13392476D01*
X4548952Y-13388100D01*
X4557704Y-13388100D01*
X4575210Y-13396852D01*
X4583963Y-13405605D01*
X4592715Y-13423111D01*
Y-13440616D01*
X4583963Y-13458121D01*
X4570833Y-13471251D01*
X4553328Y-13480003D01*
X4544575D01*
X4531446Y-13475627D01*
X4560768Y-13297508D02*
X4552015Y-13315015D01*
X4556391Y-13328143D01*
X4565144Y-13336896D01*
X4578273Y-13341272D01*
X4591403Y-13336896D01*
X4613284Y-13323766D01*
X4630790Y-13315015D01*
X4648295D01*
X4661425Y-13319389D01*
X4674554Y-13332520D01*
X4678930Y-13345648D01*
Y-13354401D01*
X4670178Y-13371906D01*
X4652672Y-13389412D01*
X4635166Y-13398164D01*
X4626414D01*
X4613284Y-13393790D01*
X4600155Y-13380659D01*
X4595779Y-13367529D01*
Y-13350024D01*
X4604532Y-13332520D01*
X4617661Y-13310637D01*
X4622037Y-13297508D01*
X4617661Y-13284380D01*
X4608908Y-13275626D01*
X4595779Y-13271249D01*
X4578274Y-13280002D01*
X4560768Y-13297508D01*
X3426829Y-13894289D02*
X3431205Y-13881158D01*
X3431205Y-13863654D01*
X3426829Y-13850523D01*
X3409323Y-13833018D01*
X3396194Y-13828642D01*
X3378688D01*
X3365559Y-13833018D01*
X3348054Y-13841772D01*
X3326172Y-13863654D01*
X3317419Y-13881158D01*
X3313043Y-13894289D01*
X3313043Y-13911794D01*
X3317419Y-13924924D01*
X3334925Y-13942429D01*
X3348054Y-13946805D01*
X3365559D01*
X3378689Y-13942429D01*
X3483284Y-13906979D02*
X3531424Y-13955119D01*
X3470155Y-13963873D01*
X3483284Y-13977002D01*
X3487661Y-13990132D01*
X3487661Y-13998885D01*
X3478908Y-14016389D01*
X3470155Y-14025143D01*
X3452649Y-14033894D01*
X3435144D01*
X3417639Y-14025143D01*
X3404509Y-14012013D01*
X3395756Y-13994508D01*
Y-13985754D01*
X3400133Y-13972626D01*
X3617639Y-14041335D02*
X3481971Y-14089476D01*
X3556370Y-13980066D02*
X3617639Y-14041335D01*
X-755737Y-13516859D02*
X-761927Y-13504482D01*
X-774305Y-13492104D01*
X-786683Y-13485915D01*
X-811440D01*
X-823818Y-13492104D01*
X-836196Y-13504482D01*
X-842385Y-13516859D01*
X-848575Y-13535426D01*
Y-13566373D01*
X-842385Y-13584940D01*
X-836196Y-13597318D01*
X-823818Y-13609697D01*
X-811440Y-13615886D01*
X-786683D01*
X-774305Y-13609697D01*
X-761927Y-13597318D01*
X-755737Y-13584940D01*
X-706843Y-13485915D02*
X-638763D01*
X-675897Y-13535426D01*
X-657330D01*
X-644951Y-13541615D01*
X-638763Y-13547804D01*
X-632573Y-13566373D01*
Y-13578751D01*
X-638763Y-13597318D01*
X-651141Y-13609697D01*
X-669708Y-13615886D01*
X-688275D01*
X-706843Y-13609697D01*
X-713032Y-13603508D01*
X-719221Y-13591129D01*
X-529214Y-13504482D02*
X-535404Y-13492104D01*
X-553971Y-13485915D01*
X-566349D01*
X-584917Y-13492104D01*
X-597295Y-13510670D01*
X-603484Y-13541615D01*
Y-13572562D01*
X-597295Y-13597318D01*
X-584917Y-13609697D01*
X-566349Y-13615886D01*
X-560160D01*
X-541593Y-13609697D01*
X-529214Y-13597318D01*
X-523025Y-13578751D01*
Y-13572562D01*
X-529214Y-13553995D01*
X-541593Y-13541615D01*
X-560160Y-13535426D01*
X-566349D01*
X-584917Y-13541615D01*
X-597295Y-13553995D01*
X-603484Y-13572562D01*
X-743592Y-11929359D02*
X-749781Y-11916981D01*
X-762159Y-11904603D01*
X-774538Y-11898414D01*
X-799294D01*
X-811672Y-11904603D01*
X-824051Y-11916981D01*
X-830240Y-11929359D01*
X-836429Y-11947927D01*
Y-11978873D01*
X-830240Y-11997440D01*
X-824051Y-12009818D01*
X-811672Y-12022197D01*
X-799294Y-12028386D01*
X-774538D01*
X-762159Y-12022197D01*
X-749781Y-12009818D01*
X-743592Y-11997440D01*
X-694698Y-11898414D02*
X-626617D01*
X-663752Y-11947927D01*
X-645184D01*
X-632806Y-11954116D01*
X-626617Y-11960305D01*
X-620428Y-11978873D01*
Y-11991251D01*
X-626617Y-12009818D01*
X-638995Y-12022197D01*
X-657563Y-12028386D01*
X-676130D01*
X-694698Y-12022197D01*
X-700887Y-12016008D01*
X-707076Y-12003629D01*
X-517069Y-11898414D02*
X-578960D01*
X-585149Y-11954116D01*
X-578960Y-11947927D01*
X-560393Y-11941738D01*
X-541825D01*
X-523258Y-11947927D01*
X-510880Y-11960305D01*
X-504691Y-11978873D01*
Y-11991251D01*
X-510880Y-12009818D01*
X-523258Y-12022197D01*
X-541825Y-12028386D01*
X-560393D01*
X-578960Y-12022197D01*
X-585149Y-12016008D01*
X-591339Y-12003629D01*
X-350447Y-12254479D02*
X-356636Y-12242101D01*
X-369014Y-12229723D01*
X-381392Y-12223534D01*
X-406149D01*
X-418527Y-12229723D01*
X-430906Y-12242101D01*
X-437095Y-12254479D01*
X-443284Y-12273047D01*
Y-12303993D01*
X-437095Y-12322560D01*
X-430906Y-12334938D01*
X-418527Y-12347317D01*
X-406149Y-12353506D01*
X-381392D01*
X-369014Y-12347317D01*
X-356636Y-12334938D01*
X-350447Y-12322560D01*
X-301552Y-12223534D02*
X-233472D01*
X-270607Y-12273047D01*
X-252039D01*
X-239661Y-12279236D01*
X-233472Y-12285425D01*
X-227283Y-12303993D01*
Y-12316371D01*
X-233472Y-12334938D01*
X-245850Y-12347317D01*
X-264417Y-12353506D01*
X-282985D01*
X-301552Y-12347317D01*
X-307741Y-12341128D01*
X-313931Y-12328749D01*
X-136302Y-12223534D02*
X-198193Y-12310182D01*
X-105356D01*
X-136302Y-12223534D02*
Y-12353506D01*
X-403232Y-18050427D02*
X-409421Y-18038049D01*
X-421799Y-18025670D01*
X-434178Y-18019481D01*
X-458934D01*
X-471312Y-18025670D01*
X-483691Y-18038049D01*
X-489880Y-18050427D01*
X-496069Y-18068994D01*
Y-18099940D01*
X-489880Y-18118507D01*
X-483691Y-18130885D01*
X-471312Y-18143263D01*
X-458934Y-18149454D01*
X-434178D01*
X-421799Y-18143263D01*
X-409421Y-18130885D01*
X-403232Y-18118507D01*
X-354338Y-18019481D02*
X-286257D01*
X-323392Y-18068994D01*
X-304824D01*
X-292446Y-18075183D01*
X-286257Y-18081374D01*
X-280068Y-18099940D01*
Y-18112318D01*
X-286257Y-18130885D01*
X-298635Y-18143263D01*
X-317203Y-18149454D01*
X-335770D01*
X-354338Y-18143263D01*
X-360527Y-18137074D01*
X-366716Y-18124696D01*
X-238600Y-18019481D02*
X-170520D01*
X-207655Y-18068994D01*
X-189087D01*
X-176709Y-18075183D01*
X-170520Y-18081374D01*
X-164331Y-18099940D01*
Y-18112318D01*
X-170520Y-18130885D01*
X-182898Y-18143263D01*
X-201465Y-18149454D01*
X-220033D01*
X-238600Y-18143263D01*
X-244789Y-18137074D01*
X-250979Y-18124696D01*
X7018648Y-13895319D02*
X7012459Y-13882941D01*
X7000081Y-13870563D01*
X6987702Y-13864374D01*
X6962946D01*
X6950568Y-13870563D01*
X6938189Y-13882941D01*
X6932000Y-13895319D01*
X6925811Y-13913887D01*
Y-13944833D01*
X6932000Y-13963400D01*
X6938189Y-13975778D01*
X6950568Y-13988158D01*
X6962946Y-13994347D01*
X6987702D01*
X7000081Y-13988158D01*
X7012459Y-13975778D01*
X7018648Y-13963400D01*
X7067542Y-13864374D02*
X7135623D01*
X7098488Y-13913887D01*
X7117056D01*
X7129434Y-13920076D01*
X7135623Y-13926265D01*
X7141812Y-13944833D01*
Y-13957211D01*
X7135623Y-13975778D01*
X7123245Y-13988158D01*
X7104677Y-13994347D01*
X7086110D01*
X7067542Y-13988158D01*
X7061353Y-13981969D01*
X7055164Y-13969589D01*
X7177091Y-13895319D02*
Y-13889130D01*
X7183280Y-13876752D01*
X7189469Y-13870563D01*
X7201847Y-13864374D01*
X7226604D01*
X7238982Y-13870563D01*
X7245171Y-13876752D01*
X7251360Y-13889130D01*
Y-13901509D01*
X7245171Y-13913887D01*
X7232793Y-13932454D01*
X7170901Y-13994347D01*
X7257549D01*
X7013479Y-13692119D02*
X7007290Y-13679741D01*
X6994912Y-13667363D01*
X6982533Y-13661174D01*
X6957777D01*
X6945399Y-13667363D01*
X6933020Y-13679741D01*
X6926831Y-13692119D01*
X6920642Y-13710687D01*
Y-13741634D01*
X6926831Y-13760201D01*
X6933020Y-13772578D01*
X6945399Y-13784956D01*
X6957777Y-13791145D01*
X6982533D01*
X6994912Y-13784956D01*
X7007290Y-13772578D01*
X7013479Y-13760201D01*
X7062373Y-13661174D02*
X7130454D01*
X7093319Y-13710687D01*
X7111887D01*
X7124265Y-13716876D01*
X7130454Y-13723065D01*
X7136643Y-13741634D01*
Y-13754012D01*
X7130454Y-13772578D01*
X7118076Y-13784956D01*
X7099509Y-13791145D01*
X7080941D01*
X7062373Y-13784956D01*
X7056185Y-13778767D01*
X7049995Y-13766389D01*
X7165732Y-13685930D02*
X7178111Y-13679741D01*
X7196678Y-13661174D01*
Y-13791145D01*
X6492868Y-14730978D02*
X6486679Y-14718600D01*
X6474301Y-14706223D01*
X6461922Y-14700034D01*
X6437166D01*
X6424788Y-14706223D01*
X6412409Y-14718600D01*
X6406220Y-14730978D01*
X6400031Y-14749547D01*
Y-14780493D01*
X6406220Y-14799060D01*
X6412409Y-14811438D01*
X6424788Y-14823817D01*
X6437166Y-14830006D01*
X6461922D01*
X6474301Y-14823817D01*
X6486679Y-14811438D01*
X6492868Y-14799060D01*
X6541762Y-14700034D02*
X6609843D01*
X6572708Y-14749547D01*
X6591276D01*
X6603654Y-14755736D01*
X6609843Y-14761925D01*
X6616032Y-14780493D01*
Y-14792871D01*
X6609843Y-14811438D01*
X6597465Y-14823817D01*
X6578897Y-14830006D01*
X6560330D01*
X6541762Y-14823817D01*
X6535573Y-14817628D01*
X6529384Y-14805249D01*
X6682256Y-14700034D02*
X6663689Y-14706223D01*
X6651311Y-14724789D01*
X6645121Y-14755736D01*
Y-14774303D01*
X6651311Y-14805249D01*
X6663689Y-14823817D01*
X6682256Y-14830006D01*
X6694635D01*
X6713202Y-14823817D01*
X6725580Y-14805249D01*
X6731769Y-14774303D01*
Y-14755736D01*
X6725580Y-14724789D01*
X6713202Y-14706223D01*
X6694635Y-14700034D01*
X6682256D01*
X6970943Y-16450558D02*
X6964753Y-16438181D01*
X6952375Y-16425803D01*
X6939997Y-16419614D01*
X6915240D01*
X6902862Y-16425803D01*
X6890484Y-16438181D01*
X6884295Y-16450558D01*
X6878105Y-16469127D01*
Y-16500073D01*
X6884295Y-16518640D01*
X6890484Y-16531018D01*
X6902862Y-16543398D01*
X6915240Y-16549586D01*
X6939997D01*
X6952375Y-16543398D01*
X6964753Y-16531018D01*
X6970943Y-16518640D01*
X7013648Y-16450558D02*
Y-16444370D01*
X7019837Y-16431992D01*
X7026026Y-16425803D01*
X7038405Y-16419614D01*
X7063161D01*
X7075539Y-16425803D01*
X7081729Y-16431992D01*
X7087917Y-16444370D01*
Y-16456749D01*
X7081729Y-16469127D01*
X7069350Y-16487694D01*
X7007459Y-16549586D01*
X7094107D01*
X7203655Y-16462938D02*
X7197466Y-16481505D01*
X7185087Y-16493883D01*
X7166520Y-16500073D01*
X7160331D01*
X7141763Y-16493883D01*
X7129385Y-16481505D01*
X7123196Y-16462938D01*
Y-16456749D01*
X7129385Y-16438181D01*
X7141763Y-16425803D01*
X7160331Y-16419614D01*
X7166520D01*
X7185087Y-16425803D01*
X7197466Y-16438181D01*
X7203655Y-16462938D01*
Y-16493883D01*
X7197466Y-16524829D01*
X7185087Y-16543398D01*
X7166520Y-16549586D01*
X7154142D01*
X7135574Y-16543398D01*
X7129385Y-16531018D01*
X6581768Y-15566640D02*
X6575579Y-15554260D01*
X6563201Y-15541882D01*
X6550822Y-15535693D01*
X6526066D01*
X6513688Y-15541882D01*
X6501309Y-15554260D01*
X6495120Y-15566640D01*
X6488931Y-15585207D01*
Y-15616153D01*
X6495120Y-15634720D01*
X6501309Y-15647098D01*
X6513688Y-15659477D01*
X6526066Y-15665666D01*
X6550822D01*
X6563201Y-15659477D01*
X6575579Y-15647098D01*
X6581768Y-15634720D01*
X6624473Y-15566640D02*
Y-15560451D01*
X6630662Y-15548071D01*
X6636852Y-15541882D01*
X6649230Y-15535693D01*
X6673987D01*
X6686365Y-15541882D01*
X6692554Y-15548071D01*
X6698743Y-15560451D01*
Y-15572829D01*
X6692554Y-15585207D01*
X6680176Y-15603773D01*
X6618284Y-15665666D01*
X6704932D01*
X6764967Y-15535693D02*
X6746400Y-15541882D01*
X6740211Y-15554260D01*
Y-15566640D01*
X6746400Y-15579018D01*
X6758778Y-15585207D01*
X6783535Y-15591396D01*
X6802102Y-15597585D01*
X6814480Y-15609962D01*
X6820669Y-15622342D01*
Y-15640909D01*
X6814480Y-15653288D01*
X6808291Y-15659477D01*
X6789724Y-15665666D01*
X6764967D01*
X6746400Y-15659477D01*
X6740211Y-15653288D01*
X6734021Y-15640909D01*
Y-15622342D01*
X6740211Y-15609962D01*
X6752589Y-15597585D01*
X6771156Y-15591396D01*
X6795913Y-15585207D01*
X6808291Y-15579018D01*
X6814480Y-15566640D01*
Y-15554260D01*
X6808291Y-15541882D01*
X6789724Y-15535693D01*
X6764967D01*
X8419079Y-16280772D02*
X8406701Y-16286961D01*
X8394323Y-16299339D01*
X8388134Y-16311719D01*
Y-16336475D01*
X8394323Y-16348853D01*
X8406701Y-16361230D01*
X8419079Y-16367419D01*
X8437647Y-16373608D01*
X8468593D01*
X8487160Y-16367419D01*
X8499538Y-16361230D01*
X8511917Y-16348853D01*
X8518106Y-16336475D01*
Y-16311719D01*
X8511917Y-16299339D01*
X8499538Y-16286961D01*
X8487160Y-16280772D01*
X8419079Y-16238068D02*
X8412890D01*
X8400512Y-16231879D01*
X8394323Y-16225688D01*
X8388134Y-16213310D01*
Y-16188553D01*
X8394323Y-16176175D01*
X8400512Y-16169986D01*
X8412890Y-16163797D01*
X8425269D01*
X8437647Y-16169986D01*
X8456214Y-16182364D01*
X8518106Y-16244257D01*
Y-16157608D01*
X8388134Y-16041872D02*
X8518106Y-16103761D01*
X8388134Y-16128519D02*
Y-16041872D01*
X8324763Y-15571719D02*
X8318573Y-15559341D01*
X8306195Y-15546964D01*
X8293817Y-15540775D01*
X8269060D01*
X8256682Y-15546964D01*
X8244304Y-15559341D01*
X8238115Y-15571719D01*
X8231925Y-15590286D01*
Y-15621233D01*
X8238115Y-15639799D01*
X8244304Y-15652177D01*
X8256682Y-15664557D01*
X8269060Y-15670746D01*
X8293817D01*
X8306195Y-15664557D01*
X8318573Y-15652177D01*
X8324763Y-15639799D01*
X8367468Y-15571719D02*
Y-15565530D01*
X8373657Y-15553152D01*
X8379846Y-15546964D01*
X8392225Y-15540775D01*
X8416981D01*
X8429359Y-15546964D01*
X8435549Y-15553152D01*
X8441737Y-15565530D01*
Y-15577908D01*
X8435549Y-15590286D01*
X8423170Y-15608855D01*
X8361279Y-15670746D01*
X8447927D01*
X8551286Y-15559341D02*
X8545096Y-15546964D01*
X8526529Y-15540775D01*
X8514151D01*
X8495583Y-15546964D01*
X8483205Y-15565530D01*
X8477016Y-15596477D01*
Y-15627422D01*
X8483205Y-15652177D01*
X8495583Y-15664557D01*
X8514151Y-15670746D01*
X8520340D01*
X8538907Y-15664557D01*
X8551286Y-15652177D01*
X8557475Y-15633611D01*
Y-15627422D01*
X8551286Y-15608855D01*
X8538907Y-15596477D01*
X8520340Y-15590286D01*
X8514151D01*
X8495583Y-15596477D01*
X8483205Y-15608855D01*
X8477016Y-15627422D01*
X7635868Y-14278859D02*
X7629679Y-14266481D01*
X7617301Y-14254103D01*
X7604922Y-14247914D01*
X7580166D01*
X7567788Y-14254103D01*
X7555409Y-14266481D01*
X7549220Y-14278859D01*
X7543031Y-14297427D01*
Y-14328374D01*
X7549220Y-14346941D01*
X7555409Y-14359319D01*
X7567788Y-14371696D01*
X7580166Y-14377885D01*
X7604922D01*
X7617301Y-14371696D01*
X7629679Y-14359319D01*
X7635868Y-14346941D01*
X7678573Y-14278859D02*
Y-14272670D01*
X7684762Y-14260292D01*
X7690952Y-14254103D01*
X7703330Y-14247914D01*
X7728087D01*
X7740465Y-14254103D01*
X7746654Y-14260292D01*
X7752843Y-14272670D01*
Y-14285049D01*
X7746654Y-14297427D01*
X7734276Y-14315994D01*
X7672384Y-14377885D01*
X7759032D01*
X7862391Y-14247914D02*
X7800500D01*
X7794311Y-14303616D01*
X7800500Y-14297427D01*
X7819067Y-14291238D01*
X7837635D01*
X7856202Y-14297427D01*
X7868580Y-14309805D01*
X7874769Y-14328374D01*
Y-14340752D01*
X7868580Y-14359319D01*
X7856202Y-14371696D01*
X7837635Y-14377885D01*
X7819067D01*
X7800500Y-14371696D01*
X7794311Y-14365508D01*
X7788121Y-14353130D01*
X7635313Y-14078198D02*
X7629124Y-14065820D01*
X7616746Y-14053442D01*
X7604368Y-14047253D01*
X7579611D01*
X7567233Y-14053442D01*
X7554854Y-14065820D01*
X7548665Y-14078198D01*
X7542476Y-14096767D01*
Y-14127713D01*
X7548665Y-14146280D01*
X7554854Y-14158658D01*
X7567233Y-14171037D01*
X7579611Y-14177226D01*
X7604368D01*
X7616746Y-14171037D01*
X7629124Y-14158658D01*
X7635313Y-14146280D01*
X7678019Y-14078198D02*
Y-14072009D01*
X7684208Y-14059631D01*
X7690397Y-14053442D01*
X7702775Y-14047253D01*
X7727532D01*
X7739910Y-14053442D01*
X7746099Y-14059631D01*
X7752288Y-14072009D01*
Y-14084389D01*
X7746099Y-14096767D01*
X7733721Y-14115334D01*
X7671829Y-14177226D01*
X7758477D01*
X7849458Y-14047253D02*
X7787567Y-14133902D01*
X7880404D01*
X7849458Y-14047253D02*
Y-14177226D01*
X8076128Y-13745459D02*
X8069939Y-13733081D01*
X8057561Y-13720703D01*
X8045182Y-13714514D01*
X8020426D01*
X8008047Y-13720703D01*
X7995669Y-13733081D01*
X7989480Y-13745459D01*
X7983291Y-13764027D01*
Y-13794974D01*
X7989480Y-13813541D01*
X7995669Y-13825919D01*
X8008047Y-13838297D01*
X8020426Y-13844485D01*
X8045182D01*
X8057561Y-13838297D01*
X8069939Y-13825919D01*
X8076128Y-13813541D01*
X8118833Y-13745459D02*
Y-13739270D01*
X8125022Y-13726892D01*
X8131212Y-13720703D01*
X8143590Y-13714514D01*
X8168347D01*
X8180725Y-13720703D01*
X8186914Y-13726892D01*
X8193103Y-13739270D01*
Y-13751649D01*
X8186914Y-13764027D01*
X8174536Y-13782594D01*
X8112644Y-13844485D01*
X8199292D01*
X8240759Y-13714514D02*
X8308840D01*
X8271705Y-13764027D01*
X8290273D01*
X8302651Y-13770216D01*
X8308840Y-13776405D01*
X8315029Y-13794974D01*
Y-13807352D01*
X8308840Y-13825919D01*
X8296462Y-13838297D01*
X8277895Y-13844485D01*
X8259327D01*
X8240759Y-13838297D01*
X8234571Y-13832108D01*
X8228381Y-13819730D01*
X1005965Y-17730719D02*
X999776Y-17718341D01*
X987398Y-17705963D01*
X975020Y-17699774D01*
X950263D01*
X937885Y-17705963D01*
X925506Y-17718341D01*
X919317Y-17730719D01*
X913128Y-17749287D01*
Y-17780232D01*
X919317Y-17798801D01*
X925506Y-17811179D01*
X937885Y-17823557D01*
X950263Y-17829745D01*
X975020D01*
X987398Y-17823557D01*
X999776Y-17811179D01*
X1005965Y-17798801D01*
X1042482Y-17724530D02*
X1054860Y-17718341D01*
X1073427Y-17699774D01*
Y-17829745D01*
X1199686Y-17699774D02*
X1137795Y-17786423D01*
X1230632D01*
X1199686Y-17699774D02*
Y-17829745D01*
X1648549Y-17086610D02*
X1635420Y-17082234D01*
X1617915Y-17082234D01*
X1604785Y-17086610D01*
X1587280Y-17104115D01*
X1582904Y-17117245D01*
Y-17134750D01*
X1587280Y-17147881D01*
X1596033Y-17165385D01*
X1617915Y-17187267D01*
X1635420Y-17196021D01*
X1648549Y-17200397D01*
X1666055Y-17200397D01*
X1679184Y-17196021D01*
X1696690Y-17178514D01*
X1701066Y-17165385D01*
Y-17147881D01*
X1696690Y-17134750D01*
X1669994Y-17056413D02*
X1674370Y-17043285D01*
X1674370Y-17017026D01*
X1766274Y-17108929D01*
X1728637Y-16962758D02*
X1776778Y-16914618D01*
X1785531Y-16975888D01*
X1798660Y-16962758D01*
X1811789Y-16958382D01*
X1820542Y-16958382D01*
X1838047Y-16967136D01*
X1846800Y-16975888D01*
X1855553Y-16993393D01*
Y-17010898D01*
X1846800Y-17028404D01*
X1833671Y-17041533D01*
X1816165Y-17050285D01*
X1807413D01*
X1794283Y-17045911D01*
X2682149Y-15598351D02*
X2669020Y-15593974D01*
X2651514Y-15593974D01*
X2638385Y-15598351D01*
X2620879Y-15615855D01*
X2616503Y-15628986D01*
Y-15646490D01*
X2620879Y-15659621D01*
X2629632Y-15677126D01*
X2651514Y-15699008D01*
X2669020Y-15707761D01*
X2682149Y-15712137D01*
X2699654Y-15712137D01*
X2712783Y-15707761D01*
X2730289Y-15690256D01*
X2734666Y-15677126D01*
Y-15659621D01*
X2730289Y-15646490D01*
X2703593Y-15568153D02*
X2707969Y-15555025D01*
X2707970Y-15528766D01*
X2799874Y-15620670D01*
X2779742Y-15500757D02*
X2775366Y-15496381D01*
X2770990Y-15483252D01*
Y-15474500D01*
X2775366Y-15461369D01*
X2792872Y-15443864D01*
X2806001Y-15439488D01*
X2814754D01*
X2827883Y-15443864D01*
X2836635Y-15452617D01*
X2841012Y-15465746D01*
X2845388Y-15487628D01*
Y-15575156D01*
X2906658Y-15513885D01*
X5271180Y-17654520D02*
X5264991Y-17642142D01*
X5252613Y-17629762D01*
X5240234Y-17623573D01*
X5215478D01*
X5203100Y-17629762D01*
X5190721Y-17642142D01*
X5184532Y-17654520D01*
X5178343Y-17673087D01*
Y-17704033D01*
X5184532Y-17722600D01*
X5190721Y-17734978D01*
X5203100Y-17747357D01*
X5215478Y-17753546D01*
X5240234D01*
X5252613Y-17747357D01*
X5264991Y-17734978D01*
X5271180Y-17722600D01*
X5307696Y-17648331D02*
X5320074Y-17642142D01*
X5338642Y-17623573D01*
Y-17753546D01*
X5440144Y-17623573D02*
X5421577Y-17629762D01*
X5409198Y-17648331D01*
X5403009Y-17679276D01*
Y-17697842D01*
X5409198Y-17728789D01*
X5421577Y-17747357D01*
X5440144Y-17753546D01*
X5452522D01*
X5471090Y-17747357D01*
X5483468Y-17728789D01*
X5489657Y-17697842D01*
Y-17679276D01*
X5483468Y-17648331D01*
X5471090Y-17629762D01*
X5452522Y-17623573D01*
X5440144D01*
X3043336Y-16075365D02*
X3030207Y-16070987D01*
X3012701Y-16070987D01*
X2999572Y-16075365D01*
X2982066Y-16092870D01*
X2977690Y-16106000D01*
Y-16123505D01*
X2982066Y-16136633D01*
X2990819Y-16154140D01*
X3012701Y-16176021D01*
X3030207Y-16184773D01*
X3043336Y-16189149D01*
X3060841Y-16189149D01*
X3073970Y-16184773D01*
X3091476Y-16167268D01*
X3095853Y-16154140D01*
Y-16136633D01*
X3091476Y-16123505D01*
X3134802Y-16001402D02*
X3143555Y-16018909D01*
X3143555Y-16036414D01*
X3134802Y-16053918D01*
X3130426Y-16058296D01*
X3112920Y-16067049D01*
X3095415D01*
X3077910Y-16058296D01*
X3073533Y-16053918D01*
X3064780Y-16036414D01*
X3064780Y-16018909D01*
X3073533Y-16001402D01*
X3077910Y-15997026D01*
X3095415Y-15988274D01*
X3112921D01*
X3134802Y-16001402D01*
X3156684Y-16023285D01*
X3174190Y-16049544D01*
X3178566Y-16071425D01*
X3169814Y-16088930D01*
X3161061Y-16097684D01*
X3143555Y-16106436D01*
X3130426Y-16102060D01*
X3178308Y-16209631D02*
X3165178Y-16205255D01*
X3147673Y-16205255D01*
X3134544Y-16209631D01*
X3117038Y-16227138D01*
X3112662Y-16240266D01*
Y-16257771D01*
X3117038Y-16270901D01*
X3125791Y-16288406D01*
X3147673Y-16310289D01*
X3165178Y-16319041D01*
X3178308Y-16323418D01*
X3195813Y-16323418D01*
X3208942Y-16319041D01*
X3226448Y-16301537D01*
X3230824Y-16288406D01*
Y-16270901D01*
X3226448Y-16257771D01*
X3204128Y-16140047D02*
X3195375Y-16157553D01*
X3199752Y-16170682D01*
X3208505Y-16179434D01*
X3221634Y-16183810D01*
X3234763Y-16179436D01*
X3256645Y-16166306D01*
X3274151Y-16157553D01*
X3291656D01*
X3304785Y-16161929D01*
X3317914Y-16175058D01*
X3322291Y-16188188D01*
Y-16196941D01*
X3313538Y-16214445D01*
X3296033Y-16231950D01*
X3278527Y-16240704D01*
X3269774D01*
X3256645Y-16236328D01*
X3243516Y-16223198D01*
X3239140Y-16210069D01*
Y-16192564D01*
X3247892Y-16175058D01*
X3261021Y-16153175D01*
X3265398Y-16140047D01*
X3261021Y-16126918D01*
X3252269Y-16118166D01*
X3239140Y-16113789D01*
X3221634Y-16122542D01*
X3204128Y-16140047D01*
X2934468Y-15950552D02*
X2921338Y-15946175D01*
X2903833Y-15946175D01*
X2890704Y-15950552D01*
X2873198Y-15968057D01*
X2868822Y-15981186D01*
Y-15998692D01*
X2873198Y-16011821D01*
X2881951Y-16029327D01*
X2903833Y-16051208D01*
X2921338Y-16059961D01*
X2934468Y-16064339D01*
X2951973Y-16064339D01*
X2965102Y-16059962D01*
X2982608Y-16042456D01*
X2986984Y-16029327D01*
Y-16011821D01*
X2982608Y-15998692D01*
X2999676Y-15841580D02*
X3047816Y-15977248D01*
X2938406Y-15902849D02*
X2999676Y-15841580D01*
X2850648Y-16791292D02*
X2837518Y-16786916D01*
X2820013Y-16786916D01*
X2806884Y-16791292D01*
X2789378Y-16808797D01*
X2785002Y-16821925D01*
Y-16839432D01*
X2789378Y-16852560D01*
X2798131Y-16870067D01*
X2820013Y-16891949D01*
X2837518Y-16900700D01*
X2850648Y-16905078D01*
X2868153Y-16905078D01*
X2881282Y-16900702D01*
X2898788Y-16883195D01*
X2903164Y-16870067D01*
Y-16852560D01*
X2898788Y-16839432D01*
X2907103Y-16691072D02*
X2863339Y-16734836D01*
X2898350Y-16778600D01*
Y-16769849D01*
X2907103Y-16752342D01*
X2920232Y-16739214D01*
X2937738Y-16730460D01*
X2955243D01*
X2972749Y-16739214D01*
X2981502Y-16747964D01*
X2990254Y-16765471D01*
Y-16782977D01*
X2981502Y-16800482D01*
X2968373Y-16813611D01*
X2950867Y-16822363D01*
X2942114D01*
X2928985Y-16817989D01*
X1371122Y-13847060D02*
X1364933Y-13834682D01*
X1352555Y-13822302D01*
X1340176Y-13816113D01*
X1315420D01*
X1303041Y-13822302D01*
X1290663Y-13834682D01*
X1284474Y-13847060D01*
X1278285Y-13865627D01*
Y-13896573D01*
X1284474Y-13915140D01*
X1290663Y-13927518D01*
X1303041Y-13939897D01*
X1315420Y-13946086D01*
X1340176D01*
X1352555Y-13939897D01*
X1364933Y-13927518D01*
X1371122Y-13915140D01*
X1469529Y-13816113D02*
X1407638Y-13902762D01*
X1500475D01*
X1469529Y-13816113D02*
Y-13946086D01*
X-479983Y-14822420D02*
X-486173Y-14810040D01*
X-498551Y-14797662D01*
X-510929Y-14791473D01*
X-535686D01*
X-548064Y-14797662D01*
X-560442Y-14810040D01*
X-566631Y-14822420D01*
X-572821Y-14840987D01*
Y-14871933D01*
X-566631Y-14890500D01*
X-560442Y-14902878D01*
X-548064Y-14915257D01*
X-535686Y-14921446D01*
X-510929D01*
X-498551Y-14915257D01*
X-486173Y-14902878D01*
X-479983Y-14890500D01*
X-431089Y-14791473D02*
X-363008D01*
X-400143Y-14840987D01*
X-381576D01*
X-369197Y-14847176D01*
X-363008Y-14853365D01*
X-356819Y-14871933D01*
Y-14884311D01*
X-363008Y-14902878D01*
X-375387Y-14915257D01*
X-393954Y-14921446D01*
X-412521D01*
X-431089Y-14915257D01*
X-437278Y-14909068D01*
X-443467Y-14896689D01*
X2921077Y-17169379D02*
X2914887Y-17157001D01*
X2902509Y-17144623D01*
X2890131Y-17138434D01*
X2865374D01*
X2852996Y-17144623D01*
X2840618Y-17157001D01*
X2834429Y-17169379D01*
X2828239Y-17187947D01*
Y-17218893D01*
X2834429Y-17237460D01*
X2840618Y-17249838D01*
X2852996Y-17262218D01*
X2865374Y-17268407D01*
X2890131D01*
X2902509Y-17262218D01*
X2914887Y-17249838D01*
X2921077Y-17237460D01*
X2963782Y-17169379D02*
Y-17163190D01*
X2969971Y-17150812D01*
X2976160Y-17144623D01*
X2988539Y-17138434D01*
X3013295D01*
X3025673Y-17144623D01*
X3031863Y-17150812D01*
X3038052Y-17163190D01*
Y-17175569D01*
X3031863Y-17187947D01*
X3019484Y-17206514D01*
X2957593Y-17268407D01*
X3044241D01*
X2748268Y-17331940D02*
X2742079Y-17319560D01*
X2729700Y-17307182D01*
X2717322Y-17300993D01*
X2692565D01*
X2680187Y-17307182D01*
X2667809Y-17319560D01*
X2661620Y-17331940D01*
X2655431Y-17350507D01*
Y-17381453D01*
X2661620Y-17400020D01*
X2667809Y-17412398D01*
X2680187Y-17424777D01*
X2692565Y-17430966D01*
X2717322D01*
X2729700Y-17424777D01*
X2742079Y-17412398D01*
X2748268Y-17400020D01*
X2784784Y-17325751D02*
X2797162Y-17319560D01*
X2815730Y-17300993D01*
Y-17430966D01*
D99*
X8155940Y-12762230D02*
D03*
%TF.MD5,8e9024002041373f228417817644584b*%
M02*
