%TF.GenerationSoftware,Altium Limited,Altium Designer,23.1.1 (15)*%
G04 Layer_Physical_Order=2*
G04 Layer_Color=36540*
%FSLAX45Y45*%
%MOMM*%
%TF.SameCoordinates,06D7CB19-584F-49B0-A036-24662F40C1B1*%
%TF.FilePolarity,Positive*%
%TF.FileFunction,Copper,L2,Inr,Signal*%
%TF.Part,Single*%
G01*
G75*
%TA.AperFunction,ComponentPad*%
%ADD72C,2.50000*%
%ADD73O,2.50000X3.00000*%
%TA.AperFunction,ViaPad*%
%ADD74C,3.00000*%
%TA.AperFunction,ComponentPad*%
%ADD75C,1.80000*%
%ADD76R,1.80000X2.30000*%
%ADD77O,1.80000X2.30000*%
%ADD78C,2.90000*%
%ADD79O,1.40000X2.20000*%
%ADD80O,2.20000X3.00000*%
%ADD81C,1.60000*%
G04:AMPARAMS|DCode=82|XSize=1.6mm|YSize=1.9mm|CornerRadius=0mm|HoleSize=0mm|Usage=FLASHONLY|Rotation=315.000|XOffset=0mm|YOffset=0mm|HoleType=Round|Shape=Round|*
%AMOVALD82*
21,1,0.30000,1.60000,0.00000,0.00000,45.0*
1,1,1.60000,-0.10607,-0.10607*
1,1,1.60000,0.10607,0.10607*
%
%ADD82OVALD82*%

%ADD83O,1.90000X1.60000*%
%ADD84O,1.50000X2.00000*%
%ADD85C,1.20000*%
%TA.AperFunction,ViaPad*%
%ADD86C,0.80000*%
%ADD87C,1.50000*%
%ADD88C,1.20000*%
%ADD89C,2.00000*%
%ADD90C,1.00000*%
%ADD91C,1.30000*%
G36*
X5008550Y-13690103D02*
X5054313Y-13709058D01*
X5095498Y-13736578D01*
X5113011Y-13754091D01*
X5113011Y-13754091D01*
X5644986Y-14286066D01*
X5641190Y-14300230D01*
X5632001Y-14302695D01*
X5611479Y-14314542D01*
X5594722Y-14331299D01*
X5582874Y-14351820D01*
X5576740Y-14374712D01*
Y-14398409D01*
X5582874Y-14421300D01*
X5594722Y-14441821D01*
X5611479Y-14458578D01*
X5632001Y-14470425D01*
X5654891Y-14476559D01*
X5678589D01*
X5701479Y-14470425D01*
X5722001Y-14458578D01*
X5738758Y-14441821D01*
X5747068Y-14427428D01*
X5761198Y-14428354D01*
X5771377Y-14452930D01*
X5781040Y-14501512D01*
X5781039Y-14526279D01*
X5781039D01*
X5781040Y-14526279D01*
X5781039Y-16606502D01*
X5781040Y-16631268D01*
X5771377Y-16679851D01*
X5752422Y-16725613D01*
X5724902Y-16766798D01*
X5707389Y-16784311D01*
X4969158Y-17522542D01*
X4957772Y-17515968D01*
X4959180Y-17510713D01*
Y-17508221D01*
X4856481D01*
Y-17610921D01*
X4858973D01*
X4864227Y-17609512D01*
X4870801Y-17620898D01*
X4706096Y-17785603D01*
X4692653Y-17781087D01*
X4682118Y-17762839D01*
X4665361Y-17746082D01*
X4644839Y-17734235D01*
X4621949Y-17728101D01*
X4598251D01*
X4580890Y-17732751D01*
X4563529Y-17728101D01*
X4539831D01*
X4521200Y-17733093D01*
X4502569Y-17728101D01*
X4478871D01*
X4455981Y-17734235D01*
X4435459Y-17746082D01*
X4418702Y-17762839D01*
X4406854Y-17783360D01*
X4400720Y-17806252D01*
Y-17829948D01*
X4406854Y-17852840D01*
X4418702Y-17873361D01*
X4435459Y-17890118D01*
X4455981Y-17901965D01*
X4478871Y-17908099D01*
X4502569D01*
X4521200Y-17903107D01*
X4539831Y-17908099D01*
X4541417D01*
X4543943Y-17920799D01*
X4520870Y-17930357D01*
X4472288Y-17940021D01*
X4447522Y-17940021D01*
X1308118D01*
X1283351Y-17940021D01*
X1234770Y-17930357D01*
X1189007Y-17911401D01*
X1147822Y-17883882D01*
X1130309Y-17866370D01*
Y-17866370D01*
X329455Y-17065515D01*
X331733Y-17063237D01*
X340343Y-17048325D01*
X343704Y-17035780D01*
X279400D01*
Y-17010381D01*
X343704D01*
X340343Y-16997836D01*
X331733Y-16982922D01*
X319557Y-16970747D01*
X304644Y-16962137D01*
X294708Y-16959476D01*
X292712Y-16958940D01*
X294384Y-16946240D01*
X296353Y-16946240D01*
X305790D01*
X322424Y-16941783D01*
X337337Y-16933173D01*
X349513Y-16920998D01*
X358123Y-16906084D01*
X361484Y-16893539D01*
X232876D01*
X236237Y-16906084D01*
X244847Y-16920998D01*
X257023Y-16933173D01*
X271936Y-16941783D01*
X281872Y-16944444D01*
X283868Y-16944980D01*
X282196Y-16957680D01*
X280227Y-16957680D01*
X270790D01*
X254156Y-16962137D01*
X241117Y-16969666D01*
X237118Y-16962740D01*
X220361Y-16945982D01*
X199839Y-16934134D01*
X197427Y-16933487D01*
X139968Y-16876028D01*
X150513Y-16857765D01*
X156646Y-16834875D01*
Y-16811179D01*
X150513Y-16788287D01*
X138664Y-16767766D01*
X121908Y-16751009D01*
X101385Y-16739160D01*
X78495Y-16733028D01*
X54798D01*
X31908Y-16739160D01*
X13645Y-16749706D01*
X-200669Y-16535391D01*
X-218182Y-16517879D01*
X-245701Y-16476694D01*
X-249169Y-16468320D01*
X-242113Y-16457761D01*
X-231454D01*
X-208564Y-16451627D01*
X-188041Y-16439778D01*
X-171285Y-16423021D01*
X-159436Y-16402499D01*
X-153302Y-16379610D01*
Y-16355911D01*
X-159436Y-16333022D01*
X-171285Y-16312498D01*
X-188041Y-16295741D01*
X-208564Y-16283894D01*
X-231454Y-16277760D01*
X-255151D01*
X-264244Y-16280197D01*
X-274320Y-16272466D01*
Y-15557518D01*
X-274320Y-15532751D01*
X-264657Y-15484171D01*
X-249091Y-15446593D01*
X-234214Y-15443634D01*
X-233987Y-15443736D01*
X-226336Y-15451387D01*
X-205814Y-15463235D01*
X-182924Y-15469370D01*
X-159227D01*
X-136337Y-15463235D01*
X-115814Y-15451387D01*
X-99058Y-15434631D01*
X-87209Y-15414108D01*
X-81076Y-15391219D01*
Y-15367522D01*
X-87209Y-15344630D01*
X-99058Y-15324109D01*
X-113083Y-15310085D01*
X-115671Y-15294711D01*
X1425365Y-13753676D01*
X1442866Y-13736256D01*
X1483976Y-13708893D01*
X1529623Y-13690048D01*
X1578064Y-13680441D01*
X1602757Y-13680443D01*
X1602757Y-13680441D01*
X3880617Y-13680441D01*
X3882989Y-13682980D01*
X4093280D01*
Y-13682462D01*
X4094831Y-13680441D01*
X4935202Y-13680441D01*
X4959968Y-13680440D01*
X5008550Y-13690103D01*
D02*
G37*
%LPC*%
G36*
X4093280Y-13708380D02*
X4005580D01*
Y-13796080D01*
X4006098D01*
X4031633Y-13789238D01*
X4054527Y-13776019D01*
X4073220Y-13757327D01*
X4086438Y-13734433D01*
X4093280Y-13708897D01*
Y-13708380D01*
D02*
G37*
G36*
X3980180D02*
X3892480D01*
Y-13708897D01*
X3899322Y-13734433D01*
X3912540Y-13757327D01*
X3931233Y-13776019D01*
X3954127Y-13789238D01*
X3979662Y-13796080D01*
X3980180D01*
Y-13708380D01*
D02*
G37*
G36*
X1926732Y-13849290D02*
X1902863D01*
X1880810Y-13858424D01*
X1863932Y-13875304D01*
X1854798Y-13897356D01*
Y-13921225D01*
X1863932Y-13943277D01*
X1880810Y-13960155D01*
X1902863Y-13969290D01*
X1926732D01*
X1926769Y-13969275D01*
X1937329Y-13976331D01*
Y-13977692D01*
X1946463Y-13999745D01*
X1963342Y-14016623D01*
X1985394Y-14025757D01*
X2009263D01*
X2018272Y-14035773D01*
Y-14046742D01*
X2027407Y-14068794D01*
X2044285Y-14085674D01*
X2066337Y-14094807D01*
X2090207D01*
X2094494Y-14097673D01*
Y-14111475D01*
X2103629Y-14133527D01*
X2120507Y-14150406D01*
X2142559Y-14159540D01*
X2158094D01*
X2160326Y-14162880D01*
Y-14186749D01*
X2169460Y-14208801D01*
X2186339Y-14225681D01*
X2208391Y-14234814D01*
X2232260D01*
X2254313Y-14225681D01*
X2271191Y-14208801D01*
X2280326Y-14186749D01*
Y-14162878D01*
X2271191Y-14140826D01*
X2254313Y-14123949D01*
X2232260Y-14114815D01*
X2216726D01*
X2214494Y-14111475D01*
Y-14087605D01*
X2205360Y-14065553D01*
X2188481Y-14048674D01*
X2166429Y-14039540D01*
X2142560D01*
X2138272Y-14036674D01*
Y-14022873D01*
X2129138Y-14000821D01*
X2112259Y-13983943D01*
X2090207Y-13974808D01*
X2066338D01*
X2057329Y-13964793D01*
Y-13953822D01*
X2048195Y-13931770D01*
X2031316Y-13914893D01*
X2009264Y-13905759D01*
X1985394D01*
X1985357Y-13905772D01*
X1974797Y-13898717D01*
Y-13897356D01*
X1965663Y-13875304D01*
X1948785Y-13858424D01*
X1926732Y-13849290D01*
D02*
G37*
G36*
X4666171Y-14033760D02*
X4631699D01*
X4597889Y-14040485D01*
X4566041Y-14053677D01*
X4537379Y-14072829D01*
X4513003Y-14097205D01*
X4493852Y-14125867D01*
X4480660Y-14157713D01*
X4473935Y-14191524D01*
Y-14225996D01*
X4480660Y-14259805D01*
X4493852Y-14291653D01*
X4513003Y-14320316D01*
X4537379Y-14344691D01*
X4566041Y-14363843D01*
X4597889Y-14377036D01*
X4631699Y-14383760D01*
X4666171D01*
X4699980Y-14377036D01*
X4731828Y-14363843D01*
X4760491Y-14344691D01*
X4784866Y-14320316D01*
X4804018Y-14291653D01*
X4817210Y-14259805D01*
X4823935Y-14225996D01*
Y-14191524D01*
X4817210Y-14157713D01*
X4804018Y-14125867D01*
X4784866Y-14097205D01*
X4760491Y-14072829D01*
X4731828Y-14053677D01*
X4699980Y-14040485D01*
X4666171Y-14033760D01*
D02*
G37*
G36*
X3942271D02*
X3907799D01*
X3873989Y-14040485D01*
X3842141Y-14053677D01*
X3813479Y-14072829D01*
X3789103Y-14097205D01*
X3769952Y-14125867D01*
X3756760Y-14157713D01*
X3750035Y-14191524D01*
Y-14225996D01*
X3756760Y-14259805D01*
X3769952Y-14291653D01*
X3789103Y-14320316D01*
X3813479Y-14344691D01*
X3842141Y-14363843D01*
X3873989Y-14377036D01*
X3907799Y-14383760D01*
X3942271D01*
X3976080Y-14377036D01*
X4007928Y-14363843D01*
X4036591Y-14344691D01*
X4060966Y-14320316D01*
X4080118Y-14291653D01*
X4093310Y-14259805D01*
X4100035Y-14225996D01*
Y-14191524D01*
X4093310Y-14157713D01*
X4080118Y-14125867D01*
X4060966Y-14097205D01*
X4036591Y-14072829D01*
X4007928Y-14053677D01*
X3976080Y-14040485D01*
X3942271Y-14033760D01*
D02*
G37*
G36*
X1896615Y-14609698D02*
X1872745D01*
X1850693Y-14618832D01*
X1833814Y-14635712D01*
X1824680Y-14657764D01*
Y-14681633D01*
X1825507Y-14683629D01*
X1814740Y-14690823D01*
X1813567Y-14689650D01*
X1791515Y-14680516D01*
X1767646D01*
X1765538Y-14679108D01*
Y-14657764D01*
X1756403Y-14635712D01*
X1739525Y-14618832D01*
X1717473Y-14609698D01*
X1693603D01*
X1671551Y-14618832D01*
X1654672Y-14635712D01*
X1645538Y-14657764D01*
Y-14672968D01*
X1643228Y-14682236D01*
X1633804Y-14684700D01*
X1618745D01*
X1596693Y-14693834D01*
X1579814Y-14710713D01*
X1570680Y-14732765D01*
Y-14756635D01*
X1579814Y-14778687D01*
X1596693Y-14795566D01*
X1618745Y-14804700D01*
X1642615D01*
X1664667Y-14795566D01*
X1681546Y-14778687D01*
X1690680Y-14756635D01*
Y-14741432D01*
X1692990Y-14732162D01*
X1702413Y-14729698D01*
X1717472D01*
X1719580Y-14731107D01*
Y-14752451D01*
X1728715Y-14774503D01*
X1745593Y-14791380D01*
X1767645Y-14800516D01*
X1791515D01*
X1813567Y-14791380D01*
X1830446Y-14774503D01*
X1839580Y-14752451D01*
Y-14728581D01*
X1838753Y-14726585D01*
X1849520Y-14719391D01*
X1850693Y-14720564D01*
X1872745Y-14729698D01*
X1896615D01*
X1900880Y-14727931D01*
X1913580Y-14736417D01*
Y-14751555D01*
X1922714Y-14773607D01*
X1939593Y-14790486D01*
X1961645Y-14799620D01*
X1985515D01*
X2007567Y-14790486D01*
X2024446Y-14773607D01*
X2033580Y-14751555D01*
Y-14727686D01*
X2024446Y-14705634D01*
X2007567Y-14688754D01*
X1985515Y-14679620D01*
X1961645D01*
X1957380Y-14681387D01*
X1944680Y-14672900D01*
Y-14657764D01*
X1935546Y-14635712D01*
X1918667Y-14618832D01*
X1896615Y-14609698D01*
D02*
G37*
G36*
X5670969Y-14647079D02*
X5647271D01*
X5624381Y-14653214D01*
X5603859Y-14665062D01*
X5587102Y-14681819D01*
X5575254Y-14702341D01*
X5569120Y-14725230D01*
Y-14748929D01*
X5575254Y-14771819D01*
X5587102Y-14792342D01*
X5603859Y-14809097D01*
X5624381Y-14820946D01*
X5647271Y-14827080D01*
X5670969D01*
X5693859Y-14820946D01*
X5714381Y-14809097D01*
X5731138Y-14792342D01*
X5742986Y-14771819D01*
X5749120Y-14748929D01*
Y-14725230D01*
X5742986Y-14702341D01*
X5731138Y-14681819D01*
X5714381Y-14665062D01*
X5693859Y-14653214D01*
X5670969Y-14647079D01*
D02*
G37*
G36*
X4939535Y-14710100D02*
X4915665D01*
X4893613Y-14719234D01*
X4876734Y-14736113D01*
X4867600Y-14758165D01*
Y-14782034D01*
X4876734Y-14804086D01*
X4893613Y-14820966D01*
X4915665Y-14830099D01*
X4939535D01*
X4961587Y-14820966D01*
X4978466Y-14804086D01*
X4987600Y-14782034D01*
Y-14758165D01*
X4978466Y-14736113D01*
X4961587Y-14719234D01*
X4939535Y-14710100D01*
D02*
G37*
G36*
X950029Y-14733141D02*
X926160D01*
X904107Y-14742274D01*
X887229Y-14759154D01*
X878095Y-14781206D01*
Y-14805075D01*
X887229Y-14827129D01*
X904107Y-14844006D01*
X926160Y-14853140D01*
X950029D01*
X972082Y-14844006D01*
X988960Y-14827129D01*
X998095Y-14805075D01*
Y-14781206D01*
X988960Y-14759154D01*
X972082Y-14742274D01*
X950029Y-14733141D01*
D02*
G37*
G36*
X3043367Y-14658852D02*
X3009430Y-14663319D01*
X2977806Y-14676419D01*
X2950650Y-14697256D01*
X2929437Y-14718469D01*
X2908599Y-14745625D01*
X2895500Y-14777251D01*
X2891032Y-14811188D01*
X2895500Y-14845123D01*
X2908599Y-14876747D01*
X2929437Y-14903903D01*
X2956593Y-14924741D01*
X2988217Y-14937840D01*
X3022153Y-14942308D01*
X3056090Y-14937840D01*
X3087714Y-14924741D01*
X3114870Y-14903903D01*
X3136083Y-14882690D01*
X3156921Y-14855534D01*
X3170020Y-14823911D01*
X3174488Y-14789973D01*
X3170020Y-14756036D01*
X3156921Y-14724413D01*
X3136083Y-14697256D01*
X3108927Y-14676419D01*
X3077303Y-14663319D01*
X3043367Y-14658852D01*
D02*
G37*
G36*
X3222972Y-14863269D02*
X3195457Y-14866891D01*
X3169817Y-14877512D01*
X3147800Y-14894408D01*
X3146173Y-14896033D01*
X3212365Y-14962224D01*
X3287981Y-14886607D01*
X3276127Y-14877512D01*
X3250487Y-14866891D01*
X3222972Y-14863269D01*
D02*
G37*
G36*
X5262578Y-14850262D02*
X5238708D01*
X5216656Y-14859398D01*
X5199778Y-14876276D01*
X5190643Y-14898328D01*
Y-14922198D01*
X5199778Y-14944250D01*
X5216656Y-14961130D01*
X5238708Y-14970264D01*
X5262578D01*
X5284630Y-14961130D01*
X5301509Y-14944250D01*
X5310643Y-14922198D01*
Y-14898328D01*
X5301509Y-14876276D01*
X5284630Y-14859398D01*
X5262578Y-14850262D01*
D02*
G37*
G36*
X4988144D02*
X4964275D01*
X4942222Y-14859398D01*
X4925344Y-14876276D01*
X4916210Y-14898328D01*
Y-14922198D01*
X4925344Y-14944250D01*
X4942222Y-14961130D01*
X4964275Y-14970264D01*
X4988144D01*
X5010197Y-14961130D01*
X5027075Y-14944250D01*
X5036209Y-14922198D01*
Y-14898328D01*
X5027075Y-14876276D01*
X5010197Y-14859398D01*
X4988144Y-14850262D01*
D02*
G37*
G36*
X809950Y-14841045D02*
X786080D01*
X764028Y-14850179D01*
X747149Y-14867056D01*
X738015Y-14889108D01*
Y-14912979D01*
X747149Y-14935031D01*
X764028Y-14951909D01*
X786080Y-14961044D01*
X809950D01*
X831484Y-14952124D01*
X835065Y-14951070D01*
X845667Y-14953178D01*
X849204Y-14961716D01*
X866082Y-14978593D01*
X888134Y-14987729D01*
X912004D01*
X934056Y-14978593D01*
X950935Y-14961716D01*
X960069Y-14939664D01*
Y-14915794D01*
X950935Y-14893742D01*
X934056Y-14876863D01*
X912004Y-14867729D01*
X888134D01*
X866600Y-14876649D01*
X863019Y-14877704D01*
X852417Y-14875594D01*
X848880Y-14867056D01*
X832002Y-14850179D01*
X809950Y-14841045D01*
D02*
G37*
G36*
X4441646Y-14894499D02*
X4417777D01*
X4395725Y-14903633D01*
X4378846Y-14920511D01*
X4369712Y-14942564D01*
Y-14966434D01*
X4378846Y-14988486D01*
X4395725Y-15005363D01*
X4417777Y-15014499D01*
X4441646D01*
X4463699Y-15005363D01*
X4480577Y-14988486D01*
X4489712Y-14966434D01*
Y-14942564D01*
X4480577Y-14920511D01*
X4463699Y-14903633D01*
X4441646Y-14894499D01*
D02*
G37*
G36*
X5439603Y-14886841D02*
X5415733D01*
X5393681Y-14895975D01*
X5376803Y-14912854D01*
X5367668Y-14934906D01*
Y-14958775D01*
X5376803Y-14980827D01*
X5393681Y-14997707D01*
X5415733Y-15006841D01*
X5439603D01*
X5461655Y-14997707D01*
X5471735Y-14987627D01*
X5481455Y-14989560D01*
X5498333Y-15006438D01*
X5520385Y-15015573D01*
X5544255D01*
X5566307Y-15006438D01*
X5583185Y-14989560D01*
X5592320Y-14967508D01*
Y-14943639D01*
X5583185Y-14921587D01*
X5566307Y-14904707D01*
X5544255Y-14895573D01*
X5520385D01*
X5498333Y-14904707D01*
X5488253Y-14914787D01*
X5478533Y-14912852D01*
X5461655Y-14895975D01*
X5439603Y-14886841D01*
D02*
G37*
G36*
X3305942Y-14904568D02*
X3230325Y-14980185D01*
X3296517Y-15046378D01*
X3298144Y-15044751D01*
X3315038Y-15022733D01*
X3325659Y-14997093D01*
X3329281Y-14969579D01*
X3325659Y-14942064D01*
X3315038Y-14916425D01*
X3305942Y-14904568D01*
D02*
G37*
G36*
X3128213Y-14913994D02*
X3126587Y-14915620D01*
X3109692Y-14937637D01*
X3099072Y-14963277D01*
X3095449Y-14990791D01*
X3099072Y-15018307D01*
X3109692Y-15043947D01*
X3118788Y-15055801D01*
X3194404Y-14980185D01*
X3128213Y-14913994D01*
D02*
G37*
G36*
X5110488Y-14944402D02*
X5086618D01*
X5064566Y-14953535D01*
X5047687Y-14970415D01*
X5038553Y-14992467D01*
Y-15016336D01*
X5047687Y-15038390D01*
X5064566Y-15055267D01*
X5086618Y-15064401D01*
X5110488D01*
X5132540Y-15055267D01*
X5149418Y-15038390D01*
X5158553Y-15016336D01*
Y-14992467D01*
X5149418Y-14970415D01*
X5132540Y-14953535D01*
X5110488Y-14944402D01*
D02*
G37*
G36*
X5677616Y-14886841D02*
X5653746D01*
X5631694Y-14895975D01*
X5614815Y-14912854D01*
X5605681Y-14934906D01*
Y-14958775D01*
X5614815Y-14980827D01*
X5631694Y-14997707D01*
X5647902Y-15004420D01*
X5645376Y-15017120D01*
X5635270D01*
X5618636Y-15021577D01*
X5603723Y-15030186D01*
X5591547Y-15042363D01*
X5582937Y-15057275D01*
X5579576Y-15069820D01*
X5708184D01*
X5704823Y-15057275D01*
X5696213Y-15042363D01*
X5684037Y-15030186D01*
X5669124Y-15021577D01*
X5661524Y-15019540D01*
X5663196Y-15006841D01*
X5677616D01*
X5699668Y-14997707D01*
X5716546Y-14980827D01*
X5725681Y-14958775D01*
Y-14934906D01*
X5716546Y-14912854D01*
X5699668Y-14895975D01*
X5677616Y-14886841D01*
D02*
G37*
G36*
X4218175Y-15017439D02*
X4194305D01*
X4172253Y-15026575D01*
X4155374Y-15043452D01*
X4146240Y-15065504D01*
Y-15084425D01*
X4140860Y-15092064D01*
X4134852Y-15095068D01*
X4114876D01*
X4107635Y-15090230D01*
Y-15082048D01*
X4098501Y-15059996D01*
X4081623Y-15043117D01*
X4059570Y-15033983D01*
X4035701D01*
X4013648Y-15043117D01*
X3996770Y-15059996D01*
X3987636Y-15082048D01*
Y-15097545D01*
X3984275Y-15099789D01*
X3960406D01*
X3945834Y-15105826D01*
X3942109Y-15104060D01*
X3934344Y-15096838D01*
Y-15076509D01*
X3925209Y-15054457D01*
X3908331Y-15037579D01*
X3886278Y-15028444D01*
X3862409D01*
X3840357Y-15037579D01*
X3823478Y-15054457D01*
X3814344Y-15076509D01*
Y-15100378D01*
X3823478Y-15122430D01*
X3840357Y-15139310D01*
X3862409Y-15148444D01*
X3886278D01*
X3900851Y-15142409D01*
X3904575Y-15144174D01*
X3912341Y-15151395D01*
Y-15171725D01*
X3921475Y-15193777D01*
X3938353Y-15210657D01*
X3960406Y-15219791D01*
X3984275D01*
X4006328Y-15210657D01*
X4023206Y-15193777D01*
X4032340Y-15171725D01*
Y-15156229D01*
X4035701Y-15153983D01*
X4059570D01*
X4066810Y-15158820D01*
Y-15167001D01*
X4075945Y-15189055D01*
X4092823Y-15205933D01*
X4114875Y-15215068D01*
X4138745D01*
X4160797Y-15205933D01*
X4177676Y-15189055D01*
X4186810Y-15167001D01*
Y-15148082D01*
X4192190Y-15140443D01*
X4198198Y-15137440D01*
X4218175D01*
X4240227Y-15128307D01*
X4257106Y-15111427D01*
X4266240Y-15089375D01*
Y-15065504D01*
X4257106Y-15043452D01*
X4240227Y-15026575D01*
X4218175Y-15017439D01*
D02*
G37*
G36*
X3212365Y-14998146D02*
X3136749Y-15073763D01*
X3148604Y-15082858D01*
X3174244Y-15093478D01*
X3201759Y-15097101D01*
X3229273Y-15093478D01*
X3254913Y-15082858D01*
X3276931Y-15065964D01*
X3278557Y-15064339D01*
X3212365Y-14998146D01*
D02*
G37*
G36*
X2482060Y-14698647D02*
X2458191D01*
X2436138Y-14707780D01*
X2419260Y-14724658D01*
X2410125Y-14746712D01*
Y-14770580D01*
X2412164Y-14775500D01*
X2404365Y-14789861D01*
X2388651Y-14796368D01*
X2371772Y-14813248D01*
X2362638Y-14835300D01*
Y-14859169D01*
X2371772Y-14881223D01*
X2381531Y-14890981D01*
X2381416Y-14904774D01*
X2364538Y-14921652D01*
X2355403Y-14943706D01*
Y-14967574D01*
X2364538Y-14989627D01*
X2381416Y-15006505D01*
X2403468Y-15015640D01*
X2411102Y-15028340D01*
X2406255Y-15040044D01*
Y-15063911D01*
X2415389Y-15085965D01*
X2432267Y-15102843D01*
X2454320Y-15111977D01*
X2478189D01*
X2500242Y-15102843D01*
X2517120Y-15085965D01*
X2526254Y-15063911D01*
Y-15040044D01*
X2517120Y-15017990D01*
X2500242Y-15001112D01*
X2478189Y-14991978D01*
X2470555Y-14979277D01*
X2475403Y-14967574D01*
Y-14943706D01*
X2466269Y-14921652D01*
X2456510Y-14911894D01*
X2456625Y-14898100D01*
X2473503Y-14881223D01*
X2482638Y-14859169D01*
Y-14835300D01*
X2480599Y-14830379D01*
X2488398Y-14816020D01*
X2504113Y-14809511D01*
X2520991Y-14792633D01*
X2530125Y-14770580D01*
Y-14746712D01*
X2520991Y-14724658D01*
X2504113Y-14707780D01*
X2482060Y-14698647D01*
D02*
G37*
G36*
X5256973Y-15018153D02*
X5233104D01*
X5211051Y-15027287D01*
X5194173Y-15044167D01*
X5185038Y-15066219D01*
Y-15090088D01*
X5194173Y-15112141D01*
X5211051Y-15129019D01*
X5233104Y-15138153D01*
X5256973D01*
X5279026Y-15129019D01*
X5295904Y-15112141D01*
X5305038Y-15090088D01*
Y-15066219D01*
X5295904Y-15044167D01*
X5279026Y-15027287D01*
X5256973Y-15018153D01*
D02*
G37*
G36*
X5708184Y-15095219D02*
X5656580D01*
Y-15146825D01*
X5669124Y-15143463D01*
X5684037Y-15134853D01*
X5696213Y-15122678D01*
X5704823Y-15107764D01*
X5708184Y-15095219D01*
D02*
G37*
G36*
X5631180D02*
X5579576D01*
X5582937Y-15107764D01*
X5591547Y-15122678D01*
X5603723Y-15134853D01*
X5618636Y-15143463D01*
X5631180Y-15146825D01*
Y-15095219D01*
D02*
G37*
G36*
X757295Y-15031268D02*
X733426D01*
X711373Y-15040404D01*
X694495Y-15057281D01*
X685361Y-15079333D01*
Y-15103204D01*
X694495Y-15125256D01*
X711373Y-15142136D01*
X733426Y-15151270D01*
X757295D01*
X762468Y-15154726D01*
Y-15167622D01*
X771602Y-15189674D01*
X788481Y-15206554D01*
X810533Y-15215688D01*
X834403D01*
X856455Y-15206554D01*
X873334Y-15189674D01*
X882468Y-15167622D01*
Y-15143755D01*
X873334Y-15121701D01*
X856455Y-15104823D01*
X834403Y-15095688D01*
X810534D01*
X805361Y-15092232D01*
Y-15079333D01*
X796226Y-15057281D01*
X779348Y-15040404D01*
X757295Y-15031268D01*
D02*
G37*
G36*
X580492Y-15120811D02*
X556622D01*
X534570Y-15129945D01*
X517692Y-15146825D01*
X508557Y-15168877D01*
Y-15192746D01*
X517692Y-15214799D01*
X534570Y-15231677D01*
X535465Y-15243716D01*
X530815Y-15249773D01*
X517279Y-15250307D01*
X503692Y-15236720D01*
X481639Y-15227586D01*
X457770D01*
X435717Y-15236720D01*
X418839Y-15253600D01*
X409705Y-15275652D01*
Y-15299521D01*
X418839Y-15321573D01*
X416816Y-15331744D01*
X411806Y-15333820D01*
X394928Y-15350697D01*
X385793Y-15372751D01*
Y-15396620D01*
X394928Y-15418672D01*
X411806Y-15435551D01*
X433859Y-15444685D01*
X457728D01*
X479781Y-15435551D01*
X496659Y-15418672D01*
X505793Y-15396620D01*
Y-15372751D01*
X496659Y-15350697D01*
X498682Y-15340526D01*
X503692Y-15338451D01*
X520570Y-15321573D01*
X522581Y-15316719D01*
X536239Y-15316931D01*
X551631Y-15332323D01*
X573684Y-15341457D01*
X597553D01*
X619606Y-15332323D01*
X636484Y-15315445D01*
X645618Y-15293391D01*
Y-15269524D01*
X636484Y-15247470D01*
X619606Y-15230592D01*
X618869Y-15230287D01*
X616391Y-15217831D01*
X619423Y-15214799D01*
X628557Y-15192746D01*
Y-15168877D01*
X619423Y-15146825D01*
X602544Y-15129945D01*
X580492Y-15120811D01*
D02*
G37*
G36*
X2148075Y-15178195D02*
X2124205D01*
X2102153Y-15187329D01*
X2085274Y-15204208D01*
X2076140Y-15226260D01*
Y-15250130D01*
X2085274Y-15272182D01*
X2102153Y-15289059D01*
X2124205Y-15298195D01*
X2148075D01*
X2170127Y-15289059D01*
X2187006Y-15272182D01*
X2196140Y-15250130D01*
Y-15226260D01*
X2187006Y-15204208D01*
X2170127Y-15187329D01*
X2148075Y-15178195D01*
D02*
G37*
G36*
X3402577Y-15018062D02*
X3368640Y-15022530D01*
X3337016Y-15035629D01*
X3309860Y-15056467D01*
X3288647Y-15077679D01*
X3267809Y-15104836D01*
X3254710Y-15136459D01*
X3250242Y-15170396D01*
X3254710Y-15204333D01*
X3267809Y-15235957D01*
X3288647Y-15263113D01*
X3315803Y-15283951D01*
X3347427Y-15297050D01*
X3381364Y-15301518D01*
X3415301Y-15297050D01*
X3446925Y-15283951D01*
X3474081Y-15263113D01*
X3495294Y-15241901D01*
X3516131Y-15214745D01*
X3529230Y-15183121D01*
X3533698Y-15149184D01*
X3529230Y-15115247D01*
X3516131Y-15083623D01*
X3495294Y-15056467D01*
X3468138Y-15035629D01*
X3436514Y-15022530D01*
X3402577Y-15018062D01*
D02*
G37*
G36*
X922020Y-15305235D02*
Y-15356841D01*
X973624D01*
X970263Y-15344296D01*
X961653Y-15329382D01*
X949477Y-15317207D01*
X934564Y-15308597D01*
X922020Y-15305235D01*
D02*
G37*
G36*
X973624Y-15382240D02*
X922020D01*
Y-15433844D01*
X934564Y-15430482D01*
X949477Y-15421873D01*
X961653Y-15409697D01*
X970263Y-15394785D01*
X973624Y-15382240D01*
D02*
G37*
G36*
X819569Y-15269380D02*
X795871D01*
X772981Y-15275514D01*
X752459Y-15287363D01*
X735702Y-15304118D01*
X723854Y-15324641D01*
X717720Y-15347531D01*
Y-15371230D01*
X723854Y-15394119D01*
X735702Y-15414641D01*
X752459Y-15431398D01*
X772981Y-15443246D01*
X795871Y-15449380D01*
X819569D01*
X842459Y-15443246D01*
X862981Y-15431398D01*
X871282Y-15423096D01*
X884076Y-15430482D01*
X896620Y-15433844D01*
Y-15375352D01*
X897725Y-15371230D01*
Y-15369540D01*
Y-15347531D01*
X896620Y-15343407D01*
Y-15305235D01*
X884076Y-15308597D01*
X882762Y-15309357D01*
X879738Y-15304118D01*
X862981Y-15287363D01*
X842459Y-15275514D01*
X819569Y-15269380D01*
D02*
G37*
G36*
X311569Y-15378600D02*
X287871D01*
X264981Y-15384734D01*
X244459Y-15396582D01*
X227702Y-15413339D01*
X215854Y-15433861D01*
X209720Y-15456750D01*
Y-15470979D01*
X197149Y-15480760D01*
X192795Y-15479593D01*
X169098D01*
X146208Y-15485727D01*
X125686Y-15497575D01*
X108929Y-15514333D01*
X97080Y-15534856D01*
X90947Y-15557745D01*
Y-15581442D01*
X97080Y-15604332D01*
X99572Y-15608649D01*
X93446Y-15623438D01*
X81495Y-15626640D01*
X60972Y-15638489D01*
X44216Y-15655246D01*
X43655Y-15656216D01*
X31063Y-15657874D01*
X27309Y-15654120D01*
X6786Y-15642271D01*
X-16104Y-15636137D01*
X-39801D01*
X-62691Y-15642271D01*
X-83213Y-15654120D01*
X-99970Y-15670876D01*
X-111819Y-15691399D01*
X-117952Y-15714288D01*
Y-15737987D01*
X-111819Y-15760876D01*
X-103022Y-15776112D01*
X-103953Y-15778358D01*
X-124475Y-15790208D01*
X-141232Y-15806964D01*
X-153080Y-15827487D01*
X-159214Y-15850377D01*
Y-15874074D01*
X-153080Y-15896964D01*
X-141232Y-15917487D01*
X-124475Y-15934242D01*
X-103953Y-15946092D01*
X-81063Y-15952225D01*
X-57365D01*
X-34475Y-15946092D01*
X-13953Y-15934242D01*
X2804Y-15917487D01*
X14652Y-15896964D01*
X20786Y-15874074D01*
Y-15850377D01*
X14652Y-15827487D01*
X11066Y-15821275D01*
X16114Y-15804617D01*
X27309Y-15798155D01*
X44065Y-15781398D01*
X44626Y-15780428D01*
X57217Y-15778770D01*
X60972Y-15782524D01*
X81495Y-15794373D01*
X104385Y-15800507D01*
X128082D01*
X150972Y-15794373D01*
X167376Y-15784901D01*
X176486Y-15794011D01*
X197008Y-15805859D01*
X219898Y-15811993D01*
X243595D01*
X266485Y-15805859D01*
X287008Y-15794011D01*
X303764Y-15777254D01*
X315613Y-15756732D01*
X321746Y-15733842D01*
Y-15710146D01*
X318573Y-15698300D01*
X326809Y-15685600D01*
X349699Y-15679466D01*
X370221Y-15667618D01*
X386978Y-15650861D01*
X398826Y-15630339D01*
X404960Y-15607449D01*
Y-15603741D01*
X417660Y-15600339D01*
X423482Y-15610422D01*
X440238Y-15627177D01*
X460761Y-15639027D01*
X483651Y-15645160D01*
X507348D01*
X530238Y-15639027D01*
X550760Y-15627177D01*
X567517Y-15610422D01*
X575480Y-15596629D01*
X588180Y-15600032D01*
Y-15612529D01*
X594314Y-15635419D01*
X606162Y-15655940D01*
X622919Y-15672697D01*
X635401Y-15679904D01*
Y-15694569D01*
X627999Y-15698842D01*
X611242Y-15715599D01*
X599394Y-15736121D01*
X593260Y-15759010D01*
Y-15782709D01*
X599394Y-15805598D01*
X611242Y-15826122D01*
X626921Y-15841800D01*
X621200Y-15863152D01*
Y-15886848D01*
X627334Y-15909740D01*
X639182Y-15930261D01*
X655939Y-15947018D01*
X676461Y-15958865D01*
X699351Y-15964999D01*
X723049D01*
X745939Y-15958865D01*
X766461Y-15947018D01*
X783218Y-15930261D01*
X795066Y-15909740D01*
X801200Y-15886848D01*
Y-15863152D01*
X799497Y-15856795D01*
X811331Y-15851894D01*
X816982Y-15861681D01*
X833739Y-15878438D01*
X854261Y-15890286D01*
X877151Y-15896420D01*
X894077D01*
X897328Y-15908556D01*
X905938Y-15923468D01*
X918114Y-15935645D01*
X933028Y-15944254D01*
X945571Y-15947615D01*
Y-15883311D01*
X958271D01*
Y-15870612D01*
X1022575D01*
X1019214Y-15858067D01*
X1010604Y-15843153D01*
X998428Y-15830978D01*
X983515Y-15822368D01*
X978277Y-15820966D01*
X979000Y-15818269D01*
Y-15794571D01*
X972866Y-15771681D01*
X961018Y-15751160D01*
X944261Y-15734402D01*
X923739Y-15722554D01*
X900849Y-15716420D01*
X877151D01*
X854261Y-15722554D01*
X833739Y-15734402D01*
X816982Y-15751160D01*
X805134Y-15771681D01*
X799000Y-15794571D01*
Y-15818269D01*
X800703Y-15824625D01*
X788869Y-15829527D01*
X783218Y-15819739D01*
X767539Y-15804060D01*
X773260Y-15782709D01*
Y-15759010D01*
X767126Y-15736121D01*
X755278Y-15715599D01*
X738521Y-15698842D01*
X726039Y-15691637D01*
Y-15676971D01*
X733441Y-15672697D01*
X750198Y-15655940D01*
X762046Y-15635419D01*
X768180Y-15612529D01*
Y-15588831D01*
X762046Y-15565941D01*
X750198Y-15545419D01*
X733441Y-15528662D01*
X712919Y-15516814D01*
X690029Y-15510680D01*
X666331D01*
X643441Y-15516814D01*
X622919Y-15528662D01*
X606162Y-15545419D01*
X598199Y-15559212D01*
X585499Y-15555809D01*
Y-15543312D01*
X579366Y-15520422D01*
X567517Y-15499899D01*
X550760Y-15483144D01*
X530238Y-15471294D01*
X507348Y-15465161D01*
X483651D01*
X460761Y-15471294D01*
X440238Y-15483144D01*
X423482Y-15499899D01*
X411633Y-15520422D01*
X405499Y-15543312D01*
Y-15547018D01*
X392799Y-15550423D01*
X386978Y-15540340D01*
X371119Y-15524480D01*
X371738Y-15523862D01*
X383586Y-15503339D01*
X389720Y-15480449D01*
Y-15456750D01*
X383586Y-15433861D01*
X371738Y-15413339D01*
X354981Y-15396582D01*
X334459Y-15384734D01*
X311569Y-15378600D01*
D02*
G37*
G36*
X1176020Y-15429697D02*
Y-15481300D01*
X1227624D01*
X1224263Y-15468756D01*
X1215653Y-15453844D01*
X1203477Y-15441667D01*
X1188564Y-15433057D01*
X1176020Y-15429697D01*
D02*
G37*
G36*
X1150620D02*
X1138076Y-15433057D01*
X1123163Y-15441667D01*
X1110987Y-15453844D01*
X1102377Y-15468756D01*
X1097920Y-15485390D01*
Y-15486562D01*
X1085220Y-15491821D01*
X1081421Y-15488022D01*
X1060899Y-15476173D01*
X1038009Y-15470039D01*
X1014311D01*
X991421Y-15476173D01*
X970899Y-15488022D01*
X954142Y-15504779D01*
X942294Y-15525301D01*
X936160Y-15548190D01*
Y-15571889D01*
X942294Y-15594778D01*
X954142Y-15615302D01*
X970899Y-15632059D01*
X991421Y-15643906D01*
X1014311Y-15650040D01*
X1038009D01*
X1060899Y-15643906D01*
X1081421Y-15632059D01*
X1098178Y-15615302D01*
X1110026Y-15594778D01*
X1116160Y-15571889D01*
Y-15556480D01*
X1128860Y-15549622D01*
X1138076Y-15554942D01*
X1150620Y-15558304D01*
Y-15494000D01*
Y-15429697D01*
D02*
G37*
G36*
X5236300Y-15453735D02*
X5223757Y-15457097D01*
X5208844Y-15465707D01*
X5196667Y-15477882D01*
X5188057Y-15492796D01*
X5184696Y-15505341D01*
X5236300D01*
Y-15453735D01*
D02*
G37*
G36*
X1861034Y-15418800D02*
X1837164D01*
X1815112Y-15427934D01*
X1798234Y-15444814D01*
X1789099Y-15466866D01*
Y-15490735D01*
X1798234Y-15512787D01*
X1815112Y-15529666D01*
X1837164Y-15538800D01*
X1861034D01*
X1883086Y-15529666D01*
X1899965Y-15512787D01*
X1909099Y-15490735D01*
Y-15466866D01*
X1899965Y-15444814D01*
X1883086Y-15427934D01*
X1861034Y-15418800D01*
D02*
G37*
G36*
X1227624Y-15506700D02*
X1176020D01*
Y-15558304D01*
X1188564Y-15554942D01*
X1203477Y-15546333D01*
X1215653Y-15534157D01*
X1224263Y-15519244D01*
X1227624Y-15506700D01*
D02*
G37*
G36*
X4538215Y-15502580D02*
X4514345D01*
X4492293Y-15511714D01*
X4475414Y-15528593D01*
X4466280Y-15550645D01*
Y-15574515D01*
X4475414Y-15596567D01*
X4492293Y-15613446D01*
X4514345Y-15622580D01*
X4538215D01*
X4560267Y-15613446D01*
X4577146Y-15596567D01*
X4586280Y-15574515D01*
Y-15550645D01*
X4577146Y-15528593D01*
X4560267Y-15511714D01*
X4538215Y-15502580D01*
D02*
G37*
G36*
X5074069Y-15515759D02*
X5050371D01*
X5027481Y-15521893D01*
X5006959Y-15533742D01*
X4990202Y-15550499D01*
X4978354Y-15571021D01*
X4972220Y-15593912D01*
Y-15617609D01*
X4978354Y-15640498D01*
X4990202Y-15661021D01*
X5006959Y-15677779D01*
X5027481Y-15689626D01*
X5050371Y-15695760D01*
X5074069D01*
X5096959Y-15689626D01*
X5117481Y-15677779D01*
X5134238Y-15661021D01*
X5146086Y-15640498D01*
X5152220Y-15617609D01*
Y-15593912D01*
X5146086Y-15571021D01*
X5134238Y-15550499D01*
X5117481Y-15533742D01*
X5096959Y-15521893D01*
X5074069Y-15515759D01*
D02*
G37*
G36*
X4418493Y-15692268D02*
Y-15743874D01*
X4470096D01*
X4466736Y-15731329D01*
X4458125Y-15716415D01*
X4445949Y-15704240D01*
X4431036Y-15695630D01*
X4418493Y-15692268D01*
D02*
G37*
G36*
X4393093D02*
X4380549Y-15695630D01*
X4365636Y-15704240D01*
X4353460Y-15716415D01*
X4344850Y-15731329D01*
X4341489Y-15743874D01*
X4393093D01*
Y-15692268D01*
D02*
G37*
G36*
X3995688Y-15630745D02*
X3971819D01*
X3949766Y-15639879D01*
X3932888Y-15656758D01*
X3923753Y-15678810D01*
Y-15702679D01*
X3932888Y-15724731D01*
X3949766Y-15741611D01*
X3971819Y-15750745D01*
X3995688D01*
X3997960Y-15752263D01*
Y-15770094D01*
X4007095Y-15792146D01*
X4023973Y-15809026D01*
X4046025Y-15818159D01*
X4069895D01*
X4091947Y-15809026D01*
X4107960Y-15793013D01*
X4123973Y-15809026D01*
X4146025Y-15818159D01*
X4169895D01*
X4191947Y-15809026D01*
X4208826Y-15792146D01*
X4217960Y-15770094D01*
Y-15758176D01*
X4228520Y-15751118D01*
X4230936Y-15752119D01*
X4254805D01*
X4276858Y-15742986D01*
X4293736Y-15726106D01*
X4302870Y-15704054D01*
Y-15680185D01*
X4293736Y-15658133D01*
X4276858Y-15641254D01*
X4254805Y-15632120D01*
X4230936D01*
X4208883Y-15641254D01*
X4192005Y-15658133D01*
X4182870Y-15680185D01*
Y-15692105D01*
X4172311Y-15699161D01*
X4169895Y-15698160D01*
X4146025D01*
X4123973Y-15707294D01*
X4107960Y-15723306D01*
X4091947Y-15707294D01*
X4069895Y-15698160D01*
X4046026D01*
X4043753Y-15696642D01*
Y-15678810D01*
X4034619Y-15656758D01*
X4017741Y-15639879D01*
X3995688Y-15630745D01*
D02*
G37*
G36*
X5218308Y-15705165D02*
Y-15756769D01*
X5269912D01*
X5266551Y-15744225D01*
X5257941Y-15729312D01*
X5245765Y-15717136D01*
X5230852Y-15708527D01*
X5218308Y-15705165D01*
D02*
G37*
G36*
X5192908D02*
X5180365Y-15708527D01*
X5165452Y-15717136D01*
X5153275Y-15729312D01*
X5144665Y-15744225D01*
X5141304Y-15756769D01*
X5192908D01*
Y-15705165D01*
D02*
G37*
G36*
X5261700Y-15453735D02*
Y-15518040D01*
X5249000D01*
Y-15530740D01*
X5184696D01*
X5188057Y-15543283D01*
X5196667Y-15558195D01*
X5208844Y-15570374D01*
X5223757Y-15578983D01*
X5240390Y-15583440D01*
X5245145Y-15589638D01*
X5244000Y-15593912D01*
Y-15617609D01*
X5250134Y-15640498D01*
X5261982Y-15661021D01*
X5278739Y-15677779D01*
X5299261Y-15689626D01*
X5300708Y-15690015D01*
X5306325Y-15701404D01*
X5300994Y-15714276D01*
Y-15738145D01*
X5310128Y-15760197D01*
X5327006Y-15777077D01*
X5349059Y-15786211D01*
X5372928D01*
X5394981Y-15777077D01*
X5411859Y-15760197D01*
X5420993Y-15738145D01*
Y-15714276D01*
X5411859Y-15692223D01*
X5401863Y-15682227D01*
X5401637Y-15665402D01*
X5406018Y-15661021D01*
X5417866Y-15640498D01*
X5424000Y-15617609D01*
Y-15593912D01*
X5417866Y-15571021D01*
X5406018Y-15550499D01*
X5389261Y-15533742D01*
X5368739Y-15521893D01*
X5345849Y-15515759D01*
X5322152D01*
X5314400Y-15509811D01*
Y-15509430D01*
X5309943Y-15492796D01*
X5301333Y-15477882D01*
X5289157Y-15465707D01*
X5274244Y-15457097D01*
X5261700Y-15453735D01*
D02*
G37*
G36*
X1478280Y-15758160D02*
X1426676D01*
X1430037Y-15770705D01*
X1438647Y-15785617D01*
X1450823Y-15797794D01*
X1465736Y-15806403D01*
X1478280Y-15809764D01*
Y-15758160D01*
D02*
G37*
G36*
X1431709Y-15546240D02*
X1408011D01*
X1385121Y-15552374D01*
X1364599Y-15564223D01*
X1347842Y-15580978D01*
X1335994Y-15601501D01*
X1329860Y-15624391D01*
Y-15648090D01*
X1335994Y-15670979D01*
X1347842Y-15691501D01*
X1364599Y-15708258D01*
X1385121Y-15720107D01*
X1408011Y-15726241D01*
X1417992D01*
X1422995Y-15732761D01*
X1490980D01*
Y-15745461D01*
X1503680D01*
Y-15809764D01*
X1516224Y-15806403D01*
X1531137Y-15797794D01*
X1538355Y-15790575D01*
X1542399Y-15794618D01*
X1562921Y-15806467D01*
X1585811Y-15812601D01*
X1609509D01*
X1632399Y-15806467D01*
X1652921Y-15794618D01*
X1669678Y-15777861D01*
X1681526Y-15757339D01*
X1687660Y-15734448D01*
Y-15710751D01*
X1681526Y-15687862D01*
X1669678Y-15667339D01*
X1652921Y-15650581D01*
X1632399Y-15638734D01*
X1609509Y-15632600D01*
X1585811D01*
X1562921Y-15638734D01*
X1542399Y-15650581D01*
X1525642Y-15667339D01*
X1521202Y-15675029D01*
X1515334Y-15675127D01*
X1505951Y-15662677D01*
X1509860Y-15648090D01*
Y-15624391D01*
X1503726Y-15601501D01*
X1491878Y-15580978D01*
X1475121Y-15564223D01*
X1454599Y-15552374D01*
X1431709Y-15546240D01*
D02*
G37*
G36*
X4470096Y-15769272D02*
X4418493D01*
Y-15820876D01*
X4431036Y-15817516D01*
X4445949Y-15808905D01*
X4458125Y-15796729D01*
X4466736Y-15781816D01*
X4470096Y-15769272D01*
D02*
G37*
G36*
X4393093D02*
X4341489D01*
X4344850Y-15781816D01*
X4353460Y-15796729D01*
X4365636Y-15808905D01*
X4380549Y-15817516D01*
X4393093Y-15820876D01*
Y-15769272D01*
D02*
G37*
G36*
X5269912Y-15782169D02*
X5218308D01*
Y-15833772D01*
X5230852Y-15830412D01*
X5245765Y-15821802D01*
X5257941Y-15809625D01*
X5266551Y-15794711D01*
X5269912Y-15782169D01*
D02*
G37*
G36*
X5192908D02*
X5141304D01*
X5144665Y-15794711D01*
X5153275Y-15809625D01*
X5165452Y-15821802D01*
X5180365Y-15830412D01*
X5192908Y-15833772D01*
Y-15782169D01*
D02*
G37*
G36*
X2156448Y-15888799D02*
X2132751D01*
X2109861Y-15894933D01*
X2089338Y-15906781D01*
X2072582Y-15923538D01*
X2071369Y-15925639D01*
X2056331Y-15929330D01*
X2041339Y-15920674D01*
X2018449Y-15914540D01*
X1994751D01*
X1971861Y-15920674D01*
X1951339Y-15932523D01*
X1934582Y-15949278D01*
X1922734Y-15969801D01*
X1916600Y-15992691D01*
Y-16016389D01*
X1922734Y-16039279D01*
X1934582Y-16059801D01*
X1951339Y-16076558D01*
X1971861Y-16088406D01*
X1994751Y-16094540D01*
X2018449D01*
X2041339Y-16088406D01*
X2061861Y-16076558D01*
X2078618Y-16059801D01*
X2079831Y-16057700D01*
X2094868Y-16054008D01*
X2109861Y-16062665D01*
X2132751Y-16068797D01*
X2156448D01*
X2179338Y-16062665D01*
X2199860Y-16050816D01*
X2216617Y-16034061D01*
X2228466Y-16013538D01*
X2234599Y-15990646D01*
Y-15966949D01*
X2228466Y-15944060D01*
X2216617Y-15923538D01*
X2199860Y-15906781D01*
X2179338Y-15894933D01*
X2156448Y-15888799D01*
D02*
G37*
G36*
X1022575Y-15896011D02*
X970971D01*
Y-15947615D01*
X983515Y-15944254D01*
X998428Y-15935645D01*
X1010604Y-15923468D01*
X1019214Y-15908556D01*
X1022575Y-15896011D01*
D02*
G37*
G36*
X103375Y-15842940D02*
X79505D01*
X57453Y-15852074D01*
X40574Y-15868953D01*
X31440Y-15891005D01*
Y-15914874D01*
X40574Y-15936926D01*
X57453Y-15953806D01*
X79505Y-15962939D01*
X103375D01*
X125427Y-15953806D01*
X142306Y-15936926D01*
X151440Y-15914874D01*
Y-15891005D01*
X142306Y-15868953D01*
X125427Y-15852074D01*
X103375Y-15842940D01*
D02*
G37*
G36*
X2927769Y-15942480D02*
X2904071D01*
X2881181Y-15948615D01*
X2860659Y-15960461D01*
X2843902Y-15977219D01*
X2832054Y-15997742D01*
X2825920Y-16020631D01*
Y-16044328D01*
X2832054Y-16067220D01*
X2843902Y-16087741D01*
X2860659Y-16104498D01*
X2881181Y-16116347D01*
X2904071Y-16122479D01*
X2927769D01*
X2950659Y-16116347D01*
X2971181Y-16104498D01*
X2987938Y-16087741D01*
X2999786Y-16067220D01*
X3005920Y-16044328D01*
Y-16020631D01*
X2999786Y-15997742D01*
X2987938Y-15977219D01*
X2971181Y-15960461D01*
X2950659Y-15948615D01*
X2927769Y-15942480D01*
D02*
G37*
G36*
X5384035Y-16035980D02*
X5360165D01*
X5338113Y-16045114D01*
X5321234Y-16061993D01*
X5312100Y-16084045D01*
Y-16107915D01*
X5321234Y-16129967D01*
X5338113Y-16146846D01*
X5360165Y-16155980D01*
X5384035D01*
X5406087Y-16146846D01*
X5422966Y-16129967D01*
X5432100Y-16107915D01*
Y-16084045D01*
X5422966Y-16061993D01*
X5406087Y-16045114D01*
X5384035Y-16035980D01*
D02*
G37*
G36*
X4548290Y-16148061D02*
X4524421D01*
X4502368Y-16157195D01*
X4485490Y-16174072D01*
X4479314Y-16188983D01*
X4464622Y-16196645D01*
X4456935Y-16193460D01*
X4433065D01*
X4411013Y-16202594D01*
X4394134Y-16219473D01*
X4385000Y-16241525D01*
Y-16265395D01*
X4394134Y-16287447D01*
X4411013Y-16304326D01*
X4433065Y-16313460D01*
X4456935D01*
X4478987Y-16304326D01*
X4495866Y-16287447D01*
X4502042Y-16272537D01*
X4516733Y-16264876D01*
X4524421Y-16268060D01*
X4548290D01*
X4570343Y-16258926D01*
X4587221Y-16242047D01*
X4596355Y-16219995D01*
Y-16196124D01*
X4587221Y-16174072D01*
X4570343Y-16157195D01*
X4548290Y-16148061D01*
D02*
G37*
G36*
X380149Y-15937399D02*
X356451D01*
X333561Y-15943533D01*
X313039Y-15955382D01*
X296282Y-15972139D01*
X284434Y-15992661D01*
X278300Y-16015552D01*
Y-16039249D01*
X284434Y-16062138D01*
X296282Y-16082661D01*
X313039Y-16099419D01*
X333561Y-16111266D01*
X353197Y-16116528D01*
Y-16119292D01*
X359330Y-16142181D01*
X371179Y-16162704D01*
X387935Y-16179462D01*
X408458Y-16191310D01*
X431348Y-16197443D01*
X455045D01*
X477935Y-16191310D01*
X498457Y-16179462D01*
X515214Y-16162704D01*
X527063Y-16142181D01*
X533196Y-16119292D01*
Y-16095595D01*
X527063Y-16072705D01*
X515214Y-16052184D01*
X498457Y-16035426D01*
X477935Y-16023576D01*
X458300Y-16018317D01*
Y-16015552D01*
X452166Y-15992661D01*
X440318Y-15972139D01*
X423561Y-15955382D01*
X403039Y-15943533D01*
X380149Y-15937399D01*
D02*
G37*
G36*
X4944615Y-16063989D02*
X4920745D01*
X4898693Y-16073125D01*
X4881814Y-16090002D01*
X4872680Y-16112054D01*
Y-16135924D01*
X4881814Y-16157977D01*
X4885534Y-16161696D01*
X4885373Y-16178433D01*
X4879974Y-16183832D01*
X4871364Y-16198746D01*
X4868003Y-16211288D01*
X4996611D01*
X4993250Y-16198746D01*
X4984640Y-16183832D01*
X4979732Y-16178925D01*
X4979607Y-16161916D01*
X4983546Y-16157977D01*
X4992680Y-16135924D01*
Y-16112054D01*
X4983546Y-16090002D01*
X4966667Y-16073125D01*
X4944615Y-16063989D01*
D02*
G37*
G36*
X2749969Y-16031380D02*
X2726271D01*
X2703381Y-16037514D01*
X2682859Y-16049362D01*
X2666102Y-16066119D01*
X2654254Y-16086641D01*
X2648120Y-16109531D01*
Y-16133229D01*
X2654254Y-16156119D01*
X2666102Y-16176640D01*
X2682859Y-16193398D01*
X2703381Y-16205246D01*
X2726271Y-16211380D01*
X2749969D01*
X2772859Y-16205246D01*
X2793381Y-16193398D01*
X2810138Y-16176640D01*
X2821986Y-16156119D01*
X2828120Y-16133229D01*
Y-16109531D01*
X2821986Y-16086641D01*
X2810138Y-16066119D01*
X2793381Y-16049362D01*
X2772859Y-16037514D01*
X2749969Y-16031380D01*
D02*
G37*
G36*
X1231900Y-16161217D02*
Y-16212820D01*
X1283504D01*
X1280143Y-16200276D01*
X1271533Y-16185362D01*
X1259357Y-16173187D01*
X1244444Y-16164577D01*
X1231900Y-16161217D01*
D02*
G37*
G36*
X1388615Y-16119800D02*
X1364745D01*
X1342693Y-16128934D01*
X1325814Y-16145813D01*
X1316680Y-16167865D01*
Y-16191734D01*
X1325814Y-16213786D01*
X1342693Y-16230666D01*
X1364745Y-16239799D01*
X1388615D01*
X1410667Y-16230666D01*
X1427546Y-16213786D01*
X1436680Y-16191734D01*
Y-16167865D01*
X1427546Y-16145813D01*
X1410667Y-16128934D01*
X1388615Y-16119800D01*
D02*
G37*
G36*
X1547900Y-16124146D02*
X1524030D01*
X1501978Y-16133279D01*
X1485100Y-16150159D01*
X1475965Y-16172211D01*
Y-16196080D01*
X1485100Y-16218132D01*
X1501978Y-16235011D01*
X1524030Y-16244145D01*
X1547900D01*
X1569952Y-16235011D01*
X1586831Y-16218132D01*
X1595965Y-16196080D01*
Y-16172211D01*
X1586831Y-16150159D01*
X1569952Y-16133279D01*
X1547900Y-16124146D01*
D02*
G37*
G36*
X817029Y-16196480D02*
X793331D01*
X770441Y-16202614D01*
X749919Y-16214462D01*
X733162Y-16231219D01*
X721395Y-16251601D01*
X705269Y-16247279D01*
X681571D01*
X658681Y-16253413D01*
X638159Y-16265262D01*
X621402Y-16282019D01*
X609554Y-16302541D01*
X603420Y-16325430D01*
Y-16349129D01*
X609554Y-16372018D01*
X621402Y-16392542D01*
X638159Y-16409299D01*
X658681Y-16421146D01*
X681571Y-16427280D01*
X705269D01*
X728159Y-16421146D01*
X748681Y-16409299D01*
X765438Y-16392542D01*
X777205Y-16372159D01*
X791380Y-16375957D01*
Y-16387228D01*
X797514Y-16410120D01*
X809362Y-16430641D01*
X826119Y-16447398D01*
X846641Y-16459245D01*
X869531Y-16465379D01*
X893229D01*
X916119Y-16459245D01*
X936641Y-16447398D01*
X953398Y-16430641D01*
X965246Y-16410120D01*
X971380Y-16387228D01*
Y-16363531D01*
X965246Y-16340640D01*
X953398Y-16320119D01*
X936641Y-16303362D01*
X916119Y-16291515D01*
X895180Y-16285902D01*
Y-16274631D01*
X889046Y-16251741D01*
X877198Y-16231219D01*
X860441Y-16214462D01*
X839919Y-16202614D01*
X817029Y-16196480D01*
D02*
G37*
G36*
X5170589Y-16064400D02*
X5146891D01*
X5124001Y-16070534D01*
X5103479Y-16082382D01*
X5086722Y-16099139D01*
X5074874Y-16119661D01*
X5068740Y-16142551D01*
Y-16166249D01*
X5072064Y-16178651D01*
X5051051Y-16187354D01*
X5034173Y-16204233D01*
X5025039Y-16226285D01*
Y-16250156D01*
X5034173Y-16272208D01*
X5051051Y-16289085D01*
X5073104Y-16298219D01*
X5096973D01*
X5119026Y-16289085D01*
X5135904Y-16272208D01*
X5145038Y-16250156D01*
Y-16245822D01*
X5146892Y-16244400D01*
X5170589D01*
X5185293Y-16240460D01*
X5194234Y-16262047D01*
X5211113Y-16278926D01*
X5233165Y-16288060D01*
X5257035D01*
X5279087Y-16278926D01*
X5295966Y-16262047D01*
X5305100Y-16239995D01*
Y-16216125D01*
X5295966Y-16194073D01*
X5279087Y-16177194D01*
X5257035Y-16168060D01*
X5250130D01*
X5248740Y-16166248D01*
Y-16142551D01*
X5242606Y-16119661D01*
X5230758Y-16099139D01*
X5214001Y-16082382D01*
X5193479Y-16070534D01*
X5170589Y-16064400D01*
D02*
G37*
G36*
X4996611Y-16236690D02*
X4945007D01*
Y-16288293D01*
X4957550Y-16284932D01*
X4972463Y-16276321D01*
X4984640Y-16264146D01*
X4993250Y-16249232D01*
X4996611Y-16236690D01*
D02*
G37*
G36*
X4919607D02*
X4868003D01*
X4871364Y-16249232D01*
X4879974Y-16264146D01*
X4892150Y-16276321D01*
X4907063Y-16284932D01*
X4919607Y-16288293D01*
Y-16236690D01*
D02*
G37*
G36*
X1283504Y-16238220D02*
X1231900D01*
Y-16289824D01*
X1244444Y-16286462D01*
X1259357Y-16277853D01*
X1271533Y-16265677D01*
X1280143Y-16250764D01*
X1283504Y-16238220D01*
D02*
G37*
G36*
X908469Y-15972960D02*
X884771D01*
X861881Y-15979094D01*
X841359Y-15990942D01*
X824602Y-16007700D01*
X812754Y-16028221D01*
X806620Y-16051111D01*
Y-16074809D01*
X812754Y-16097699D01*
X824602Y-16118221D01*
X841359Y-16134978D01*
X861881Y-16146826D01*
X884771Y-16152960D01*
X908469D01*
X931359Y-16146826D01*
X934515Y-16145004D01*
X943982Y-16161401D01*
X960739Y-16178159D01*
X974131Y-16185890D01*
X972774Y-16188242D01*
X966640Y-16211131D01*
Y-16234830D01*
X972774Y-16257719D01*
X984622Y-16278241D01*
X1001379Y-16294998D01*
X1021901Y-16306847D01*
X1044791Y-16312981D01*
X1068489D01*
X1091379Y-16306847D01*
X1111901Y-16294998D01*
X1128658Y-16278241D01*
X1140506Y-16257719D01*
X1143739Y-16245653D01*
X1156888D01*
X1158257Y-16250764D01*
X1166867Y-16265677D01*
X1179043Y-16277853D01*
X1193956Y-16286462D01*
X1206500Y-16289824D01*
Y-16225520D01*
Y-16161217D01*
X1193956Y-16164577D01*
X1179043Y-16173187D01*
X1166867Y-16185362D01*
X1158257Y-16200276D01*
X1157568Y-16202847D01*
X1144420D01*
X1140506Y-16188242D01*
X1128658Y-16167719D01*
X1111901Y-16150961D01*
X1098509Y-16143230D01*
X1099866Y-16140878D01*
X1106000Y-16117989D01*
Y-16094292D01*
X1099866Y-16071400D01*
X1088018Y-16050879D01*
X1071261Y-16034122D01*
X1050739Y-16022273D01*
X1027849Y-16016141D01*
X1004151D01*
X981261Y-16022273D01*
X978105Y-16024097D01*
X968638Y-16007700D01*
X951881Y-15990942D01*
X931359Y-15979094D01*
X908469Y-15972960D01*
D02*
G37*
G36*
X1860969Y-16196480D02*
X1837271D01*
X1814381Y-16202614D01*
X1793859Y-16214462D01*
X1777102Y-16231219D01*
X1765254Y-16251741D01*
X1759120Y-16274631D01*
Y-16298329D01*
X1765254Y-16321219D01*
X1777102Y-16341740D01*
X1793859Y-16358498D01*
X1814381Y-16370346D01*
X1837271Y-16376480D01*
X1860969D01*
X1883859Y-16370346D01*
X1904381Y-16358498D01*
X1921138Y-16341740D01*
X1932986Y-16321219D01*
X1939120Y-16298329D01*
Y-16274631D01*
X1932986Y-16251741D01*
X1921138Y-16231219D01*
X1904381Y-16214462D01*
X1883859Y-16202614D01*
X1860969Y-16196480D01*
D02*
G37*
G36*
X103375Y-16002940D02*
X79505D01*
X57453Y-16012076D01*
X40574Y-16028954D01*
X31440Y-16051007D01*
Y-16074876D01*
X40574Y-16096928D01*
X57453Y-16113808D01*
X79505Y-16122942D01*
X103375D01*
X120311Y-16115926D01*
X129154Y-16126009D01*
X126954Y-16129820D01*
X120820Y-16152711D01*
Y-16176408D01*
X126954Y-16199300D01*
X138802Y-16219821D01*
X155559Y-16236578D01*
X176081Y-16248425D01*
X198971Y-16254559D01*
X214800D01*
Y-16255148D01*
X220934Y-16278040D01*
X232782Y-16298561D01*
X249539Y-16315318D01*
X266804Y-16325285D01*
X262001Y-16343211D01*
Y-16366908D01*
X268135Y-16389799D01*
X279983Y-16410321D01*
X296740Y-16427078D01*
X317263Y-16438927D01*
X340152Y-16445061D01*
X363850D01*
X386740Y-16438927D01*
X407262Y-16427078D01*
X424019Y-16410321D01*
X435868Y-16389799D01*
X442001Y-16366908D01*
Y-16343211D01*
X435868Y-16320322D01*
X424019Y-16299799D01*
X407262Y-16283041D01*
X389997Y-16273074D01*
X394800Y-16255148D01*
Y-16231451D01*
X388666Y-16208562D01*
X376818Y-16188039D01*
X360061Y-16171281D01*
X339539Y-16159435D01*
X316649Y-16153300D01*
X300820D01*
Y-16152711D01*
X294686Y-16129820D01*
X282838Y-16109299D01*
X266081Y-16092542D01*
X245559Y-16080695D01*
X222669Y-16074561D01*
X198971D01*
X176081Y-16080695D01*
X158595Y-16090790D01*
X148379Y-16083286D01*
X148104Y-16082930D01*
X151440Y-16074876D01*
Y-16051007D01*
X142306Y-16028954D01*
X125427Y-16012076D01*
X103375Y-16002940D01*
D02*
G37*
G36*
X3421380Y-16460936D02*
Y-16512540D01*
X3472984D01*
X3469623Y-16499995D01*
X3461013Y-16485083D01*
X3448837Y-16472906D01*
X3433924Y-16464297D01*
X3421380Y-16460936D01*
D02*
G37*
G36*
X3472984Y-16537939D02*
X3421380D01*
Y-16589545D01*
X3433924Y-16586183D01*
X3448837Y-16577573D01*
X3461013Y-16565398D01*
X3469623Y-16550484D01*
X3472984Y-16537939D01*
D02*
G37*
G36*
X3329175Y-16422060D02*
X3305305D01*
X3283253Y-16431194D01*
X3266374Y-16448073D01*
X3257240Y-16470125D01*
Y-16493996D01*
X3266374Y-16516048D01*
X3283253Y-16532925D01*
X3305305Y-16542059D01*
X3329175D01*
X3334953Y-16539667D01*
X3346344Y-16545284D01*
X3347737Y-16550484D01*
X3356347Y-16565398D01*
X3368523Y-16577573D01*
X3383436Y-16586183D01*
X3395980Y-16589545D01*
Y-16525240D01*
Y-16460936D01*
X3383437Y-16464297D01*
X3373417Y-16460896D01*
X3368106Y-16448073D01*
X3351227Y-16431194D01*
X3329175Y-16422060D01*
D02*
G37*
G36*
X1352969Y-16285381D02*
X1329271D01*
X1306381Y-16291515D01*
X1285859Y-16303362D01*
X1269102Y-16320119D01*
X1257254Y-16340640D01*
X1251120Y-16363531D01*
Y-16387228D01*
X1257254Y-16410120D01*
X1269102Y-16430641D01*
X1285859Y-16447398D01*
X1306381Y-16459245D01*
X1329271Y-16465379D01*
X1352969D01*
X1375529Y-16459335D01*
X1376634Y-16463458D01*
X1388482Y-16483981D01*
X1405239Y-16500739D01*
X1425761Y-16512585D01*
X1448651Y-16518719D01*
X1472349D01*
X1477243Y-16517409D01*
X1479720Y-16519308D01*
X1485854Y-16542200D01*
X1497702Y-16562721D01*
X1514459Y-16579478D01*
X1534981Y-16591325D01*
X1557871Y-16597459D01*
X1581569D01*
X1604459Y-16591325D01*
X1624981Y-16579478D01*
X1641738Y-16562721D01*
X1653586Y-16542200D01*
X1659720Y-16519308D01*
Y-16495612D01*
X1653586Y-16472720D01*
X1641738Y-16452199D01*
X1624981Y-16435442D01*
X1604459Y-16423595D01*
X1581569Y-16417461D01*
X1557871D01*
X1552977Y-16418771D01*
X1550500Y-16416872D01*
X1544366Y-16393980D01*
X1532518Y-16373459D01*
X1515761Y-16356702D01*
X1495239Y-16344855D01*
X1472349Y-16338721D01*
X1448651D01*
X1426091Y-16344765D01*
X1424986Y-16340640D01*
X1413138Y-16320119D01*
X1396381Y-16303362D01*
X1375859Y-16291515D01*
X1352969Y-16285381D01*
D02*
G37*
G36*
X3715169Y-16453020D02*
X3691471D01*
X3668581Y-16459154D01*
X3648059Y-16471002D01*
X3631302Y-16487759D01*
X3619454Y-16508281D01*
X3613320Y-16531171D01*
Y-16554869D01*
X3619454Y-16577759D01*
X3631302Y-16598280D01*
X3648059Y-16615038D01*
X3668581Y-16626886D01*
X3691471Y-16633020D01*
X3715169D01*
X3738059Y-16626886D01*
X3739829Y-16625864D01*
X3751856Y-16629945D01*
X3754176Y-16635547D01*
X3771054Y-16652425D01*
X3793106Y-16661560D01*
X3803110D01*
X3805880Y-16665706D01*
Y-16689575D01*
X3815014Y-16711627D01*
X3831893Y-16728506D01*
X3853945Y-16737640D01*
X3877815D01*
X3899867Y-16728506D01*
X3914232Y-16714140D01*
X3928693Y-16713445D01*
X3931054Y-16715807D01*
X3953106Y-16724940D01*
X3976976D01*
X3999028Y-16715807D01*
X4015906Y-16698927D01*
X4024683Y-16677739D01*
X4046140Y-16686626D01*
X4070009D01*
X4092062Y-16677492D01*
X4108940Y-16660614D01*
X4118075Y-16638560D01*
Y-16614693D01*
X4108940Y-16592639D01*
X4092062Y-16575761D01*
X4070009Y-16566628D01*
X4046140D01*
X4024087Y-16575761D01*
X4007209Y-16592639D01*
X3998433Y-16613828D01*
X3976976Y-16604939D01*
X3953106D01*
X3931054Y-16614075D01*
X3916689Y-16628439D01*
X3902228Y-16629135D01*
X3899867Y-16626775D01*
X3877815Y-16617641D01*
X3867811D01*
X3865041Y-16613493D01*
Y-16589626D01*
X3855907Y-16567574D01*
X3839028Y-16550694D01*
X3816976Y-16541560D01*
X3793320D01*
Y-16531171D01*
X3787186Y-16508281D01*
X3775338Y-16487759D01*
X3758581Y-16471002D01*
X3738059Y-16459154D01*
X3715169Y-16453020D01*
D02*
G37*
G36*
X585889Y-16420000D02*
X562191D01*
X539301Y-16426134D01*
X518779Y-16437982D01*
X502022Y-16454739D01*
X490174Y-16475261D01*
X484040Y-16498151D01*
Y-16517409D01*
X483421Y-16517574D01*
X462899Y-16529422D01*
X446142Y-16546179D01*
X434294Y-16566701D01*
X428160Y-16589590D01*
Y-16613289D01*
X434294Y-16636179D01*
X446142Y-16656702D01*
X462899Y-16673457D01*
X483421Y-16685306D01*
X506311Y-16691440D01*
X530009D01*
X552899Y-16685306D01*
X564526Y-16678593D01*
X566374Y-16679359D01*
X578222Y-16699881D01*
X594979Y-16716638D01*
X615501Y-16728487D01*
X638391Y-16734621D01*
X662089D01*
X684979Y-16728487D01*
X686761Y-16727458D01*
X703590Y-16744287D01*
X725643Y-16753421D01*
X749512D01*
X771565Y-16744287D01*
X788443Y-16727409D01*
X790856Y-16721584D01*
X806868Y-16716113D01*
X820578Y-16721793D01*
X844448D01*
X866500Y-16712659D01*
X882195Y-16696965D01*
X898524Y-16713293D01*
X920577Y-16722427D01*
X944446D01*
X966498Y-16713293D01*
X983377Y-16696416D01*
X992511Y-16674364D01*
Y-16650493D01*
X983377Y-16628441D01*
X966498Y-16611563D01*
X944446Y-16602428D01*
X920577D01*
X898524Y-16611563D01*
X882830Y-16627257D01*
X866500Y-16610928D01*
X844448Y-16601794D01*
X820578D01*
X798526Y-16610928D01*
X781648Y-16627806D01*
X779234Y-16633632D01*
X763223Y-16639101D01*
X749512Y-16633421D01*
X740240D01*
Y-16632771D01*
X734106Y-16609882D01*
X722258Y-16589359D01*
X705501Y-16572601D01*
X684979Y-16560754D01*
X666226Y-16555730D01*
X660262Y-16547850D01*
X658662Y-16541920D01*
X664040Y-16521849D01*
Y-16498151D01*
X657906Y-16475261D01*
X646058Y-16454739D01*
X629301Y-16437982D01*
X608779Y-16426134D01*
X585889Y-16420000D01*
D02*
G37*
G36*
X4296975Y-16635420D02*
X4273105D01*
X4251053Y-16644554D01*
X4234174Y-16661433D01*
X4225040Y-16683485D01*
Y-16707355D01*
X4234174Y-16729407D01*
X4251053Y-16746286D01*
X4273105Y-16755420D01*
X4296975D01*
X4319027Y-16746286D01*
X4335905Y-16729407D01*
X4345040Y-16707355D01*
Y-16683485D01*
X4335905Y-16661433D01*
X4319027Y-16644554D01*
X4296975Y-16635420D01*
D02*
G37*
G36*
X2455415Y-16447459D02*
X2431545D01*
X2409493Y-16456593D01*
X2392614Y-16473473D01*
X2383480Y-16495525D01*
Y-16519395D01*
X2392614Y-16541447D01*
X2406830Y-16555663D01*
X2409415Y-16565475D01*
X2409343Y-16572009D01*
X2393460Y-16599522D01*
X2384600Y-16632585D01*
Y-16666815D01*
X2393460Y-16699878D01*
X2410574Y-16729523D01*
X2434778Y-16753726D01*
X2464422Y-16770840D01*
X2497485Y-16779700D01*
X2531715D01*
X2564778Y-16770840D01*
X2594422Y-16753726D01*
X2618626Y-16729523D01*
X2635740Y-16699878D01*
X2644600Y-16666815D01*
Y-16632585D01*
X2635740Y-16599522D01*
X2618626Y-16569878D01*
X2594422Y-16545674D01*
X2564778Y-16528560D01*
X2531715Y-16519701D01*
X2503684D01*
X2503480Y-16519394D01*
Y-16495525D01*
X2494346Y-16473473D01*
X2477467Y-16456593D01*
X2455415Y-16447459D01*
D02*
G37*
G36*
X4506163Y-16556702D02*
X4482293D01*
X4460241Y-16565836D01*
X4443362Y-16582715D01*
X4434228Y-16604767D01*
Y-16628638D01*
X4443362Y-16650690D01*
X4460241Y-16667567D01*
X4471016Y-16672031D01*
X4474174Y-16686833D01*
X4465040Y-16708885D01*
Y-16732755D01*
X4474174Y-16754807D01*
X4491052Y-16771686D01*
X4513105Y-16780820D01*
X4536974D01*
X4559027Y-16771686D01*
X4575905Y-16754807D01*
X4585039Y-16732755D01*
Y-16708885D01*
X4575905Y-16686833D01*
X4559027Y-16669954D01*
X4548252Y-16665491D01*
X4545094Y-16650690D01*
X4554228Y-16628638D01*
Y-16604767D01*
X4545094Y-16582715D01*
X4528215Y-16565836D01*
X4506163Y-16556702D01*
D02*
G37*
G36*
X2024400Y-16601212D02*
X2000703D01*
X1977813Y-16607346D01*
X1957290Y-16619194D01*
X1940534Y-16635950D01*
X1928685Y-16656473D01*
X1922552Y-16679362D01*
Y-16703059D01*
X1928685Y-16725951D01*
X1940534Y-16746472D01*
X1957290Y-16763229D01*
X1977813Y-16775078D01*
X2000703Y-16781210D01*
X2024400D01*
X2047290Y-16775078D01*
X2067812Y-16763229D01*
X2084569Y-16746472D01*
X2096418Y-16725951D01*
X2102551Y-16703059D01*
Y-16679362D01*
X2096418Y-16656473D01*
X2084569Y-16635950D01*
X2067812Y-16619194D01*
X2047290Y-16607346D01*
X2024400Y-16601212D01*
D02*
G37*
G36*
X1437395Y-16622594D02*
X1413698D01*
X1390808Y-16628728D01*
X1370286Y-16640576D01*
X1353529Y-16657332D01*
X1341680Y-16677855D01*
X1335547Y-16700745D01*
Y-16724442D01*
X1341680Y-16747331D01*
X1353529Y-16767854D01*
X1370286Y-16784612D01*
X1390808Y-16796460D01*
X1413698Y-16802592D01*
X1437395D01*
X1460285Y-16796460D01*
X1480808Y-16784612D01*
X1497564Y-16767854D01*
X1509413Y-16747331D01*
X1515546Y-16724442D01*
Y-16700745D01*
X1509413Y-16677855D01*
X1497564Y-16657332D01*
X1480808Y-16640576D01*
X1460285Y-16628728D01*
X1437395Y-16622594D01*
D02*
G37*
G36*
X309880Y-16816536D02*
Y-16868140D01*
X361484D01*
X358123Y-16855595D01*
X349513Y-16840683D01*
X337337Y-16828506D01*
X322424Y-16819897D01*
X309880Y-16816536D01*
D02*
G37*
G36*
X284480D02*
X271936Y-16819897D01*
X257023Y-16828506D01*
X244847Y-16840683D01*
X236237Y-16855595D01*
X232876Y-16868140D01*
X284480D01*
Y-16816536D01*
D02*
G37*
G36*
X2212032Y-16835847D02*
X2177802D01*
X2144739Y-16844708D01*
X2115095Y-16861823D01*
X2096457Y-16880461D01*
X2081604Y-16877788D01*
X2077373Y-16867574D01*
X2060495Y-16850696D01*
X2038442Y-16841560D01*
X2014573D01*
X1992520Y-16850696D01*
X1975642Y-16867574D01*
X1966508Y-16889627D01*
Y-16913496D01*
X1975642Y-16935548D01*
X1992520Y-16952428D01*
X2014573Y-16961562D01*
X2038442D01*
X2052217Y-16955855D01*
X2064917Y-16964342D01*
Y-16982964D01*
X2073777Y-17016026D01*
X2090891Y-17045670D01*
X2115095Y-17069875D01*
X2144739Y-17086989D01*
X2177802Y-17095848D01*
X2212032D01*
X2245095Y-17086989D01*
X2274739Y-17069875D01*
X2298943Y-17045670D01*
X2316058Y-17016026D01*
X2324917Y-16982964D01*
Y-16948734D01*
X2316058Y-16915669D01*
X2298943Y-16886026D01*
X2274739Y-16861823D01*
X2245095Y-16844708D01*
X2212032Y-16835847D01*
D02*
G37*
G36*
X1080660Y-16852594D02*
X1056791D01*
X1034738Y-16861728D01*
X1017860Y-16878606D01*
X1014642Y-16886375D01*
X1002186Y-16888853D01*
X999187Y-16885854D01*
X977135Y-16876720D01*
X953265D01*
X931213Y-16885854D01*
X914334Y-16902733D01*
X905200Y-16924785D01*
Y-16948656D01*
X914334Y-16970708D01*
X931213Y-16987585D01*
X953265Y-16996719D01*
X977135D01*
X999187Y-16987585D01*
X1016066Y-16970708D01*
X1019283Y-16962938D01*
X1031740Y-16960461D01*
X1034738Y-16963458D01*
X1056791Y-16972594D01*
X1080660D01*
X1102713Y-16963458D01*
X1119591Y-16946581D01*
X1128725Y-16924529D01*
Y-16900659D01*
X1119591Y-16878606D01*
X1102713Y-16861728D01*
X1080660Y-16852594D01*
D02*
G37*
G36*
X5336973Y-16781020D02*
X5313103D01*
X5291051Y-16790154D01*
X5274173Y-16807031D01*
X5265038Y-16829083D01*
Y-16852953D01*
X5274173Y-16875006D01*
X5291051Y-16891884D01*
X5300776Y-16895912D01*
X5302193Y-16898698D01*
X5303149Y-16910641D01*
X5294367Y-16919423D01*
X5285757Y-16934335D01*
X5282396Y-16946880D01*
X5411004D01*
X5407643Y-16934335D01*
X5399033Y-16919423D01*
X5386857Y-16907246D01*
X5371944Y-16898637D01*
X5370595Y-16898276D01*
X5366799Y-16884111D01*
X5375904Y-16875006D01*
X5385038Y-16852953D01*
Y-16829083D01*
X5375904Y-16807031D01*
X5359025Y-16790154D01*
X5336973Y-16781020D01*
D02*
G37*
G36*
X2455415Y-16853502D02*
X2431545D01*
X2409493Y-16862637D01*
X2392614Y-16879515D01*
X2383480Y-16901567D01*
Y-16925436D01*
X2392614Y-16947488D01*
X2409493Y-16964368D01*
X2431545Y-16973502D01*
X2455415D01*
X2477467Y-16964368D01*
X2494346Y-16947488D01*
X2503480Y-16925436D01*
Y-16901567D01*
X2494346Y-16879515D01*
X2477467Y-16862637D01*
X2455415Y-16853502D01*
D02*
G37*
G36*
X4251195Y-16858940D02*
X4227325D01*
X4205273Y-16868074D01*
X4188394Y-16884953D01*
X4179260Y-16907005D01*
Y-16930875D01*
X4188394Y-16952927D01*
X4205273Y-16969806D01*
X4227325Y-16978940D01*
X4251195D01*
X4273247Y-16969806D01*
X4290126Y-16952927D01*
X4299260Y-16930875D01*
Y-16907005D01*
X4290126Y-16884953D01*
X4273247Y-16868074D01*
X4251195Y-16858940D01*
D02*
G37*
G36*
X5411004Y-16972279D02*
X5359400D01*
Y-17023885D01*
X5371944Y-17020523D01*
X5386857Y-17011913D01*
X5399033Y-16999738D01*
X5407643Y-16984824D01*
X5411004Y-16972279D01*
D02*
G37*
G36*
X5334000D02*
X5282396D01*
X5285757Y-16984824D01*
X5294367Y-16999738D01*
X5306543Y-17011913D01*
X5321456Y-17020523D01*
X5334000Y-17023885D01*
Y-16972279D01*
D02*
G37*
G36*
X4862211Y-16847520D02*
X4825349D01*
X4789742Y-16857060D01*
X4757818Y-16875491D01*
X4731752Y-16901558D01*
X4713321Y-16933482D01*
X4703780Y-16969089D01*
Y-17005951D01*
X4713321Y-17041557D01*
X4731752Y-17073482D01*
X4757818Y-17099548D01*
X4789742Y-17117979D01*
X4825349Y-17127521D01*
X4862211D01*
X4897818Y-17117979D01*
X4929742Y-17099548D01*
X4955808Y-17073482D01*
X4974239Y-17041557D01*
X4983780Y-17005951D01*
Y-16969089D01*
X4974239Y-16933482D01*
X4955808Y-16901558D01*
X4929742Y-16875491D01*
X4897818Y-16857060D01*
X4862211Y-16847520D01*
D02*
G37*
G36*
X2348649Y-17103259D02*
X2324951D01*
X2302061Y-17109393D01*
X2281539Y-17121242D01*
X2264782Y-17137999D01*
X2259715Y-17146776D01*
X2252159Y-17142413D01*
X2229269Y-17136279D01*
X2205571D01*
X2182681Y-17142413D01*
X2162159Y-17154262D01*
X2159372Y-17157050D01*
X2145403Y-17156525D01*
X2130441Y-17141562D01*
X2109919Y-17129713D01*
X2087029Y-17123579D01*
X2063331D01*
X2040441Y-17129713D01*
X2019919Y-17141562D01*
X2003162Y-17158319D01*
X1991314Y-17178841D01*
X1985180Y-17201730D01*
Y-17225429D01*
X1991314Y-17248318D01*
X2003162Y-17268842D01*
X2019919Y-17285599D01*
X2040441Y-17297446D01*
X2063331Y-17303580D01*
X2087029D01*
X2109919Y-17297446D01*
X2130441Y-17285599D01*
X2133228Y-17282809D01*
X2147197Y-17283336D01*
X2162159Y-17298299D01*
X2182681Y-17310146D01*
X2205571Y-17316280D01*
X2229269D01*
X2252159Y-17310146D01*
X2272681Y-17298299D01*
X2289438Y-17281541D01*
X2294505Y-17272765D01*
X2302061Y-17277126D01*
X2324951Y-17283260D01*
X2348649D01*
X2371539Y-17277126D01*
X2392061Y-17265279D01*
X2408818Y-17248521D01*
X2420666Y-17227998D01*
X2426800Y-17205109D01*
Y-17181412D01*
X2420666Y-17158521D01*
X2408818Y-17137999D01*
X2392061Y-17121242D01*
X2371539Y-17109393D01*
X2348649Y-17103259D01*
D02*
G37*
G36*
X1924690Y-17105321D02*
X1900821D01*
X1878768Y-17114455D01*
X1861890Y-17131332D01*
X1852756Y-17153384D01*
Y-17177255D01*
X1861890Y-17199307D01*
X1869246Y-17206664D01*
X1866769Y-17219119D01*
X1855773Y-17223674D01*
X1838894Y-17240553D01*
X1837129Y-17244814D01*
X1821442Y-17249500D01*
X1805841Y-17243037D01*
X1781972D01*
X1759919Y-17252171D01*
X1743041Y-17269051D01*
X1733906Y-17291103D01*
Y-17314972D01*
X1739647Y-17328831D01*
X1734240Y-17344818D01*
X1726233Y-17348134D01*
X1709354Y-17365013D01*
X1700220Y-17387065D01*
Y-17400928D01*
X1698716Y-17411156D01*
X1688487Y-17412660D01*
X1674625D01*
X1652573Y-17421794D01*
X1635694Y-17438673D01*
X1626560Y-17460725D01*
Y-17484595D01*
X1635694Y-17506647D01*
X1652573Y-17523526D01*
X1674625Y-17532660D01*
X1698495D01*
X1720547Y-17523526D01*
X1737426Y-17506647D01*
X1746560Y-17484595D01*
Y-17470734D01*
X1748064Y-17460504D01*
X1758293Y-17459000D01*
X1772155D01*
X1794207Y-17449866D01*
X1811086Y-17432986D01*
X1820220Y-17410934D01*
Y-17387065D01*
X1814479Y-17373206D01*
X1819886Y-17357220D01*
X1827893Y-17353903D01*
X1844772Y-17337025D01*
X1846537Y-17332764D01*
X1862224Y-17328078D01*
X1877825Y-17334540D01*
X1901695D01*
X1923747Y-17325406D01*
X1940626Y-17308527D01*
X1949760Y-17286475D01*
Y-17262605D01*
X1940626Y-17240553D01*
X1933269Y-17233195D01*
X1935747Y-17220740D01*
X1946743Y-17216187D01*
X1963621Y-17199307D01*
X1972755Y-17177255D01*
Y-17153384D01*
X1963621Y-17131332D01*
X1946743Y-17114455D01*
X1924690Y-17105321D01*
D02*
G37*
G36*
X4858973Y-17380119D02*
X4856481D01*
Y-17482822D01*
X4959180D01*
Y-17480327D01*
X4951315Y-17450978D01*
X4936123Y-17424663D01*
X4914637Y-17403178D01*
X4888323Y-17387985D01*
X4858973Y-17380119D01*
D02*
G37*
G36*
X4831081D02*
X4828587D01*
X4799237Y-17387985D01*
X4772923Y-17403178D01*
X4751437Y-17424663D01*
X4736245Y-17450978D01*
X4728380Y-17480327D01*
Y-17482822D01*
X4831081D01*
Y-17380119D01*
D02*
G37*
G36*
Y-17508221D02*
X4728380D01*
Y-17510713D01*
X4736245Y-17540063D01*
X4751437Y-17566377D01*
X4772923Y-17587863D01*
X4799237Y-17603056D01*
X4828587Y-17610921D01*
X4831081D01*
Y-17508221D01*
D02*
G37*
G36*
X1482509Y-17580780D02*
X1458811D01*
X1435921Y-17586914D01*
X1415399Y-17598763D01*
X1398642Y-17615520D01*
X1386794Y-17636041D01*
X1380660Y-17658931D01*
Y-17682629D01*
X1386794Y-17705519D01*
X1398642Y-17726041D01*
X1415399Y-17742798D01*
X1432386Y-17752605D01*
X1424894Y-17765581D01*
X1418760Y-17788470D01*
Y-17812169D01*
X1424894Y-17835059D01*
X1436742Y-17855582D01*
X1453499Y-17872337D01*
X1474021Y-17884186D01*
X1496911Y-17890320D01*
X1520609D01*
X1543499Y-17884186D01*
X1564021Y-17872337D01*
X1580778Y-17855582D01*
X1592626Y-17835059D01*
X1598760Y-17812169D01*
Y-17788470D01*
X1592626Y-17765581D01*
X1580778Y-17745059D01*
X1564021Y-17728302D01*
X1547034Y-17718495D01*
X1554526Y-17705519D01*
X1560660Y-17682629D01*
Y-17658931D01*
X1554526Y-17636041D01*
X1542678Y-17615520D01*
X1525921Y-17598763D01*
X1505399Y-17586914D01*
X1482509Y-17580780D01*
D02*
G37*
%LPD*%
D72*
X8937190Y-10006530D02*
D03*
X9296400Y-10365740D02*
D03*
X9484360Y-11074400D02*
D03*
X9843570Y-11433610D02*
D03*
X3925035Y-14208760D02*
D03*
X4648935D02*
D03*
X9438639Y-16880840D02*
D03*
Y-17388840D02*
D03*
D73*
X9773919Y-12992101D02*
D03*
Y-14490700D02*
D03*
D74*
X-368300Y-18176241D02*
D03*
X9931400Y-9972040D02*
D03*
X9880600Y-18346420D02*
D03*
D75*
X6459220Y-14450060D02*
D03*
Y-13942059D02*
D03*
X4843780Y-17495520D02*
D03*
Y-16987520D02*
D03*
D76*
X9806940Y-15633701D02*
D03*
X8986520Y-16398241D02*
D03*
D77*
X9806940Y-16395700D02*
D03*
X9552940Y-15633701D02*
D03*
Y-16395700D02*
D03*
X9240520Y-16398241D02*
D03*
Y-15636240D02*
D03*
X8986520D02*
D03*
D78*
X7272020Y-18008601D02*
D03*
X8772022D02*
D03*
D79*
X7652019Y-17521600D02*
D03*
X7754021Y-17775601D02*
D03*
X7958018D02*
D03*
X8060019Y-17521600D02*
D03*
X7856022D02*
D03*
X8264022D02*
D03*
X8366018Y-17775601D02*
D03*
X8162021Y-17775603D02*
D03*
D80*
X7273422Y-17648601D02*
D03*
X8772022D02*
D03*
D81*
X2514600Y-16649699D02*
D03*
X2194917Y-16965848D02*
D03*
X-279400Y-14528799D02*
D03*
D82*
X3391970Y-15159790D02*
D03*
X3032760Y-14800580D02*
D03*
X3212365Y-14980185D02*
D03*
D83*
X-279400Y-14020799D02*
D03*
Y-14274800D02*
D03*
D84*
X-106679Y-13568680D02*
D03*
X-360679D02*
D03*
D85*
X-503900Y-10808884D02*
D03*
X-503900Y-10008881D02*
D03*
D86*
X3874344Y-15088445D02*
D03*
X5245038Y-15078152D02*
D03*
X2065020Y-18277840D02*
D03*
X518160Y-16601440D02*
D03*
X352001Y-16355060D02*
D03*
X2443480Y-16913503D02*
D03*
X1669429Y-18079720D02*
D03*
X1508760Y-17800320D02*
D03*
X5325038Y-16841019D02*
D03*
X5346700Y-16959579D02*
D03*
X2078272Y-14034808D02*
D03*
X2220326Y-14174814D02*
D03*
X2154494Y-14099541D02*
D03*
X4126810Y-15155067D02*
D03*
X4047636Y-15093983D02*
D03*
X4206240Y-15077440D02*
D03*
X3972341Y-15159790D02*
D03*
X745361Y-15091269D02*
D03*
X469705Y-15287585D02*
D03*
X568557Y-15180812D02*
D03*
X822468Y-15155688D02*
D03*
X445793Y-15384685D02*
D03*
X1914798Y-13909290D02*
D03*
X1997329Y-13965758D02*
D03*
X4429712Y-14954498D02*
D03*
X5427668Y-14946841D02*
D03*
X2915920Y-16032480D02*
D03*
X5085039Y-16238220D02*
D03*
X4932680Y-16123988D02*
D03*
X4445000Y-16253461D02*
D03*
X4932307Y-16223988D02*
D03*
X4536355Y-16208060D02*
D03*
X2144599Y-15978799D02*
D03*
X3317240Y-16482060D02*
D03*
X3408680Y-16525240D02*
D03*
X1376680Y-16179800D02*
D03*
X1535965Y-16184145D02*
D03*
X4285040Y-16695419D02*
D03*
X4239260Y-16918941D02*
D03*
X4525039Y-16720821D02*
D03*
X4494228Y-16616702D02*
D03*
X5205608Y-15769469D02*
D03*
X5360994Y-15726210D02*
D03*
X798015Y-14901044D02*
D03*
X807720Y-15359380D02*
D03*
X2470125Y-14758646D02*
D03*
X909320Y-15369540D02*
D03*
X4405793Y-15756572D02*
D03*
X4157960Y-15758160D02*
D03*
X4057960D02*
D03*
X3983753Y-15690746D02*
D03*
X4242870Y-15692120D02*
D03*
X2466254Y-15051978D02*
D03*
X2415403Y-14955640D02*
D03*
X1973580Y-14739619D02*
D03*
X1884680Y-14669698D02*
D03*
X1779580Y-14740517D02*
D03*
X2422638Y-14847234D02*
D03*
X1849099Y-15478799D02*
D03*
X1889760Y-17274541D02*
D03*
X5245100Y-16228059D02*
D03*
X4927600Y-14770100D02*
D03*
X4976210Y-14910263D02*
D03*
X5098553Y-15004402D02*
D03*
X5250643Y-14910263D02*
D03*
X938095Y-14793140D02*
D03*
X900069Y-14927728D02*
D03*
X5532320Y-14955573D02*
D03*
X5665681Y-14946841D02*
D03*
X585618Y-15281458D02*
D03*
X5372100Y-16095979D02*
D03*
X2026508Y-16901561D02*
D03*
X1686560Y-17472659D02*
D03*
X1760220Y-17399001D02*
D03*
X1793906Y-17303036D02*
D03*
X1912755Y-17165320D02*
D03*
X3865880Y-16677640D02*
D03*
X3965041Y-16664940D02*
D03*
X4058075Y-16626627D02*
D03*
X3805041Y-16601559D02*
D03*
X965200Y-16936720D02*
D03*
X932511Y-16662428D02*
D03*
X832513Y-16661794D02*
D03*
X737577Y-16693422D02*
D03*
X172720Y-18224500D02*
D03*
X-228951Y-17989015D02*
D03*
X-27952Y-15726137D02*
D03*
X-69214Y-15862225D02*
D03*
X116233Y-15710507D02*
D03*
X7046416Y-12631750D02*
D03*
X6169259Y-12924541D02*
D03*
X6365240Y-12522200D02*
D03*
X5207000Y-9669780D02*
D03*
X5133340Y-9847580D02*
D03*
X4737050Y-9880575D02*
D03*
X2574658Y-10487722D02*
D03*
X2713013Y-10499257D02*
D03*
X2875280Y-10492740D02*
D03*
X2776220Y-10596880D02*
D03*
X5293360Y-11488420D02*
D03*
X4422140Y-9994900D02*
D03*
X2654021Y-10048332D02*
D03*
X2816860Y-10121900D02*
D03*
X3722046Y-12493876D02*
D03*
X3601720Y-12415520D02*
D03*
X40640Y-11595100D02*
D03*
X459740Y-11592560D02*
D03*
X774700Y-10510520D02*
D03*
X1234440Y-10134600D02*
D03*
X737664Y-10297758D02*
D03*
X2529840Y-10629900D02*
D03*
X3302000Y-11783060D02*
D03*
X3131820D02*
D03*
X3208020Y-11663680D02*
D03*
X3352320Y-11659335D02*
D03*
X1579880Y-11582968D02*
D03*
X1295400Y-11049000D02*
D03*
X1341120Y-11094720D02*
D03*
X4261820Y-12009520D02*
D03*
X4306458Y-11460480D02*
D03*
X4856480Y-11427460D02*
D03*
X4663440Y-11473180D02*
D03*
X4150360Y-11046880D02*
D03*
X2895675Y-9933940D02*
D03*
X5806440Y-10934700D02*
D03*
X5199380Y-10576560D02*
D03*
X4305300Y-10507980D02*
D03*
X4663440Y-12392660D02*
D03*
X4757420Y-12390120D02*
D03*
X6647180Y-11301530D02*
D03*
X3340100Y-13159740D02*
D03*
X3112343Y-13202921D02*
D03*
X6672580Y-11226800D02*
D03*
X6743700Y-11196320D02*
D03*
X6647180Y-11376660D02*
D03*
X1577366Y-12460236D02*
D03*
X8130540Y-11244580D02*
D03*
X9011584Y-11136095D02*
D03*
X9758680Y-11559540D02*
D03*
X9715500Y-11508740D02*
D03*
X9758680Y-11313160D02*
D03*
X9712960Y-11366500D02*
D03*
X8915400Y-11899900D02*
D03*
X8925560Y-11971020D02*
D03*
X9273540Y-12100560D02*
D03*
X9278620Y-12031980D02*
D03*
X9144000Y-11849100D02*
D03*
X9077960Y-11808460D02*
D03*
X4513580Y-11203940D02*
D03*
X4210742Y-11250080D02*
D03*
X5643880Y-15082520D02*
D03*
X5666740Y-14386560D02*
D03*
X4305300Y-10096500D02*
D03*
X2346960Y-11264900D02*
D03*
X2463800Y-11145520D02*
D03*
X2545877Y-11068809D02*
D03*
X2512060Y-10955020D02*
D03*
X3246120Y-10546080D02*
D03*
X2976880Y-10464800D02*
D03*
X4193540Y-10099040D02*
D03*
X4142740Y-10551160D02*
D03*
X4054018Y-10055860D02*
D03*
X4004015Y-10474960D02*
D03*
X3926840Y-10099040D02*
D03*
X3812540Y-10055860D02*
D03*
Y-10551160D02*
D03*
X3704016Y-10099040D02*
D03*
X3672840Y-10474960D02*
D03*
X3581400Y-10055860D02*
D03*
X3517900Y-10474960D02*
D03*
X3406140Y-10050780D02*
D03*
X3373103Y-10478523D02*
D03*
X3304540Y-10099040D02*
D03*
X3202940Y-10050780D02*
D03*
X3124200Y-10457180D02*
D03*
X3103880Y-10099040D02*
D03*
X2099858Y-11733730D02*
D03*
X2115820Y-11617960D02*
D03*
Y-11498580D02*
D03*
X2232660D02*
D03*
Y-11386820D02*
D03*
X2344420Y-11381740D02*
D03*
X2466340Y-11259820D02*
D03*
X2595468Y-10866120D02*
D03*
X2545877Y-10752922D02*
D03*
X2646138Y-10596880D02*
D03*
X2708603Y-12565380D02*
D03*
X2190900Y-12639040D02*
D03*
X2019300Y-13431520D02*
D03*
X1953260Y-13266110D02*
D03*
X2313940Y-13423900D02*
D03*
X1577366Y-12593023D02*
D03*
X2852420Y-12717780D02*
D03*
X2324100Y-12565380D02*
D03*
X1927860D02*
D03*
X-500380Y-16616679D02*
D03*
X-617519Y-16818739D02*
D03*
X-825500Y-16936720D02*
D03*
X-650240Y-16992599D02*
D03*
X-243302Y-16367760D02*
D03*
X1184710Y-10380549D02*
D03*
X1262380Y-10619740D02*
D03*
X-45720Y-10213340D02*
D03*
X10160Y-10097666D02*
D03*
X-45720Y-10383520D02*
D03*
X-171075Y-15379370D02*
D03*
X1705538Y-14669698D02*
D03*
X66647Y-16823027D02*
D03*
X210820Y-16164560D02*
D03*
X304800Y-16243300D02*
D03*
X368300Y-16027400D02*
D03*
X443196Y-16107443D02*
D03*
X1425547Y-16712593D02*
D03*
X2006600Y-16004539D02*
D03*
X2012551Y-16691211D02*
D03*
X-678180Y-15684500D02*
D03*
X-386080Y-16769080D02*
D03*
X-513080Y-16929100D02*
D03*
X-510540Y-17272000D02*
D03*
X-350520Y-17327879D02*
D03*
X279400Y-17023080D02*
D03*
X297180Y-16880840D02*
D03*
X1219200Y-16225520D02*
D03*
X958271Y-15883311D02*
D03*
X-459740Y-17523460D02*
D03*
X-675640Y-16144240D02*
D03*
X-728980Y-16367760D02*
D03*
X889000Y-15806419D02*
D03*
X678180Y-15600681D02*
D03*
X495499Y-15555161D02*
D03*
X683260Y-15770860D02*
D03*
X711200Y-15875000D02*
D03*
X1026160Y-15560040D02*
D03*
X932180Y-14008099D02*
D03*
X977900Y-13959840D02*
D03*
X861060Y-13713460D02*
D03*
X326927Y-14613353D02*
D03*
X375920Y-14556740D02*
D03*
X337820Y-13716000D02*
D03*
X416560Y-13822681D02*
D03*
X3703320Y-16543021D02*
D03*
X5659120Y-14737080D02*
D03*
X5158740Y-16154401D02*
D03*
X5341620Y-17470120D02*
D03*
X5249000Y-15518040D02*
D03*
X5334000Y-15605760D02*
D03*
X5062220D02*
D03*
X-165100Y-15003780D02*
D03*
X-125620Y-15115540D02*
D03*
X1419860Y-15636240D02*
D03*
X1597660Y-15722600D02*
D03*
X1490980Y-15745461D02*
D03*
X1163320Y-15494000D02*
D03*
X-474980Y-17454880D02*
D03*
X-134620Y-18232120D02*
D03*
X4490720Y-17818100D02*
D03*
X4551680D02*
D03*
X4610100D02*
D03*
X3614420Y-13383260D02*
D03*
X3644900Y-13568680D02*
D03*
X3177540Y-13304520D02*
D03*
X4163060Y-13009880D02*
D03*
X-731520Y-17073880D02*
D03*
X1341120Y-16375380D02*
D03*
X1460500Y-16428720D02*
D03*
X1569720Y-16507460D02*
D03*
X2075180Y-17213580D02*
D03*
X2217420Y-17226280D02*
D03*
X2336800Y-17193260D02*
D03*
X2443480Y-16507460D02*
D03*
X38100Y-17048480D02*
D03*
X165100Y-17017999D02*
D03*
X-330200Y-17800320D02*
D03*
X650240Y-16644620D02*
D03*
X574040Y-16510001D02*
D03*
X693420Y-16337280D02*
D03*
X805180Y-16286481D02*
D03*
X881380Y-16375380D02*
D03*
X1056640Y-16222980D02*
D03*
X1016000Y-16106140D02*
D03*
X896620Y-16062959D02*
D03*
X1849120Y-16286481D02*
D03*
X-297180Y-17091660D02*
D03*
X-124460Y-17068800D02*
D03*
X-709874Y-18161000D02*
D03*
X-814014Y-17274541D02*
D03*
X231747Y-15721992D02*
D03*
X2519680Y-18371820D02*
D03*
X2479040Y-18475960D02*
D03*
X1470660Y-17670779D02*
D03*
X-594360Y-16454120D02*
D03*
X-464820Y-16449040D02*
D03*
X-345440Y-16436340D02*
D03*
X2738120Y-16121381D02*
D03*
X2168540Y-13423900D02*
D03*
X2456180Y-13362939D02*
D03*
X2250440Y-13322301D02*
D03*
X2230120Y-13218159D02*
D03*
X1602106Y-13192126D02*
D03*
X1818640Y-13154660D02*
D03*
X2377440Y-13141960D02*
D03*
X2570480Y-13393420D02*
D03*
X2677160Y-13279120D02*
D03*
X1882140Y-13426440D02*
D03*
X1198880Y-13530580D02*
D03*
X1353820Y-13271500D02*
D03*
X2824480Y-13116560D02*
D03*
X779780Y-13642340D02*
D03*
X692909Y-13583409D02*
D03*
X2816860Y-13319760D02*
D03*
X2875280Y-13487399D02*
D03*
X2755900Y-13202921D02*
D03*
X180947Y-15569592D02*
D03*
X299720Y-15468600D02*
D03*
X314960Y-15595599D02*
D03*
X2136140Y-15238194D02*
D03*
X1630680Y-14744701D02*
D03*
X91440Y-15902940D02*
D03*
Y-16062941D02*
D03*
X1068725Y-16912595D02*
D03*
X4526280Y-15562579D02*
D03*
D87*
X3992880Y-13695680D02*
D03*
X8158480Y-12776200D02*
D03*
X8854440Y-13662660D02*
D03*
X8900160Y-13134340D02*
D03*
X3052980Y-12537707D02*
D03*
X6847840Y-11877040D02*
D03*
X9618980Y-12880341D02*
D03*
X8354060Y-13157201D02*
D03*
X4777740Y-13101320D02*
D03*
X9662160Y-14607539D02*
D03*
X9690100Y-14330679D02*
D03*
X264160Y-13553439D02*
D03*
X4572000Y-13444220D02*
D03*
X8976360Y-14010640D02*
D03*
X7927340Y-13779500D02*
D03*
X8869680Y-17071339D02*
D03*
X6360160Y-16316960D02*
D03*
X7183120Y-15674339D02*
D03*
X7493000Y-16484599D02*
D03*
X7010400Y-16426180D02*
D03*
X7967980Y-16456660D02*
D03*
D88*
X5240020Y-12054840D02*
D03*
X4870232Y-12185432D02*
D03*
X6090920Y-11864340D02*
D03*
X4496870Y-12283440D02*
D03*
X46772Y-12098020D02*
D03*
X5859780Y-10271760D02*
D03*
X6012180Y-11330940D02*
D03*
X2110740Y-10383520D02*
D03*
X1626670Y-11309057D02*
D03*
X1256301Y-12175601D02*
D03*
X1136450Y-11953240D02*
D03*
X7216140Y-10866120D02*
D03*
X7031455Y-10728960D02*
D03*
X6860540D02*
D03*
X6875185Y-10539790D02*
D03*
X6715760Y-10507980D02*
D03*
X8548625Y-11681460D02*
D03*
X9006840Y-12275820D02*
D03*
D89*
X4968240Y-13413741D02*
D03*
X5598160Y-10655300D02*
D03*
X6334760Y-10631170D02*
D03*
X6817360Y-12867641D02*
D03*
X7317740Y-10680700D02*
D03*
X6756400Y-11320780D02*
D03*
X8171180Y-11130280D02*
D03*
X8910320Y-11209020D02*
D03*
X9077960Y-11948160D02*
D03*
D90*
X2570329Y-10289540D02*
D03*
X2430780Y-10236200D02*
D03*
X3934460Y-12616180D02*
D03*
X2334260Y-10530840D02*
D03*
X1469533Y-10176653D02*
D03*
X1717040Y-10739120D02*
D03*
Y-10561320D02*
D03*
X-373380Y-11079480D02*
D03*
X-299720Y-10936170D02*
D03*
X342900Y-9961924D02*
D03*
X157480Y-10264564D02*
D03*
X342900Y-10386060D02*
D03*
X668020Y-10060940D02*
D03*
X342900Y-10556240D02*
D03*
Y-10726420D02*
D03*
D91*
X8742680Y-13896974D02*
D03*
X7232849Y-13800232D02*
D03*
X7782124Y-13566141D02*
D03*
X8110220Y-16202660D02*
D03*
X7820660Y-15702280D02*
D03*
%TF.MD5,df11255c257509b05baa96fc550c559b*%
M02*
