%TF.GenerationSoftware,Altium Limited,Altium Designer,23.1.1 (15)*%
G04 Layer_Color=128*
%FSLAX45Y45*%
%MOMM*%
%TF.SameCoordinates,06D7CB19-584F-49B0-A036-24662F40C1B1*%
%TF.FilePolarity,Positive*%
%TF.FileFunction,Drillmap*%
%TF.Part,Single*%
G01*
G75*
%TA.AperFunction,NonConductor*%
%ADD185C,0.12700*%
D185*
X8892190Y-10006530D02*
X8982190D01*
X8937190Y-10051530D02*
Y-9961530D01*
X9251400Y-10365740D02*
X9341400D01*
X9296400Y-10410740D02*
Y-10320740D01*
X9439360Y-11074400D02*
X9529360D01*
X9484360Y-11119400D02*
Y-11029400D01*
X9798570Y-11433610D02*
X9888570D01*
X9843570Y-11478610D02*
Y-11388610D01*
X9713919Y-12992101D02*
X9833919D01*
X9773919Y-13052100D02*
Y-12932100D01*
X9713919Y-14490700D02*
X9833919D01*
X9773919Y-14550700D02*
Y-14430701D01*
X3875035Y-14208760D02*
X3975035D01*
X3925035Y-14258760D02*
Y-14158760D01*
X4598935Y-14208760D02*
X4698935D01*
X4648935Y-14258760D02*
Y-14158760D01*
X-528300Y-18176241D02*
X-208300D01*
X-368300Y-18336240D02*
Y-18016240D01*
X9771400Y-9972040D02*
X10091400D01*
X9931400Y-10132040D02*
Y-9812040D01*
X9720600Y-18346420D02*
X10040600D01*
X9880600Y-18506419D02*
Y-18186420D01*
X6414220Y-14450060D02*
X6504220D01*
X6459220Y-14495061D02*
Y-14405060D01*
X6414220Y-13942059D02*
X6504220D01*
X6459220Y-13987061D02*
Y-13897060D01*
X9766940Y-15633701D02*
X9846940D01*
X9806940Y-15673700D02*
Y-15593700D01*
X9766940Y-16395700D02*
X9846940D01*
X9806940Y-16435699D02*
Y-16355701D01*
X9512940Y-15633701D02*
X9592940D01*
X9552940Y-15673700D02*
Y-15593700D01*
X9512940Y-16395700D02*
X9592940D01*
X9552940Y-16435699D02*
Y-16355701D01*
X8946520Y-16398241D02*
X9026520D01*
X8986520Y-16438240D02*
Y-16358240D01*
X9200520Y-16398241D02*
X9280520D01*
X9240520Y-16438240D02*
Y-16358240D01*
X9200520Y-15636240D02*
X9280520D01*
X9240520Y-15676241D02*
Y-15596240D01*
X8946520Y-15636240D02*
X9026520D01*
X8986520Y-15676241D02*
Y-15596240D01*
X9393639Y-16880840D02*
X9483639D01*
X9438639Y-16925841D02*
Y-16835840D01*
X9393639Y-17388840D02*
X9483639D01*
X9438639Y-17433839D02*
Y-17343840D01*
X7132020Y-18008601D02*
X7412020D01*
X7272020Y-18148601D02*
Y-17868600D01*
X8632022Y-18008601D02*
X8912022D01*
X8772022Y-18148601D02*
Y-17868600D01*
X7607019Y-17521600D02*
X7697019D01*
X7652019Y-17566602D02*
Y-17476602D01*
X7709021Y-17775601D02*
X7799020D01*
X7754021Y-17820601D02*
Y-17730602D01*
X7913018Y-17775601D02*
X8003018D01*
X7958018Y-17820601D02*
Y-17730602D01*
X8015020Y-17521600D02*
X8105019D01*
X8060019Y-17566602D02*
Y-17476602D01*
X7811022Y-17521600D02*
X7901022D01*
X7856022Y-17566602D02*
Y-17476602D01*
X7198422Y-17648601D02*
X7348422D01*
X7273422Y-17723601D02*
Y-17573602D01*
X8219022Y-17521600D02*
X8309022D01*
X8264022Y-17566602D02*
Y-17476602D01*
X8697022Y-17648601D02*
X8847022D01*
X8772022Y-17723601D02*
Y-17573602D01*
X8321018Y-17775601D02*
X8411018D01*
X8366018Y-17820601D02*
Y-17730602D01*
X8117021Y-17775603D02*
X8207020D01*
X8162021Y-17820602D02*
Y-17730602D01*
X4798780Y-17495520D02*
X4888780D01*
X4843780Y-17540520D02*
Y-17450520D01*
X4798780Y-16987520D02*
X4888780D01*
X4843780Y-17032520D02*
Y-16942520D01*
X2474600Y-16649699D02*
X2554600D01*
X2514600Y-16689700D02*
Y-16609700D01*
X2154917Y-16965848D02*
X2234917D01*
X2194917Y-17005849D02*
Y-16925848D01*
X3346970Y-15159790D02*
X3436970D01*
X3391970Y-15204790D02*
Y-15114790D01*
X2987760Y-14800580D02*
X3077760D01*
X3032760Y-14845580D02*
Y-14755580D01*
X3167365Y-14980185D02*
X3257365D01*
X3212365Y-15025185D02*
Y-14935185D01*
X-324400Y-14020799D02*
X-234400D01*
X-279400Y-14065800D02*
Y-13975800D01*
X-324400Y-14528799D02*
X-234400D01*
X-279400Y-14573801D02*
Y-14483800D01*
X-324400Y-14274800D02*
X-234400D01*
X-279400Y-14319800D02*
Y-14229800D01*
X-146679Y-13568680D02*
X-66679D01*
X-106679Y-13608681D02*
Y-13528680D01*
X-400679Y-13568680D02*
X-320680D01*
X-360679Y-13608681D02*
Y-13528680D01*
X-553900Y-10808884D02*
X-453900D01*
X-503900Y-10858884D02*
Y-10758884D01*
X-553900Y-10008881D02*
X-453901D01*
X-503900Y-10058881D02*
Y-9958881D01*
X3854344Y-15088445D02*
X3894344D01*
X3874344Y-15108444D02*
Y-15068443D01*
X5225038Y-15078152D02*
X5265038D01*
X5245038Y-15098154D02*
Y-15058154D01*
X2045020Y-18277840D02*
X2085020D01*
X2065020Y-18297839D02*
Y-18257840D01*
X498160Y-16601440D02*
X538160D01*
X518160Y-16621440D02*
Y-16581441D01*
X332001Y-16355060D02*
X372001D01*
X352001Y-16375060D02*
Y-16335060D01*
X2423480Y-16913503D02*
X2463480D01*
X2443480Y-16933502D02*
Y-16893501D01*
X1649429Y-18079720D02*
X1689429D01*
X1669429Y-18099719D02*
Y-18059720D01*
X1488760Y-17800320D02*
X1528760D01*
X1508760Y-17820320D02*
Y-17780321D01*
X5305038Y-16841019D02*
X5345038D01*
X5325038Y-16861018D02*
Y-16821019D01*
X5326700Y-16959579D02*
X5366700D01*
X5346700Y-16979581D02*
Y-16939580D01*
X2058272Y-14034808D02*
X2098272D01*
X2078272Y-14054808D02*
Y-14014809D01*
X2200326Y-14174814D02*
X2240326D01*
X2220326Y-14194814D02*
Y-14154814D01*
X2134494Y-14099541D02*
X2174494D01*
X2154494Y-14119540D02*
Y-14079539D01*
X4106810Y-15155067D02*
X4146810D01*
X4126810Y-15175069D02*
Y-15135068D01*
X4027636Y-15093983D02*
X4067636D01*
X4047636Y-15113983D02*
Y-15073982D01*
X4186240Y-15077440D02*
X4226240D01*
X4206240Y-15097440D02*
Y-15057440D01*
X3952341Y-15159790D02*
X3992341D01*
X3972341Y-15179790D02*
Y-15139790D01*
X725361Y-15091269D02*
X765361D01*
X745361Y-15111269D02*
Y-15071269D01*
X449705Y-15287585D02*
X489705D01*
X469705Y-15307587D02*
Y-15267586D01*
X548557Y-15180812D02*
X588557D01*
X568557Y-15200812D02*
Y-15160812D01*
X802468Y-15155688D02*
X842468D01*
X822468Y-15175688D02*
Y-15135687D01*
X425793Y-15384685D02*
X465793D01*
X445793Y-15404684D02*
Y-15364685D01*
X1894798Y-13909290D02*
X1934798D01*
X1914798Y-13929289D02*
Y-13889290D01*
X1977329Y-13965758D02*
X2017329D01*
X1997329Y-13985757D02*
Y-13945757D01*
X3952880Y-13695680D02*
X4032880D01*
X3992880Y-13735680D02*
Y-13655679D01*
X4409712Y-14954498D02*
X4449712D01*
X4429712Y-14974500D02*
Y-14934499D01*
X5407668Y-14946841D02*
X5447668D01*
X5427668Y-14966841D02*
Y-14926842D01*
X2895920Y-16032480D02*
X2935920D01*
X2915920Y-16052480D02*
Y-16012480D01*
X5065039Y-16238220D02*
X5105039D01*
X5085039Y-16258220D02*
Y-16218221D01*
X4912680Y-16123988D02*
X4952680D01*
X4932680Y-16143990D02*
Y-16103989D01*
X4425000Y-16253461D02*
X4465000D01*
X4445000Y-16273460D02*
Y-16233459D01*
X4912307Y-16223988D02*
X4952307D01*
X4932307Y-16243990D02*
Y-16203989D01*
X4516355Y-16208060D02*
X4556355D01*
X4536355Y-16228059D02*
Y-16188060D01*
X2124600Y-15978799D02*
X2164599D01*
X2144599Y-15998799D02*
Y-15958800D01*
X3297240Y-16482060D02*
X3337240D01*
X3317240Y-16502060D02*
Y-16462061D01*
X3388680Y-16525240D02*
X3428680D01*
X3408680Y-16545239D02*
Y-16505240D01*
X1356680Y-16179800D02*
X1396680D01*
X1376680Y-16199800D02*
Y-16159801D01*
X1515965Y-16184145D02*
X1555965D01*
X1535965Y-16204144D02*
Y-16164145D01*
X4265040Y-16695419D02*
X4305040D01*
X4285040Y-16715421D02*
Y-16675420D01*
X4219260Y-16918941D02*
X4259260D01*
X4239260Y-16938940D02*
Y-16898940D01*
X4505040Y-16720821D02*
X4545039D01*
X4525039Y-16740820D02*
Y-16700819D01*
X4474228Y-16616702D02*
X4514228D01*
X4494228Y-16636702D02*
Y-16596703D01*
X5185608Y-15769469D02*
X5225608D01*
X5205608Y-15789468D02*
Y-15749469D01*
X5340994Y-15726210D02*
X5380994D01*
X5360994Y-15746210D02*
Y-15706210D01*
X778015Y-14901044D02*
X818015D01*
X798015Y-14921043D02*
Y-14881044D01*
X787720Y-15359380D02*
X827720D01*
X807720Y-15379379D02*
Y-15339380D01*
X2450125Y-14758646D02*
X2490125D01*
X2470125Y-14778645D02*
Y-14738646D01*
X889320Y-15369540D02*
X929320D01*
X909320Y-15389540D02*
Y-15349541D01*
X4385793Y-15756572D02*
X4425793D01*
X4405793Y-15776572D02*
Y-15736572D01*
X4137960Y-15758160D02*
X4177960D01*
X4157960Y-15778160D02*
Y-15738161D01*
X4037960Y-15758160D02*
X4077960D01*
X4057960Y-15778160D02*
Y-15738161D01*
X3963753Y-15690746D02*
X4003753D01*
X3983753Y-15710745D02*
Y-15670744D01*
X4222870Y-15692120D02*
X4262870D01*
X4242870Y-15712120D02*
Y-15672121D01*
X2446254Y-15051978D02*
X2486254D01*
X2466254Y-15071977D02*
Y-15031978D01*
X2395403Y-14955640D02*
X2435403D01*
X2415403Y-14975639D02*
Y-14935640D01*
X1953580Y-14739619D02*
X1993580D01*
X1973580Y-14759621D02*
Y-14719620D01*
X1864680Y-14669698D02*
X1904680D01*
X1884680Y-14689697D02*
Y-14649698D01*
X1759580Y-14740517D02*
X1799580D01*
X1779580Y-14760516D02*
Y-14720515D01*
X2402638Y-14847234D02*
X2442638D01*
X2422638Y-14867233D02*
Y-14827235D01*
X1829099Y-15478799D02*
X1869099D01*
X1849099Y-15498801D02*
Y-15458800D01*
X1869760Y-17274541D02*
X1909760D01*
X1889760Y-17294540D02*
Y-17254539D01*
X5225100Y-16228059D02*
X5265100D01*
X5245100Y-16248061D02*
Y-16208060D01*
X4907600Y-14770100D02*
X4947600D01*
X4927600Y-14790100D02*
Y-14750101D01*
X4956210Y-14910263D02*
X4996209D01*
X4976210Y-14930263D02*
Y-14890263D01*
X5078553Y-15004402D02*
X5118553D01*
X5098553Y-15024400D02*
Y-14984402D01*
X5230643Y-14910263D02*
X5270643D01*
X5250643Y-14930263D02*
Y-14890263D01*
X918095Y-14793140D02*
X958095D01*
X938095Y-14813139D02*
Y-14773140D01*
X880069Y-14927728D02*
X920069D01*
X900069Y-14947729D02*
Y-14907729D01*
X5512320Y-14955573D02*
X5552320D01*
X5532320Y-14975574D02*
Y-14935573D01*
X5645681Y-14946841D02*
X5685681D01*
X5665681Y-14966841D02*
Y-14926842D01*
X565618Y-15281458D02*
X605618D01*
X585618Y-15301457D02*
Y-15261456D01*
X5352100Y-16095979D02*
X5392100D01*
X5372100Y-16115981D02*
Y-16075980D01*
X2006508Y-16901561D02*
X2046507D01*
X2026508Y-16921561D02*
Y-16881561D01*
X1666560Y-17472659D02*
X1706560D01*
X1686560Y-17492661D02*
Y-17452660D01*
X1740220Y-17399001D02*
X1780220D01*
X1760220Y-17419000D02*
Y-17378999D01*
X1773906Y-17303036D02*
X1813906D01*
X1793906Y-17323038D02*
Y-17283037D01*
X1892755Y-17165320D02*
X1932755D01*
X1912755Y-17185320D02*
Y-17145320D01*
X3845880Y-16677640D02*
X3885880D01*
X3865880Y-16697639D02*
Y-16657640D01*
X3945041Y-16664940D02*
X3985041D01*
X3965041Y-16684940D02*
Y-16644940D01*
X4038075Y-16626627D02*
X4078075D01*
X4058075Y-16646626D02*
Y-16606625D01*
X3785041Y-16601559D02*
X3825041D01*
X3805041Y-16621561D02*
Y-16581560D01*
X945200Y-16936720D02*
X985200D01*
X965200Y-16956720D02*
Y-16916721D01*
X912511Y-16662428D02*
X952511D01*
X932511Y-16682428D02*
Y-16642429D01*
X812513Y-16661794D02*
X852513D01*
X832513Y-16681793D02*
Y-16641792D01*
X717577Y-16693422D02*
X757577D01*
X737577Y-16713422D02*
Y-16673422D01*
X152720Y-18224500D02*
X192720D01*
X172720Y-18244501D02*
Y-18204500D01*
X-248951Y-17989015D02*
X-208951D01*
X-228951Y-18009015D02*
Y-17969016D01*
X-47952Y-15726137D02*
X-7952D01*
X-27952Y-15746136D02*
Y-15706137D01*
X-89214Y-15862225D02*
X-49214D01*
X-69214Y-15882225D02*
Y-15842226D01*
X96233Y-15710507D02*
X136233D01*
X116233Y-15730507D02*
Y-15690508D01*
X8118480Y-12776200D02*
X8198480D01*
X8158480Y-12816200D02*
Y-12736200D01*
X7026416Y-12631750D02*
X7066416D01*
X7046416Y-12651750D02*
Y-12611750D01*
X8814440Y-13662660D02*
X8894440D01*
X8854440Y-13702660D02*
Y-13622659D01*
X8860160Y-13134340D02*
X8940160D01*
X8900160Y-13174339D02*
Y-13094341D01*
X5205020Y-12054840D02*
X5275020D01*
X5240020Y-12089840D02*
Y-12019840D01*
X4835232Y-12185432D02*
X4905232D01*
X4870232Y-12220432D02*
Y-12150432D01*
X4918240Y-13413741D02*
X5018240D01*
X4968240Y-13463741D02*
Y-13363741D01*
X6149259Y-12924541D02*
X6189259D01*
X6169259Y-12944540D02*
Y-12904541D01*
X6345240Y-12522200D02*
X6385240D01*
X6365240Y-12542200D02*
Y-12502200D01*
X5187000Y-9669780D02*
X5227000D01*
X5207000Y-9689780D02*
Y-9649780D01*
X5113340Y-9847580D02*
X5153340D01*
X5133340Y-9867580D02*
Y-9827580D01*
X4717051Y-9880575D02*
X4757050D01*
X4737050Y-9900575D02*
Y-9860575D01*
X2554658Y-10487722D02*
X2594657D01*
X2574658Y-10507722D02*
Y-10467722D01*
X2693013Y-10499257D02*
X2733013D01*
X2713013Y-10519257D02*
Y-10479257D01*
X2855280Y-10492740D02*
X2895280D01*
X2875280Y-10512740D02*
Y-10472740D01*
X2756220Y-10596880D02*
X2796220D01*
X2776220Y-10616880D02*
Y-10576880D01*
X6055920Y-11864340D02*
X6125920D01*
X6090920Y-11899340D02*
Y-11829340D01*
X5273360Y-11488420D02*
X5313360D01*
X5293360Y-11508420D02*
Y-11468420D01*
X4402140Y-9994900D02*
X4442140D01*
X4422140Y-10014900D02*
Y-9974900D01*
X5548160Y-10655300D02*
X5648160D01*
X5598160Y-10705300D02*
Y-10605300D01*
X2634021Y-10048332D02*
X2674021D01*
X2654021Y-10068332D02*
Y-10028332D01*
X2545329Y-10289540D02*
X2595329D01*
X2570329Y-10314540D02*
Y-10264540D01*
X2405780Y-10236200D02*
X2455780D01*
X2430780Y-10261200D02*
Y-10211200D01*
X6284760Y-10631170D02*
X6384760D01*
X6334760Y-10681170D02*
Y-10581170D01*
X2796860Y-10121900D02*
X2836860D01*
X2816860Y-10141900D02*
Y-10101900D01*
X3909460Y-12616180D02*
X3959460D01*
X3934460Y-12641180D02*
Y-12591180D01*
X4461870Y-12283440D02*
X4531870D01*
X4496870Y-12318440D02*
Y-12248440D01*
X3702046Y-12493876D02*
X3742046D01*
X3722046Y-12513876D02*
Y-12473876D01*
X3581720Y-12415520D02*
X3621720D01*
X3601720Y-12435520D02*
Y-12395520D01*
X11772Y-12098020D02*
X81772D01*
X46772Y-12133020D02*
Y-12063020D01*
X20640Y-11595100D02*
X60640D01*
X40640Y-11615100D02*
Y-11575100D01*
X439740Y-11592560D02*
X479740D01*
X459740Y-11612560D02*
Y-11572560D01*
X5824780Y-10271760D02*
X5894780D01*
X5859780Y-10306760D02*
Y-10236760D01*
X5977180Y-11330940D02*
X6047180D01*
X6012180Y-11365940D02*
Y-11295940D01*
X754700Y-10510520D02*
X794700D01*
X774700Y-10530520D02*
Y-10490520D01*
X1214440Y-10134600D02*
X1254440D01*
X1234440Y-10154600D02*
Y-10114600D01*
X717664Y-10297758D02*
X757664D01*
X737664Y-10317758D02*
Y-10277758D01*
X2075740Y-10383520D02*
X2145740D01*
X2110740Y-10418520D02*
Y-10348520D01*
X1591670Y-11309057D02*
X1661670D01*
X1626670Y-11344057D02*
Y-11274057D01*
X2509840Y-10629900D02*
X2549840D01*
X2529840Y-10649900D02*
Y-10609900D01*
X1221301Y-12175601D02*
X1291301D01*
X1256301Y-12210601D02*
Y-12140601D01*
X3282000Y-11783060D02*
X3322000D01*
X3302000Y-11803060D02*
Y-11763060D01*
X3111820Y-11783060D02*
X3151820D01*
X3131820Y-11803060D02*
Y-11763060D01*
X3012980Y-12537707D02*
X3092980D01*
X3052980Y-12577707D02*
Y-12497707D01*
X3188020Y-11663680D02*
X3228020D01*
X3208020Y-11683680D02*
Y-11643680D01*
X3332320Y-11659335D02*
X3372320D01*
X3352320Y-11679335D02*
Y-11639335D01*
X1559880Y-11582968D02*
X1599880D01*
X1579880Y-11602968D02*
Y-11562968D01*
X1275400Y-11049000D02*
X1315400D01*
X1295400Y-11069000D02*
Y-11029000D01*
X1321120Y-11094720D02*
X1361120D01*
X1341120Y-11114720D02*
Y-11074720D01*
X1101450Y-11953240D02*
X1171450D01*
X1136450Y-11988240D02*
Y-11918240D01*
X4241820Y-12009520D02*
X4281820D01*
X4261820Y-12029520D02*
Y-11989520D01*
X4286458Y-11460480D02*
X4326458D01*
X4306458Y-11480480D02*
Y-11440480D01*
X4836480Y-11427460D02*
X4876480D01*
X4856480Y-11447460D02*
Y-11407460D01*
X4643440Y-11473180D02*
X4683440D01*
X4663440Y-11493180D02*
Y-11453180D01*
X4130360Y-11046880D02*
X4170360D01*
X4150360Y-11066880D02*
Y-11026880D01*
X7181140Y-10866120D02*
X7251140D01*
X7216140Y-10901120D02*
Y-10831120D01*
X6767360Y-12867641D02*
X6867360D01*
X6817360Y-12917641D02*
Y-12817641D01*
X6807840Y-11877040D02*
X6887840D01*
X6847840Y-11917040D02*
Y-11837040D01*
X2875675Y-9933940D02*
X2915675D01*
X2895675Y-9953940D02*
Y-9913940D01*
X5786440Y-10934700D02*
X5826440D01*
X5806440Y-10954700D02*
Y-10914700D01*
X5179380Y-10576560D02*
X5219380D01*
X5199380Y-10596560D02*
Y-10556560D01*
X4285300Y-10507980D02*
X4325300D01*
X4305300Y-10527980D02*
Y-10487980D01*
X4643440Y-12392660D02*
X4683440D01*
X4663440Y-12412660D02*
Y-12372660D01*
X4737420Y-12390120D02*
X4777420D01*
X4757420Y-12410120D02*
Y-12370120D01*
X6627180Y-11301530D02*
X6667180D01*
X6647180Y-11321530D02*
Y-11281530D01*
X3320100Y-13159740D02*
X3360100D01*
X3340100Y-13179739D02*
Y-13139740D01*
X3092343Y-13202921D02*
X3132343D01*
X3112343Y-13222920D02*
Y-13182919D01*
X6652580Y-11226800D02*
X6692580D01*
X6672580Y-11246800D02*
Y-11206800D01*
X6996455Y-10728960D02*
X7066455D01*
X7031455Y-10763960D02*
Y-10693960D01*
X6825540Y-10728960D02*
X6895540D01*
X6860540Y-10763960D02*
Y-10693960D01*
X6840185Y-10539790D02*
X6910185D01*
X6875185Y-10574790D02*
Y-10504790D01*
X6680760Y-10507980D02*
X6750760D01*
X6715760Y-10542980D02*
Y-10472980D01*
X7267740Y-10680700D02*
X7367740D01*
X7317740Y-10730700D02*
Y-10630700D01*
X6723700Y-11196320D02*
X6763700D01*
X6743700Y-11216320D02*
Y-11176320D01*
X6627180Y-11376660D02*
X6667180D01*
X6647180Y-11396660D02*
Y-11356660D01*
X6706400Y-11320780D02*
X6806400D01*
X6756400Y-11370780D02*
Y-11270780D01*
X1557366Y-12460236D02*
X1597366D01*
X1577366Y-12480236D02*
Y-12440236D01*
X8110540Y-11244580D02*
X8150540D01*
X8130540Y-11264580D02*
Y-11224580D01*
X8121180Y-11130280D02*
X8221180D01*
X8171180Y-11180280D02*
Y-11080280D01*
X8991585Y-11136095D02*
X9031584D01*
X9011584Y-11156095D02*
Y-11116095D01*
X9738680Y-11559540D02*
X9778680D01*
X9758680Y-11579540D02*
Y-11539540D01*
X9695500Y-11508740D02*
X9735500D01*
X9715500Y-11528740D02*
Y-11488740D01*
X9738680Y-11313160D02*
X9778680D01*
X9758680Y-11333160D02*
Y-11293160D01*
X9692960Y-11366500D02*
X9732960D01*
X9712960Y-11386500D02*
Y-11346500D01*
X8860320Y-11209020D02*
X8960320D01*
X8910320Y-11259020D02*
Y-11159020D01*
X9578980Y-12880341D02*
X9658980D01*
X9618980Y-12920340D02*
Y-12840340D01*
X8895400Y-11899900D02*
X8935400D01*
X8915400Y-11919900D02*
Y-11879900D01*
X8905560Y-11971020D02*
X8945560D01*
X8925560Y-11991020D02*
Y-11951020D01*
X9253540Y-12100560D02*
X9293540D01*
X9273540Y-12120560D02*
Y-12080560D01*
X9258620Y-12031980D02*
X9298620D01*
X9278620Y-12051980D02*
Y-12011980D01*
X9124000Y-11849100D02*
X9164000D01*
X9144000Y-11869100D02*
Y-11829100D01*
X9057960Y-11808460D02*
X9097960D01*
X9077960Y-11828460D02*
Y-11788460D01*
X9027960Y-11948160D02*
X9127960D01*
X9077960Y-11998160D02*
Y-11898160D01*
X8513625Y-11681460D02*
X8583625D01*
X8548625Y-11716460D02*
Y-11646460D01*
X8971840Y-12275820D02*
X9041840D01*
X9006840Y-12310820D02*
Y-12240820D01*
X4493580Y-11203940D02*
X4533580D01*
X4513580Y-11223940D02*
Y-11183940D01*
X4190742Y-11250080D02*
X4230742D01*
X4210742Y-11270080D02*
Y-11230080D01*
X8707680Y-13896974D02*
X8777680D01*
X8742680Y-13931973D02*
Y-13861975D01*
X7197849Y-13800232D02*
X7267849D01*
X7232849Y-13835233D02*
Y-13765233D01*
X7747124Y-13566141D02*
X7817124D01*
X7782124Y-13601140D02*
Y-13531140D01*
X8314060Y-13157201D02*
X8394060D01*
X8354060Y-13197200D02*
Y-13117200D01*
X5623880Y-15082520D02*
X5663880D01*
X5643880Y-15102521D02*
Y-15062520D01*
X5646740Y-14386560D02*
X5686740D01*
X5666740Y-14406560D02*
Y-14366560D01*
X4737740Y-13101320D02*
X4817740D01*
X4777740Y-13141319D02*
Y-13061320D01*
X4285300Y-10096500D02*
X4325300D01*
X4305300Y-10116500D02*
Y-10076500D01*
X2326960Y-11264900D02*
X2366960D01*
X2346960Y-11284900D02*
Y-11244900D01*
X2443800Y-11145520D02*
X2483800D01*
X2463800Y-11165520D02*
Y-11125520D01*
X2525877Y-11068809D02*
X2565877D01*
X2545877Y-11088809D02*
Y-11048810D01*
X2492060Y-10955020D02*
X2532060D01*
X2512060Y-10975020D02*
Y-10935020D01*
X3226120Y-10546080D02*
X3266120D01*
X3246120Y-10566080D02*
Y-10526080D01*
X2956880Y-10464800D02*
X2996880D01*
X2976880Y-10484800D02*
Y-10444800D01*
X4173540Y-10099040D02*
X4213540D01*
X4193540Y-10119040D02*
Y-10079040D01*
X4122740Y-10551160D02*
X4162740D01*
X4142740Y-10571160D02*
Y-10531160D01*
X4034018Y-10055860D02*
X4074018D01*
X4054018Y-10075860D02*
Y-10035860D01*
X3984015Y-10474960D02*
X4024015D01*
X4004015Y-10494960D02*
Y-10454960D01*
X3906840Y-10099040D02*
X3946840D01*
X3926840Y-10119040D02*
Y-10079040D01*
X3792540Y-10055860D02*
X3832540D01*
X3812540Y-10075860D02*
Y-10035860D01*
X3792540Y-10551160D02*
X3832540D01*
X3812540Y-10571160D02*
Y-10531160D01*
X3684016Y-10099040D02*
X3724016D01*
X3704016Y-10119040D02*
Y-10079040D01*
X3652840Y-10474960D02*
X3692840D01*
X3672840Y-10494960D02*
Y-10454960D01*
X3561400Y-10055860D02*
X3601400D01*
X3581400Y-10075860D02*
Y-10035860D01*
X3497900Y-10474960D02*
X3537900D01*
X3517900Y-10494960D02*
Y-10454960D01*
X3386140Y-10050780D02*
X3426140D01*
X3406140Y-10070780D02*
Y-10030780D01*
X3353103Y-10478523D02*
X3393103D01*
X3373103Y-10498523D02*
Y-10458523D01*
X3284540Y-10099040D02*
X3324540D01*
X3304540Y-10119040D02*
Y-10079040D01*
X3182940Y-10050780D02*
X3222940D01*
X3202940Y-10070780D02*
Y-10030780D01*
X3104200Y-10457180D02*
X3144200D01*
X3124200Y-10477180D02*
Y-10437180D01*
X3083880Y-10099040D02*
X3123880D01*
X3103880Y-10119040D02*
Y-10079040D01*
X2079858Y-11733730D02*
X2119858D01*
X2099858Y-11753730D02*
Y-11713730D01*
X2095820Y-11617960D02*
X2135820D01*
X2115820Y-11637960D02*
Y-11597960D01*
X2095820Y-11498580D02*
X2135820D01*
X2115820Y-11518580D02*
Y-11478580D01*
X2212660Y-11498580D02*
X2252660D01*
X2232660Y-11518580D02*
Y-11478580D01*
X2212660Y-11386820D02*
X2252660D01*
X2232660Y-11406820D02*
Y-11366820D01*
X2324420Y-11381740D02*
X2364420D01*
X2344420Y-11401740D02*
Y-11361740D01*
X2446340Y-11259820D02*
X2486340D01*
X2466340Y-11279820D02*
Y-11239820D01*
X2575468Y-10866120D02*
X2615468D01*
X2595468Y-10886120D02*
Y-10846120D01*
X2525877Y-10752922D02*
X2565877D01*
X2545877Y-10772922D02*
Y-10732922D01*
X2626138Y-10596880D02*
X2666138D01*
X2646138Y-10616880D02*
Y-10576880D01*
X2688603Y-12565380D02*
X2728603D01*
X2708603Y-12585380D02*
Y-12545380D01*
X2170900Y-12639040D02*
X2210900D01*
X2190900Y-12659040D02*
Y-12619040D01*
X1999300Y-13431520D02*
X2039300D01*
X2019300Y-13451520D02*
Y-13411520D01*
X1933260Y-13266110D02*
X1973260D01*
X1953260Y-13286110D02*
Y-13246111D01*
X2293940Y-13423900D02*
X2333940D01*
X2313940Y-13443900D02*
Y-13403900D01*
X1557366Y-12593023D02*
X1597366D01*
X1577366Y-12613023D02*
Y-12573023D01*
X2832420Y-12717780D02*
X2872420D01*
X2852420Y-12737780D02*
Y-12697780D01*
X2304100Y-12565380D02*
X2344100D01*
X2324100Y-12585380D02*
Y-12545380D01*
X1907860Y-12565380D02*
X1947860D01*
X1927860Y-12585380D02*
Y-12545380D01*
X-520380Y-16616679D02*
X-480380D01*
X-500380Y-16636681D02*
Y-16596680D01*
X-637519Y-16818739D02*
X-597519D01*
X-617519Y-16838739D02*
Y-16798740D01*
X-845500Y-16936720D02*
X-805500D01*
X-825500Y-16956720D02*
Y-16916721D01*
X-670240Y-16992599D02*
X-630240D01*
X-650240Y-17012601D02*
Y-16972600D01*
X-263302Y-16367760D02*
X-223302D01*
X-243302Y-16387759D02*
Y-16347760D01*
X2309260Y-10530840D02*
X2359260D01*
X2334260Y-10555840D02*
Y-10505840D01*
X1444533Y-10176653D02*
X1494533D01*
X1469533Y-10201653D02*
Y-10151653D01*
X1164710Y-10380549D02*
X1204710D01*
X1184710Y-10400549D02*
Y-10360549D01*
X1242380Y-10619740D02*
X1282380D01*
X1262380Y-10639740D02*
Y-10599740D01*
X1692040Y-10739120D02*
X1742040D01*
X1717040Y-10764120D02*
Y-10714120D01*
X1692040Y-10561320D02*
X1742040D01*
X1717040Y-10586320D02*
Y-10536320D01*
X-398380Y-11079480D02*
X-348380D01*
X-373380Y-11104480D02*
Y-11054480D01*
X-324720Y-10936170D02*
X-274720D01*
X-299720Y-10961170D02*
Y-10911170D01*
X-65720Y-10213340D02*
X-25720D01*
X-45720Y-10233340D02*
Y-10193340D01*
X-9840Y-10097666D02*
X30160D01*
X10160Y-10117666D02*
Y-10077666D01*
X-65720Y-10383520D02*
X-25720D01*
X-45720Y-10403520D02*
Y-10363520D01*
X317900Y-9961924D02*
X367900D01*
X342900Y-9986924D02*
Y-9936924D01*
X132480Y-10264564D02*
X182480D01*
X157480Y-10289564D02*
Y-10239564D01*
X317900Y-10386060D02*
X367900D01*
X342900Y-10411060D02*
Y-10361060D01*
X643020Y-10060940D02*
X693020D01*
X668020Y-10085940D02*
Y-10035940D01*
X317900Y-10556240D02*
X367900D01*
X342900Y-10581240D02*
Y-10531240D01*
X317900Y-10726420D02*
X367900D01*
X342900Y-10751420D02*
Y-10701420D01*
X9622160Y-14607539D02*
X9702160D01*
X9662160Y-14647540D02*
Y-14567540D01*
X9650100Y-14330679D02*
X9730100D01*
X9690100Y-14370680D02*
Y-14290680D01*
X-191075Y-15379370D02*
X-151075D01*
X-171075Y-15399370D02*
Y-15359370D01*
X1685538Y-14669698D02*
X1725538D01*
X1705538Y-14689697D02*
Y-14649698D01*
X46647Y-16823027D02*
X86647D01*
X66647Y-16843027D02*
Y-16803027D01*
X190820Y-16164560D02*
X230820D01*
X210820Y-16184560D02*
Y-16144560D01*
X284800Y-16243300D02*
X324800D01*
X304800Y-16263300D02*
Y-16223300D01*
X348300Y-16027400D02*
X388300D01*
X368300Y-16047400D02*
Y-16007401D01*
X423197Y-16107443D02*
X463196D01*
X443196Y-16127443D02*
Y-16087444D01*
X1405547Y-16712593D02*
X1445547D01*
X1425547Y-16732593D02*
Y-16692593D01*
X1986600Y-16004539D02*
X2026600D01*
X2006600Y-16024541D02*
Y-15984540D01*
X1992552Y-16691211D02*
X2032551D01*
X2012551Y-16711211D02*
Y-16671211D01*
X-698180Y-15684500D02*
X-658180D01*
X-678180Y-15704500D02*
Y-15664500D01*
X-406080Y-16769080D02*
X-366080D01*
X-386080Y-16789079D02*
Y-16749080D01*
X-533080Y-16929100D02*
X-493080D01*
X-513080Y-16949100D02*
Y-16909100D01*
X-530540Y-17272000D02*
X-490540D01*
X-510540Y-17292000D02*
Y-17252000D01*
X-370520Y-17327879D02*
X-330520D01*
X-350520Y-17347881D02*
Y-17307880D01*
X259400Y-17023080D02*
X299400D01*
X279400Y-17043080D02*
Y-17003081D01*
X277180Y-16880840D02*
X317180D01*
X297180Y-16900841D02*
Y-16860840D01*
X1199200Y-16225520D02*
X1239200D01*
X1219200Y-16245520D02*
Y-16205521D01*
X938271Y-15883311D02*
X978271D01*
X958271Y-15903311D02*
Y-15863310D01*
X-479740Y-17523460D02*
X-439740D01*
X-459740Y-17543460D02*
Y-17503461D01*
X-695640Y-16144240D02*
X-655640D01*
X-675640Y-16164240D02*
Y-16124240D01*
X-748980Y-16367760D02*
X-708980D01*
X-728980Y-16387759D02*
Y-16347760D01*
X869000Y-15806419D02*
X909000D01*
X889000Y-15826421D02*
Y-15786420D01*
X658180Y-15600681D02*
X698180D01*
X678180Y-15620680D02*
Y-15580679D01*
X475499Y-15555161D02*
X515499D01*
X495499Y-15575162D02*
Y-15535161D01*
X663260Y-15770860D02*
X703260D01*
X683260Y-15790860D02*
Y-15750861D01*
X691200Y-15875000D02*
X731200D01*
X711200Y-15895000D02*
Y-15855000D01*
X1006160Y-15560040D02*
X1046160D01*
X1026160Y-15580040D02*
Y-15540041D01*
X912180Y-14008099D02*
X952180D01*
X932180Y-14028101D02*
Y-13988100D01*
X957900Y-13959840D02*
X997900D01*
X977900Y-13979840D02*
Y-13939841D01*
X841060Y-13713460D02*
X881060D01*
X861060Y-13733459D02*
Y-13693460D01*
X306927Y-14613353D02*
X346927D01*
X326927Y-14633353D02*
Y-14593353D01*
X355920Y-14556740D02*
X395920D01*
X375920Y-14576740D02*
Y-14536740D01*
X317820Y-13716000D02*
X357820D01*
X337820Y-13736000D02*
Y-13696001D01*
X396560Y-13822681D02*
X436560D01*
X416560Y-13842680D02*
Y-13802679D01*
X224160Y-13553439D02*
X304160D01*
X264160Y-13593440D02*
Y-13513440D01*
X3683320Y-16543021D02*
X3723320D01*
X3703320Y-16563020D02*
Y-16523019D01*
X5639120Y-14737080D02*
X5679120D01*
X5659120Y-14757080D02*
Y-14717081D01*
X5138740Y-16154401D02*
X5178740D01*
X5158740Y-16174400D02*
Y-16134399D01*
X5321620Y-17470120D02*
X5361620D01*
X5341620Y-17490120D02*
Y-17450121D01*
X5229000Y-15518040D02*
X5269000D01*
X5249000Y-15538040D02*
Y-15498039D01*
X5314000Y-15605760D02*
X5354000D01*
X5334000Y-15625760D02*
Y-15585760D01*
X5042220Y-15605760D02*
X5082220D01*
X5062220Y-15625760D02*
Y-15585760D01*
X-185100Y-15003780D02*
X-145100D01*
X-165100Y-15023779D02*
Y-14983780D01*
X-145620Y-15115540D02*
X-105620D01*
X-125620Y-15135539D02*
Y-15095540D01*
X1399860Y-15636240D02*
X1439860D01*
X1419860Y-15656239D02*
Y-15616240D01*
X1577660Y-15722600D02*
X1617660D01*
X1597660Y-15742599D02*
Y-15702600D01*
X1470980Y-15745461D02*
X1510980D01*
X1490980Y-15765460D02*
Y-15725459D01*
X1143320Y-15494000D02*
X1183320D01*
X1163320Y-15514000D02*
Y-15474001D01*
X-494980Y-17454880D02*
X-454980D01*
X-474980Y-17474879D02*
Y-17434880D01*
X-154620Y-18232120D02*
X-114620D01*
X-134620Y-18252119D02*
Y-18212120D01*
X4470720Y-17818100D02*
X4510720D01*
X4490720Y-17838100D02*
Y-17798100D01*
X4531680Y-17818100D02*
X4571680D01*
X4551680Y-17838100D02*
Y-17798100D01*
X4590100Y-17818100D02*
X4630100D01*
X4610100Y-17838100D02*
Y-17798100D01*
X3594420Y-13383260D02*
X3634420D01*
X3614420Y-13403259D02*
Y-13363260D01*
X3624900Y-13568680D02*
X3664900D01*
X3644900Y-13588680D02*
Y-13548680D01*
X3157540Y-13304520D02*
X3197540D01*
X3177540Y-13324519D02*
Y-13284520D01*
X4143060Y-13009880D02*
X4183060D01*
X4163060Y-13029880D02*
Y-12989880D01*
X4532000Y-13444220D02*
X4612000D01*
X4572000Y-13484219D02*
Y-13404221D01*
X-751520Y-17073880D02*
X-711520D01*
X-731520Y-17093880D02*
Y-17053880D01*
X1321120Y-16375380D02*
X1361120D01*
X1341120Y-16395380D02*
Y-16355380D01*
X1440500Y-16428720D02*
X1480500D01*
X1460500Y-16448720D02*
Y-16408720D01*
X1549720Y-16507460D02*
X1589720D01*
X1569720Y-16527460D02*
Y-16487460D01*
X2055180Y-17213580D02*
X2095180D01*
X2075180Y-17233580D02*
Y-17193581D01*
X2197420Y-17226280D02*
X2237420D01*
X2217420Y-17246280D02*
Y-17206281D01*
X2316800Y-17193260D02*
X2356800D01*
X2336800Y-17213260D02*
Y-17173260D01*
X2423480Y-16507460D02*
X2463480D01*
X2443480Y-16527460D02*
Y-16487460D01*
X18100Y-17048480D02*
X58100D01*
X38100Y-17068480D02*
Y-17028481D01*
X145100Y-17017999D02*
X185100D01*
X165100Y-17038000D02*
Y-16998000D01*
X-350200Y-17800320D02*
X-310200D01*
X-330200Y-17820320D02*
Y-17780321D01*
X630240Y-16644620D02*
X670240D01*
X650240Y-16664619D02*
Y-16624620D01*
X554040Y-16510001D02*
X594040D01*
X574040Y-16530000D02*
Y-16489999D01*
X673420Y-16337280D02*
X713420D01*
X693420Y-16357280D02*
Y-16317281D01*
X785180Y-16286481D02*
X825180D01*
X805180Y-16306480D02*
Y-16266479D01*
X861380Y-16375380D02*
X901380D01*
X881380Y-16395380D02*
Y-16355380D01*
X1036640Y-16222980D02*
X1076640D01*
X1056640Y-16242979D02*
Y-16202980D01*
X996000Y-16106140D02*
X1036000D01*
X1016000Y-16126140D02*
Y-16086140D01*
X876620Y-16062959D02*
X916620D01*
X896620Y-16082961D02*
Y-16042960D01*
X1829120Y-16286481D02*
X1869120D01*
X1849120Y-16306480D02*
Y-16266479D01*
X-317180Y-17091660D02*
X-277180D01*
X-297180Y-17111659D02*
Y-17071660D01*
X-144460Y-17068800D02*
X-104460D01*
X-124460Y-17088800D02*
Y-17048801D01*
X-729874Y-18161000D02*
X-689874D01*
X-709874Y-18181000D02*
Y-18141000D01*
X-834014Y-17274541D02*
X-794014D01*
X-814014Y-17294540D02*
Y-17254539D01*
X211747Y-15721992D02*
X251747D01*
X231747Y-15741994D02*
Y-15701993D01*
X2499680Y-18371820D02*
X2539680D01*
X2519680Y-18391820D02*
Y-18351820D01*
X2459040Y-18475960D02*
X2499040D01*
X2479040Y-18495959D02*
Y-18455960D01*
X1450660Y-17670779D02*
X1490660D01*
X1470660Y-17690781D02*
Y-17650780D01*
X8936360Y-14010640D02*
X9016360D01*
X8976360Y-14050639D02*
Y-13970641D01*
X7887340Y-13779500D02*
X7967340D01*
X7927340Y-13819501D02*
Y-13739500D01*
X8829680Y-17071339D02*
X8909680D01*
X8869680Y-17111340D02*
Y-17031340D01*
X6320160Y-16316960D02*
X6400160D01*
X6360160Y-16356960D02*
Y-16276961D01*
X8075220Y-16202660D02*
X8145220D01*
X8110220Y-16237660D02*
Y-16167661D01*
X7785660Y-15702280D02*
X7855660D01*
X7820660Y-15737280D02*
Y-15667281D01*
X7143120Y-15674339D02*
X7223120D01*
X7183120Y-15714340D02*
Y-15634340D01*
X7453000Y-16484599D02*
X7533000D01*
X7493000Y-16524600D02*
Y-16444600D01*
X6970400Y-16426180D02*
X7050400D01*
X7010400Y-16466180D02*
Y-16386180D01*
X7927980Y-16456660D02*
X8007980D01*
X7967980Y-16496660D02*
Y-16416660D01*
X-614360Y-16454120D02*
X-574360D01*
X-594360Y-16474120D02*
Y-16434120D01*
X-484820Y-16449040D02*
X-444820D01*
X-464820Y-16469040D02*
Y-16429041D01*
X-365440Y-16436340D02*
X-325440D01*
X-345440Y-16456340D02*
Y-16416341D01*
X2718120Y-16121381D02*
X2758120D01*
X2738120Y-16141380D02*
Y-16101379D01*
X2148540Y-13423900D02*
X2188540D01*
X2168540Y-13443900D02*
Y-13403900D01*
X2436180Y-13362939D02*
X2476180D01*
X2456180Y-13382941D02*
Y-13342940D01*
X2230440Y-13322301D02*
X2270440D01*
X2250440Y-13342300D02*
Y-13302299D01*
X2210120Y-13218159D02*
X2250120D01*
X2230120Y-13238161D02*
Y-13198160D01*
X1582106Y-13192126D02*
X1622106D01*
X1602106Y-13212126D02*
Y-13172125D01*
X1798640Y-13154660D02*
X1838640D01*
X1818640Y-13174660D02*
Y-13134660D01*
X2357440Y-13141960D02*
X2397440D01*
X2377440Y-13161960D02*
Y-13121960D01*
X2550480Y-13393420D02*
X2590480D01*
X2570480Y-13413420D02*
Y-13373421D01*
X2657160Y-13279120D02*
X2697160D01*
X2677160Y-13299120D02*
Y-13259120D01*
X1862140Y-13426440D02*
X1902140D01*
X1882140Y-13446440D02*
Y-13406441D01*
X1178880Y-13530580D02*
X1218880D01*
X1198880Y-13550580D02*
Y-13510580D01*
X1333820Y-13271500D02*
X1373820D01*
X1353820Y-13291499D02*
Y-13251500D01*
X2804480Y-13116560D02*
X2844480D01*
X2824480Y-13136560D02*
Y-13096561D01*
X759780Y-13642340D02*
X799780D01*
X779780Y-13662340D02*
Y-13622340D01*
X672910Y-13583409D02*
X712909D01*
X692909Y-13603409D02*
Y-13563409D01*
X2796860Y-13319760D02*
X2836860D01*
X2816860Y-13339760D02*
Y-13299760D01*
X2855280Y-13487399D02*
X2895280D01*
X2875280Y-13507401D02*
Y-13467400D01*
X2735900Y-13202921D02*
X2775900D01*
X2755900Y-13222920D02*
Y-13182919D01*
X160947Y-15569592D02*
X200947D01*
X180947Y-15589594D02*
Y-15549593D01*
X279720Y-15468600D02*
X319720D01*
X299720Y-15488600D02*
Y-15448599D01*
X294960Y-15595599D02*
X334960D01*
X314960Y-15615601D02*
Y-15575600D01*
X2116140Y-15238194D02*
X2156140D01*
X2136140Y-15258195D02*
Y-15218195D01*
X1610680Y-14744701D02*
X1650680D01*
X1630680Y-14764700D02*
Y-14724699D01*
X71440Y-15902940D02*
X111440D01*
X91440Y-15922940D02*
Y-15882941D01*
X71440Y-16062941D02*
X111440D01*
X91440Y-16082941D02*
Y-16042941D01*
X1048725Y-16912595D02*
X1088725D01*
X1068725Y-16932594D02*
Y-16892593D01*
X4506280Y-15562579D02*
X4546280D01*
X4526280Y-15582581D02*
Y-15542580D01*
%TF.MD5,4a152f556264f46c0b8a79fe6c978785*%
M02*
