%TF.GenerationSoftware,Altium Limited,Altium Designer,23.1.1 (15)*%
G04 Layer_Color=8388736*
%FSLAX45Y45*%
%MOMM*%
%TF.SameCoordinates,06D7CB19-584F-49B0-A036-24662F40C1B1*%
%TF.FilePolarity,Negative*%
%TF.FileFunction,Soldermask,Top*%
%TF.Part,Single*%
G01*
G75*
%TA.AperFunction,SMDPad,CuDef*%
G04:AMPARAMS|DCode=102|XSize=0.5032mm|YSize=2.0032mm|CornerRadius=0mm|HoleSize=0mm|Usage=FLASHONLY|Rotation=135.000|XOffset=0mm|YOffset=0mm|HoleType=Round|Shape=Round|*
%AMOVALD102*
21,1,1.50000,0.50320,0.00000,0.00000,225.0*
1,1,0.50320,0.53033,0.53033*
1,1,0.50320,-0.53033,-0.53033*
%
%ADD102OVALD102*%

G04:AMPARAMS|DCode=103|XSize=0.5032mm|YSize=2.0032mm|CornerRadius=0mm|HoleSize=0mm|Usage=FLASHONLY|Rotation=225.000|XOffset=0mm|YOffset=0mm|HoleType=Round|Shape=Round|*
%AMOVALD103*
21,1,1.50000,0.50320,0.00000,0.00000,315.0*
1,1,0.50320,-0.53033,0.53033*
1,1,0.50320,0.53033,-0.53033*
%
%ADD103OVALD103*%

G04:AMPARAMS|DCode=104|XSize=1.3032mm|YSize=1.2032mm|CornerRadius=0mm|HoleSize=0mm|Usage=FLASHONLY|Rotation=45.000|XOffset=0mm|YOffset=0mm|HoleType=Round|Shape=Rectangle|*
%AMROTATEDRECTD104*
4,1,4,-0.03535,-0.88615,-0.88615,-0.03535,0.03535,0.88615,0.88615,0.03535,-0.03535,-0.88615,0.0*
%
%ADD104ROTATEDRECTD104*%

%ADD105R,1.20320X1.30320*%
%ADD106R,1.30320X1.20320*%
%ADD107R,1.72720X1.72720*%
%ADD108R,2.20320X1.80320*%
%ADD109R,7.20320X2.70320*%
%ADD110P,2.44263X4X270.0*%
%ADD111R,1.11760X1.47320*%
%ADD112R,1.11760X1.11760*%
%ADD113R,1.21920X0.71120*%
%ADD114R,3.20320X10.20320*%
%ADD115R,3.20320X1.40320*%
%ADD116R,0.90320X3.00320*%
%ADD117R,1.40320X3.00320*%
%ADD118R,2.00320X2.70320*%
%ADD119R,1.40320X1.70320*%
%ADD120R,1.70320X3.20320*%
%ADD121R,1.90320X1.40320*%
%ADD122R,1.47320X1.11760*%
%ADD123R,1.11760X1.11760*%
%ADD124R,2.20320X1.50320*%
%ADD125R,1.50320X2.20320*%
G04:AMPARAMS|DCode=126|XSize=1.3032mm|YSize=1.2032mm|CornerRadius=0mm|HoleSize=0mm|Usage=FLASHONLY|Rotation=135.000|XOffset=0mm|YOffset=0mm|HoleType=Round|Shape=Rectangle|*
%AMROTATEDRECTD126*
4,1,4,0.88615,-0.03535,0.03535,-0.88615,-0.88615,0.03535,-0.03535,0.88615,0.88615,-0.03535,0.0*
%
%ADD126ROTATEDRECTD126*%

G04:AMPARAMS|DCode=127|XSize=0.7112mm|YSize=1.2192mm|CornerRadius=0mm|HoleSize=0mm|Usage=FLASHONLY|Rotation=135.000|XOffset=0mm|YOffset=0mm|HoleType=Round|Shape=Rectangle|*
%AMROTATEDRECTD127*
4,1,4,0.68250,0.17961,-0.17961,-0.68250,-0.68250,-0.17961,0.17961,0.68250,0.68250,0.17961,0.0*
%
%ADD127ROTATEDRECTD127*%

G04:AMPARAMS|DCode=128|XSize=1.8032mm|YSize=2.2032mm|CornerRadius=0mm|HoleSize=0mm|Usage=FLASHONLY|Rotation=225.000|XOffset=0mm|YOffset=0mm|HoleType=Round|Shape=Rectangle|*
%AMROTATEDRECTD128*
4,1,4,-0.14142,1.41648,1.41648,-0.14142,0.14142,-1.41648,-1.41648,0.14142,-0.14142,1.41648,0.0*
%
%ADD128ROTATEDRECTD128*%

%ADD129R,0.45720X2.20320*%
%ADD130R,2.20320X2.20320*%
%ADD131R,3.20320X2.40320*%
%ADD132O,0.81280X2.23520*%
%ADD133R,1.72720X1.72720*%
%ADD134R,6.20320X4.20320*%
%ADD135R,1.40320X2.70320*%
%ADD136R,1.40320X3.20320*%
%ADD137R,6.20320X2.20320*%
G04:AMPARAMS|DCode=138|XSize=0.6032mm|YSize=2.2032mm|CornerRadius=0mm|HoleSize=0mm|Usage=FLASHONLY|Rotation=135.000|XOffset=0mm|YOffset=0mm|HoleType=Round|Shape=Rectangle|*
%AMROTATEDRECTD138*
4,1,4,0.99221,0.56569,-0.56569,-0.99221,-0.99221,-0.56569,0.56569,0.99221,0.99221,0.56569,0.0*
%
%ADD138ROTATEDRECTD138*%

%ADD139P,2.44263X4X180.0*%
G04:AMPARAMS|DCode=140|XSize=0.8032mm|YSize=2.15318mm|CornerRadius=0mm|HoleSize=0mm|Usage=FLASHONLY|Rotation=225.000|XOffset=0mm|YOffset=0mm|HoleType=Round|Shape=Rectangle|*
%AMROTATEDRECTD140*
4,1,4,-0.47729,1.04524,1.04524,-0.47729,0.47729,-1.04524,-1.04524,0.47729,-0.47729,1.04524,0.0*
%
%ADD140ROTATEDRECTD140*%

G04:AMPARAMS|DCode=141|XSize=0.8032mm|YSize=2.15321mm|CornerRadius=0mm|HoleSize=0mm|Usage=FLASHONLY|Rotation=225.000|XOffset=0mm|YOffset=0mm|HoleType=Round|Shape=Rectangle|*
%AMROTATEDRECTD141*
4,1,4,-0.47730,1.04525,1.04525,-0.47730,0.47730,-1.04525,-1.04525,0.47730,-0.47730,1.04525,0.0*
%
%ADD141ROTATEDRECTD141*%

%ADD142R,0.71120X1.21920*%
%ADD143R,1.40320X1.80320*%
%ADD144R,1.80320X0.71120*%
%ADD145R,1.60320X1.40320*%
%ADD146R,2.40320X1.40320*%
%ADD147R,1.80320X0.90320*%
G04:AMPARAMS|DCode=148|XSize=1.1032mm|YSize=1.2032mm|CornerRadius=0mm|HoleSize=0mm|Usage=FLASHONLY|Rotation=45.000|XOffset=0mm|YOffset=0mm|HoleType=Round|Shape=Rectangle|*
%AMROTATEDRECTD148*
4,1,4,0.03535,-0.81544,-0.81544,0.03535,-0.03535,0.81544,0.81544,-0.03535,0.03535,-0.81544,0.0*
%
%ADD148ROTATEDRECTD148*%

%TA.AperFunction,ComponentPad*%
%ADD149C,1.10320*%
%ADD150C,1.40320*%
%ADD151C,1.20320*%
%TA.AperFunction,ViaPad*%
%ADD152C,3.40320*%
%TA.AperFunction,ComponentPad*%
%ADD153C,1.00320*%
%ADD154C,3.00320*%
%ADD155C,1.70320*%
%TA.AperFunction,ViaPad*%
%ADD156C,0.60320*%
%ADD157C,1.00320*%
%ADD158C,0.90320*%
%ADD159C,1.20320*%
%ADD160C,0.70320*%
D102*
X2309352Y-15657053D02*
D03*
X2061865Y-15409566D02*
D03*
X2097221Y-15444922D02*
D03*
X-31171Y-16300520D02*
D03*
X1248694Y-14596394D02*
D03*
X1284045Y-14631750D02*
D03*
X251673Y-16583366D02*
D03*
X2238643Y-15586343D02*
D03*
X782004Y-17113692D02*
D03*
X746648Y-17078340D02*
D03*
X2415417Y-15763118D02*
D03*
X322381Y-16654074D02*
D03*
X287029Y-16618716D02*
D03*
X110250Y-16441943D02*
D03*
X463803Y-16795496D02*
D03*
X923422Y-17255115D02*
D03*
X2344709Y-15692410D02*
D03*
X1177980Y-14525681D02*
D03*
X1885091Y-15232791D02*
D03*
X1531533Y-14879239D02*
D03*
X-278659Y-16053033D02*
D03*
X1955799Y-15303500D02*
D03*
X1849734Y-15197435D02*
D03*
X1814377Y-15162077D02*
D03*
X1779020Y-15126721D02*
D03*
X1743669Y-15091370D02*
D03*
X1708312Y-15056013D02*
D03*
X-137237Y-16194456D02*
D03*
X-101880Y-16229813D02*
D03*
X1672955Y-15020656D02*
D03*
X1637603Y-14985304D02*
D03*
X1602246Y-14949947D02*
D03*
X1496181Y-14843883D02*
D03*
X1460824Y-14808525D02*
D03*
X1425468Y-14773167D02*
D03*
X1390116Y-14737817D02*
D03*
X1354759Y-14702460D02*
D03*
X1319402Y-14667104D02*
D03*
X817356Y-17149049D02*
D03*
X852713Y-17184406D02*
D03*
X605225Y-16936919D02*
D03*
X499160Y-16830853D02*
D03*
X640582Y-16972270D02*
D03*
X1991156Y-15338857D02*
D03*
X428446Y-16760139D02*
D03*
X74894Y-16406586D02*
D03*
X888070Y-17219759D02*
D03*
X2380066Y-15727766D02*
D03*
X1920442Y-15268143D02*
D03*
X1566890Y-14914590D02*
D03*
X2203287Y-15550987D02*
D03*
X1213337Y-14561038D02*
D03*
X711291Y-17042982D02*
D03*
X-172594Y-16159099D02*
D03*
X-66529Y-16265164D02*
D03*
X-243302Y-16088390D02*
D03*
X-207945Y-16123743D02*
D03*
X-314016Y-16017677D02*
D03*
X4185Y-16335878D02*
D03*
X180959Y-16512653D02*
D03*
X2273995Y-15621696D02*
D03*
X2167930Y-15515631D02*
D03*
X2132578Y-15480280D02*
D03*
X2026508Y-15374210D02*
D03*
X39542Y-16371230D02*
D03*
X145607Y-16477299D02*
D03*
X216316Y-16548009D02*
D03*
X357738Y-16689432D02*
D03*
X393094Y-16724786D02*
D03*
X534517Y-16866205D02*
D03*
X569868Y-16901561D02*
D03*
X675934Y-17007626D02*
D03*
D103*
X287029Y-15162077D02*
D03*
X-172594Y-15621696D02*
D03*
X-137237Y-15586343D02*
D03*
X110250Y-15338857D02*
D03*
X74894Y-15374210D02*
D03*
X1920442Y-16512653D02*
D03*
X251673Y-15197435D02*
D03*
X-314016Y-15763118D02*
D03*
X145607Y-15303500D02*
D03*
X534517Y-14914590D02*
D03*
X1743669Y-16689432D02*
D03*
X2203287Y-16229813D02*
D03*
X2273995Y-16159097D02*
D03*
X1460824Y-16972270D02*
D03*
X1425468Y-17007626D02*
D03*
X-66528Y-15515631D02*
D03*
X1390116Y-17042982D02*
D03*
X-101880Y-15550987D02*
D03*
X2097221Y-16335878D02*
D03*
X923422Y-14525681D02*
D03*
X1496181Y-16936919D02*
D03*
X1531533Y-16901561D02*
D03*
X1566890Y-16866205D02*
D03*
X1602246Y-16830853D02*
D03*
X1637603Y-16795496D02*
D03*
X1672955Y-16760139D02*
D03*
X357738Y-15091370D02*
D03*
X322381Y-15126721D02*
D03*
X499160Y-14949947D02*
D03*
X463803Y-14985304D02*
D03*
X782004Y-14667104D02*
D03*
X746647Y-14702460D02*
D03*
X711291Y-14737817D02*
D03*
X216316Y-15232793D02*
D03*
X2061865Y-16371230D02*
D03*
X-278659Y-15727766D02*
D03*
X1708312Y-16724786D02*
D03*
X180959Y-15268144D02*
D03*
X569869Y-14879239D02*
D03*
X1955799Y-16477299D02*
D03*
X1991156Y-16441943D02*
D03*
X-243302Y-15692410D02*
D03*
X2026508Y-16406586D02*
D03*
X2380066Y-16053033D02*
D03*
X39542Y-15409566D02*
D03*
X4185Y-15444922D02*
D03*
X2132578Y-16300520D02*
D03*
X2167930Y-16265164D02*
D03*
X888070Y-14561038D02*
D03*
X1814377Y-16618716D02*
D03*
X1849734Y-16583365D02*
D03*
X1885091Y-16548009D02*
D03*
X-207945Y-15657053D02*
D03*
X2344709Y-16088390D02*
D03*
X2309352Y-16123743D02*
D03*
X2238643Y-16194456D02*
D03*
X1177980Y-17255115D02*
D03*
X1213337Y-17219757D02*
D03*
X1248694Y-17184406D02*
D03*
X1284045Y-17149049D02*
D03*
X1319402Y-17113692D02*
D03*
X1354759Y-17078340D02*
D03*
X1779020Y-16654074D02*
D03*
X2415417Y-16017677D02*
D03*
X852713Y-14596394D02*
D03*
X817356Y-14631750D02*
D03*
X675934Y-14773169D02*
D03*
X640582Y-14808525D02*
D03*
X605225Y-14843883D02*
D03*
X428446Y-15020656D02*
D03*
X393095Y-15056013D02*
D03*
X-31171Y-15480280D02*
D03*
D104*
X3289161Y-16644759D02*
D03*
X3159760Y-16774159D02*
D03*
X1579880Y-12029440D02*
D03*
X1709281Y-11900039D02*
D03*
X1450479Y-11900958D02*
D03*
X1579880Y-11771558D02*
D03*
X3981410Y-13446275D02*
D03*
X3852009Y-13575677D02*
D03*
X3720613Y-13715504D02*
D03*
X3591213Y-13844907D02*
D03*
X1907679Y-16845142D02*
D03*
X2037080Y-16715739D02*
D03*
X2786240Y-16146919D02*
D03*
X2656840Y-16276320D02*
D03*
X3164701Y-16520299D02*
D03*
X3035300Y-16649699D02*
D03*
X3035161Y-16395840D02*
D03*
X2905760Y-16525240D02*
D03*
X2681985Y-15352887D02*
D03*
X2552584Y-15482288D02*
D03*
X439420Y-17317720D02*
D03*
X568821Y-17188319D02*
D03*
X180340Y-14754860D02*
D03*
X50939Y-14884261D02*
D03*
X2910701Y-16268839D02*
D03*
X2781300Y-16398241D02*
D03*
D105*
X1477738Y-18133060D02*
D03*
Y-17950060D02*
D03*
X1303020Y-18255099D02*
D03*
Y-18072099D02*
D03*
X1125220Y-18133060D02*
D03*
Y-17950060D02*
D03*
X944880Y-18252440D02*
D03*
Y-18069440D02*
D03*
X767080Y-18133060D02*
D03*
Y-17950060D02*
D03*
X589280Y-18252560D02*
D03*
Y-18069560D02*
D03*
X5207000Y-13154660D02*
D03*
Y-12971660D02*
D03*
X5387340Y-12971780D02*
D03*
Y-13154781D02*
D03*
X5567680Y-12971660D02*
D03*
Y-13154660D02*
D03*
X6586220Y-12969240D02*
D03*
Y-12786240D02*
D03*
X6403340Y-12969240D02*
D03*
Y-12786240D02*
D03*
X6223000Y-12969240D02*
D03*
Y-12786240D02*
D03*
X3779520Y-11231880D02*
D03*
Y-11048880D02*
D03*
X3782060Y-11442700D02*
D03*
Y-11625700D02*
D03*
X3599180Y-11234420D02*
D03*
Y-11051420D02*
D03*
X4762500Y-11643240D02*
D03*
Y-11826240D02*
D03*
X8580120Y-14609959D02*
D03*
Y-14792960D02*
D03*
X8379460Y-14609959D02*
D03*
Y-14792960D02*
D03*
X8577580Y-14231500D02*
D03*
Y-14414500D02*
D03*
X8379460Y-14231500D02*
D03*
Y-14414500D02*
D03*
X-640080Y-15798680D02*
D03*
Y-15981680D02*
D03*
D106*
X6776720Y-12453620D02*
D03*
X6959720D02*
D03*
X6776720Y-12270740D02*
D03*
X6959720D02*
D03*
X6776720Y-12087860D02*
D03*
X6959720D02*
D03*
X3134480Y-14038579D02*
D03*
X2951479D02*
D03*
X3131940Y-14257021D02*
D03*
X2948940D02*
D03*
X6403340Y-12453620D02*
D03*
X6586340Y-12453620D02*
D03*
X6403340Y-12273280D02*
D03*
X6586340D02*
D03*
X6405760Y-12087860D02*
D03*
X6588760D02*
D03*
X5737860Y-11643360D02*
D03*
X5554860D02*
D03*
X5737980Y-11465560D02*
D03*
X5554980D02*
D03*
X5557520Y-11287760D02*
D03*
X5740520D02*
D03*
X5737980Y-11109960D02*
D03*
X5554980D02*
D03*
X5737860Y-10934700D02*
D03*
X5554860D02*
D03*
X5146040Y-11833860D02*
D03*
X4963040D02*
D03*
X5138420Y-11290300D02*
D03*
X4955420D02*
D03*
X5138420Y-11112500D02*
D03*
X4955420D02*
D03*
X5138420Y-10932160D02*
D03*
X4955420D02*
D03*
X5138420Y-10751820D02*
D03*
X4955420D02*
D03*
X5138420Y-10574020D02*
D03*
X4955420D02*
D03*
X3802380Y-11831320D02*
D03*
X3985380D02*
D03*
X4841240Y-12024360D02*
D03*
X4658240D02*
D03*
X4338320Y-11544300D02*
D03*
X4521320D02*
D03*
X4335780Y-11363960D02*
D03*
X4518780D02*
D03*
X4335780Y-11115040D02*
D03*
X4518780D02*
D03*
X4335660Y-10934700D02*
D03*
X4518660D02*
D03*
X4516240Y-10754360D02*
D03*
X4333240D02*
D03*
X266580Y-11468100D02*
D03*
X449580D02*
D03*
X2334260Y-10561320D02*
D03*
X2151260D02*
D03*
X7195820Y-14297659D02*
D03*
X7012820D02*
D03*
X7195820Y-14117320D02*
D03*
X7012820D02*
D03*
X8166100Y-14333220D02*
D03*
X7983100D02*
D03*
X7985760Y-14152879D02*
D03*
X8168760D02*
D03*
X7985760Y-13975079D02*
D03*
X8168760D02*
D03*
X4333120Y-10574020D02*
D03*
X4516120D02*
D03*
X2334260Y-10739120D02*
D03*
X2151260D02*
D03*
X1005105Y-10332720D02*
D03*
X822105D02*
D03*
X1777880Y-10561320D02*
D03*
X1960880D02*
D03*
X1777880Y-10739120D02*
D03*
X1960880D02*
D03*
X1777880Y-10914380D02*
D03*
X1960880D02*
D03*
X1777880Y-11089640D02*
D03*
X1960880D02*
D03*
X957580Y-14196060D02*
D03*
X1140580D02*
D03*
X960120Y-17581880D02*
D03*
X1143120D02*
D03*
D107*
X8989060Y-11457940D02*
D03*
Y-11800840D02*
D03*
X8684260Y-11452860D02*
D03*
Y-11795760D02*
D03*
X6957060Y-11661140D02*
D03*
Y-11318240D02*
D03*
X8023860Y-11320780D02*
D03*
Y-11663680D02*
D03*
X7713980Y-10701020D02*
D03*
Y-10358120D02*
D03*
X8986520Y-15331441D02*
D03*
Y-14988541D02*
D03*
X9499600Y-15331441D02*
D03*
Y-14988541D02*
D03*
X9799320Y-15331441D02*
D03*
Y-14988541D02*
D03*
X7957820Y-15864841D02*
D03*
Y-16207739D02*
D03*
X7010400Y-15862300D02*
D03*
Y-16205200D02*
D03*
X7406640Y-16736060D02*
D03*
Y-17078960D02*
D03*
X7660640Y-16736060D02*
D03*
Y-17078960D02*
D03*
X8064500Y-16733521D02*
D03*
Y-17076421D02*
D03*
X8366760Y-16736060D02*
D03*
Y-17078960D02*
D03*
X8671560Y-16736060D02*
D03*
Y-17078960D02*
D03*
X4109720Y-17414240D02*
D03*
Y-17071339D02*
D03*
X-472440Y-15453360D02*
D03*
Y-15110460D02*
D03*
X287021Y-12875259D02*
D03*
Y-12532360D02*
D03*
X-698499Y-12539980D02*
D03*
Y-12197080D02*
D03*
X3543300Y-16316960D02*
D03*
Y-16659860D02*
D03*
D108*
X9159240Y-12473940D02*
D03*
Y-12092940D02*
D03*
X5161280Y-12319000D02*
D03*
Y-12700000D02*
D03*
X599441Y-12893040D02*
D03*
X599441Y-12512040D02*
D03*
D109*
X9763760Y-12501880D02*
D03*
X9751060Y-11955780D02*
D03*
D110*
X1376680Y-14292580D02*
D03*
X1619147Y-14050113D02*
D03*
D111*
X3429000Y-14185899D02*
D03*
X4048760Y-11046880D02*
D03*
X7490459Y-16319501D02*
D03*
D112*
X3522980Y-14389101D02*
D03*
X3332480D02*
D03*
X4142740Y-11250080D02*
D03*
X3952240D02*
D03*
X7396479Y-16116299D02*
D03*
X7586979D02*
D03*
D113*
X6017260Y-12829539D02*
D03*
X5747258Y-12829539D02*
D03*
Y-13019542D02*
D03*
Y-12924541D02*
D03*
X6017260Y-13019542D02*
D03*
Y-12924541D02*
D03*
D114*
X7386320Y-12385040D02*
D03*
D115*
X8768080Y-12044680D02*
D03*
X8768080Y-12214860D02*
D03*
X8768080Y-12385040D02*
D03*
X8768080Y-12555220D02*
D03*
X8768080Y-12725400D02*
D03*
D116*
X7249580Y-10187940D02*
D03*
X7099580Y-10187940D02*
D03*
X6949580Y-10187940D02*
D03*
X6799580Y-10187940D02*
D03*
D117*
X7459980Y-9883140D02*
D03*
X6583680D02*
D03*
D118*
X6334760Y-10631170D02*
D03*
X5603240D02*
D03*
X6334760Y-9770110D02*
D03*
X5603240D02*
D03*
D119*
X5946140Y-11856720D02*
D03*
X5575300D02*
D03*
X-15239Y-13162280D02*
D03*
X-386079Y-13162280D02*
D03*
D120*
X5441950Y-12359640D02*
D03*
X6135370D02*
D03*
X681991Y-11971020D02*
D03*
X-11429D02*
D03*
D121*
X4709160Y-12466320D02*
D03*
Y-12720320D02*
D03*
D122*
X4947920Y-11554460D02*
D03*
X4150360Y-11513820D02*
D03*
X4465020Y-11852040D02*
D03*
D123*
X5151120Y-11460480D02*
D03*
Y-11650980D02*
D03*
X3947160Y-11607800D02*
D03*
Y-11417300D02*
D03*
X4261820Y-11946020D02*
D03*
Y-11755520D02*
D03*
D124*
X3535680Y-11831320D02*
D03*
Y-11460480D02*
D03*
D125*
X3751580Y-10744200D02*
D03*
X4122420D02*
D03*
D126*
X945019Y-11872099D02*
D03*
X1074420Y-12001500D02*
D03*
X1061859Y-11752719D02*
D03*
X1191260Y-11882120D02*
D03*
X1708362Y-11448048D02*
D03*
X1837762Y-11577449D02*
D03*
X1827723Y-11328687D02*
D03*
X1957124Y-11458087D02*
D03*
X2600821Y-17198201D02*
D03*
X2471420Y-17068800D02*
D03*
X2735580Y-17063721D02*
D03*
X2606179Y-16934319D02*
D03*
X2297330Y-15154774D02*
D03*
X2167930Y-15025374D02*
D03*
X40500Y-18044022D02*
D03*
X-88900Y-17914619D02*
D03*
X-116701Y-16596500D02*
D03*
X12700Y-16725900D02*
D03*
D127*
X1338160Y-11773320D02*
D03*
X1529080Y-11582400D02*
D03*
X1394728Y-11448048D02*
D03*
X1461904Y-11515224D02*
D03*
X1203808Y-11638969D02*
D03*
X1270984Y-11706144D02*
D03*
D128*
X1005840Y-11292840D02*
D03*
X1275248Y-11023432D02*
D03*
D129*
X4654017Y-10287000D02*
D03*
X4704014D02*
D03*
X4754016D02*
D03*
X4804014D02*
D03*
X4854016D02*
D03*
X4904014D02*
D03*
X4954016D02*
D03*
X5004013D02*
D03*
X5054016D02*
D03*
X5104013D02*
D03*
X2654021D02*
D03*
X2704023D02*
D03*
X2754020D02*
D03*
X2804018D02*
D03*
X4054018D02*
D03*
X4104015D02*
D03*
X4154018D02*
D03*
X4204015D02*
D03*
X4254017D02*
D03*
X4304015D02*
D03*
X4354017D02*
D03*
X4404015D02*
D03*
X4454017D02*
D03*
X4504014D02*
D03*
X4554017D02*
D03*
X4604014D02*
D03*
X2854020D02*
D03*
X2904018D02*
D03*
X3254019D02*
D03*
X3304017D02*
D03*
X3654019D02*
D03*
X3704016D02*
D03*
X3754019D02*
D03*
X3804016D02*
D03*
X3854018D02*
D03*
X3904015D02*
D03*
X3954018D02*
D03*
X4004015D02*
D03*
X3354019D02*
D03*
X3404017D02*
D03*
X3454019D02*
D03*
X3504017D02*
D03*
X3554019D02*
D03*
X3604016D02*
D03*
X2954020D02*
D03*
X3004017D02*
D03*
X3054020D02*
D03*
X3104017D02*
D03*
X3154020D02*
D03*
X3204017D02*
D03*
X3000858Y-12943840D02*
D03*
X2800858D02*
D03*
X3150855D02*
D03*
X3250855D02*
D03*
X3100858D02*
D03*
X3200858D02*
D03*
X1300861D02*
D03*
X1350864D02*
D03*
X3050855D02*
D03*
X2700858D02*
D03*
X2300859D02*
D03*
X1950857D02*
D03*
X1900860D02*
D03*
X2400859D02*
D03*
X2350857D02*
D03*
X1500861D02*
D03*
X1400861D02*
D03*
X1600860D02*
D03*
X1550858D02*
D03*
X1450859D02*
D03*
X2450856D02*
D03*
X2500859D02*
D03*
X2550856D02*
D03*
X2600859D02*
D03*
X2650856D02*
D03*
X2750856D02*
D03*
X2950856D02*
D03*
X2000860D02*
D03*
X2050857D02*
D03*
X2100860D02*
D03*
X2150857D02*
D03*
X2200859D02*
D03*
X2250857D02*
D03*
X2850856D02*
D03*
X1650858D02*
D03*
X1700860D02*
D03*
X1750858D02*
D03*
X1800860D02*
D03*
X1850858D02*
D03*
X2900858D02*
D03*
D130*
X5394020Y-10024501D02*
D03*
X2364024D02*
D03*
X1010864Y-12681341D02*
D03*
X3540862D02*
D03*
D131*
X2061160Y-10104120D02*
D03*
X925780Y-10104120D02*
D03*
D132*
X1743660Y-10332720D02*
D03*
X1643660D02*
D03*
X1543660D02*
D03*
X1443660D02*
D03*
X1343660D02*
D03*
X1243660D02*
D03*
X7449820Y-15504161D02*
D03*
X7703820Y-15504161D02*
D03*
X7195820D02*
D03*
X7830820D02*
D03*
X7068820D02*
D03*
X7957820D02*
D03*
X6941820D02*
D03*
X7322820D02*
D03*
X8084820Y-15504161D02*
D03*
X7576820Y-15504161D02*
D03*
X6941820Y-14538960D02*
D03*
X7068820D02*
D03*
X7830820D02*
D03*
X8084820Y-14538960D02*
D03*
X7322820Y-14538960D02*
D03*
X7703820D02*
D03*
X7576820D02*
D03*
X7449820Y-14538960D02*
D03*
X7957820Y-14538960D02*
D03*
X7195820D02*
D03*
D133*
X-533399Y-11569700D02*
D03*
X-190499D02*
D03*
X8272780Y-15862300D02*
D03*
X8615680D02*
D03*
X8272780Y-16164560D02*
D03*
X8615680Y-16164560D02*
D03*
X7315200Y-15864841D02*
D03*
X7658100D02*
D03*
X6703060Y-15859760D02*
D03*
X6360160D02*
D03*
X6703060Y-16164560D02*
D03*
X6360160D02*
D03*
X6362700Y-16469360D02*
D03*
X6705600D02*
D03*
X7099300Y-16784322D02*
D03*
X6756400Y-16784322D02*
D03*
X3462020Y-17391380D02*
D03*
X3804920D02*
D03*
X-46989Y-12865100D02*
D03*
X-389889D02*
D03*
X-38099Y-12545060D02*
D03*
X-380999D02*
D03*
X3462020Y-17086580D02*
D03*
X3804920D02*
D03*
D134*
X8232140Y-10843260D02*
D03*
D135*
X8460740Y-9954260D02*
D03*
X8003540D02*
D03*
D136*
X7274560Y-11615420D02*
D03*
X7706360D02*
D03*
D137*
X7490460Y-11043920D02*
D03*
D138*
X3435159Y-13674516D02*
D03*
X3480062Y-13719418D02*
D03*
X3686111Y-13154156D02*
D03*
X3345361Y-13584714D02*
D03*
X3255556Y-13494914D02*
D03*
X3300458Y-13539816D02*
D03*
X3210654Y-13450011D02*
D03*
X3775916Y-13243962D02*
D03*
X3596308Y-13064359D02*
D03*
X3641210Y-13109254D02*
D03*
X3731014Y-13199060D02*
D03*
X3551410Y-13019456D02*
D03*
X3865715Y-13333766D02*
D03*
X3390257Y-13629614D02*
D03*
X3820818Y-13288864D02*
D03*
X3165752Y-13405109D02*
D03*
D139*
X4272697Y-13341243D02*
D03*
X4030230Y-13098776D02*
D03*
D140*
X-50383Y-17326118D02*
D03*
X39420Y-17236317D02*
D03*
X523786Y-17720683D02*
D03*
X433983Y-17810486D02*
D03*
X-140185Y-17415923D02*
D03*
X344181Y-17900288D02*
D03*
X254378Y-17990091D02*
D03*
D141*
X-229988Y-17505724D02*
D03*
D142*
X-426719Y-12095480D02*
D03*
X-236717Y-12095480D02*
D03*
X-236717Y-11825478D02*
D03*
X-331718Y-12095480D02*
D03*
X-426719Y-11825478D02*
D03*
D143*
X496098Y-11188884D02*
D03*
D144*
X546100Y-9843883D02*
D03*
D145*
X486095Y-9728881D02*
D03*
D146*
X-463901Y-11278881D02*
D03*
X-463901Y-9728881D02*
D03*
D147*
X546100Y-10613884D02*
D03*
Y-10723881D02*
D03*
Y-9953880D02*
D03*
Y-10063882D02*
D03*
Y-10503881D02*
D03*
Y-10283882D02*
D03*
Y-10173884D02*
D03*
X546100Y-10393884D02*
D03*
D148*
X2352040Y-16408400D02*
D03*
X2222639Y-16537801D02*
D03*
D149*
X8937190Y-10006530D02*
D03*
X9296400Y-10365740D02*
D03*
X9484360Y-11074400D02*
D03*
X9843570Y-11433610D02*
D03*
X6459220Y-14450060D02*
D03*
Y-13942059D02*
D03*
X9438639Y-16880840D02*
D03*
Y-17388840D02*
D03*
X7652019Y-17521600D02*
D03*
X7754021Y-17775601D02*
D03*
X7958018D02*
D03*
X8060019Y-17521600D02*
D03*
X7856022D02*
D03*
X8264022D02*
D03*
X8366018Y-17775601D02*
D03*
X8162021Y-17775603D02*
D03*
X4843780Y-17495520D02*
D03*
Y-16987520D02*
D03*
X3391970Y-15159790D02*
D03*
X3032760Y-14800580D02*
D03*
X3212365Y-14980185D02*
D03*
X-279400Y-14020799D02*
D03*
Y-14528799D02*
D03*
Y-14274800D02*
D03*
D150*
X9773919Y-12992101D02*
D03*
Y-14490700D02*
D03*
D151*
X3925035Y-14208760D02*
D03*
X4648935D02*
D03*
X-503900Y-10808884D02*
D03*
X-503900Y-10008881D02*
D03*
D152*
X-368300Y-18176241D02*
D03*
X9931400Y-9972040D02*
D03*
X9880600Y-18346420D02*
D03*
D153*
X9806940Y-15633701D02*
D03*
Y-16395700D02*
D03*
X9552940Y-15633701D02*
D03*
Y-16395700D02*
D03*
X8986520Y-16398241D02*
D03*
X9240520D02*
D03*
Y-15636240D02*
D03*
X8986520D02*
D03*
X2514600Y-16649699D02*
D03*
X2194917Y-16965848D02*
D03*
X-106679Y-13568680D02*
D03*
X-360679D02*
D03*
D154*
X7272020Y-18008601D02*
D03*
X8772022D02*
D03*
D155*
X7273422Y-17648601D02*
D03*
X8772022D02*
D03*
D156*
X3874344Y-15088445D02*
D03*
X5245038Y-15078152D02*
D03*
X2065020Y-18277840D02*
D03*
X518160Y-16601440D02*
D03*
X352001Y-16355060D02*
D03*
X2443480Y-16913503D02*
D03*
X1669429Y-18079720D02*
D03*
X1508760Y-17800320D02*
D03*
X5325038Y-16841019D02*
D03*
X5346700Y-16959579D02*
D03*
X2078272Y-14034808D02*
D03*
X2220326Y-14174814D02*
D03*
X2154494Y-14099541D02*
D03*
X4126810Y-15155067D02*
D03*
X4047636Y-15093983D02*
D03*
X4206240Y-15077440D02*
D03*
X3972341Y-15159790D02*
D03*
X745361Y-15091269D02*
D03*
X469705Y-15287585D02*
D03*
X568557Y-15180812D02*
D03*
X822468Y-15155688D02*
D03*
X445793Y-15384685D02*
D03*
X1914798Y-13909290D02*
D03*
X1997329Y-13965758D02*
D03*
X4429712Y-14954498D02*
D03*
X5427668Y-14946841D02*
D03*
X2915920Y-16032480D02*
D03*
X5085039Y-16238220D02*
D03*
X4932680Y-16123988D02*
D03*
X4445000Y-16253461D02*
D03*
X4932307Y-16223988D02*
D03*
X4536355Y-16208060D02*
D03*
X2144599Y-15978799D02*
D03*
X3317240Y-16482060D02*
D03*
X3408680Y-16525240D02*
D03*
X1376680Y-16179800D02*
D03*
X1535965Y-16184145D02*
D03*
X4285040Y-16695419D02*
D03*
X4239260Y-16918941D02*
D03*
X4525039Y-16720821D02*
D03*
X4494228Y-16616702D02*
D03*
X5205608Y-15769469D02*
D03*
X5360994Y-15726210D02*
D03*
X798015Y-14901044D02*
D03*
X807720Y-15359380D02*
D03*
X2470125Y-14758646D02*
D03*
X909320Y-15369540D02*
D03*
X4405793Y-15756572D02*
D03*
X4157960Y-15758160D02*
D03*
X4057960D02*
D03*
X3983753Y-15690746D02*
D03*
X4242870Y-15692120D02*
D03*
X2466254Y-15051978D02*
D03*
X2415403Y-14955640D02*
D03*
X1973580Y-14739619D02*
D03*
X1884680Y-14669698D02*
D03*
X1779580Y-14740517D02*
D03*
X2422638Y-14847234D02*
D03*
X1849099Y-15478799D02*
D03*
X1889760Y-17274541D02*
D03*
X5245100Y-16228059D02*
D03*
X4927600Y-14770100D02*
D03*
X4976210Y-14910263D02*
D03*
X5098553Y-15004402D02*
D03*
X5250643Y-14910263D02*
D03*
X938095Y-14793140D02*
D03*
X900069Y-14927728D02*
D03*
X5532320Y-14955573D02*
D03*
X5665681Y-14946841D02*
D03*
X585618Y-15281458D02*
D03*
X5372100Y-16095979D02*
D03*
X2026508Y-16901561D02*
D03*
X1686560Y-17472659D02*
D03*
X1760220Y-17399001D02*
D03*
X1793906Y-17303036D02*
D03*
X1912755Y-17165320D02*
D03*
X3865880Y-16677640D02*
D03*
X3965041Y-16664940D02*
D03*
X4058075Y-16626627D02*
D03*
X3805041Y-16601559D02*
D03*
X965200Y-16936720D02*
D03*
X932511Y-16662428D02*
D03*
X832513Y-16661794D02*
D03*
X737577Y-16693422D02*
D03*
X172720Y-18224500D02*
D03*
X-228951Y-17989015D02*
D03*
X-27952Y-15726137D02*
D03*
X-69214Y-15862225D02*
D03*
X116233Y-15710507D02*
D03*
X7046416Y-12631750D02*
D03*
X6169259Y-12924541D02*
D03*
X6365240Y-12522200D02*
D03*
X5207000Y-9669780D02*
D03*
X5133340Y-9847580D02*
D03*
X4737050Y-9880575D02*
D03*
X2574658Y-10487722D02*
D03*
X2713013Y-10499257D02*
D03*
X2875280Y-10492740D02*
D03*
X2776220Y-10596880D02*
D03*
X5293360Y-11488420D02*
D03*
X4422140Y-9994900D02*
D03*
X2654021Y-10048332D02*
D03*
X2816860Y-10121900D02*
D03*
X3722046Y-12493876D02*
D03*
X3601720Y-12415520D02*
D03*
X40640Y-11595100D02*
D03*
X459740Y-11592560D02*
D03*
X774700Y-10510520D02*
D03*
X1234440Y-10134600D02*
D03*
X737664Y-10297758D02*
D03*
X2529840Y-10629900D02*
D03*
X3302000Y-11783060D02*
D03*
X3131820D02*
D03*
X3208020Y-11663680D02*
D03*
X3352320Y-11659335D02*
D03*
X1579880Y-11582968D02*
D03*
X1295400Y-11049000D02*
D03*
X1341120Y-11094720D02*
D03*
X4261820Y-12009520D02*
D03*
X4306458Y-11460480D02*
D03*
X4856480Y-11427460D02*
D03*
X4663440Y-11473180D02*
D03*
X4150360Y-11046880D02*
D03*
X2895675Y-9933940D02*
D03*
X5806440Y-10934700D02*
D03*
X5199380Y-10576560D02*
D03*
X4305300Y-10507980D02*
D03*
X4663440Y-12392660D02*
D03*
X4757420Y-12390120D02*
D03*
X6647180Y-11301530D02*
D03*
X3340100Y-13159740D02*
D03*
X3112343Y-13202921D02*
D03*
X6672580Y-11226800D02*
D03*
X6743700Y-11196320D02*
D03*
X6647180Y-11376660D02*
D03*
X1577366Y-12460236D02*
D03*
X8130540Y-11244580D02*
D03*
X9011584Y-11136095D02*
D03*
X9758680Y-11559540D02*
D03*
X9715500Y-11508740D02*
D03*
X9758680Y-11313160D02*
D03*
X9712960Y-11366500D02*
D03*
X8915400Y-11899900D02*
D03*
X8925560Y-11971020D02*
D03*
X9273540Y-12100560D02*
D03*
X9278620Y-12031980D02*
D03*
X9144000Y-11849100D02*
D03*
X9077960Y-11808460D02*
D03*
X4513580Y-11203940D02*
D03*
X4210742Y-11250080D02*
D03*
X5643880Y-15082520D02*
D03*
X5666740Y-14386560D02*
D03*
X4305300Y-10096500D02*
D03*
X2346960Y-11264900D02*
D03*
X2463800Y-11145520D02*
D03*
X2545877Y-11068809D02*
D03*
X2512060Y-10955020D02*
D03*
X3246120Y-10546080D02*
D03*
X2976880Y-10464800D02*
D03*
X4193540Y-10099040D02*
D03*
X4142740Y-10551160D02*
D03*
X4054018Y-10055860D02*
D03*
X4004015Y-10474960D02*
D03*
X3926840Y-10099040D02*
D03*
X3812540Y-10055860D02*
D03*
Y-10551160D02*
D03*
X3704016Y-10099040D02*
D03*
X3672840Y-10474960D02*
D03*
X3581400Y-10055860D02*
D03*
X3517900Y-10474960D02*
D03*
X3406140Y-10050780D02*
D03*
X3373103Y-10478523D02*
D03*
X3304540Y-10099040D02*
D03*
X3202940Y-10050780D02*
D03*
X3124200Y-10457180D02*
D03*
X3103880Y-10099040D02*
D03*
X2099858Y-11733730D02*
D03*
X2115820Y-11617960D02*
D03*
Y-11498580D02*
D03*
X2232660D02*
D03*
Y-11386820D02*
D03*
X2344420Y-11381740D02*
D03*
X2466340Y-11259820D02*
D03*
X2595468Y-10866120D02*
D03*
X2545877Y-10752922D02*
D03*
X2646138Y-10596880D02*
D03*
X2708603Y-12565380D02*
D03*
X2190900Y-12639040D02*
D03*
X2019300Y-13431520D02*
D03*
X1953260Y-13266110D02*
D03*
X2313940Y-13423900D02*
D03*
X1577366Y-12593023D02*
D03*
X2852420Y-12717780D02*
D03*
X2324100Y-12565380D02*
D03*
X1927860D02*
D03*
X-500380Y-16616679D02*
D03*
X-617519Y-16818739D02*
D03*
X-825500Y-16936720D02*
D03*
X-650240Y-16992599D02*
D03*
X-243302Y-16367760D02*
D03*
X1184710Y-10380549D02*
D03*
X1262380Y-10619740D02*
D03*
X-45720Y-10213340D02*
D03*
X10160Y-10097666D02*
D03*
X-45720Y-10383520D02*
D03*
X-171075Y-15379370D02*
D03*
X1705538Y-14669698D02*
D03*
X66647Y-16823027D02*
D03*
X210820Y-16164560D02*
D03*
X304800Y-16243300D02*
D03*
X368300Y-16027400D02*
D03*
X443196Y-16107443D02*
D03*
X1425547Y-16712593D02*
D03*
X2006600Y-16004539D02*
D03*
X2012551Y-16691211D02*
D03*
X-678180Y-15684500D02*
D03*
X-386080Y-16769080D02*
D03*
X-513080Y-16929100D02*
D03*
X-510540Y-17272000D02*
D03*
X-350520Y-17327879D02*
D03*
X279400Y-17023080D02*
D03*
X297180Y-16880840D02*
D03*
X1219200Y-16225520D02*
D03*
X958271Y-15883311D02*
D03*
X-459740Y-17523460D02*
D03*
X-675640Y-16144240D02*
D03*
X-728980Y-16367760D02*
D03*
X889000Y-15806419D02*
D03*
X678180Y-15600681D02*
D03*
X495499Y-15555161D02*
D03*
X683260Y-15770860D02*
D03*
X711200Y-15875000D02*
D03*
X1026160Y-15560040D02*
D03*
X932180Y-14008099D02*
D03*
X977900Y-13959840D02*
D03*
X861060Y-13713460D02*
D03*
X326927Y-14613353D02*
D03*
X375920Y-14556740D02*
D03*
X337820Y-13716000D02*
D03*
X416560Y-13822681D02*
D03*
X3703320Y-16543021D02*
D03*
X5659120Y-14737080D02*
D03*
X5158740Y-16154401D02*
D03*
X5341620Y-17470120D02*
D03*
X5249000Y-15518040D02*
D03*
X5334000Y-15605760D02*
D03*
X5062220D02*
D03*
X-165100Y-15003780D02*
D03*
X-125620Y-15115540D02*
D03*
X1419860Y-15636240D02*
D03*
X1597660Y-15722600D02*
D03*
X1490980Y-15745461D02*
D03*
X1163320Y-15494000D02*
D03*
X-474980Y-17454880D02*
D03*
X-134620Y-18232120D02*
D03*
X4490720Y-17818100D02*
D03*
X4551680D02*
D03*
X4610100D02*
D03*
X3614420Y-13383260D02*
D03*
X3644900Y-13568680D02*
D03*
X3177540Y-13304520D02*
D03*
X4163060Y-13009880D02*
D03*
X-731520Y-17073880D02*
D03*
X1341120Y-16375380D02*
D03*
X1460500Y-16428720D02*
D03*
X1569720Y-16507460D02*
D03*
X2075180Y-17213580D02*
D03*
X2217420Y-17226280D02*
D03*
X2336800Y-17193260D02*
D03*
X2443480Y-16507460D02*
D03*
X38100Y-17048480D02*
D03*
X165100Y-17017999D02*
D03*
X-330200Y-17800320D02*
D03*
X650240Y-16644620D02*
D03*
X574040Y-16510001D02*
D03*
X693420Y-16337280D02*
D03*
X805180Y-16286481D02*
D03*
X881380Y-16375380D02*
D03*
X1056640Y-16222980D02*
D03*
X1016000Y-16106140D02*
D03*
X896620Y-16062959D02*
D03*
X1849120Y-16286481D02*
D03*
X-297180Y-17091660D02*
D03*
X-124460Y-17068800D02*
D03*
X-709874Y-18161000D02*
D03*
X-814014Y-17274541D02*
D03*
X231747Y-15721992D02*
D03*
X2519680Y-18371820D02*
D03*
X2479040Y-18475960D02*
D03*
X1470660Y-17670779D02*
D03*
X-594360Y-16454120D02*
D03*
X-464820Y-16449040D02*
D03*
X-345440Y-16436340D02*
D03*
X2738120Y-16121381D02*
D03*
X2168540Y-13423900D02*
D03*
X2456180Y-13362939D02*
D03*
X2250440Y-13322301D02*
D03*
X2230120Y-13218159D02*
D03*
X1602106Y-13192126D02*
D03*
X1818640Y-13154660D02*
D03*
X2377440Y-13141960D02*
D03*
X2570480Y-13393420D02*
D03*
X2677160Y-13279120D02*
D03*
X1882140Y-13426440D02*
D03*
X1198880Y-13530580D02*
D03*
X1353820Y-13271500D02*
D03*
X2824480Y-13116560D02*
D03*
X779780Y-13642340D02*
D03*
X692909Y-13583409D02*
D03*
X2816860Y-13319760D02*
D03*
X2875280Y-13487399D02*
D03*
X2755900Y-13202921D02*
D03*
X180947Y-15569592D02*
D03*
X299720Y-15468600D02*
D03*
X314960Y-15595599D02*
D03*
X2136140Y-15238194D02*
D03*
X1630680Y-14744701D02*
D03*
X91440Y-15902940D02*
D03*
Y-16062941D02*
D03*
X1068725Y-16912595D02*
D03*
X4526280Y-15562579D02*
D03*
D157*
X3992880Y-13695680D02*
D03*
X8158480Y-12776200D02*
D03*
X8854440Y-13662660D02*
D03*
X8900160Y-13134340D02*
D03*
X3052980Y-12537707D02*
D03*
X6847840Y-11877040D02*
D03*
X9618980Y-12880341D02*
D03*
X8354060Y-13157201D02*
D03*
X4777740Y-13101320D02*
D03*
X9662160Y-14607539D02*
D03*
X9690100Y-14330679D02*
D03*
X264160Y-13553439D02*
D03*
X4572000Y-13444220D02*
D03*
X8976360Y-14010640D02*
D03*
X7927340Y-13779500D02*
D03*
X8869680Y-17071339D02*
D03*
X6360160Y-16316960D02*
D03*
X7183120Y-15674339D02*
D03*
X7493000Y-16484599D02*
D03*
X7010400Y-16426180D02*
D03*
X7967980Y-16456660D02*
D03*
D158*
X5240020Y-12054840D02*
D03*
X4870232Y-12185432D02*
D03*
X6090920Y-11864340D02*
D03*
X4496870Y-12283440D02*
D03*
X46772Y-12098020D02*
D03*
X5859780Y-10271760D02*
D03*
X6012180Y-11330940D02*
D03*
X2110740Y-10383520D02*
D03*
X1626670Y-11309057D02*
D03*
X1256301Y-12175601D02*
D03*
X1136450Y-11953240D02*
D03*
X7216140Y-10866120D02*
D03*
X7031455Y-10728960D02*
D03*
X6860540D02*
D03*
X6875185Y-10539790D02*
D03*
X6715760Y-10507980D02*
D03*
X8548625Y-11681460D02*
D03*
X9006840Y-12275820D02*
D03*
X8742680Y-13896974D02*
D03*
X7232849Y-13800232D02*
D03*
X7782124Y-13566141D02*
D03*
X8110220Y-16202660D02*
D03*
X7820660Y-15702280D02*
D03*
D159*
X4968240Y-13413741D02*
D03*
X5598160Y-10655300D02*
D03*
X6334760Y-10631170D02*
D03*
X6817360Y-12867641D02*
D03*
X7317740Y-10680700D02*
D03*
X6756400Y-11320780D02*
D03*
X8171180Y-11130280D02*
D03*
X8910320Y-11209020D02*
D03*
X9077960Y-11948160D02*
D03*
D160*
X2570329Y-10289540D02*
D03*
X2430780Y-10236200D02*
D03*
X3934460Y-12616180D02*
D03*
X2334260Y-10530840D02*
D03*
X1469533Y-10176653D02*
D03*
X1717040Y-10739120D02*
D03*
Y-10561320D02*
D03*
X-373380Y-11079480D02*
D03*
X-299720Y-10936170D02*
D03*
X342900Y-9961924D02*
D03*
X157480Y-10264564D02*
D03*
X342900Y-10386060D02*
D03*
X668020Y-10060940D02*
D03*
X342900Y-10556240D02*
D03*
Y-10726420D02*
D03*
%TF.MD5,36d206b627a9b822bbd7dcbb1dbcefed*%
M02*
