%TF.GenerationSoftware,Altium Limited,Altium Designer,23.1.1 (15)*%
G04 Layer_Color=128*
%FSLAX45Y45*%
%MOMM*%
%TF.SameCoordinates,06D7CB19-584F-49B0-A036-24662F40C1B1*%
%TF.FilePolarity,Positive*%
%TF.FileFunction,Paste,Bot*%
%TF.Part,Single*%
G01*
G75*
%TA.AperFunction,SMDPad,CuDef*%
%ADD28R,1.00000X1.10000*%
%ADD29R,1.10000X1.00000*%
%ADD94R,0.45000X2.00000*%
G04:AMPARAMS|DCode=95|XSize=3mm|YSize=1.5mm|CornerRadius=0mm|HoleSize=0mm|Usage=FLASHONLY|Rotation=135.000|XOffset=0mm|YOffset=0mm|HoleType=Round|Shape=Rectangle|*
%AMROTATEDRECTD95*
4,1,4,1.59099,-0.53033,0.53033,-1.59099,-1.59099,0.53033,-0.53033,1.59099,1.59099,-0.53033,0.0*
%
%ADD95ROTATEDRECTD95*%

D28*
X3550920Y-16601559D02*
D03*
Y-16418559D02*
D03*
X5816600Y-15108040D02*
D03*
Y-14925040D02*
D03*
D29*
X2849019Y-9972040D02*
D03*
X2666019D02*
D03*
X342900Y-10040620D02*
D03*
X159900D02*
D03*
X342900Y-10213340D02*
D03*
X159900D02*
D03*
X342900Y-10386060D02*
D03*
X159900D02*
D03*
X342900Y-10556240D02*
D03*
X159900D02*
D03*
X342900Y-10726420D02*
D03*
X159900D02*
D03*
X4709040Y-15085060D02*
D03*
X4892040D02*
D03*
X4973440Y-16695419D02*
D03*
X4790440D02*
D03*
X5415280Y-16690340D02*
D03*
X5232280D02*
D03*
X5623560Y-16687801D02*
D03*
X5806560D02*
D03*
D94*
X5405038Y-15319919D02*
D03*
X4925039D02*
D03*
X5645037Y-16419922D02*
D03*
X5805037D02*
D03*
X5165038D02*
D03*
X4765039Y-16419920D02*
D03*
X3725041Y-16419922D02*
D03*
X4045041D02*
D03*
X3965041D02*
D03*
X3885041D02*
D03*
X3805041D02*
D03*
Y-15319919D02*
D03*
X3885041D02*
D03*
X3965041Y-15319919D02*
D03*
X4045041Y-15319919D02*
D03*
X4125041D02*
D03*
X4205041D02*
D03*
X4125041Y-16419922D02*
D03*
X4285040Y-15319919D02*
D03*
X4285040Y-16419922D02*
D03*
X4205040D02*
D03*
X5725037D02*
D03*
X5565038D02*
D03*
X5485038D02*
D03*
X5325038D02*
D03*
X5245039D02*
D03*
X5085039D02*
D03*
X5005039D02*
D03*
X4845039D02*
D03*
Y-15319919D02*
D03*
X5005039D02*
D03*
X5085038D02*
D03*
X5245038D02*
D03*
X5325038D02*
D03*
X5485038D02*
D03*
X5565038Y-15319919D02*
D03*
X5725037Y-15319919D02*
D03*
X4685039Y-16419922D02*
D03*
X4605040Y-15319919D02*
D03*
X4445040D02*
D03*
X4525040D02*
D03*
X4525039Y-16419922D02*
D03*
X4365040D02*
D03*
X4445040D02*
D03*
X4605040D02*
D03*
X4925039D02*
D03*
X5405038D02*
D03*
X5645037Y-15319919D02*
D03*
X5165038D02*
D03*
X5805037D02*
D03*
X4765039D02*
D03*
X3725041D02*
D03*
X4365040D02*
D03*
X4685039D02*
D03*
D95*
X1271321Y-11121339D02*
D03*
X780999Y-11611661D02*
D03*
%TF.MD5,e3322d8281c695e5c9757c333eba4609*%
M02*
