%TF.GenerationSoftware,Altium Limited,Altium Designer,23.1.1 (15)*%
G04 Layer_Color=255*
%FSLAX45Y45*%
%MOMM*%
%TF.SameCoordinates,06D7CB19-584F-49B0-A036-24662F40C1B1*%
%TF.FilePolarity,Positive*%
%TF.FileFunction,Pads,Bot*%
%TF.Part,Single*%
G01*
G75*
%TA.AperFunction,SMDPad,CuDef*%
%ADD28R,1.00000X1.10000*%
%ADD29R,1.10000X1.00000*%
%TA.AperFunction,ComponentPad*%
%ADD72C,2.50000*%
%ADD73O,2.50000X3.00000*%
%TA.AperFunction,ViaPad*%
%ADD74C,3.00000*%
%TA.AperFunction,ComponentPad*%
%ADD75C,1.80000*%
%ADD76R,1.80000X2.30000*%
%ADD77O,1.80000X2.30000*%
%ADD78C,2.90000*%
%ADD79O,1.40000X2.20000*%
%ADD80O,2.20000X3.00000*%
%ADD81C,1.60000*%
G04:AMPARAMS|DCode=82|XSize=1.6mm|YSize=1.9mm|CornerRadius=0mm|HoleSize=0mm|Usage=FLASHONLY|Rotation=315.000|XOffset=0mm|YOffset=0mm|HoleType=Round|Shape=Round|*
%AMOVALD82*
21,1,0.30000,1.60000,0.00000,0.00000,45.0*
1,1,1.60000,-0.10607,-0.10607*
1,1,1.60000,0.10607,0.10607*
%
%ADD82OVALD82*%

%ADD83O,1.90000X1.60000*%
%ADD84O,1.50000X2.00000*%
%ADD85C,1.20000*%
%TA.AperFunction,SMDPad,CuDef*%
%ADD94R,0.45000X2.00000*%
G04:AMPARAMS|DCode=95|XSize=3mm|YSize=1.5mm|CornerRadius=0mm|HoleSize=0mm|Usage=FLASHONLY|Rotation=135.000|XOffset=0mm|YOffset=0mm|HoleType=Round|Shape=Rectangle|*
%AMROTATEDRECTD95*
4,1,4,1.59099,-0.53033,0.53033,-1.59099,-1.59099,0.53033,-0.53033,1.59099,1.59099,-0.53033,0.0*
%
%ADD95ROTATEDRECTD95*%

D28*
X3550920Y-16601559D02*
D03*
Y-16418559D02*
D03*
X5816600Y-15108040D02*
D03*
Y-14925040D02*
D03*
D29*
X2849019Y-9972040D02*
D03*
X2666019D02*
D03*
X342900Y-10040620D02*
D03*
X159900D02*
D03*
X342900Y-10213340D02*
D03*
X159900D02*
D03*
X342900Y-10386060D02*
D03*
X159900D02*
D03*
X342900Y-10556240D02*
D03*
X159900D02*
D03*
X342900Y-10726420D02*
D03*
X159900D02*
D03*
X4709040Y-15085060D02*
D03*
X4892040D02*
D03*
X4973440Y-16695419D02*
D03*
X4790440D02*
D03*
X5415280Y-16690340D02*
D03*
X5232280D02*
D03*
X5623560Y-16687801D02*
D03*
X5806560D02*
D03*
D72*
X8937190Y-10006530D02*
D03*
X9296400Y-10365740D02*
D03*
X9484360Y-11074400D02*
D03*
X9843570Y-11433610D02*
D03*
X3925035Y-14208760D02*
D03*
X4648935D02*
D03*
X9438639Y-16880840D02*
D03*
Y-17388840D02*
D03*
D73*
X9773919Y-12992101D02*
D03*
Y-14490700D02*
D03*
D74*
X-368300Y-18176241D02*
D03*
X9931400Y-9972040D02*
D03*
X9880600Y-18346420D02*
D03*
D75*
X6459220Y-14450060D02*
D03*
Y-13942059D02*
D03*
X4843780Y-17495520D02*
D03*
Y-16987520D02*
D03*
D76*
X9806940Y-15633701D02*
D03*
X8986520Y-16398241D02*
D03*
D77*
X9806940Y-16395700D02*
D03*
X9552940Y-15633701D02*
D03*
Y-16395700D02*
D03*
X9240520Y-16398241D02*
D03*
Y-15636240D02*
D03*
X8986520D02*
D03*
D78*
X7272020Y-18008601D02*
D03*
X8772022D02*
D03*
D79*
X7652019Y-17521600D02*
D03*
X7754021Y-17775601D02*
D03*
X7958018D02*
D03*
X8060019Y-17521600D02*
D03*
X7856022D02*
D03*
X8264022D02*
D03*
X8366018Y-17775601D02*
D03*
X8162021Y-17775603D02*
D03*
D80*
X7273422Y-17648601D02*
D03*
X8772022D02*
D03*
D81*
X2514600Y-16649699D02*
D03*
X2194917Y-16965848D02*
D03*
X-279400Y-14528799D02*
D03*
D82*
X3391970Y-15159790D02*
D03*
X3032760Y-14800580D02*
D03*
X3212365Y-14980185D02*
D03*
D83*
X-279400Y-14020799D02*
D03*
Y-14274800D02*
D03*
D84*
X-106679Y-13568680D02*
D03*
X-360679D02*
D03*
D85*
X-503900Y-10808884D02*
D03*
X-503900Y-10008881D02*
D03*
D94*
X5405038Y-15319919D02*
D03*
X4925039D02*
D03*
X5645037Y-16419922D02*
D03*
X5805037D02*
D03*
X5165038D02*
D03*
X4765039Y-16419920D02*
D03*
X3725041Y-16419922D02*
D03*
X4045041D02*
D03*
X3965041D02*
D03*
X3885041D02*
D03*
X3805041D02*
D03*
Y-15319919D02*
D03*
X3885041D02*
D03*
X3965041Y-15319919D02*
D03*
X4045041Y-15319919D02*
D03*
X4125041D02*
D03*
X4205041D02*
D03*
X4125041Y-16419922D02*
D03*
X4285040Y-15319919D02*
D03*
X4285040Y-16419922D02*
D03*
X4205040D02*
D03*
X5725037D02*
D03*
X5565038D02*
D03*
X5485038D02*
D03*
X5325038D02*
D03*
X5245039D02*
D03*
X5085039D02*
D03*
X5005039D02*
D03*
X4845039D02*
D03*
Y-15319919D02*
D03*
X5005039D02*
D03*
X5085038D02*
D03*
X5245038D02*
D03*
X5325038D02*
D03*
X5485038D02*
D03*
X5565038Y-15319919D02*
D03*
X5725037Y-15319919D02*
D03*
X4685039Y-16419922D02*
D03*
X4605040Y-15319919D02*
D03*
X4445040D02*
D03*
X4525040D02*
D03*
X4525039Y-16419922D02*
D03*
X4365040D02*
D03*
X4445040D02*
D03*
X4605040D02*
D03*
X4925039D02*
D03*
X5405038D02*
D03*
X5645037Y-15319919D02*
D03*
X5165038D02*
D03*
X5805037D02*
D03*
X4765039D02*
D03*
X3725041D02*
D03*
X4365040D02*
D03*
X4685039D02*
D03*
D95*
X1271321Y-11121339D02*
D03*
X780999Y-11611661D02*
D03*
%TF.MD5,f22d3118da5714d4158728b003d106f4*%
M02*
